<?xml version="1.0" encoding="utf-8"?>
<!-- Generator: Adobe Illustrator 21.0.0, SVG Export Plug-In . SVG Version: 6.00 Build 0)  -->
<svg version="1.1" id="Layer_1" xmlns="http://www.w3.org/2000/svg" xmlns:xlink="http://www.w3.org/1999/xlink" x="0px" y="0px"
	 viewBox="0 0 300 165.8" style="enable-background:new 0 0 300 165.8;" xml:space="preserve">
<style type="text/css">
	.st0{fill:#DE0029;}
	.st1{fill:#C80122;}
	.st2{fill:#012B43;}
	.st3{enable-background:new    ;}
	.st4{fill:#FFFFFF;}
	.st5{fill:#CD132E;}
	.st6{fill:#1592D1;}
	.st7{opacity:0.5;fill:#86949B;enable-background:new    ;}
	.st8{fill:#E34130;}
</style>
<polygon class="st0" points="107.9,0 157.7,122.6 265.7,165.8 300,165.8 300,0 "/>
<polygon class="st1" points="157.7,122.6 300,0 97.6,0 "/>
<polygon class="st2" points="97.6,165.8 157.7,122.6 265.7,165.8 "/>
<g class="st3">
	<path class="st4" d="M140.4,34.2h6.3l6.8,18.3l6.8-18.3h6.2L156,60.4H151L140.4,34.2z"/>
</g>
<g class="st3">
	<path class="st4" d="M170,34.2h5.7v26H170V34.2z"/>
</g>
<g class="st3">
	<path class="st4" d="M184.6,36.4c0-1.7,1.3-3,3.1-3s3.1,1.3,3.1,3c0,1.7-1.3,3-3.1,3S184.6,38.1,184.6,36.4z M189.5,36.4
		c0-1-0.7-1.8-1.8-1.8s-1.7,0.8-1.7,1.8c0,1,0.7,1.8,1.8,1.8C188.8,38.3,189.5,37.5,189.5,36.4z"/>
	<path class="st4" d="M195.3,36H194v3.4h-1.3V36h-1.3v-1.1h3.9V36z"/>
	<path class="st4" d="M196,34.9h1.3v1.8l1.6-1.8h1.5l-1.6,1.8l1.8,2.6H199l-1.2-1.7l-0.6,0.6v1.1H196V34.9z"/>
	<path class="st4" d="M201.1,34.9h1.3v0.6c0.3-0.4,0.7-0.7,1.4-0.7c1,0,2,0.8,2,2.3c0,1.5-1,2.3-2,2.3c-0.7,0-1.1-0.3-1.4-0.7v1.9
		h-1.3V34.9z M204.5,37.1c0-0.7-0.5-1.2-1.1-1.2c-0.6,0-1.1,0.5-1.1,1.2c0,0.7,0.5,1.2,1.1,1.2C204,38.4,204.5,37.9,204.5,37.1z"/>
	<path class="st4" d="M206.7,34.9h1.3v1.5h0.9c1,0,1.8,0.5,1.8,1.5c0,0.9-0.6,1.5-1.7,1.5h-2.2V34.9z M208,37.3v1h0.8
		c0.4,0,0.6-0.2,0.6-0.5c0-0.3-0.2-0.5-0.6-0.5H208z M211.2,34.9h1.3v4.5h-1.3V34.9z"/>
	<path class="st4" d="M217.1,36h-1.3v3.4h-1.3V36h-1.3v-1.1h3.9V36z"/>
	<path class="st4" d="M217.8,34.9h1.3v1.5h0.9c1,0,1.8,0.5,1.8,1.5c0,0.9-0.6,1.5-1.7,1.5h-2.2V34.9z M219.1,37.3v1h0.8
		c0.4,0,0.6-0.2,0.6-0.5c0-0.3-0.2-0.5-0.6-0.5H219.1z M222.4,34.9h1.3v4.5h-1.3V34.9z"/>
	<path class="st4" d="M228.9,39.4h-1.2v-2.6l-1.7,2.6h-1.2v-4.5h1.2v2.6l1.7-2.6h1.2V39.4z M225.5,33.2l0.7-0.1
		c0.1,0.3,0.3,0.6,0.7,0.6c0.3,0,0.5-0.2,0.7-0.6l0.7,0.1c-0.1,0.8-0.6,1.3-1.4,1.3C226.1,34.5,225.6,34,225.5,33.2z"/>
	<path class="st4" d="M233.7,36.3c0,0.5,0.2,0.7,0.6,0.7c0.3,0,0.6-0.1,0.9-0.2v-1.9h1.3v4.5h-1.3v-1.6c-0.3,0.1-0.8,0.3-1.2,0.3
		c-0.9,0-1.6-0.5-1.6-1.4v-1.8h1.3V36.3z"/>
	<path class="st4" d="M237.4,37.1c0-1.3,0.9-2.3,2.2-2.3c1.5,0,2.2,1.2,2.2,2.4c0,0.1,0,0.2,0,0.3h-3.1c0.1,0.6,0.5,0.9,1.1,0.9
		c0.4,0,0.7-0.1,1.1-0.5l0.7,0.6c-0.4,0.5-1,0.8-1.8,0.8C238.3,39.5,237.4,38.5,237.4,37.1z M240.5,36.8c-0.1-0.6-0.4-0.9-0.9-0.9
		c-0.5,0-0.9,0.4-1,0.9H240.5z"/>
	<path class="st4" d="M242.7,34.9h1.3l1.2,1.9l1.2-1.9h1.3v4.5h-1.3v-2.7l-1.2,1.8l-1.2-1.8v2.7h-1.2V34.9z"/>
	<path class="st4" d="M252.8,39.4h-1.3V36h-1.5v3.4h-1.3v-4.5h4V39.4z"/>
	<path class="st4" d="M258.1,39.4h-1.2v-2.6l-1.7,2.6H254v-4.5h1.2v2.6l1.7-2.6h1.2V39.4z"/>
	<path class="st4" d="M259,37.1c0-1.3,1-2.3,2.4-2.3c1.4,0,2.4,1,2.4,2.3c0,1.3-1,2.3-2.4,2.3C260.1,39.5,259,38.4,259,37.1z
		 M262.6,37.1c0-0.7-0.5-1.2-1.2-1.2c-0.7,0-1.2,0.6-1.2,1.2c0,0.7,0.5,1.2,1.2,1.2C262.2,38.4,262.6,37.8,262.6,37.1z"/>
	<path class="st4" d="M268.9,39.4h-1.3v-1.7H266v1.7h-1.3v-4.5h1.3v1.7h1.6v-1.7h1.3V39.4z"/>
	<path class="st4" d="M269.7,38.1c0-1,0.7-1.4,1.8-1.4c0.4,0,0.8,0.1,1.1,0.2v-0.1c0-0.5-0.3-0.8-1-0.8c-0.5,0-0.8,0.1-1.2,0.2
		l-0.3-1c0.5-0.2,1-0.4,1.7-0.4c0.7,0,1.2,0.2,1.5,0.5c0.3,0.3,0.5,0.8,0.5,1.4v2.6h-1.2v-0.5c-0.3,0.3-0.7,0.6-1.3,0.6
		C270.4,39.4,269.7,39,269.7,38.1z M272.6,37.8v-0.2c-0.2-0.1-0.5-0.2-0.8-0.2c-0.5,0-0.9,0.2-0.9,0.6c0,0.3,0.3,0.5,0.7,0.5
		C272.2,38.6,272.6,38.2,272.6,37.8z"/>
	<path class="st4" d="M278.3,36H277v3.4h-1.3V36h-1.3v-1.1h3.9V36z"/>
</g>
<g class="st3">
	<path class="st4" d="M188.8,49.3h-1.3V46H186v3.4h-1.3v-4.5h4V49.3z"/>
	<path class="st4" d="M189.9,44.9h1.3v0.6c0.3-0.4,0.7-0.7,1.4-0.7c1,0,2,0.8,2,2.3c0,1.5-1,2.3-2,2.3c-0.7,0-1.1-0.3-1.4-0.7v1.9
		h-1.3V44.9z M193.4,47.1c0-0.7-0.5-1.2-1.1-1.2c-0.6,0-1.1,0.5-1.1,1.2c0,0.7,0.5,1.2,1.1,1.2C192.9,48.3,193.4,47.9,193.4,47.1z"
		/>
	<path class="st4" d="M195.3,47.1c0-1.3,1-2.3,2.4-2.3c1.4,0,2.4,1,2.4,2.3c0,1.3-1,2.3-2.4,2.3C196.4,49.4,195.3,48.4,195.3,47.1z
		 M198.9,47.1c0-0.7-0.5-1.2-1.2-1.2c-0.7,0-1.2,0.6-1.2,1.2c0,0.7,0.5,1.2,1.2,1.2C198.5,48.3,198.9,47.8,198.9,47.1z"/>
	<path class="st4" d="M203.6,50.7V49c-0.2,0.2-0.5,0.4-0.9,0.4c-1.1,0-1.8-0.8-1.8-2.3c0-1.4,0.7-2.3,1.8-2.3c0.4,0,0.8,0.2,0.9,0.4
		v-1.7h1.3v1.7c0.2-0.2,0.5-0.4,0.9-0.4c1.1,0,1.8,0.8,1.8,2.3c0,1.4-0.7,2.3-1.8,2.3c-0.4,0-0.8-0.2-0.9-0.4v1.6H203.6z
		 M202.1,47.1c0,0.8,0.3,1.2,0.9,1.2c0.2,0,0.4-0.1,0.5-0.2v-2c-0.2-0.1-0.3-0.2-0.5-0.2C202.5,45.9,202.1,46.4,202.1,47.1z
		 M204.9,46.1v2c0.2,0.1,0.3,0.2,0.5,0.2c0.6,0,0.9-0.5,0.9-1.2c0-0.7-0.3-1.2-0.9-1.2C205.2,45.9,205.1,46,204.9,46.1z"/>
	<path class="st4" d="M208.4,47.1c0-1.3,0.9-2.3,2.2-2.3c1.5,0,2.2,1.2,2.2,2.4c0,0.1,0,0.2,0,0.3h-3.1c0.1,0.6,0.5,0.9,1.1,0.9
		c0.4,0,0.7-0.1,1.1-0.5l0.7,0.6c-0.4,0.5-1,0.8-1.8,0.8C209.4,49.4,208.4,48.5,208.4,47.1z M211.5,46.8c-0.1-0.6-0.4-0.9-0.9-0.9
		c-0.5,0-0.9,0.4-1,0.9H211.5z"/>
	<path class="st4" d="M213.5,47.1c0-1.3,1-2.3,2.3-2.3c0.8,0,1.4,0.3,1.8,0.8l-0.7,0.7c-0.3-0.3-0.5-0.4-1-0.4
		c-0.6,0-1.1,0.6-1.1,1.2c0,0.7,0.4,1.2,1.1,1.2c0.4,0,0.7-0.2,1-0.5l0.7,0.7c-0.4,0.5-0.9,0.8-1.8,0.8
		C214.4,49.4,213.5,48.4,213.5,47.1z"/>
	<path class="st4" d="M218,47.1c0-1.3,1-2.3,2.3-2.3c0.8,0,1.4,0.3,1.8,0.8l-0.7,0.7c-0.3-0.3-0.5-0.4-1-0.4c-0.6,0-1.1,0.6-1.1,1.2
		c0,0.7,0.4,1.2,1.1,1.2c0.4,0,0.7-0.2,1-0.5l0.7,0.7c-0.4,0.5-0.9,0.8-1.8,0.8C219,49.4,218,48.4,218,47.1z"/>
	<path class="st4" d="M227.2,49.3h-1.2v-2.6l-1.7,2.6H223v-4.5h1.2v2.6l1.7-2.6h1.2V49.3z"/>
	<path class="st4" d="M228.1,47.1c0-1.3,1-2.3,2.4-2.3c1.4,0,2.4,1,2.4,2.3c0,1.3-1,2.3-2.4,2.3C229.1,49.4,228.1,48.4,228.1,47.1z
		 M231.6,47.1c0-0.7-0.5-1.2-1.2-1.2c-0.7,0-1.2,0.6-1.2,1.2c0,0.7,0.5,1.2,1.2,1.2C231.2,48.3,231.6,47.8,231.6,47.1z"/>
	<path class="st4" d="M237.9,49.3h-1.3v-1.7h-1.6v1.7h-1.3v-4.5h1.3v1.7h1.6v-1.7h1.3V49.3z"/>
	<path class="st4" d="M238.8,48c0-1,0.7-1.4,1.8-1.4c0.4,0,0.8,0.1,1.1,0.2v-0.1c0-0.5-0.3-0.8-1-0.8c-0.5,0-0.8,0.1-1.2,0.2l-0.3-1
		c0.5-0.2,1-0.4,1.7-0.4c0.7,0,1.2,0.2,1.5,0.5c0.3,0.3,0.5,0.8,0.5,1.4v2.6h-1.2v-0.5c-0.3,0.3-0.7,0.6-1.3,0.6
		C239.5,49.4,238.8,48.9,238.8,48z M241.7,47.8v-0.2c-0.2-0.1-0.5-0.2-0.8-0.2c-0.5,0-0.9,0.2-0.9,0.6c0,0.3,0.3,0.5,0.7,0.5
		C241.3,48.5,241.7,48.2,241.7,47.8z"/>
	<path class="st4" d="M248.1,44.9v4.5h-1.3V46h-1.1c0,3-0.5,3.4-1.6,3.4c-0.2,0-0.5,0-0.6-0.1l0.1-1c0,0,0.2,0,0.3,0
		c0.5,0,0.7-0.3,0.7-3.4H248.1z"/>
	<path class="st4" d="M249.2,44.9h1.3v1.5h0.9c1,0,1.8,0.5,1.8,1.5c0,0.9-0.6,1.5-1.7,1.5h-2.2V44.9z M250.5,47.3v1h0.8
		c0.4,0,0.6-0.2,0.6-0.5c0-0.3-0.2-0.5-0.6-0.5H250.5z"/>
	<path class="st4" d="M258,49.3h-1.3v-1.7h-1.6v1.7h-1.3v-4.5h1.3v1.7h1.6v-1.7h1.3V49.3z"/>
	<path class="st4" d="M258.9,47.1c0-1.3,1-2.3,2.4-2.3c1.4,0,2.4,1,2.4,2.3c0,1.3-1,2.3-2.4,2.3C259.9,49.4,258.9,48.4,258.9,47.1z
		 M262.5,47.1c0-0.7-0.5-1.2-1.2-1.2c-0.7,0-1.2,0.6-1.2,1.2c0,0.7,0.5,1.2,1.2,1.2C262,48.3,262.5,47.8,262.5,47.1z"/>
	<path class="st4" d="M265.9,46v3.4h-1.3v-4.5h3.3V46H265.9z"/>
	<path class="st4" d="M268.2,47.1c0-1.3,1-2.3,2.4-2.3c1.4,0,2.4,1,2.4,2.3c0,1.3-1,2.3-2.4,2.3C269.2,49.4,268.2,48.4,268.2,47.1z
		 M271.7,47.1c0-0.7-0.5-1.2-1.2-1.2c-0.7,0-1.2,0.6-1.2,1.2c0,0.7,0.5,1.2,1.2,1.2C271.3,48.3,271.7,47.8,271.7,47.1z"/>
</g>
<g class="st3">
	<path class="st4" d="M184.8,54.8h1.3l1.2,1.9l1.2-1.9h1.3v4.5h-1.3v-2.7l-1.2,1.8l-1.2-1.8v2.7h-1.2V54.8z"/>
	<path class="st4" d="M190.6,58c0-1,0.7-1.4,1.8-1.4c0.4,0,0.8,0.1,1.1,0.2v-0.1c0-0.5-0.3-0.8-1-0.8c-0.5,0-0.8,0.1-1.2,0.2l-0.3-1
		c0.5-0.2,1-0.4,1.7-0.4c0.7,0,1.2,0.2,1.5,0.5c0.3,0.3,0.5,0.8,0.5,1.4v2.6h-1.2v-0.5c-0.3,0.3-0.7,0.6-1.3,0.6
		C191.3,59.4,190.6,58.9,190.6,58z M193.5,57.7v-0.2c-0.2-0.1-0.5-0.2-0.8-0.2c-0.5,0-0.9,0.2-0.9,0.6c0,0.3,0.3,0.5,0.7,0.5
		C193.1,58.5,193.5,58.2,193.5,57.7z"/>
	<path class="st4" d="M195.6,57.1c0-1.3,1-2.3,2.3-2.3c0.8,0,1.4,0.3,1.8,0.8l-0.7,0.7c-0.3-0.3-0.5-0.4-1-0.4
		c-0.6,0-1.1,0.6-1.1,1.2c0,0.7,0.4,1.2,1.1,1.2c0.4,0,0.7-0.2,1-0.5l0.7,0.7c-0.4,0.5-0.9,0.8-1.8,0.8
		C196.6,59.4,195.6,58.4,195.6,57.1z"/>
	<path class="st4" d="M204,55.9h-1.3v3.4h-1.3v-3.4h-1.3v-1.1h3.9V55.9z"/>
	<path class="st4" d="M204.3,57.1c0-1.3,0.9-2.3,2.2-2.3c1.5,0,2.2,1.2,2.2,2.4c0,0.1,0,0.2,0,0.3h-3.1c0.1,0.6,0.5,0.9,1.1,0.9
		c0.4,0,0.7-0.1,1.1-0.5l0.7,0.6c-0.4,0.5-1,0.8-1.8,0.8C205.3,59.4,204.3,58.5,204.3,57.1z M207.5,56.7c-0.1-0.6-0.4-0.9-0.9-0.9
		c-0.5,0-0.9,0.4-1,0.9H207.5z"/>
	<path class="st4" d="M209.7,54.8h1.3v0.6c0.3-0.4,0.7-0.7,1.4-0.7c1,0,2,0.8,2,2.3c0,1.5-1,2.3-2,2.3c-0.7,0-1.1-0.3-1.4-0.7v1.9
		h-1.3V54.8z M213.1,57.1c0-0.7-0.5-1.2-1.1-1.2c-0.6,0-1.1,0.5-1.1,1.2c0,0.7,0.5,1.2,1.1,1.2C212.6,58.3,213.1,57.8,213.1,57.1z"
		/>
	<path class="st4" d="M215.1,57.1c0-1.3,1-2.3,2.3-2.3c0.8,0,1.4,0.3,1.8,0.8l-0.7,0.7c-0.3-0.3-0.5-0.4-1-0.4
		c-0.6,0-1.1,0.6-1.1,1.2c0,0.7,0.4,1.2,1.1,1.2c0.4,0,0.7-0.2,1-0.5l0.7,0.7c-0.4,0.5-0.9,0.8-1.8,0.8
		C216,59.4,215.1,58.4,215.1,57.1z"/>
	<path class="st4" d="M223.5,55.9h-1.3v3.4h-1.3v-3.4h-1.3v-1.1h3.9V55.9z"/>
	<path class="st4" d="M226.6,54.8c0.9,0,1.5,0.4,1.5,1.1c0,0.5-0.3,0.8-0.7,1c0.5,0.2,0.9,0.5,0.9,1.1c0,0.8-0.6,1.2-1.7,1.2h-2.4
		v-4.5H226.6z M226.3,56.6c0.4,0,0.5-0.2,0.5-0.4c0-0.2-0.1-0.4-0.5-0.4h-0.9v0.9H226.3z M226.4,58.3c0.4,0,0.6-0.2,0.6-0.4
		c0-0.2-0.2-0.4-0.6-0.4h-1v0.9H226.4z"/>
	<path class="st4" d="M228.9,58c0-1,0.7-1.4,1.8-1.4c0.4,0,0.8,0.1,1.1,0.2v-0.1c0-0.5-0.3-0.8-1-0.8c-0.5,0-0.8,0.1-1.2,0.2l-0.3-1
		c0.5-0.2,1-0.4,1.7-0.4c0.7,0,1.2,0.2,1.5,0.5c0.3,0.3,0.5,0.8,0.5,1.4v2.6h-1.2v-0.5c-0.3,0.3-0.7,0.6-1.3,0.6
		C229.6,59.4,228.9,58.9,228.9,58z M231.8,57.7v-0.2c-0.2-0.1-0.5-0.2-0.8-0.2c-0.5,0-0.9,0.2-0.9,0.6c0,0.3,0.3,0.5,0.7,0.5
		C231.4,58.5,231.8,58.2,231.8,57.7z"/>
</g>
<g class="st3">
	<path class="st4" d="M158.1,80.2h2.9v3.3h-0.5v-2.9h-1.9v2.9h-0.5V80.2z"/>
	<path class="st4" d="M161.9,81.9c0-0.9,0.7-1.7,1.7-1.7c1,0,1.7,0.8,1.7,1.7c0,0.9-0.7,1.7-1.8,1.7
		C162.7,83.6,161.9,82.8,161.9,81.9z M164.9,81.9c0-0.7-0.5-1.3-1.2-1.3c-0.7,0-1.2,0.6-1.2,1.3s0.5,1.3,1.2,1.3
		C164.4,83.2,164.9,82.6,164.9,81.9z"/>
	<path class="st4" d="M168.1,81.9c0-0.9,0.7-1.7,1.7-1.7c0.6,0,1,0.3,1.3,0.6l-0.3,0.3c-0.3-0.3-0.6-0.5-1-0.5
		c-0.7,0-1.2,0.6-1.2,1.3c0,0.7,0.5,1.3,1.2,1.3c0.4,0,0.7-0.2,1-0.5l0.3,0.3c-0.3,0.4-0.7,0.6-1.4,0.6
		C168.8,83.6,168.1,82.8,168.1,81.9z"/>
	<path class="st4" d="M172.8,80.6h-1.2v-0.4h2.9v0.4h-1.2v2.9h-0.5V80.6z"/>
	<path class="st4" d="M174.8,82.5c0-0.7,0.6-1.1,1.4-1.1c0.4,0,0.7,0.1,1,0.1v-0.1c0-0.6-0.4-0.9-1-0.9c-0.4,0-0.7,0.1-1,0.2
		l-0.1-0.4c0.4-0.2,0.7-0.3,1.2-0.3c0.5,0,0.8,0.1,1.1,0.4c0.2,0.2,0.3,0.6,0.3,1v2h-0.5V83c-0.2,0.3-0.6,0.6-1.2,0.6
		C175.4,83.6,174.8,83.2,174.8,82.5z M177.3,82.3V82c-0.2-0.1-0.6-0.1-1-0.1c-0.6,0-1,0.3-1,0.7c0,0.4,0.4,0.7,0.8,0.7
		C176.8,83.2,177.3,82.8,177.3,82.3z"/>
	<path class="st4" d="M178.8,80.2h0.5v1.4h1.9v-1.4h0.5v3.3h-0.5v-1.5h-1.9v1.5h-0.5V80.2z"/>
	<path class="st4" d="M182.3,83.1h0.4c0.3-0.5,0.4-1.2,0.4-2.3v-0.6h2.4v2.9h0.5l-0.1,1.3h-0.4v-0.8h-2.7l-0.1,0.8h-0.4V83.1z
		 M185,83.1v-2.5h-1.4v0.5c0,0.8-0.2,1.6-0.4,2H185z"/>
	<path class="st4" d="M186.5,82.5c0-0.7,0.6-1.1,1.4-1.1c0.4,0,0.7,0.1,1,0.1v-0.1c0-0.6-0.4-0.9-1-0.9c-0.4,0-0.7,0.1-1,0.2
		l-0.1-0.4c0.4-0.2,0.7-0.3,1.2-0.3c0.5,0,0.8,0.1,1.1,0.4c0.2,0.2,0.3,0.6,0.3,1v2h-0.5V83c-0.2,0.3-0.6,0.6-1.2,0.6
		C187.1,83.6,186.5,83.2,186.5,82.5z M188.9,82.3V82c-0.2-0.1-0.6-0.1-1-0.1c-0.6,0-1,0.3-1,0.7c0,0.4,0.4,0.7,0.8,0.7
		C188.4,83.2,188.9,82.8,188.9,82.3z"/>
	<path class="st4" d="M190.5,80.2h0.5v0.7c0.3-0.4,0.7-0.7,1.3-0.7c0.8,0,1.6,0.6,1.6,1.7c0,1.1-0.8,1.7-1.6,1.7
		c-0.6,0-1-0.3-1.3-0.7v1.7h-0.5V80.2z M193.3,81.9c0-0.8-0.5-1.3-1.2-1.3c-0.6,0-1.2,0.5-1.2,1.3s0.6,1.3,1.2,1.3
		C192.8,83.2,193.3,82.7,193.3,81.9z"/>
	<path class="st4" d="M195.4,80.6h-1.2v-0.4h2.9v0.4h-1.2v2.9h-0.5V80.6z"/>
	<path class="st4" d="M197.5,82.5c0-0.7,0.6-1.1,1.4-1.1c0.4,0,0.7,0.1,1,0.1v-0.1c0-0.6-0.4-0.9-1-0.9c-0.4,0-0.7,0.1-1,0.2
		l-0.1-0.4c0.4-0.2,0.7-0.3,1.2-0.3c0.5,0,0.8,0.1,1.1,0.4c0.2,0.2,0.3,0.6,0.3,1v2h-0.5V83c-0.2,0.3-0.6,0.6-1.2,0.6
		C198.1,83.6,197.5,83.2,197.5,82.5z M199.9,82.3V82c-0.2-0.1-0.6-0.1-1-0.1c-0.6,0-1,0.3-1,0.7c0,0.4,0.4,0.7,0.8,0.7
		C199.4,83.2,199.9,82.8,199.9,82.3z"/>
	<path class="st4" d="M201.5,80.2h0.5l1.2,1.8l1.2-1.8h0.5v3.3h-0.5V81l-1.2,1.7l-1.2-1.7v2.5h-0.5V80.2z"/>
</g>
<g class="st3">
	<path class="st4" d="M161.8,86.7h0.6l1.3,3.8l1.2-3.8h0.4l1.2,3.8l1.3-3.8h0.5l-1.6,4.6h-0.4l-1.2-3.7l-1.2,3.7h-0.4L161.8,86.7z"
		/>
	<path class="st4" d="M168.5,89.6c0-0.9,0.7-1.7,1.7-1.7c1,0,1.7,0.8,1.7,1.7c0,0.9-0.7,1.7-1.8,1.7
		C169.3,91.3,168.5,90.6,168.5,89.6z M171.5,89.6c0-0.7-0.5-1.3-1.2-1.3c-0.7,0-1.2,0.6-1.2,1.3s0.5,1.3,1.2,1.3
		C171,90.9,171.5,90.3,171.5,89.6z"/>
	<path class="st4" d="M172.9,87.9h0.5v0.9c0.2-0.6,0.7-1,1.4-0.9v0.5h0c-0.7,0-1.3,0.5-1.3,1.5v1.3h-0.5V87.9z"/>
	<path class="st4" d="M175.6,86.6h0.5v4.7h-0.5V86.6z"/>
	<path class="st4" d="M177.1,89.6c0-1.1,0.8-1.7,1.6-1.7c0.6,0,1,0.3,1.3,0.7v-2h0.5v4.7h-0.5v-0.7c-0.3,0.4-0.7,0.7-1.3,0.7
		C177.8,91.3,177.1,90.7,177.1,89.6z M179.9,89.6c0-0.8-0.6-1.3-1.2-1.3c-0.6,0-1.2,0.5-1.2,1.3c0,0.8,0.5,1.3,1.2,1.3
		C179.4,90.9,179.9,90.4,179.9,89.6z"/>
	<path class="st4" d="M181.3,90.6l0.3-0.4c0.5,0.4,0.9,0.6,1.6,0.6c0.6,0,1-0.3,1-0.8c0-0.4-0.2-0.7-1.2-0.9c-1-0.2-1.5-0.6-1.5-1.3
		c0-0.7,0.6-1.2,1.5-1.2c0.7,0,1.1,0.2,1.6,0.6l-0.3,0.4c-0.4-0.3-0.8-0.5-1.3-0.5c-0.6,0-1,0.3-1,0.7c0,0.4,0.2,0.7,1.2,0.9
		c1,0.2,1.5,0.6,1.5,1.3c0,0.8-0.6,1.3-1.5,1.3C182.5,91.3,181.9,91.1,181.3,90.6z"/>
	<path class="st4" d="M185.7,86.6h0.5v3.3l1.8-1.9h0.6l-1.4,1.4l1.4,1.9H188l-1.2-1.6l-0.7,0.7v0.9h-0.5V86.6z"/>
	<path class="st4" d="M189.4,86.7h0.6v0.5h-0.6V86.7z M189.4,87.9h0.5v3.3h-0.5V87.9z"/>
	<path class="st4" d="M191.1,86.6h0.5v4.7h-0.5V86.6z"/>
	<path class="st4" d="M192.8,86.6h0.5v4.7h-0.5V86.6z"/>
	<path class="st4" d="M194.2,90.8l0.3-0.4c0.4,0.3,0.8,0.4,1.2,0.4c0.4,0,0.7-0.2,0.7-0.5c0-0.3-0.4-0.5-0.8-0.6
		c-0.5-0.1-1.1-0.3-1.1-1c0-0.6,0.5-1,1.1-1c0.4,0,0.9,0.1,1.2,0.4l-0.2,0.4c-0.3-0.2-0.7-0.3-1-0.3c-0.4,0-0.6,0.2-0.6,0.5
		c0,0.3,0.4,0.4,0.9,0.6c0.5,0.2,1.1,0.4,1.1,1c0,0.6-0.5,1-1.2,1C195.1,91.3,194.5,91.1,194.2,90.8z"/>
	<path class="st4" d="M199.7,86.7h1.9c0.6,0,1,0.2,1.3,0.5c0.2,0.2,0.3,0.5,0.3,0.9c0,0.7-0.5,1.2-1.2,1.3l1.4,1.8h-0.6l-1.3-1.8
		h-1.3v1.8h-0.5V86.7z M201.6,89.1c0.7,0,1.2-0.3,1.2-0.9c0-0.6-0.4-0.9-1.2-0.9h-1.4v1.8H201.6z"/>
	<path class="st4" d="M204.2,90v-2.1h0.5v2c0,0.6,0.3,1,0.9,1c0.6,0,1-0.4,1-1v-1.9h0.5v3.3h-0.5v-0.6c-0.2,0.4-0.6,0.7-1.1,0.7
		C204.7,91.3,204.2,90.8,204.2,90z"/>
	<path class="st4" d="M208,90.8l0.3-0.4c0.4,0.3,0.8,0.4,1.2,0.4c0.4,0,0.7-0.2,0.7-0.5c0-0.3-0.4-0.5-0.8-0.6
		c-0.5-0.1-1.1-0.3-1.1-1c0-0.6,0.5-1,1.1-1c0.4,0,0.9,0.1,1.2,0.4l-0.2,0.4c-0.3-0.2-0.7-0.3-1-0.3c-0.4,0-0.6,0.2-0.6,0.5
		c0,0.3,0.4,0.4,0.9,0.6c0.5,0.2,1.1,0.4,1.1,1c0,0.6-0.5,1-1.2,1C208.9,91.3,208.4,91.1,208,90.8z"/>
	<path class="st4" d="M211.1,90.8l0.3-0.4c0.4,0.3,0.8,0.4,1.2,0.4c0.4,0,0.7-0.2,0.7-0.5c0-0.3-0.4-0.5-0.8-0.6
		c-0.5-0.1-1.1-0.3-1.1-1c0-0.6,0.5-1,1.1-1c0.4,0,0.9,0.1,1.2,0.4l-0.2,0.4c-0.3-0.2-0.7-0.3-1-0.3c-0.4,0-0.6,0.2-0.6,0.5
		c0,0.3,0.4,0.4,0.9,0.6c0.5,0.2,1.1,0.4,1.1,1c0,0.6-0.5,1-1.2,1C212,91.3,211.5,91.1,211.1,90.8z"/>
	<path class="st4" d="M214.6,86.7h0.6v0.5h-0.6V86.7z M214.7,87.9h0.5v3.3h-0.5V87.9z"/>
	<path class="st4" d="M216.1,90.3c0-0.7,0.6-1.1,1.4-1.1c0.4,0,0.7,0.1,1,0.1v-0.1c0-0.6-0.4-0.9-1-0.9c-0.4,0-0.7,0.1-1,0.2
		l-0.1-0.4c0.4-0.2,0.7-0.3,1.2-0.3c0.5,0,0.8,0.1,1.1,0.4c0.2,0.2,0.3,0.6,0.3,1v2h-0.5v-0.5c-0.2,0.3-0.6,0.6-1.2,0.6
		C216.7,91.3,216.1,91,216.1,90.3z M218.5,90v-0.3c-0.2-0.1-0.6-0.1-1-0.1c-0.6,0-1,0.3-1,0.7c0,0.4,0.4,0.7,0.8,0.7
		C218,90.9,218.5,90.6,218.5,90z"/>
</g>
<g class="st3">
	<path class="st4" d="M152.9,71.3v-0.4l1.4-1.9l1.2,0.6l-1.2,1.5l1.2,1.5l-1.2,0.6L152.9,71.3z M155.2,71.2L155.2,71.2l1.6-2.2
		l1.2,0.6l-1.2,1.5l1.2,1.5l-1.2,0.6L155.2,71.2z"/>
	<path class="st4" d="M158.9,67.2h1.8l1.5,2.4l1.5-2.4h1.8v6.3h-1.7v-3.6l-1.6,2.5h0l-1.6-2.5v3.6h-1.7V67.2z"/>
	<path class="st4" d="M166.5,70.4c0-1.8,1.5-3.3,3.4-3.3c1.9,0,3.4,1.5,3.4,3.3c0,1.8-1.5,3.3-3.4,3.3
		C167.9,73.7,166.5,72.2,166.5,70.4z M171.5,70.4c0-0.9-0.7-1.7-1.6-1.7c-1,0-1.6,0.8-1.6,1.7c0,0.9,0.7,1.7,1.6,1.7
		C170.9,72.1,171.5,71.3,171.5,70.4z"/>
	<path class="st4" d="M174,70.4c0-1.8,1.4-3.3,3.3-3.3c1.3,0,2.1,0.6,2.7,1.3l-1.3,1c-0.4-0.5-0.8-0.7-1.4-0.7
		c-0.9,0-1.5,0.7-1.5,1.7c0,0.9,0.6,1.7,1.5,1.7c0.7,0,1-0.3,1.4-0.8l1.3,0.9c-0.6,0.8-1.4,1.4-2.8,1.4
		C175.4,73.7,174,72.3,174,70.4z"/>
	<path class="st4" d="M180.8,67.2h1.7v2.6l2.2-2.6h2.1l-2.4,2.7l2.5,3.6h-2.1l-1.6-2.3l-0.6,0.7v1.6h-1.7V67.2z"/>
	<path class="st4" d="M186.7,70.4c0-1.8,1.5-3.3,3.4-3.3s3.4,1.5,3.4,3.3c0,1.8-1.5,3.3-3.4,3.3S186.7,72.2,186.7,70.4z M191.7,70.4
		c0-0.9-0.7-1.7-1.6-1.7c-1,0-1.6,0.8-1.6,1.7c0,0.9,0.7,1.7,1.6,1.7C191.1,72.1,191.7,71.3,191.7,70.4z"/>
	<path class="st4" d="M194.4,67.2h3.2c0.8,0,1.4,0.2,1.7,0.6c0.3,0.3,0.4,0.6,0.4,1c0,0.7-0.4,1.2-1,1.4c0.8,0.3,1.3,0.7,1.3,1.6
		c0,1.1-0.9,1.7-2.4,1.7h-3.3V67.2z M197.2,69.7c0.5,0,0.8-0.2,0.8-0.6c0-0.3-0.3-0.5-0.8-0.5h-1.1v1.1H197.2z M197.5,72.1
		c0.5,0,0.8-0.2,0.8-0.6c0-0.3-0.3-0.6-0.9-0.6h-1.3v1.2H197.5z"/>
	<path class="st4" d="M200.7,70.4c0-1.8,1.4-3.3,3.3-3.3c1.3,0,2.1,0.6,2.7,1.3l-1.3,1c-0.4-0.5-0.8-0.7-1.4-0.7
		c-0.9,0-1.5,0.7-1.5,1.7c0,0.9,0.6,1.7,1.5,1.7c0.7,0,1-0.3,1.4-0.8l1.3,0.9c-0.6,0.8-1.4,1.4-2.8,1.4
		C202.1,73.7,200.7,72.3,200.7,70.4z"/>
	<path class="st4" d="M207.5,67.2h1.7v2.6l2.2-2.6h2.1l-2.4,2.7l2.5,3.6h-2.1l-1.6-2.3l-0.6,0.7v1.6h-1.7V67.2z"/>
	<path class="st4" d="M214.1,67.2h1.7v3.6l2.4-3.6h1.6v6.3h-1.7V70l-2.4,3.6h-1.6V67.2z"/>
	<path class="st4" d="M221,67.2h5.1v1.5h-3.3v1h3v1.4h-3v1h3.4v1.5H221V67.2z"/>
	<path class="st4" d="M229.5,67.2h1.8l1.5,2.4l1.5-2.4h1.9v6.3h-1.7v-3.6l-1.6,2.5h0l-1.6-2.5v3.6h-1.7V67.2z"/>
	<path class="st4" d="M239.5,67.2h1.7l2.7,6.4H242l-0.5-1.1h-2.4l-0.5,1.1h-1.8L239.5,67.2z M241.1,71.1l-0.7-1.8l-0.7,1.8H241.1z"
		/>
	<path class="st4" d="M243.9,70.4c0-1.8,1.4-3.3,3.3-3.3c1.3,0,2.1,0.6,2.7,1.3l-1.3,1c-0.4-0.5-0.8-0.7-1.4-0.7
		c-0.9,0-1.5,0.7-1.5,1.7c0,0.9,0.6,1.7,1.5,1.7c0.7,0,1-0.3,1.4-0.8l1.3,0.9c-0.6,0.8-1.4,1.4-2.8,1.4
		C245.4,73.7,243.9,72.3,243.9,70.4z"/>
	<path class="st4" d="M252.3,68.8h-1.9v-1.5h5.5v1.5H254v4.8h-1.8V68.8z"/>
	<path class="st4" d="M256.7,67.2h5.1v1.5h-3.3v1h3v1.4h-3v1h3.4v1.5h-5.1V67.2z"/>
	<path class="st4" d="M262.7,67.2h2.7c1.6,0,2.6,0.8,2.6,2.2c0,1.5-1.1,2.3-2.7,2.3h-0.9v1.8h-1.8V67.2z M265.3,70.4
		c0.6,0,1-0.3,1-0.8c0-0.5-0.4-0.8-1-0.8h-0.8v1.7H265.3z"/>
	<path class="st4" d="M270.3,67.2h1.7l2.7,6.4h-1.9l-0.5-1.1h-2.4l-0.4,1.1h-1.8L270.3,67.2z M271.9,71.1l-0.7-1.8l-0.7,1.8H271.9z"
		/>
	<path class="st4" d="M275.1,72.7l1.2-1.5l-1.2-1.5l1.2-0.6l1.6,2.1v0.1l-1.6,2.1L275.1,72.7z M277.5,72.7l1.2-1.5l-1.2-1.5l1.2-0.6
		l1.4,1.9v0.4l-1.4,1.9L277.5,72.7z"/>
</g>
<g>
	<g>
		<path class="st4" d="M192.5,119.6c-0.6,0-0.9-0.4-0.9-1c0-0.7,0.4-1,0.9-1c0.2,0,0.5,0.1,0.7,0.2l0.2-0.5c-0.2-0.2-0.7-0.2-1-0.2
			c-0.8,0-1.5,0.5-1.6,1.6c0,0.9,0.5,1.6,1.5,1.6c0.4,0,0.8-0.2,1.2-0.4l-0.2-0.5C193.1,119.5,192.8,119.6,192.5,119.6z"/>
		<path class="st4" d="M188.7,117.1c-1,0-1.7,0.7-1.7,1.6c0,1,0.7,1.6,1.7,1.6c1,0,1.7-0.7,1.7-1.6
			C190.2,117.7,189.6,117.1,188.7,117.1z M188.7,119.7c-0.5,0-1-0.4-1-1s0.4-1,1-1c0.5,0,1,0.4,1,1
			C189.6,119.3,189.1,119.7,188.7,119.7z"/>
		<path class="st4" d="M199.7,118.6c0.2-0.1,0.4-0.4,0.4-0.7c0-0.7-0.6-0.8-1.3-0.8c-0.3,0-0.7,0-0.9,0.1v3c0.2,0.1,0.7,0.1,1,0.1
			c0.8,0,1.4-0.2,1.4-0.8C200.2,119,200,118.8,199.7,118.6z M198.4,117.6c0.2,0,0.2,0,0.4,0c0.4,0,0.6,0.2,0.6,0.4
			c0,0.3-0.2,0.4-0.7,0.4h-0.4L198.4,117.6L198.4,117.6z M198.8,119.8c-0.1,0-0.3,0-0.5,0V119h0.5c0.4,0,0.7,0.1,0.7,0.4
			C199.5,119.6,199.2,119.8,198.8,119.8z"/>
		<path class="st4" d="M202.2,117.1l-1.6,3.1h0.6l0.2-0.5h1.3l0.2,0.5h0.7L202.2,117.1z M201.7,119.2l0.4-0.9l0.4,0.9H201.7z"/>
		<polygon class="st4" points="184.5,119.2 183.2,117.1 182.6,120.2 183.2,120.2 183.5,118.6 184.5,120.2 185.5,118.6 185.8,120.2 
			186.4,120.2 185.8,117.1 		"/>
		<polygon class="st4" points="196.9,117.1 196.2,117.1 195,118.6 195,117.1 194.4,117.1 194.4,120.2 195,120.2 195,118.7 
			196.3,120.2 197.1,120.2 195.7,118.6 		"/>
	</g>
	<polygon class="st5" points="193.2,105.6 194.2,108.9 197.6,108.9 194.9,110.9 195.9,114 193.2,112.1 190.5,114 191.5,110.9 
		188.8,108.9 192.2,108.9 	"/>
	<g>
		<path class="st4" d="M192.5,119.6c-0.6,0-0.9-0.4-0.9-1c0-0.7,0.4-1,0.9-1c0.2,0,0.5,0.1,0.7,0.2l0.2-0.5c-0.2-0.2-0.7-0.2-1-0.2
			c-0.8,0-1.5,0.5-1.6,1.6c0,0.9,0.5,1.6,1.5,1.6c0.4,0,0.8-0.2,1.2-0.4l-0.2-0.5C193.1,119.5,192.8,119.6,192.5,119.6z"/>
		<path class="st4" d="M188.7,117.1c-1,0-1.7,0.7-1.7,1.6c0,1,0.7,1.6,1.7,1.6c1,0,1.7-0.7,1.7-1.6
			C190.2,117.7,189.6,117.1,188.7,117.1z M188.7,119.7c-0.5,0-1-0.4-1-1s0.4-1,1-1c0.5,0,1,0.4,1,1
			C189.6,119.3,189.1,119.7,188.7,119.7z"/>
		<path class="st4" d="M199.7,118.6c0.2-0.1,0.4-0.4,0.4-0.7c0-0.7-0.6-0.8-1.3-0.8c-0.3,0-0.7,0-0.9,0.1v3c0.2,0.1,0.7,0.1,1,0.1
			c0.8,0,1.4-0.2,1.4-0.8C200.2,119,200,118.8,199.7,118.6z M198.4,117.6c0.2,0,0.2,0,0.4,0c0.4,0,0.6,0.2,0.6,0.4
			c0,0.3-0.2,0.4-0.7,0.4h-0.4L198.4,117.6L198.4,117.6z M198.8,119.8c-0.1,0-0.3,0-0.5,0V119h0.5c0.4,0,0.7,0.1,0.7,0.4
			C199.5,119.6,199.2,119.8,198.8,119.8z"/>
		<path class="st4" d="M202.2,117.1l-1.6,3.1h0.6l0.2-0.5h1.3l0.2,0.5h0.7L202.2,117.1z M201.7,119.2l0.4-0.9l0.4,0.9H201.7z"/>
		<polygon class="st4" points="184.5,119.2 183.2,117.1 182.6,120.2 183.2,120.2 183.5,118.6 184.5,120.2 185.5,118.6 185.8,120.2 
			186.4,120.2 185.8,117.1 		"/>
		<polygon class="st4" points="196.9,117.1 196.2,117.1 195,118.6 195,117.1 194.4,117.1 194.4,120.2 195,120.2 195,118.7 
			196.3,120.2 197.1,120.2 195.7,118.6 		"/>
	</g>
	<polygon class="st5" points="193.2,105.6 194.2,108.9 197.6,108.9 194.9,110.9 195.9,114 193.2,112.1 190.5,114 191.5,110.9 
		188.8,108.9 192.2,108.9 	"/>
</g>
<g>
	<g>
		<g>
			<path class="st4" d="M214.9,118.8L214.9,118.8l-0.1-0.2h-0.7v0.2H214v-0.3h0.1c0,0,0,0,0-0.1s0-0.1,0.1-0.2c0-0.1,0-0.2,0.1-0.3
				c0-0.1,0-0.2,0-0.4h0.6v1h0.2L214.9,118.8L214.9,118.8z M214.7,118.4v-0.8h-0.3c0,0.1,0,0.2,0,0.3c0,0.1,0,0.2,0,0.2
				s0,0.2-0.1,0.2c0,0.1,0,0.1-0.1,0.2L214.7,118.4L214.7,118.4z"/>
			<path class="st4" d="M215.2,117.4h0.6v0.1h-0.4v0.3h0.4v0.1h-0.4v0.4h0.5v0.2h-0.6L215.2,117.4L215.2,117.4z"/>
			<path class="st4" d="M216.8,117.6h-0.5v0.9h-0.1v-1.1h0.7v1.1h-0.2L216.8,117.6L216.8,117.6z"/>
			<path class="st4" d="M217.9,118.3h-0.4l-0.1,0.3h-0.2l0.4-1.1h0.1l0.4,1.1H218L217.9,118.3z M217.6,118.1h0.3l-0.1-0.3v-0.2l0,0
				v0.2L217.6,118.1z"/>
			<path class="st4" d="M218.5,117.4c0,0,0.1,0,0.2,0s0.1,0,0.2,0s0.1,0,0.2,0s0.1,0,0.2,0.1l0.1,0.1c0,0.1,0,0.1,0,0.2
				c0,0.1,0,0.1,0,0.2c0,0.1-0.1,0.1-0.1,0.1s-0.1,0.1-0.2,0.1s-0.1,0-0.2,0l0,0l0,0l0,0l0,0v0.4h-0.2v-1.1H218.5z M218.7,117.5
				C218.6,117.5,218.6,117.5,218.7,117.5c-0.1,0-0.1,0-0.2,0v0.4l0,0l0,0l0,0l0,0h0.1h0.1l0.1-0.1v-0.1c0-0.1,0-0.1,0-0.1
				S218.8,117.6,218.7,117.5L218.7,117.5C218.8,117.5,218.7,117.5,218.7,117.5z"/>
			<path class="st4" d="M220.1,117.6h-0.3v0.9h-0.2v-1h-0.3v-0.1h0.8V117.6z"/>
			<path class="st4" d="M220.9,118.3h-0.4l-0.1,0.2h-0.2l0.4-1.1h0.1l0.4,1.1H221L220.9,118.3z M220.5,118.1h0.3l-0.1-0.3v-0.2l0,0
				v0.2L220.5,118.1z"/>
			<path class="st4" d="M222.2,117.8v-0.2l0,0V117.8l-0.3,0.5l0,0l-0.3-0.5l-0.1-0.2l0,0v0.2v0.7h-0.1v-1.1h0.1l0.3,0.6l0.1,0.1l0,0
				l0.1-0.1l0.3-0.6h0.1v1.1h-0.2V117.8z"/>
			<path class="st4" d="M222.8,117.4h0.6v0.1L222.8,117.4l0.1,0.4h0.4v0.1h-0.4v0.4h0.5v0.2h-0.6V117.4z"/>
			<path class="st4" d="M224.3,118h-0.5v0.5h-0.2v-1.1h0.2v0.5L224.3,118v-0.6h0.2v1.1h-0.2V118z"/>
			<path class="st4" d="M225.6,117.6h-0.3v0.9h-0.2v-1h-0.3v-0.1h0.8V117.6z"/>
			<path class="st4" d="M214,120c0-0.2,0-0.3,0.1-0.4c0.1-0.1,0.2-0.2,0.3-0.2c0.1,0,0.2,0,0.2,0c0.1,0,0.1,0.1,0.2,0.1
				c0,0.1,0.1,0.1,0.1,0.2c0,0.1,0,0.2,0,0.2c0,0.2,0,0.3-0.1,0.4c-0.1,0.1-0.2,0.2-0.3,0.2c-0.1,0-0.2,0-0.2,0
				c-0.1,0-0.1-0.1-0.2-0.1c0-0.1-0.1-0.1-0.1-0.2C214,120.2,214,120.1,214,120z M214.2,120c0,0.1,0,0.1,0,0.2c0,0.1,0,0.1,0.1,0.2
				l0.1,0.1c0,0,0.1,0,0.2,0c0.1,0,0.2,0,0.2-0.1c0.1-0.1,0.1-0.2,0.1-0.3c0-0.1,0-0.1,0-0.2s0-0.1-0.1-0.2l-0.1-0.1
				c0,0-0.1,0-0.2,0s-0.2,0-0.2,0.1C214.2,119.8,214.2,119.8,214.2,120z"/>
			<path class="st4" d="M215.2,119.5h0.6v0.1h-0.4v0.3c0,0,0,0,0.1,0h0.1c0.1,0,0.1,0,0.2,0s0.1,0,0.2,0.1l0.1,0.1c0,0,0,0.1,0,0.2
				c0,0.1,0,0.1,0,0.2s-0.1,0.1-0.1,0.1s-0.1,0.1-0.2,0.1s-0.1,0-0.2,0c0,0,0,0-0.1,0h-0.1h-0.1h-0.1L215.2,119.5L215.2,119.5z
				 M215.6,120.5L215.6,120.5h0.2c0,0,0,0,0.1-0.1v-0.1c0-0.1,0-0.1,0-0.1s0-0.1-0.1-0.1h-0.1h-0.1l0,0l0,0l0,0l0,0V120.5
				L215.6,120.5L215.6,120.5C215.5,120.5,215.5,120.5,215.6,120.5C215.5,120.5,215.5,120.5,215.6,120.5z"/>
			<path class="st4" d="M216.2,119.5c0,0,0.1,0,0.2,0s0.1,0,0.2,0s0.1,0,0.2,0s0.1,0,0.2,0.1l0.1,0.1c0,0.1,0,0.1,0,0.2
				c0,0.1,0,0.1,0,0.2c0,0.1-0.1,0.1-0.1,0.1s-0.1,0.1-0.2,0.1s-0.1,0-0.2,0l0,0l0,0l0,0l0,0v0.4h-0.3V119.5z M216.5,119.6
				L216.5,119.6c-0.1,0-0.1,0-0.2,0v0.4l0,0l0,0l0,0l0,0h0.1h0.1l0.1-0.1v-0.1c0-0.1,0-0.1,0-0.1S216.6,119.7,216.5,119.6
				L216.5,119.6C216.6,119.6,216.6,119.6,216.5,119.6z"/>
			<path class="st4" d="M217.6,120.3h-0.4l-0.1,0.3h-0.1l0.4-1.1h0.1l0.4,1.1h-0.2L217.6,120.3z M217.3,120.2h0.3l-0.1-0.3v-0.2l0,0
				v0.2L217.3,120.2z"/>
			<path class="st4" d="M218.3,120.1L218.3,120.1L218.3,120.1L218.3,120.1L218.3,120.1L218.3,120.1L218.3,120.1L218.3,120.1l0.2-0.1
				c0,0,0,0,0.1-0.1v-0.1v-0.1c0,0,0,0-0.1-0.1h-0.1h-0.1c-0.1,0-0.1,0-0.2,0h-0.1v-0.1h0.1c0.1,0,0.1,0,0.2,0h0.1
				c0,0,0.1,0,0.1,0.1l0.1,0.1c0,0,0,0.1,0,0.2c0,0.1,0,0.1-0.1,0.2C218.5,120.2,218.4,120.2,218.3,120.1L218.3,120.1
				c0.1,0.1,0.2,0.1,0.2,0.2c0.1,0.1,0.1,0.1,0.1,0.2c0,0.1,0,0.1,0,0.2c0,0.1-0.1,0.1-0.1,0.1s-0.1,0.1-0.2,0.1s-0.1,0-0.2,0
				s-0.1,0-0.2,0s-0.1,0-0.1,0v-0.1h0.1c0.1,0,0.1,0,0.2,0h0.1h0.1c0,0,0.1,0,0.1-0.1v-0.1c0-0.1,0-0.1-0.1-0.2
				c-0.1,0-0.1-0.1-0.2-0.1l0,0l0,0h0.2V120.1z"/>
			<path class="st4" d="M219.1,120c0-0.2,0-0.3,0.1-0.4c0.1-0.1,0.2-0.2,0.3-0.2c0.1,0,0.2,0,0.2,0c0.1,0,0.1,0.1,0.2,0.1
				c0,0.1,0.1,0.1,0.1,0.2c0,0.1,0,0.2,0,0.2c0,0.2,0,0.3-0.1,0.4c-0.1,0.1-0.2,0.2-0.3,0.2c-0.1,0-0.2,0-0.2,0
				c-0.1,0-0.1-0.1-0.2-0.1c0-0.1-0.1-0.1-0.1-0.2C219.2,120.2,219.1,120.1,219.1,120z M219.3,120c0,0.1,0,0.1,0,0.2
				c0,0.1,0,0.1,0.1,0.2l0.1,0.1c0,0,0.1,0,0.2,0s0.2,0,0.2-0.1c0.1-0.1,0.1-0.2,0.1-0.3c0-0.1,0-0.1,0-0.2s0-0.1-0.1-0.2l-0.1-0.1
				c0,0-0.1,0-0.2,0s-0.2,0-0.2,0.1C219.3,119.8,219.3,119.8,219.3,120z"/>
			<path class="st4" d="M221,119.8L221,119.8c0,0.1,0,0.2-0.1,0.2c0,0,0,0.1-0.1,0.1h-0.1l0,0h0.1c0,0,0.1,0,0.1,0.1
				c0,0,0,0.1,0.1,0.1v0.1c0,0.1,0,0.1,0,0.2l-0.1,0.1c0,0-0.1,0.1-0.2,0.1c-0.1,0-0.1,0-0.2,0c0,0,0,0-0.1,0h-0.1h-0.1h-0.1v-1.1
				c0,0,0.1,0,0.2,0s0.1,0,0.2,0h0.1c0.1,0,0.1,0,0.1,0l0.1,0.1C221,119.7,221,119.7,221,119.8z M220.6,119.9L220.6,119.9
				c0.1,0,0.1,0,0.2,0h0.1c0,0,0,0,0.1-0.1c0,0,0,0,0-0.1v-0.1v-0.1c0,0,0,0-0.1-0.1h-0.1h-0.1h-0.1h-0.1L220.6,119.9L220.6,119.9z
				 M220.7,120.5L220.7,120.5h0.2c0,0,0.1,0,0.1-0.1v-0.1c0-0.1,0-0.1,0-0.1s0-0.1-0.1-0.1h-0.1h-0.1h-0.2v0.4l0,0
				C220.5,120.6,220.5,120.6,220.7,120.5C220.6,120.5,220.6,120.5,220.7,120.5L220.7,120.5z"/>
			<path class="st4" d="M221.9,120.3h-0.4l-0.1,0.3h-0.2l0.4-1.1h0.1l0.4,1.1H222L221.9,120.3z M221.6,120.2h0.3l-0.1-0.3v-0.2l0,0
				v0.2L221.6,120.2z"/>
			<path class="st4" d="M223.2,120.1h-0.5v0.5h-0.2v-1.1h0.2v0.5L223.2,120.1v-0.6h0.2v1.1h-0.2V120.1z"/>
			<path class="st4" d="M224.3,119.8L224.3,119.8L224.3,119.8L224.3,119.8l-0.6,0.7h-0.1v-1.1h0.2v0.7v0.1l0,0l0.1-0.2l0.5-0.7h0.1
				v1.1h-0.2L224.3,119.8L224.3,119.8z"/>
			<path class="st4" d="M225.5,120.6h-0.2v-0.5h-0.2l-0.2,0.4h-0.2l0.2-0.4l0.1-0.1H225c0,0-0.1,0-0.1-0.1c0,0,0-0.1-0.1-0.1v-0.1
				c0-0.1,0-0.1,0-0.2c0-0.1,0.1-0.1,0.1-0.1s0.1-0.1,0.2-0.1s0.1,0,0.2,0h0.1h0.1L225.5,120.6L225.5,120.6z M225.3,119.6
				L225.3,119.6h-0.2c0,0-0.1,0-0.1,0.1v0.1v0.1c0,0,0,0.1,0.1,0.1h0.1h0.1h0.1L225.3,119.6C225.3,119.6,225.3,119.6,225.3,119.6
				C225.3,119.6,225.3,119.6,225.3,119.6z"/>
			<path class="st4" d="M213.6,121.7h-0.4v1H213v-1.1L213.6,121.7L213.6,121.7z"/>
			<path class="st4" d="M213.8,122.1c0-0.2,0-0.3,0.1-0.4c0.1-0.1,0.2-0.2,0.3-0.2c0.1,0,0.2,0,0.2,0c0.1,0,0.1,0.1,0.2,0.1
				c0,0.1,0.1,0.1,0.1,0.2c0,0.1,0,0.2,0,0.2c0,0.2,0,0.3-0.1,0.4c-0.1,0.1-0.2,0.2-0.3,0.2c-0.1,0-0.2,0-0.2,0
				c-0.1,0-0.1-0.1-0.2-0.1c0-0.1-0.1-0.1-0.1-0.2S213.8,122.2,213.8,122.1z M213.9,122.1c0,0.1,0,0.1,0,0.2c0,0.1,0,0.1,0.1,0.2
				l0.1,0.1c0,0,0.1,0,0.2,0c0.1,0,0.2,0,0.2-0.1c0.1-0.1,0.1-0.2,0.1-0.3c0-0.1,0-0.1,0-0.2c0-0.1,0-0.1-0.1-0.2l-0.1-0.1
				c0,0-0.1,0-0.2,0c-0.1,0-0.2,0-0.2,0.1C213.9,121.8,213.9,121.9,213.9,122.1z"/>
			<path class="st4" d="M215,121.6c0,0,0.1,0,0.2,0c0.1,0,0.1,0,0.2,0c0.1,0,0.1,0,0.2,0s0.1,0,0.2,0.1l0.1,0.1c0,0.1,0,0.1,0,0.2
				c0,0.1,0,0.1,0,0.2c0,0.1-0.1,0.1-0.1,0.1s-0.1,0.1-0.2,0.1s-0.1,0-0.2,0l0,0l0,0l0,0l0,0v0.4h-0.2v-1.1H215z M215.2,121.7
				L215.2,121.7c-0.1,0-0.1,0-0.2,0v0.4l0,0l0,0l0,0l0,0h0.1h0.1l0.1-0.1v-0.1c0-0.1,0-0.1,0-0.1S215.3,121.7,215.2,121.7
				L215.2,121.7C215.3,121.7,215.3,121.7,215.2,121.7z"/>
			<path class="st4" d="M216,122.1c0-0.2,0-0.3,0.1-0.4c0.1-0.1,0.2-0.2,0.3-0.2c0.1,0,0.2,0,0.2,0c0.1,0,0.1,0.1,0.2,0.1
				c0,0.1,0.1,0.1,0.1,0.2c0,0.1,0,0.2,0,0.2c0,0.2,0,0.3-0.1,0.4c-0.1,0.1-0.2,0.2-0.3,0.2c-0.1,0-0.2,0-0.2,0
				c-0.1,0-0.1-0.1-0.2-0.1c0-0.1-0.1-0.1-0.1-0.2S216,122.2,216,122.1z M216.1,122.1c0,0.1,0,0.1,0,0.2c0,0.1,0,0.1,0.1,0.2
				l0.1,0.1c0,0,0.1,0,0.2,0s0.2,0,0.2-0.1c0.1-0.1,0.1-0.2,0.1-0.3c0-0.1,0-0.1,0-0.2c0-0.1,0-0.1-0.1-0.2l-0.1-0.1
				c0,0-0.1,0-0.2,0s-0.2,0-0.2,0.1C216.2,121.8,216.1,121.9,216.1,122.1z"/>
			<path class="st4" d="M218,122.8L218,122.8l-0.1-0.2h-0.7v0.2h-0.1v-0.3h0.1c0,0,0,0,0-0.1c0,0,0-0.1,0.1-0.2c0-0.1,0-0.2,0.1-0.3
				c0-0.1,0-0.2,0-0.4h0.6v1h0.2L218,122.8L218,122.8z M217.7,122.5v-0.8h-0.3c0,0.1,0,0.2,0,0.3s0,0.2,0,0.2c0,0.1,0,0.2,0,0.2
				c0,0.1,0,0.1-0.1,0.2L217.7,122.5L217.7,122.5z"/>
			<path class="st4" d="M218.9,122.3h-0.4l-0.1,0.3h-0.2l0.4-1.1h0.1l0.4,1.1H219L218.9,122.3z M218.5,122.2h0.3l-0.1-0.3v-0.2l0,0
				v0.2L218.5,122.2z"/>
			<path class="st4" d="M220.7,121.9v-0.2l0,0V121.9l-0.3,0.5l0,0l-0.3-0.5l-0.1-0.2l0,0v0.2v0.7h-0.1v-1.1h0.1l0.3,0.6l0.1,0.1l0,0
				l0.1-0.1l0.3-0.6h0.1v1.1h-0.2V121.9z"/>
			<path class="st4" d="M221.2,122.1c0-0.2,0-0.3,0.1-0.4c0.1-0.1,0.2-0.2,0.3-0.2c0.1,0,0.2,0,0.2,0c0.1,0,0.1,0.1,0.2,0.1
				c0,0.1,0.1,0.1,0.1,0.2c0,0.1,0,0.2,0,0.2c0,0.2,0,0.3-0.1,0.4c-0.1,0.1-0.2,0.2-0.3,0.2c-0.1,0-0.2,0-0.2,0
				c-0.1,0-0.1-0.1-0.2-0.1c0-0.1-0.1-0.1-0.1-0.2S221.2,122.2,221.2,122.1z M221.4,122.1c0,0.1,0,0.1,0,0.2c0,0.1,0,0.1,0.1,0.2
				l0.1,0.1c0,0,0.1,0,0.2,0s0.2,0,0.2-0.1c0.1-0.1,0.1-0.2,0.1-0.3c0-0.1,0-0.1,0-0.2c0-0.1,0-0.1-0.1-0.2l-0.1-0.1
				c0,0-0.1,0-0.2,0s-0.2,0-0.2,0.1C221.4,121.8,221.4,121.9,221.4,122.1z"/>
			<path class="st4" d="M223.2,122.6C223.2,122.6,223.1,122.6,223.2,122.6c-0.2,0.1-0.2,0.1-0.2,0.1c-0.1,0-0.2,0-0.2,0
				c-0.1,0-0.1-0.1-0.2-0.1c-0.1-0.1-0.1-0.1-0.1-0.2c0-0.1,0-0.2,0-0.2s0-0.2,0-0.2s0.1-0.2,0.1-0.2c0.1-0.1,0.1-0.1,0.2-0.1
				s0.1,0,0.2,0c0.1,0,0.1,0,0.2,0h0.1v0.1c-0.1,0-0.1,0-0.2,0c-0.1,0-0.1,0-0.2,0c0,0-0.1,0-0.1,0.1c0,0-0.1,0.1-0.1,0.2
				c0,0.1,0,0.2,0,0.2s0,0.2,0,0.2c0,0.1,0.1,0.1,0.1,0.2l0.1,0.1c0.1,0,0.1,0,0.2,0s0.1,0,0.1,0L223.2,122.6L223.2,122.6z"/>
			<path class="st4" d="M223.7,122.1L223.7,122.1l-0.1,0.5h-0.2v-1.1h0.2L223.7,122.1L223.7,122.1l0.3-0.6h0.2l-0.3,0.5L223.7,122.1
				h0.2l0.4,0.5h-0.2L223.7,122.1z"/>
			<path class="st4" d="M225.3,121.7C225.3,121.8,225.3,121.8,225.3,121.7c0,0.1,0,0.2-0.1,0.2c0,0,0,0.1-0.1,0.1H225l0,0h0.1
				c0,0,0.1,0,0.1,0.1c0,0,0,0.1,0.1,0.1v0.1c0,0.1,0,0.1,0,0.2l-0.1,0.1c0,0-0.1,0.1-0.2,0.1s-0.1,0-0.2,0c0,0,0,0-0.1,0h-0.1h-0.1
				h-0.1v-1.1c0,0,0.1,0,0.2,0s0.1,0,0.2,0h0.1c0.1,0,0.1,0,0.1,0l0.1,0.1C225.3,121.7,225.3,121.7,225.3,121.7z M224.8,122
				C224.8,122,224.8,122,224.8,122c0.1,0,0.1,0,0.2,0h0.1c0,0,0,0,0.1-0.1c0,0,0,0,0-0.1v-0.1v-0.1c0,0,0,0-0.1-0.1h-0.1h-0.1h-0.1
				h-0.1L224.8,122L224.8,122z M224.8,122.5L224.8,122.5h0.2c0,0,0.1,0,0.1-0.1v-0.1c0-0.1,0-0.1,0-0.1s0-0.1-0.1-0.1h-0.1h-0.1
				h-0.2v0.4l0,0C224.7,122.6,224.7,122.6,224.8,122.5C224.8,122.5,224.8,122.5,224.8,122.5L224.8,122.5z"/>
			<path class="st4" d="M225.7,121.5h0.2v0.4l0,0l0,0l0,0l0,0c0.1,0,0.1,0,0.2,0s0.1,0,0.1,0.1l0.1,0.1c0,0,0,0.1,0,0.2
				c0,0.1,0,0.1,0,0.2c0,0.1-0.1,0.1-0.1,0.1s-0.1,0.1-0.2,0.1s-0.1,0-0.2,0c0,0,0,0-0.1,0c0,0,0,0-0.1,0h-0.1h-0.1v-1.1H225.7z
				 M225.8,122.5c0.1,0,0.2,0,0.2-0.1c0.1,0,0.1-0.1,0.1-0.2s0-0.1,0-0.1s0-0.1-0.1-0.1h-0.1h-0.1c0,0,0,0-0.1,0c0,0,0,0-0.1,0v0.4
				C225.8,122.5,225.8,122.5,225.8,122.5z M226.4,121.5h0.2v1.1h-0.2V121.5z"/>
		</g>
	</g>
	<g>
		<g>
			<path class="st6" d="M219.8,107.4c-0.2-0.2-1-1.9-5.1-1.6v-0.6v7.8c0,0,0.1,1.7,1.7,1.7c1.6,0,2.7-0.1,3.5,0.7
				c0,0,0.7-0.7,1.7-0.7c0.9,0,1.8,0,1.8,0s1.7-0.1,1.7-1.8c0-0.6,0-1.8,0-3.1c0-2.2,0-4.6,0-4.6v0.6
				C220.8,105.5,220,107.3,219.8,107.4z"/>
			<path class="st7" d="M225,107.8v-4.6c-4.1-0.3-5,2.5-5.1,2.6c-0.2-0.2-1-2.9-5.1-2.6v4.6"/>
			<path class="st4" d="M225,107.8v-4.1c-4.1-0.3-5,2.5-5.1,2.6c-0.2-0.2-1-3-5.1-2.6v4.1"/>
			<path class="st8" d="M225,108v-3.4c-4.1-0.3-5,2.2-5.1,2.4c-0.2-0.2-1-2.7-5.1-2.4v3.4"/>
			<path class="st4" d="M225,107.8v-2.4c-4.1-0.3-5,1.7-5.1,1.8c-0.2-0.2-1-2.2-5.1-1.8v2.4"/>
			<path class="st6" d="M225,108.6V106c-4.1-0.3-5,1.2-5.1,1.3c-0.2-0.2-1-1.7-5.1-1.3v2.6"/>
		</g>
		<path class="st4" d="M220.8,108.4L220.8,108.4L220.8,108.4L220.8,108.4z M219,108.1L219,108.1L219,108.1L219,108.1L219,108.1
			L219,108.1h0.2h0.1l0,0h0.1h0.1h0.1h0.1l0,0l0,0l0,0l0,0h0.1h0.1h0.1h0.1l0,0h-0.1h-0.1l0,0l0,0l0,0l0,0l0,0h0.1h0.1h0.1l0,0l0,0
			l0,0l0,0H220h-0.1l0,0h-0.1l0,0l0,0h-0.1l0,0l0,0h0.1h0.1l0,0h-0.1h0.1l0,0h0.1h0.1l0,0h0.1h0.1h0.1l0,0l0,0h0.1h0.1l0,0h0.1h0.1
			h0.1h-0.1l0,0l0,0l0,0l0,0h-0.1l0,0l0,0l0,0l0,0h0.1h0.1h0.1h0.1h0.1h0.1h0.1h0.1h0.1h0.1h0.1l0,0l0,0h0.1l0,0l0,0h0.1h0.1h0.1
			h-0.1h0.1l0,0l0,0l0,0l0,0l0,0h-0.1l0,0h-0.1l0,0l0,0h-0.1h-0.1l0,0h-0.1h-0.1h-0.1h-0.1H221H221h-0.1h-0.1h-0.1h-0.1h-0.1h-0.1
			h-0.1h-0.1h-0.1h-0.1H220H220h-0.1h-0.1h-0.1h-0.1h-0.1h-0.1l0,0l0,0l0,0h-0.1l0,0l0,0l0,0h-0.1l0,0h-0.1H219L219,108.1L219,108.1
			L219,108.1L219,108.1L219,108.1L219,108.1L219,108.1L219,108.1L219,108.1L219,108.1L219,108.1z M219.4,108L219.4,108L219.4,108
			L219.4,108z M219.9,107.9L219.9,107.9L219.9,107.9L219.9,107.9L219.9,107.9L219.9,107.9L219.9,107.9L219.9,107.9L219.9,107.9z
			 M219.5,107.9L219.5,107.9L219.5,107.9L219.5,107.9L219.5,107.9L219.5,107.9L219.5,107.9L219.5,107.9L219.5,107.9L219.5,107.9
			L219.5,107.9L219.5,107.9L219.5,107.9z M221.9,111.1L221.9,111.1L221.9,111.1L221.9,111.1L221.9,111.1L221.9,111.1l-0.1,0.2l0,0
			l0,0l0,0l0,0l0,0h-0.1v0.1l0,0l0,0l0,0l0,0l0,0l0,0l0,0l0,0l0,0l0,0v0.1l0,0l0,0l0,0l0,0l0,0l0,0l0,0
			C221.5,111.6,221.8,111.4,221.9,111.1L221.9,111.1L221.9,111.1L221.9,111.1L221.9,111.1z M219.3,111.7L219.3,111.7L219.3,111.7
			L219.3,111.7l-0.2,0.1v0.1v0.1l0,0v0.1l0,0l0,0h0.1h0.1l0,0l0,0l0,0l0,0V112l0,0V111.7L219.3,111.7z M221.9,110.9L221.9,110.9
			L221.9,110.9l-0.1,0.2l0,0l0,0l0,0C221.9,111,221.9,111,221.9,110.9L221.9,110.9L221.9,110.9L221.9,110.9L221.9,110.9L221.9,110.9
			z M221.3,111.4L221.3,111.4L221.3,111.4L221.3,111.4L221.3,111.4L221.3,111.4L221.3,111.4L221.3,111.4l-0.1-0.2l0,0l0,0l0,0l0,0
			v-0.1v-0.1l0,0l0,0h0.1h0.1l0,0V111l0,0v-0.1l0,0l0,0l0,0h-0.1h-0.1v-0.1l0,0v-0.1h0.1l0,0l0,0l0,0l0,0v-0.1l0,0v-0.1v-0.1v-0.1
			v-0.1v-0.1v-0.1l0,0l0,0l0,0l0,0l0,0l0,0h-0.1h-0.1v-0.1l0,0l0,0l0,0l0,0v0.1l0,0l0.1-0.1V110l0,0l0,0l0,0l0,0v-0.1v-0.1v-0.1l0,0
			v-0.1v-0.1v-0.1v-0.1l0,0l0,0l0,0l0,0l0,0l0,0l0,0l0,0l0,0l0,0l0,0l0,0l0,0l0,0l0,0v0.1h-0.1l0,0l0,0l0,0v-0.1v-0.1v-0.1v-0.1
			v-0.1l0,0l0,0l0,0V109v-0.1l0,0l0,0l0,0l0,0l0,0l0,0h0.1h0.1l0,0l0,0l-0.1-0.1l0,0l0,0l0,0l0,0l0,0l0,0l0,0l0,0l0,0l0,0h-0.1H221
			l0,0l0,0l0,0v0.1v0.1l0,0l0,0v0.1l0,0l0,0l0,0l0,0l0,0l0,0l0,0l0,0v0.1v0.1H221h-0.1l0,0l0,0l0,0l0,0l0,0l0,0l0,0l0,0l0,0l0,0v0.1
			h-0.1h-0.1v0.1h-0.1l0,0l0,0l0,0l0,0h-0.1h-0.1h-0.1l0,0l0,0v-0.1v-0.1v0.1v0.1v0.1h-0.1l0,0l0,0l0,0h-0.1h-0.1H220H220h-0.1h-0.1
			v0.1l0,0l0,0l0,0h-0.1l0,0v-0.1l0,0h0.1h0.1h0.1v-0.1l0,0l0,0l0,0l0,0v-0.1l0,0h-0.1l0,0l0,0l0,0h-0.1h-0.1h-0.1h-0.1h-0.1h-0.1
			l0,0l0,0v0.1v0.1l0,0l0,0l0,0l0,0h0.1h0.1l0,0l0,0l0,0v-0.1l0,0h0.1h0.1h0.1l0,0l0,0l0,0v0.1l0,0l0,0l0,0l0,0l0,0l0,0h-0.1h-0.1
			l0,0l0,0l0,0l0,0v-0.1v-0.1l0,0l0,0l0,0l0,0l0,0l0,0h-0.1l0,0h-0.1l0,0l0,0v0.1v0.1l0,0l0,0h-0.1v-0.1l0,0l0,0l0,0l0,0l0,0v0.1
			v0.1l0,0l0,0l0,0l0,0l0,0h0.1l0,0l0,0l0,0v0.1v0.1v0.1l0,0v0.1l0,0v0.1l0,0l0,0l0,0v-0.1l0,0l0,0v-0.1v-0.1l0,0v0.1v0.1v0.1l0,0
			v0.1l0,0v0.1v0.1l0,0l0,0l0,0v-0.1l0,0v-0.1V110l0,0l0,0h0.1l0,0v0.1v0.1v0.1l0,0l0,0l0,0l0,0h0.1v0.1v0.1h-0.1l0,0l0,0h-0.1h-0.1
			l0,0l0,0l0,0l0,0l0,0l0,0l-0.1,0.1l0,0l0,0l0,0v-0.1l0,0v-0.1v-0.1v-0.1v-0.1l0,0l0,0l0,0l0,0h-0.1l0,0V110h-0.1H219l0,0l0,0H219
			l0,0v0.1v0.1v0.1v0.1v0.1v0.1v0.1v0.1v0.1v0.1v0.1v0.1v0.1v0.1v0.1v0.1v0.1v0.1l0,0v0.1l0,0h0.1l0,0l0,0l0,0l0,0l0,0v0.1v0.1v0.1
			v0.1v0.1v0.1l0,0v0.1l0,0l0,0l0,0l0,0l0,0l0,0v0.1v0.1l0,0l0,0l0,0l0,0l0,0l0,0l0,0l0,0l0,0l0,0c0.1,0.1,0.2,0.1,0.2,0.2l0,0l0,0
			l0,0l0,0h0.1v-0.1l0,0l0,0l0,0l0,0l0,0h0.1l0,0v-0.1v-0.1v-0.1v-0.1V112v-0.1l0,0h0.1h0.1l0,0l0,0h0.1h0.1l0,0v-0.1v-0.1l0,0l0,0
			v-0.1l0,0l0,0h-0.1h-0.1h-0.1h-0.1l0,0l0,0h0.1h0.1h0.1h0.1h0.1h0.1h0.1l0,0h0.1l0,0l0,0l0,0l0,0l0,0l0,0l0,0l0,0l0,0v-0.1h0.1
			l0,0h0.1l0,0l0,0h0.1h0.1h0.1l0,0l0,0l0,0l0,0l0,0l0,0l0,0l0,0l0,0v0.1v0.1v0.1l0,0l0,0v0.1l0,0l0,0l0,0l0,0l0,0l0,0l0,0l0,0l0,0
			v-0.1v-0.1v-0.1l0,0l0,0l0,0h0.1v-0.1h0.1v-0.1h0.1h0.1h0.1l0,0l0,0l0,0l0,0h0.1h0.1l0,0v0.1v0.1v0.1v0.1v0.1l0,0v0.1v0.1l0,0l0,0
			l0,0H221l0,0h0.1h0.1l0,0h0.1l0,0l0,0l0,0L221.3,111.4L221.3,111.4z M218.7,111.3L218.7,111.3L218.7,111.3L218.7,111.3
			L218.7,111.3L218.7,111.3z M219,110.9L219,110.9L219,110.9L219,110.9L219,110.9l-0.1-0.2l0,0l0,0l0,0l0,0l0,0l0,0v-0.1l0,0l0,0
			l0,0l0,0v0.1L219,110.9L219,110.9L219,110.9L219,110.9L219,110.9L219,110.9L219,110.9L219,110.9L219,110.9L219,110.9L219,110.9z
			 M219.1,109.9L219.1,109.9L219.1,109.9H219l0,0h-0.1h-0.1h-0.1h-0.1l0,0l0,0l0,0l0,0l0,0l0,0l0,0l0,0l0,0l0,0h0.1h-0.1l0,0h0.1
			l0,0l0,0l0,0l0,0H219.1L219.1,109.9L219.1,109.9z M219.4,109.8L219.4,109.8L219.4,109.8L219.4,109.8L219.4,109.8L219.4,109.8
			L219.4,109.8L219.4,109.8L219.4,109.8L219.4,109.8L219.4,109.8l0.1,0.2v0.1v0.1l0,0h-0.1v-0.1V110l0,0V109.8L219.4,109.8
			L219.4,109.8L219.4,109.8z M219.5,110.6L219.5,110.6L219.5,110.6L219.5,110.6L219.5,110.6L219.5,110.6L219.5,110.6L219.5,110.6
			L219.5,110.6L219.5,110.6L219.5,110.6L219.5,110.6L219.5,110.6L219.5,110.6L219.5,110.6L219.5,110.6L219.5,110.6z M221.9,111.1
			L221.9,111.1L221.9,111.1L221.9,111.1z M219.5,107.9L219.5,107.9L219.5,107.9L219.5,107.9z M220.7,108.5L220.7,108.5L220.7,108.5
			L220.7,108.5L220.7,108.5z M218.3,109.6L218.3,109.6L218.3,109.6L218.3,109.6L218.3,109.6L218.3,109.6z M218.6,110L218.6,110
			L218.6,110L218.6,110z M219.5,107.9L219.5,107.9L219.5,107.9L219.5,107.9z M218.4,109.7L218.4,109.7L218.4,109.7L218.4,109.7
			L218.4,109.7L218.4,109.7L218.4,109.7L218.4,109.7z M218.4,109.5L218.4,109.5L218.4,109.5L218.4,109.5z M221.9,110.9L221.9,110.9
			L221.9,110.9L221.9,110.9L221.9,110.9z M221.7,109.7L221.7,109.7L221.7,109.7L221.7,109.7L221.7,109.7z M221.7,110.5L221.7,110.5
			L221.7,110.5L221.7,110.5L221.7,110.5L221.7,110.5L221.7,110.5L221.7,110.5L221.7,110.5L221.7,110.5L221.7,110.5z M221.7,110.7
			L221.7,110.7L221.7,110.7L221.7,110.7L221.7,110.7z M221.8,110.6L221.8,110.6L221.8,110.6L221.8,110.6L221.8,110.6z M221.7,109.4
			L221.7,109.4L221.7,109.4v0.2v0.1v0.1v0.1h0.1l0,0v-0.1v-0.1l0,0L221.7,109.4L221.7,109.4L221.7,109.4L221.7,109.4L221.7,109.4
			L221.7,109.4L221.7,109.4L221.7,109.4z M221.4,111.3L221.4,111.3L221.4,111.3L221.4,111.3L221.4,111.3L221.4,111.3L221.4,111.3
			L221.4,111.3L221.4,111.3L221.4,111.3L221.4,111.3L221.4,111.3z M221.4,110.5L221.4,110.5L221.4,110.5L221.4,110.5L221.4,110.5
			L221.4,110.5z M221.6,110.2L221.6,110.2L221.6,110.2L221.6,110.2L221.6,110.2L221.6,110.2L221.6,110.2z M220.5,111.2L220.5,111.2
			L220.5,111.2L220.5,111.2L220.5,111.2L220.5,111.2L220.5,111.2L220.5,111.2L220.5,111.2L220.5,111.2z M221.6,109.3L221.6,109.3
			L221.6,109.3L221.6,109.3L221.6,109.3L221.6,109.3L221.6,109.3L221.6,109.3L221.6,109.3z M222,110.7L222,110.7L222,110.7l-0.1,0.2
			l0,0l0,0l0,0l0,0h0.1l0,0l0,0V110.7L222,110.7L222,110.7C222,110.7,222,110.7,222,110.7L222,110.7L222,110.7L222,110.7z
			 M221.8,110.7L221.8,110.7L221.8,110.7L221.8,110.7L221.8,110.7L221.8,110.7L221.8,110.7L221.8,110.7L221.8,110.7L221.8,110.7z
			 M221.7,111.2L221.7,111.2L221.7,111.2L221.7,111.2L221.7,111.2L221.7,111.2L221.7,111.2z M220.3,108.7L220.3,108.7L220.3,108.7
			L220.3,108.7z M221.6,111.2L221.6,111.2L221.6,111.2L221.6,111.2L221.6,111.2l0.1-0.2v-0.1l0,0l0,0l0,0l0,0v0.1l0,0l0,0
			L221.6,111.2L221.6,111.2L221.6,111.2L221.6,111.2L221.6,111.2L221.6,111.2L221.6,111.2l0.2-0.1L221.6,111.2L221.6,111.2
			L221.6,111.2z M219.4,108.6L219.4,108.6L219.4,108.6L219.4,108.6L219.4,108.6L219.4,108.6L219.4,108.6L219.4,108.6L219.4,108.6
			L219.4,108.6L219.4,108.6L219.4,108.6z M218.8,108.3L218.8,108.3L218.8,108.3L218.8,108.3l-0.2,0.1v0.1l0,0l0,0l0,0l0,0h0.1l0,0
			l0,0h0.1l0,0l0,0l0,0l0,0h0.1l0,0l0,0l0,0h0.1h0.1l0,0l0,0l0,0h0.1v-0.1l0.1-0.1l0,0l0,0v-0.1l0,0l0,0l0,0l0,0h-0.1H219l0,0l0,0
			l0,0l0,0l0,0H219l0,0L218.8,108.3L218.8,108.3L218.8,108.3L218.8,108.3L218.8,108.3L218.8,108.3L218.8,108.3L218.8,108.3z
			 M218.6,108.6L218.6,108.6L218.6,108.6L218.6,108.6L218.6,108.6L218.6,108.6L218.6,108.6L218.6,108.6z M220,107.9L220,107.9
			L220,107.9L220,107.9L220,107.9z M219.8,108.8L219.8,108.8L219.8,108.8L219.8,108.8L219.8,108.8L219.8,108.8L219.8,108.8
			L219.8,108.8L219.8,108.8L219.8,108.8L219.8,108.8l-0.1,0.2l0,0l0,0l0,0L219.8,108.8L219.8,108.8L219.8,108.8z M220.3,108.6
			L220.3,108.6L220.3,108.6L220.3,108.6L220.3,108.6L220.3,108.6L220.3,108.6z M221.9,110.8L221.9,110.8L221.9,110.8L221.9,110.8
			L221.9,110.8z M218.6,108.3L218.6,108.3L218.6,108.3l0.2-0.1h0.1l0,0h-0.1l0,0C218.7,108.2,218.6,108.3,218.6,108.3L218.6,108.3
			L218.6,108.3z M221.8,110.9L221.8,110.9L221.8,110.9L221.8,110.9l-0.1,0.2v0.1l0,0l0,0l0,0v-0.1L221.8,110.9L221.8,110.9
			L221.8,110.9L221.8,110.9L221.8,110.9L221.8,110.9z M218.4,109L218.4,109L218.4,109L218.4,109L218.4,109L218.4,109L218.4,109
			L218.4,109L218.4,109L218.4,109z M221.7,111.2L221.7,111.2L221.7,111.2L221.7,111.2L221.7,111.2z M218.5,109L218.5,109L218.5,109
			L218.5,109L218.5,109L218.5,109L218.5,109L218.5,109L218.5,109L218.5,109L218.5,109L218.5,109l0.1-0.2l0,0l0,0L218.5,109
			L218.5,109L218.5,109z M218.5,108.4L218.5,108.4L218.5,108.4L218.5,108.4L218.5,108.4L218.5,108.4z"/>
		<g>
			<path class="st4" d="M218.1,113.9c0,0-1.7-0.9-1.5-2.3c0,0-0.2,0.4,0.1,0.9c0,0-0.8-0.3-0.1-1.5c0,0,0.9,0.6,0.2,1.5
				c0,0,0.2,0.4,0.7,0.7c0.6,0.3,0.7,0.5,0.7,0.5S218.2,113.9,218.1,113.9z"/>
			<path class="st4" d="M216.8,112.9c0,0-0.7,0.8-1.7,0.2c0,0,0.7-0.7,1.6-0.3c0,0-0.5,0-0.7,0.2C216,112.9,216.4,112.7,216.8,112.9
				z"/>
			<path class="st4" d="M217.2,112.9c0,0-0.2-0.6,0.4-0.8C217.6,112,217.7,112.8,217.2,112.9z"/>
		</g>
		<g>
			<path class="st4" d="M222.9,109.8c-0.1-0.7-0.3-1.4-0.9-1.9c-0.2-0.2-0.6-0.5-1-0.7c0,0.1-0.1,0.2-0.1,0.2c0.1,0.1,0,0.2,0,0.2
				s-0.1,0-0.2,0c-0.9-0.3-1.8-0.2-2.5,0.5c-0.7,0.7-1,1.5-0.7,2.5c0.2,0.7,0.6,1.2,1.2,1.5c0.1,0,0.1,0.1,0.2,0.1
				c0,0.1-0.1,0.2-0.1,0.2c-0.2,0-0.1,0.2-0.2,0.2c0.4,0.2,0.8,0.3,1.2,0.3c0,0.1,0,0.2,0,0.3c0.1,0,0.2,0,0.3,0c0-0.1,0-0.2,0-0.3
				C221.7,113,222.9,111.5,222.9,109.8z M218.3,111.8L218.3,111.8C218.3,111.7,218.3,111.7,218.3,111.8c-0.4-0.4-0.7-1-0.7-1.7
				c0-1.2,1-2.3,2.3-2.3c1.2,0,2.3,1,2.3,2.3c0,1.2-0.9,2.2-2.2,2.3c0,0,0,0-0.1,0c0,0,0,0-0.1,0c-0.2,0-0.2,0-0.4,0l0,0
				c-0.2,0-0.2-0.1-0.4-0.1c-0.1,0-0.2,0-0.2-0.1l0,0c-0.1,0-0.2-0.1-0.2-0.1c-0.1,0-0.1-0.1-0.1-0.1
				C218.5,112,218.4,111.9,218.3,111.8z M222.3,111.2c-0.7,1.5-2.4,1.8-3.5,1.3c0-0.1,0.1-0.1,0.1-0.2c0.8,0.3,1.6,0.2,2.3-0.2
				c0.5-0.3,0.8-0.7,1-1.2c0.4-1,0.1-2.4-1.2-3.1c0-0.1,0.1-0.1,0.1-0.2C222.2,108.3,223,109.7,222.3,111.2z"/>
			<path class="st4" d="M220.8,113.6c-0.6,0-1.2,0-1.7,0c-0.3,0-0.6,0.2-0.6,0.6c1,0,1.9,0,2.9,0C221.3,113.9,221,113.6,220.8,113.6
				z"/>
			<path class="st4" d="M220.5,113.6c-0.1,0-0.2-0.1-0.2-0.1c-0.3,0-0.7,0-0.9,0c-0.1,0-0.2,0.1-0.2,0.1c0,0,0,0,0,0.1
				C219.6,113.6,220.1,113.6,220.5,113.6L220.5,113.6z"/>
		</g>
	</g>
</g>
<g>
	<g>
		<path class="st4" d="M277.6,118.7l-0.2,0.2l-0.2-0.2l-0.2,0.2l0.2,0.2l0.2,0.2l-0.2,0.2l-0.7-0.7l0.2-0.2l0.1,0.2l0.1,0.2l0.2-0.2
			l-0.2-0.2l0.2-0.2L277.6,118.7z M278.4,117.7l-0.2-0.1l-0.2,0.2l0.2,0.2l-0.2,0.2l-0.7-0.7l0.2-0.2l1,0.2L278.4,117.7z
			 M275.8,109.8l0.6-0.7l0.2,0.2l-0.2,0.2l0.2,0.1l0.1,0.1l0.1,0.1v0.1c0,0,0,0.1-0.1,0.1l-0.1,0.1h-0.1h-0.1c0,0-0.1,0-0.1-0.1
			L275.8,109.8z M276.3,109.8L276.3,109.8l-0.2,0.1l0.1,0.1h0.1C276.2,109.9,276.3,109.9,276.3,109.8
			C276.4,109.9,276.4,109.9,276.3,109.8C276.4,109.8,276.4,109.8,276.3,109.8 M276.3,111.4v1.9l-0.7,0.7v-1.9L276.3,111.4z
			 M274.4,111.3h1.8l-0.7,0.7h-1.1L274.4,111.3L274.4,111.3z M273.5,114.6h0.9v1.1h-0.9V114.6z M272.9,112.2l-2,2h-0.7v-0.3l2.6-2.5
			h0.2L272.9,112.2L272.9,112.2z M271.2,112.1v-0.7h1.4l-0.7,0.7l0,0H271.2z M271,114.1l0.8-0.8h1.1v0.8H271z M270.9,117.4h-0.8
			v-0.7h0.8V117.4z M270.2,111.3h0.9v1.1h-0.9V111.3z M270.2,115.4v-0.7h1.6l-0.7,0.7L270.2,115.4L270.2,115.4z M272.9,116.8v0.7
			h-1.6l0.7-0.7l0,0H272.9z M271,115.5l0.7-0.7h0.2v2l-0.8,0.8H271V115.5z M274.4,113.4h1.1v0.8h-1.9L274.4,113.4z M274.3,113.2
			l-0.8,0.8v-1.9l0.8-0.8V113.2z M274.5,115.4v-0.7h1.4l-0.7,0.7H274.5z M276.3,115.5l-2,2h-0.8v-0.2l2.6-2.5h0.2V115.5z M276,119.4
			C276,119.4,276,119.4,276,119.4c-0.2-0.1-0.2-0.2-0.2-0.2h-0.1h-0.1c0,0-0.1,0-0.1,0.1v0.1v0.1c0,0,0,0.1,0.1,0.1l0.1,0.1l0.1,0.1
			h0.1h0.1c0,0,0.1,0,0.1-0.1v-0.1L276,119.4C276,119.4,276,119.4,276,119.4 M276.2,119.3c0,0.1,0.1,0.1,0.1,0.2c0,0.1,0,0.1,0,0.2
			c0,0.1,0,0.1-0.1,0.2c0,0.1-0.1,0.1-0.2,0.2c-0.1,0-0.2,0.1-0.2,0.1c-0.1,0-0.1,0-0.2,0c-0.1,0-0.1-0.1-0.2-0.1
			c-0.1-0.1-0.1-0.1-0.1-0.2c0-0.1-0.1-0.1-0.1-0.2c0-0.1,0-0.1,0-0.2c0-0.1,0-0.1,0.1-0.2c0-0.1,0.1-0.1,0.2-0.2
			c0.1,0,0.2-0.1,0.2-0.1c0.1,0,0.1,0,0.2,0c0.1,0,0.1,0.1,0.2,0.1C276.1,119.2,276.1,119.2,276.2,119.3 M275,108.8L275,108.8
			l-0.1,0.2c0,0.1,0,0.1-0.1,0.1l-0.1,0.1l-0.1,0.1l0.2,0.1L275,108.8L275,108.8z M275.1,109.6l-0.6-0.2l-0.1,0.2l-0.2-0.1l0.2-0.4
			h0.1l0.1-0.1l0.1-0.1c0,0,0.1-0.1,0.1-0.2l0.1-0.2l0.1-0.2l0.7,0.2l-0.2,0.7h0.1l-0.2,0.4l-0.2-0.1V109.6z M274.5,119.4l0.2-0.1
			l0.2,0.9l-0.2,0.1l-0.2-0.5l0,0l-0.1,0.4l-0.2,0.2l-0.2,0.1l-0.2-0.9l0.2-0.1l0.1,0.2l0.1,0.2l0,0v-0.1v-0.1L274.5,119.4z
			 M273.5,108.8L273.5,108.8v-0.2c0,0,0-0.1-0.1-0.1h-0.1h-0.1c0,0-0.1,0-0.1,0.1v0.1v0.1c0,0.1,0,0.1,0,0.1v0.1c0,0,0,0.1,0.1,0.1
			h0.1h0.1c0,0,0.1,0,0.1-0.1V108.8L273.5,108.8 M273.8,108.8c0,0.1,0,0.2,0,0.2c0,0.1-0.1,0.1-0.1,0.2c0,0-0.1,0.1-0.2,0.1
			c-0.1,0-0.2,0-0.2,0c-0.1,0-0.2,0-0.2-0.1c-0.1,0-0.1-0.1-0.2-0.1c0-0.1-0.1-0.1-0.1-0.2c0-0.1,0-0.2,0-0.2c0-0.1,0-0.2,0-0.2
			c0-0.1,0.1-0.1,0.1-0.2c0,0,0.1-0.1,0.2-0.1s0.2,0,0.2,0s0.2,0,0.2,0.1c0.1,0,0.1,0.1,0.2,0.1c0,0.1,0.1,0.1,0.1,0.2
			C273.8,108.7,273.8,108.8,273.8,108.8 M273.2,119.6c0.1,0,0.1,0,0.2,0c0.1,0,0.1,0,0.2,0v0.2h-0.1h-0.1h-0.1c0,0-0.1,0-0.1,0.1
			c0,0,0,0.1-0.1,0.1c0,0,0,0.1,0,0.2c0,0.1,0,0.1,0,0.2c0,0,0,0.1,0.1,0.1c0,0,0.1,0,0.1,0.1h0.1c0,0,0,0,0.1,0h0.1h0.1
			c0,0,0,0,0.1,0v0.2c-0.1,0-0.1,0-0.2,0c-0.1,0-0.1,0-0.2,0c-0.1,0-0.2,0-0.2,0s-0.1-0.1-0.2-0.1c0-0.1-0.1-0.1-0.1-0.2
			c0-0.1,0-0.1,0-0.2c0-0.1,0-0.1,0-0.2c0-0.1,0-0.1,0.1-0.2c0-0.1,0.1-0.1,0.2-0.1C272.9,119.6,273,119.6,273.2,119.6 M271.9,119.4
			c0.1,0,0.1,0,0.2,0c0,0,0.1,0,0.1,0.1l-0.1,0.2H272h-0.1h-0.1h-0.1c0,0-0.1,0-0.1,0.1c0,0,0,0.1-0.1,0.1c0,0.1,0,0.1,0,0.2v0.1
			c0,0,0,0.1,0.1,0.1h0.1l0,0h0.1h0.1c0,0,0,0,0.1,0v0.2c-0.1,0-0.1,0-0.2,0c-0.1,0-0.1,0-0.2,0c-0.1,0-0.2-0.1-0.2-0.1
			c-0.1,0-0.1-0.1-0.1-0.2c0-0.1,0-0.1,0-0.2c0-0.1,0-0.1,0-0.2c0-0.1,0-0.1,0.1-0.2c0-0.1,0.1-0.1,0.1-0.2c0.1,0,0.1-0.1,0.2-0.1
			C271.7,119.4,271.8,119.4,271.9,119.4 M272.2,109.4l-0.2,0.1l-0.2-0.7h-0.2v0.1c0,0.1,0,0.2,0.1,0.2c0,0.1,0,0.2,0,0.2
			s0,0.1-0.1,0.2c0,0.1-0.1,0.1-0.2,0.2l-0.1-0.2c0.1,0,0.1-0.1,0.1-0.1v-0.1c0,0,0-0.1,0-0.2V109l-0.1-0.3l0.7-0.2L272.2,109.4z
			 M270.7,119.9l-0.7-0.3l0.4-0.8l0.7,0.3l-0.1,0.2l-0.4-0.2l-0.1,0.2l0.3,0.2l-0.1,0.2l-0.3-0.2l-0.1,0.2l0.4,0.2L270.7,119.9z
			 M270.4,109.6C270.4,109.6,270.4,109.5,270.4,109.6l-0.2-0.2h-0.1h-0.1c0,0-0.1,0-0.1,0.1v0.1v0.1c0,0,0,0.1,0.1,0.1l0.1,0.1
			l0.1,0.1h0.1h0.1c0,0,0.1,0,0.1-0.1v-0.1L270.4,109.6C270.4,109.7,270.4,109.6,270.4,109.6 M270.7,109.4c0,0.1,0.1,0.1,0.1,0.2
			c0,0.1,0,0.1,0,0.2c0,0.1,0,0.1-0.1,0.2c0,0.1-0.1,0.1-0.2,0.2c-0.1,0-0.2,0.1-0.2,0.1c-0.1,0-0.1,0-0.2,0c-0.1,0-0.1-0.1-0.2-0.1
			c-0.1-0.1-0.1-0.1-0.1-0.2c0-0.1-0.1-0.1-0.1-0.2c0-0.1,0-0.1,0-0.2c0-0.1,0-0.1,0.1-0.2c0-0.1,0.1-0.1,0.2-0.2
			c0.1,0,0.2-0.1,0.2-0.1c0.1,0,0.1,0,0.2,0c0.1,0,0.1,0.1,0.2,0.1C270.6,109.3,270.6,109.3,270.7,109.4 M269.6,118.4l-0.2,0.3
			c0.1,0,0.1,0,0.2,0s0.1,0,0.2-0.1c0,0,0-0.1,0.1-0.1v-0.1C269.8,118.5,269.7,118.5,269.6,118.4L269.6,118.4 M269.1,118.5l0.2-0.3
			c-0.1,0-0.1-0.1-0.2,0c-0.1,0-0.1,0-0.2,0.1c0,0.1-0.1,0.1-0.1,0.2C269,118.4,269.1,118.5,269.1,118.5 M269.8,118.2L269.8,118.2
			c0,0.1,0.1,0.2,0.1,0.2c0,0.1,0.1,0.1,0.1,0.2c0,0.1,0,0.1,0,0.2s-0.1,0.1-0.1,0.2c0,0.1-0.1,0.1-0.2,0.1c-0.1,0-0.1,0-0.2,0
			s-0.1,0-0.2,0s-0.1-0.1-0.2-0.1l-0.1,0.1l-0.2-0.2l0.1-0.1c-0.1-0.1-0.1-0.1-0.1-0.2c0-0.1-0.1-0.1-0.1-0.2c0-0.1,0-0.1,0-0.2
			c0-0.1,0.1-0.1,0.1-0.2l0.1-0.1c0.1,0,0.1,0,0.2,0c0.1,0,0.1,0,0.2,0s0.1,0.1,0.2,0.1v-0.1L269.8,118.2z M269.1,110.6L269.1,110.6
			l0.1,0.2l0.1,0.2l-0.2,0.2l-0.2-0.1l-0.2-0.1l0,0l0.4,0.3l-0.2,0.2l-0.7-0.7l0.2-0.2l0.3,0.2l0.2,0.1l0,0L269.1,110.6l-0.2-0.2
			l0.2-0.2l0.7,0.7l-0.2,0.2L269.1,110.6z M268.5,117.4L268.5,117.4l0.2-0.2v-0.1V117l-0.1-0.1h-0.1h-0.1c0,0-0.1,0-0.1,0.1
			l-0.1,0.1l-0.1,0.1v0.1v0.1c0,0,0,0.1,0.1,0.1h0.1L268.5,117.4C268.4,117.4,268.4,117.4,268.5,117.4 M268.6,117.6
			c-0.1,0-0.1,0.1-0.2,0.1c-0.1,0-0.1,0-0.2,0c-0.1,0-0.1,0-0.2-0.1c-0.1,0-0.1-0.1-0.2-0.2c-0.1-0.1-0.1-0.2-0.1-0.2
			c0-0.1,0-0.1,0-0.2c0-0.1,0.1-0.1,0.1-0.2c0-0.1,0.1-0.1,0.2-0.2c0.1,0,0.1-0.1,0.2-0.1s0.1,0,0.2,0c0.1,0,0.1,0,0.2,0.1
			c0.1,0,0.1,0.1,0.2,0.2c0.1,0.1,0.1,0.2,0.1,0.2c0,0.1,0,0.1,0,0.2c0,0.1-0.1,0.1-0.1,0.2S268.7,117.6,268.6,117.6 M268.1,115.9
			L268.1,115.9h-0.2v0.1c0,0,0,0.1,0.1,0.1h0.1C268.1,116,268.1,116,268.1,115.9C268.1,116,268.1,116,268.1,115.9 M268.1,116.3
			L268.1,116.3h-0.2c0,0-0.1,0-0.1-0.1c0,0-0.1-0.1-0.1-0.2l-0.1-0.2l-0.3,0.1l-0.1-0.2l0.9-0.3l0.2,0.3c0,0.1,0,0.1,0,0.2
			c0,0.1,0,0.1,0,0.1s0,0.1-0.1,0.1C268.2,116.3,268.2,116.3,268.1,116.3 M267.2,115v-0.2l0.7-0.1v-0.3l-0.7,0.1v-0.2l0.9-0.1
			l0.1,0.8L267.2,115z M279.4,114.2v0.2h-0.9v-0.2H279.4z M277.5,111.6l-0.4-0.6l0.7-0.6l0.4,0.6l-0.2,0.1l-0.2-0.3l-0.2,0.1
			l0.2,0.3l-0.2,0.1l-0.2-0.3l-0.2,0.1l0.2,0.3L277.5,111.6z M276.7,110.6l-0.2-0.2l0.6-0.7l0.2,0.2L276.7,110.6z M277.7,117.4
			L277.7,117.4l0.2,0.2l0.2,0.2l0.1-0.2l-0.2-0.1L277.7,117.4z M279.1,116l-0.1,0.2l-0.7-0.2l-0.1,0.2h0.1c0.1,0,0.2,0.1,0.2,0.1
			c0.1,0,0.2,0.1,0.2,0.1c0.1,0.1,0.1,0.1,0.1,0.2c0,0.1,0,0.2,0,0.2h-0.2c0-0.1,0-0.1,0-0.2c0,0,0-0.1-0.1-0.1l-0.1-0.1l-0.2-0.1
			l-0.2-0.1l0.2-0.7L279.1,116z M279.4,115.4h-0.9v-0.2h0.3V115c0-0.1,0-0.1,0-0.2c0-0.1,0-0.1,0.1-0.1l0.1-0.1c0,0,0.1,0,0.2,0
			c0.1,0,0.1,0,0.1,0s0.1,0,0.1,0.1l0.1,0.1c0,0,0,0.1,0,0.2L279.4,115.4z M278.9,115v0.2h0.2V115v-0.1h-0.1
			C279,114.9,279,114.9,278.9,115L278.9,115"/>
	</g>
	<g>
		<path class="st4" d="M257.7,116.1c-0.2-0.1-0.3-0.1-0.5-0.1s-0.3,0.1-0.3,0.2c0,0.3,1,0.1,1,0.8c0,0.5-0.4,0.7-0.9,0.7
			c-0.2,0-0.4,0-0.7-0.1v-0.4c0.2,0.1,0.3,0.2,0.6,0.2c0.2,0,0.3-0.1,0.3-0.2c0-0.4-1-0.2-1-0.9c0-0.4,0.4-0.7,0.8-0.7
			c0.2,0,0.4,0,0.6,0.1L257.7,116.1z"/>
		<path class="st4" d="M254.4,113.9c0,0-0.7-0.3-1.2-0.8c0,0,0.3,0.2,0.6,0.3c0,0,0.5,0.2,1,0.4c0,0-0.2-0.1-0.3-0.2
			c0,0-1-0.5-1-0.6c0,0,0.3,0.2,0.4,0.2l0.1,0.1c0,0,0,0-0.1-0.1c0,0-0.4-0.2-0.5-0.3c0,0-0.7-0.4-1.3-1.3c0,0-0.2,0-0.3,0.2
			c0,0-0.1,0.1-0.3,0.1c0,0,0.6,0.8,1.4,1.3c0,0,0.3,0.2,0.7,0.4c-0.4-0.2-0.7-0.3-1-0.5c-0.7-0.6-1.2-1.1-1.2-1.2l0,0l0,0l0,0
			c0,0,0.3,0.6,1.3,1.2c0.4,0.3,1,0.7,1.7,0.9l0,0l0,0c-0.7-0.2-1.2-0.6-1.7-0.8c0.2,0.2,0.6,0.3,0.9,0.5c0.2,0.1,0.5,0.2,0.7,0.3
			c0,0-0.1,0-0.2-0.2c0,0,0.1,0.1,0.2,0.1C254.4,114,254.3,114,254.4,113.9c-0.1,0,0.2,0.1,0.2,0.2
			C254.7,114.1,254.5,114,254.4,113.9 M251.4,112c0.1,0.2,0.4,0.6,1.1,1.1C251.7,112.6,251.4,112.2,251.4,112"/>
		<path class="st4" d="M253,109.9L253,109.9c-0.1-0.1-0.2-0.2-0.2-0.2c-0.8-0.6-1.5-0.7-1.7-0.7l0,0l0,0l0,0c0,0,0.8,0.2,1.7,0.8
			C252.9,109.8,252.9,109.9,253,109.9L253,109.9c-0.1-0.1-0.2-0.1-0.2-0.2c-0.7-0.5-1.4-0.7-1.6-0.8c0.2,0.1,0.9,0.2,1.7,0.7
			C252.9,109.8,252.9,109.8,253,109.9"/>
		<path class="st4" d="M257.8,110.3L257.8,110.3L257.8,110.3L257.8,110.3"/>
		<path class="st4" d="M258.7,111.4L258.7,111.4c0.1,0.2,0.1,0.4,0.2,0.6C258.9,111.8,258.8,111.7,258.7,111.4"/>
		<polyline class="st4" points="257.8,110.3 257.8,110.3 257.8,110.3 257.8,110.3 		"/>
		<path class="st4" d="M253.1,109.9L253.1,109.9C253.1,109.9,253,109.9,253.1,109.9C253,109.9,253,109.9,253.1,109.9
			C253,109.9,253,109.9,253.1,109.9"/>
		<path class="st4" d="M253,109.9C253,109.9,253,109.9,253,109.9C253,109.9,253,109.9,253,109.9C253,109.9,253,109.9,253,109.9
			L253,109.9"/>
		<polyline class="st4" points="257.8,110.3 257.8,110.3 257.8,110.3 257.8,110.3 257.8,110.3 		"/>
		<polyline class="st4" points="257.8,110.3 257.8,110.3 257.8,110.3 257.8,110.3 257.8,110.3 		"/>
		<polyline class="st4" points="257.9,110.3 257.9,110.3 257.8,110.3 257.9,110.3 		"/>
		<ellipse class="st4" cx="257.8" cy="110.2" rx="0" ry="0"/>
		<path class="st4" d="M258.1,110.5L258.1,110.5c0.1,0.1,0.1,0.1,0.2,0.2c0,0,0,0,0-0.1C258.2,110.6,258.2,110.5,258.1,110.5"/>
		<path class="st4" d="M258.1,110.4C258.1,110.4,258.1,110.5,258.1,110.4C258.1,110.5,258.1,110.5,258.1,110.4"/>
		<path class="st4" d="M257.7,111.9C257.7,111.9,257.6,111.9,257.7,111.9C257.6,111.9,257.6,111.9,257.7,111.9
			C257.6,111.8,257.6,111.8,257.7,111.9c-0.2-0.2-0.2-0.2-0.3-0.3c0,0,0,0-0.1-0.1c-0.2-0.1-0.2-0.2-0.4-0.2
			c-0.3-0.2-0.6-0.2-0.6-0.2l0,0l0,0c-0.1,0-0.2-0.1-0.2-0.1l0,0l0,0l0,0l0,0l0,0c0,0,0,0-0.1,0c-0.1,0-0.2-0.1-0.3-0.1h-0.1
			c-0.2-0.1-0.4-0.1-0.6-0.2c-0.4-0.1-0.9-0.2-1.3-0.2l0,0l0,0l0,0h-0.1c-0.6-0.1-0.9-0.2-0.9-0.2h-0.2l0.2-0.1
			c0.2-0.1,0.3-0.1,0.4-0.2l0,0c-0.5-0.3-1.2-0.7-2-1c0,0-0.2,0.2-0.2,0.4c0,0,0,0.3-0.3,0.4c0,0,1.9,0.4,2.9,1.5c0,0,1,0.8,1.4,2.5
			c0,0,0-0.2,0-0.3c0,0,0.1,0.2,0.1,0.3c0,0,0-0.1,0-0.2c0,0,0.1,0.2,0.2,0.5c0,0-0.2-1.2-0.8-2.5c0,0,0.5,0.2,1.1,2.3
			c0,0-0.2-1.7-1-2.7c0,0-0.1-0.1-0.2-0.2c-0.2-0.2-0.2-0.3-0.4-0.5l0,0c0.6,0.5,1.1,1.2,1.3,2.2l0,0l0,0c-0.2-0.9-0.7-1.7-1.3-2.2
			c0.4,0.1,0.8,0.2,1.2,0.2c0.2,0.9,0.5,2.1,0.5,3.2c0,0,0-1,0-1.2c0,0,0.1,0.5,0,0.7c0,0,0-0.2,0-0.3c0,0,0.1,0.2,0.1,0.9
			c0,0,0.1-0.4,0.1-1.7c0,0,0-0.7-0.2-1.3h0.1c0,0.1,0.1,0.2,0.1,0.2c0,0,0.3,1.2,0.2,2.9c0,0,0.2-0.3,0.2-1.5c0,0,0-0.7-0.2-1.6
			c0,0,0,0,0.1,0c0,0.1,0,0.2,0.1,0.2c0,0,0.2,1.2,0,2.2c0,0-0.1,0.6-0.2,0.7c0,0,0.1-0.2,0.2-1.2c0,0,0.1-0.7-0.1-1.7
			c0,0,0-0.2-0.1-0.3l0,0v0.1c0,0,0.2,0.9,0.1,2l0,0l0,0c0.1-1.1-0.1-1.9-0.1-2v-0.1c0.1,0,0.1,0.1,0.2,0.1l0,0l0,0l0,0
			c0,0,0.2,0.1,0.6,0.2c-0.1,0.7-0.2,1.6-0.7,2.4c0,0,0.2-0.4,0.3-0.7c0,0-0.1,0.4-0.2,0.5c0-0.1,0.1-0.2,0.2-0.2c0,0,0,0.2-0.3,0.7
			c0,0,0.7-0.7,1.1-2.4c0,0,0.1,0,0.1,0.1c0,0.2-0.1,0.7-0.2,1.1c0,0-0.2,0.9-0.7,1.5C256.4,114.2,257.1,113.7,257.7,111.9
			C257.6,111.9,257.6,112,257.7,111.9c-0.2,0.5-0.3,1-0.7,1.6l0,0l0,0C257.3,113,257.5,112.4,257.7,111.9
			C257.7,112,257.7,112,257.7,111.9C257.7,112,257.7,112,257.7,111.9 M254,110.9c-0.1-0.2-0.2-0.2-0.4-0.5h0.1
			C253.8,110.5,253.8,110.7,254,110.9 M256.1,111.1L256.1,111.1L256.1,111.1C256.1,111.1,256.1,111.1,256.1,111.1L256.1,111.1
			L256.1,111.1"/>
		<path class="st4" d="M258.9,112c0-0.2-0.1-0.3-0.2-0.6c-0.1-0.2-0.2-0.5-0.4-0.7c-0.2-0.2-0.3-0.3-0.5-0.5l0,0l0,0
			c0-0.4,0-0.8-0.1-1.2c-0.1-1.1-0.5-2.2-1.5-3c-0.1-0.1-0.2-0.2-0.2-0.2l0,0l0,0c0,0,0.5,0.3,1,1.1c0.2,0.5,0.6,1.2,0.7,2.2
			c0,0.2,0,0.3,0,0.5c0,0.1,0,0.2,0,0.2c0-0.5-0.2-2.2-1.1-3.4c0,0-0.3-0.4-0.7-0.6c0,0,0,0.2-0.4,0.4c0,0-0.2,0.1-0.5,0.4
			c0,0,1.1,0.6,1.6,2.2c0,0,0.1,0.2,0.1,0.4c-0.1-0.1-0.2-0.1-0.3-0.2c-0.3-0.2-0.7-0.2-0.9-0.3c-0.1-0.3-0.2-0.6-0.3-0.9
			c-0.5-1.2-1.2-2.6-2.2-3.1c-0.1,0-0.1-0.1-0.1-0.1l0,0l0,0c0,0,0.6,0.3,1.2,1.3c0.4,0.5,0.8,1.3,1.2,2.4c0.1,0.2,0.1,0.2,0.2,0.4
			c0,0,0,0-0.1,0c-0.2-0.6-0.5-1.3-0.8-1.9c0,0-0.7-1.2-1.7-2.2c0,0,0.2,0.2-0.6,0.6c-0.2,0.1-0.3,0.4-0.4,0.8c0,0,1.1,0.3,2.3,2.3
			c0,0,0,0.1,0.1,0.2c0,0,0,0,0,0.1c0-0.1,0-0.1,0-0.1l0,0l0,0c0.4,0.1,0.9,0.2,0.9,0.2c0.1,0,0.2,0,0.2,0.1l0,0c0,0,0,0,0.1,0l0,0
			l0,0l0,0l0,0l0,0l0,0l0,0c0.2,0.1,0.5,0.2,0.7,0.2c0.2,0.1,0.3,0.2,0.5,0.2l0,0c0.4,0.2,0.7,0.4,1,0.6l0,0l0,0l0,0l0,0l0,0l0,0
			c0.2,0.1,0.2,0.2,0.4,0.4c0.2,0.3,0.5,0.7,0.5,1.2l0,0l0,0c-0.1-0.3-0.2-0.7-0.3-0.9c0-0.1-0.1-0.1-0.1-0.2
			c0.2,0.2,0.3,0.4,0.4,0.7c0.2,0.7,0.2,1.5-0.3,2.3c-0.1,0.2-0.2,0.2-0.2,0.4l0,0l0,0c0.1-0.2,0.2-0.3,0.2-0.4
			C258.8,113.2,259,112.6,258.9,112 M257.1,107c-0.2-0.4-0.5-0.7-0.7-0.8c0.8,0.7,1.2,1.7,1.3,2.6C257.6,108,257.3,107.5,257.1,107
			 M254.1,106.2c-0.5-0.7-0.9-1.1-1.2-1.2c1,0.7,1.7,1.9,2.2,3.1C254.8,107.2,254.4,106.6,254.1,106.2 M255.4,108.7
			c0,0.1,0.1,0.2,0.1,0.3l0,0C255.5,108.9,255.4,108.9,255.4,108.7 M255.5,109L255.5,109L255.5,109L255.5,109L255.5,109L255.5,109
			L255.5,109z M255.5,109L255.5,109L255.5,109L255.5,109L255.5,109L255.5,109L255.5,109 M256.2,109.4c-0.2-0.1-0.5-0.2-0.7-0.2l0,0
			l0,0c0.2,0.1,0.6,0.2,0.9,0.3c0.1,0.1,0.2,0.1,0.3,0.2l0,0l0,0C256.7,109.5,256.4,109.4,256.2,109.4 M257.8,109.4
			c0,0.2,0.1,0.6,0.1,0.8c0,0,0,0-0.1,0l0,0c0-0.2,0-0.3,0-0.4C257.8,109.6,257.8,109.5,257.8,109.4 M257.8,110.3
			C257.8,110.2,257.8,110.2,257.8,110.3C257.8,110.2,257.8,110.2,257.8,110.3L257.8,110.3L257.8,110.3 M258.1,110.5L258.1,110.5
			C258.1,110.5,258.1,110.4,258.1,110.5C258.1,110.4,258.1,110.4,258.1,110.5c-0.2-0.2-0.2-0.2-0.2-0.2l0,0
			C258,110.4,258.1,110.5,258.1,110.5c0.1,0.1,0.1,0.1,0.1,0.2C258.2,110.6,258.2,110.5,258.1,110.5"/>
		<path class="st4" d="M258.1,110.5c0,0-0.9-0.9-2.8-1.5c0,0-0.5-0.2-0.9-0.2c0,0-0.2,0.4-0.4,0.7s-0.8,0.4-1.4,0.7
			c0,0,2.8,0.4,3.8,0.9c0,0,2.5,0.8,1.2,2.4c0,0-0.2,0.3-0.7,0.6c0,0,0.1,0,0.2-0.2c0,0-0.1,0.2-0.5,0.4c0,0,0.3-0.1,0.9-0.6
			c0,0,0.7-0.6,0.8-1.4c0,0,0.1-0.4-0.1-0.8c0.1,0.2,0.3,0.5,0.2,1c-0.1,0.7-0.7,1.5-1.9,2.2l0,0l0,0c1.2-0.7,1.8-1.5,1.9-2.2
			c0.1-0.5-0.2-0.8-0.2-1c0.1,0.1,0.2,0.3,0.2,0.8c0,0,0.1,1.2-1.7,2.4c0,0,0.3-0.1,0.8-0.5c0,0,1.7-1.1,1-2.9c0,0,0.4,0.7,0.1,1.7
			c0,0-0.2,0.7-1.1,1.4c0,0,0.4-0.2,0.7-0.7c0,0,0.5-0.7,0.5-1.3C258.9,112.4,259,111.4,258.1,110.5"/>
		<path class="st4" d="M251.1,116.1c-0.2-0.1-0.3-0.1-0.5-0.1s-0.3,0.1-0.3,0.2c0,0.3,1,0.1,1,0.8c0,0.5-0.4,0.7-0.9,0.7
			c-0.2,0-0.4,0-0.7-0.1v-0.4c0.2,0.1,0.3,0.2,0.6,0.2c0.2,0,0.3-0.1,0.3-0.2c0-0.4-1-0.2-1-0.9c0-0.4,0.4-0.7,0.8-0.7
			c0.2,0,0.4,0,0.6,0.1L251.1,116.1z"/>
		<rect x="253.7" y="115.6" class="st4" width="0.6" height="2.1"/>
		<polygon class="st4" points="252.6,116.6 253.4,115.6 252.8,115.6 252.1,116.5 252.1,116.5 252.1,114.6 251.5,114.7 251.5,117.7 
			252.1,117.7 252.1,116.7 252.1,116.7 252.8,117.7 253.5,117.7 		"/>
		<polygon class="st4" points="254.6,114.7 254.6,117.7 255.2,117.7 255.2,114.6 		"/>
		<polygon class="st4" points="255.5,114.7 255.5,114.7 255.5,117.7 256,117.7 256,114.6 		"/>
		<path class="st4" d="M254.3,114.9c0-0.2-0.2-0.3-0.3-0.3c-0.2,0-0.3,0.2-0.3,0.3c0,0.2,0.2,0.3,0.3,0.3
			C254.2,115.2,254.3,115.1,254.3,114.9"/>
		<path class="st4" d="M244.3,115.6c-0.7,0-1,0.6-1,1.1c0,0.5,0.2,1.1,1,1.1c0.7,0,1-0.6,1-1.1C245.2,116.2,244.9,115.6,244.3,115.6
			 M244.3,117.6c-0.4,0-0.7-0.3-0.7-0.8s0.2-0.8,0.7-0.8s0.7,0.3,0.7,0.8S244.7,117.6,244.3,117.6"/>
		<path class="st4" d="M245.7,116v-0.3h-0.2v2h0.2v-1l0,0c0-0.4,0.1-0.8,0.6-0.8h0.1l0,0v-0.2l0,0
			C246.1,115.6,245.9,115.7,245.7,116"/>
		<path class="st4" d="M249,114.7l-0.2,0.1v1.2c-0.1-0.1-0.2-0.3-0.7-0.3c-0.7,0-0.8,0.6-0.8,1.1c0,0.7,0.3,1.1,0.8,1.1
			c0.3,0,0.5-0.1,0.7-0.3v0.3h0.2V114.7L249,114.7z M248.1,117.6c-0.6,0-0.7-0.6-0.7-0.8s0.1-0.8,0.7-0.8c0.4,0,0.7,0.4,0.7,0.8
			C248.8,117.1,248.6,117.6,248.1,117.6"/>
		<polygon class="st4" points="247,114.7 246.7,114.7 246.7,117.7 247,117.7 		"/>
		<path class="st4" d="M240.4,115.6h-0.2l0,0l0.7,2l0,0h0.3l0.6-1.7l0,0l0.6,1.7h0.3l0.7-2H243l-0.6,1.7l0,0l-0.6-1.7h-0.3l-0.6,1.7
			l0,0C240.9,117.5,240.4,115.6,240.4,115.6L240.4,115.6z"/>
		<path class="st4" d="M240.5,119.5h0.3c0.2,0,0.3,0,0.5-0.1c0.2-0.1,0.2-0.2,0.2-0.4c0-0.1,0-0.2-0.1-0.2c0-0.1-0.1-0.1-0.2-0.2
			c-0.1,0-0.2-0.1-0.2-0.1s-0.2,0-0.2,0h-0.2L240.5,119.5L240.5,119.5z M240.3,118.2h0.7c0.5,0,0.8,0.2,0.8,0.7
			c0,0.2-0.1,0.3-0.2,0.4c-0.1,0.1-0.2,0.2-0.4,0.2l0,0c0.1,0,0.2,0.1,0.2,0.1l0.1,0.1c0,0,0,0.1,0.1,0.2l0.5,1.1h-0.3l-0.4-0.9
			c-0.1-0.2-0.2-0.2-0.2-0.3c0,0-0.1,0-0.2-0.1c-0.1,0-0.1,0-0.2,0h-0.2v1.3h-0.2L240.3,118.2L240.3,118.2z"/>
		<path class="st4" d="M243.6,120.5c0,0.2,0,0.3,0,0.5h-0.2v-0.3l0,0c0,0.1-0.1,0.1-0.1,0.2c0,0.1-0.1,0.1-0.1,0.2
			c-0.1,0-0.1,0.1-0.2,0.1c-0.1,0-0.2,0.1-0.2,0.1c-0.2,0-0.4-0.1-0.5-0.2c-0.1-0.2-0.2-0.3-0.2-0.6V119h0.2v1.2
			c0,0.2,0,0.3,0.1,0.4c0.1,0.1,0.2,0.2,0.3,0.2c0.1,0,0.2,0,0.3-0.1c0.1-0.1,0.2-0.1,0.2-0.2c0.1-0.1,0.1-0.2,0.1-0.2
			c0-0.1,0-0.2,0-0.2V119h0.2L243.6,120.5L243.6,120.5z"/>
		<path class="st4" d="M244.3,120.9c0.2,0,0.2,0,0.3-0.1c0.1-0.1,0.2-0.2,0.2-0.2s-0.1-0.2-0.2-0.2c-0.1-0.1-0.2-0.2-0.3-0.2
			s-0.1-0.1-0.2-0.1c-0.1,0-0.1-0.1-0.2-0.1c-0.1-0.1-0.1-0.1-0.1-0.2c0-0.1-0.1-0.1-0.1-0.2c0-0.2,0.1-0.3,0.2-0.4
			c0.2-0.1,0.2-0.1,0.4-0.1c0.1,0,0.2,0,0.2,0s0.2,0.1,0.2,0.1v0.2c-0.2-0.1-0.3-0.1-0.4-0.1c-0.2,0-0.2,0-0.3,0.1l-0.1,0.1
			c0,0.1,0,0.1,0,0.2c0,0.1,0,0.1,0.1,0.1l0.1,0.1c0.1,0,0.1,0.1,0.2,0.1s0.1,0.1,0.2,0.1c0.2,0.1,0.2,0.2,0.3,0.2
			c0.1,0.1,0.2,0.2,0.2,0.4c0,0.1,0,0.2-0.1,0.2s-0.1,0.2-0.2,0.2c-0.2,0.1-0.3,0.2-0.5,0.2s-0.4,0-0.6-0.1v-0.2
			C244,120.8,244.2,120.9,244.3,120.9"/>
		<path class="st4" d="M245.7,120.9c0.2,0,0.2,0,0.3-0.1c0.1-0.1,0.2-0.2,0.2-0.2s-0.1-0.2-0.2-0.2c-0.1-0.1-0.2-0.2-0.3-0.2
			c-0.1,0-0.1-0.1-0.2-0.1c-0.1,0-0.1-0.1-0.2-0.1c-0.1-0.1-0.1-0.1-0.1-0.2c0-0.1-0.1-0.1-0.1-0.2c0-0.2,0.1-0.3,0.2-0.4
			c0.2-0.1,0.2-0.1,0.4-0.1c0.1,0,0.2,0,0.2,0s0.2,0.1,0.2,0.1v0.2c-0.2-0.1-0.3-0.1-0.4-0.1c-0.2,0-0.2,0-0.3,0.1l-0.1,0.1
			c0,0.1,0,0.1,0,0.2c0,0.1,0,0.1,0.1,0.1l0.1,0.1c0.1,0,0.1,0.1,0.2,0.1s0.1,0.1,0.2,0.1c0.2,0.1,0.2,0.2,0.3,0.2s0.2,0.2,0.2,0.4
			c0,0.1,0,0.2-0.1,0.2s-0.1,0.2-0.2,0.2c-0.2,0.1-0.3,0.2-0.5,0.2s-0.4,0-0.6-0.1v-0.2C245.3,120.8,245.5,120.9,245.7,120.9"/>
		<rect x="246.7" y="118.2" class="st4" width="0.2" height="0.3"/>
		<rect x="246.7" y="119" class="st4" width="0.2" height="2"/>
		<path class="st4" d="M248.6,120L248.6,120c-0.2,0-0.2,0-0.4,0c-0.1,0-0.2,0-0.3,0.1c-0.1,0-0.2,0.1-0.2,0.2
			c-0.1,0.1-0.1,0.2-0.1,0.2c0,0.2,0.1,0.2,0.2,0.2c0.1,0.1,0.2,0.1,0.3,0.1c0.2,0,0.2,0,0.3-0.1c0.1-0.1,0.2-0.1,0.2-0.2
			c0-0.1,0.1-0.2,0.1-0.2c0-0.1,0-0.2,0-0.2L248.6,120L248.6,120z M248.6,120.7L248.6,120.7c-0.1,0.1-0.2,0.2-0.2,0.2
			c-0.1,0.1-0.2,0.1-0.4,0.1c-0.2,0-0.2,0-0.3-0.1c-0.1,0-0.2-0.1-0.2-0.2c-0.1-0.2-0.2-0.2-0.1-0.3c0-0.2,0-0.3,0.1-0.4
			c0.1-0.1,0.2-0.2,0.3-0.2c0.2-0.1,0.2-0.1,0.4-0.1c0.2,0,0.2,0,0.4,0h0.1l0,0c0-0.3-0.2-0.5-0.5-0.5c-0.2,0-0.4,0.1-0.6,0.2v-0.2
			c0.2-0.1,0.4-0.2,0.6-0.2c0.5,0,0.7,0.2,0.7,0.7v0.9c0,0.2,0,0.3,0,0.4h-0.2L248.6,120.7L248.6,120.7z"/>
	</g>
</g>
</svg>
