<?xml version="1.0" encoding="utf-8"?>
<!-- Generator: Adobe Illustrator 21.0.0, SVG Export Plug-In . SVG Version: 6.00 Build 0)  -->
<svg version="1.1" id="Слой_1" xmlns="http://www.w3.org/2000/svg" xmlns:xlink="http://www.w3.org/1999/xlink" x="0px" y="0px"
	 viewBox="0 0 17.9 26.1" style="enable-background:new 0 0 17.9 26.1;" xml:space="preserve">
<style type="text/css">
	.st0{fill:#838D9D;}
	.st1{fill:#CE112D;}
	.st2{fill:#FFFFFF;}
</style>
<path class="st0" d="M15.5,24.9l-6.4-2c-0.1,0-0.1,0-0.2,0l-6.4,2C2.2,25,2,24.6,2,24.2l2.3-12.5c0-0.2,0.2-0.4,0.3-0.4h8.6
	c0.1,0,0.2,0.1,0.3,0.4l2.3,12.5C15.9,24.6,15.7,25,15.5,24.9z"/>
<g>
	<path class="st1" d="M8.9,18.9c-5.3,0-9.7-4.3-9.7-9.7s4.3-9.7,9.7-9.7s9.7,4.3,9.7,9.7S14.3,18.9,8.9,18.9z"/>
	<path class="st2" d="M8.9,0.3c4.9,0,8.9,4,8.9,8.9s-4,8.9-8.9,8.9S0,14.2,0,9.2C0,4.3,4,0.3,8.9,0.3 M8.9-1.2
		C3.2-1.2-1.5,3.5-1.5,9.2S3.2,19.7,8.9,19.7S19.4,15,19.4,9.2S14.7-1.2,8.9-1.2L8.9-1.2z"/>
</g>
<path class="st2" d="M12.8,10c0.1,0.1,0.2,0.2,0.3,0.4c0.1,0.1,0.1,0.2,0.2,0.3c0.1,0.1,0,0.3-0.1,0.4c0,0,0,0-0.1,0
	c-0.2,0-0.3-0.1-0.4-0.3c-0.1-0.2-0.2-0.4-0.3-0.6c0,0,0,0-0.1-0.1v0.1c0.1,0.2,0.2,0.4,0.3,0.6c0.1,0.1,0,0.4-0.2,0.4
	c-0.1,0-0.3-0.1-0.3-0.2c-0.1-0.2-0.1-0.4-0.2-0.6l-0.1-0.1c0,0.1,0,0.1,0,0.2c0,0.1,0.1,0.3,0,0.4c0,0.1-0.1,0.2-0.2,0.2
	c0,0-0.1,0-0.1-0.1c-0.2-0.1-0.2-0.2-0.2-0.4s-0.1-0.3-0.3-0.4c-0.2,0-0.2-0.1-0.2,0.1c-0.1,0.2-0.1,0.4,0,0.7c0,0,0.1,0.1,0,0.1
	v0.1c0.1,0.1,0.2,0.2,0.3,0.2s0.2,0,0.2,0.1h0.1c0.3,0.1,0.5,0.3,0.4,0.7v0.1c0,0.1,0,0.2,0.2,0.2h0.1c0,0,0,0.1-0.1,0.1
	c-0.1,0.1-0.3,0.1-0.4,0c0,0,0,0-0.1,0v0.1c0,0.1,0,0.1,0,0.2c0,0,0,0,0,0.1c0,0,0,0-0.1,0c0,0-0.1,0-0.1-0.1c0,0-0.1-0.1-0.1,0l0,0
	c0,0,0,0-0.1,0V13c0,0.1,0.1,0.1,0.1,0.2c0.3,0.1,0.6,0.3,1,0.3c0.1,0,0.1,0,0.2,0c0.1-0.1,0.1-0.1,0-0.3c-0.1-0.1-0.1-0.2,0-0.3
	s0.1-0.3,0.2-0.4c0.1-0.1,0.2-0.1,0.3-0.2c0.1,0,0.1-0.1,0.2-0.1c0,0,0,0,0-0.1H13c-0.1,0.1-0.1,0-0.1,0V12c0-0.1,0-0.1,0.1,0h0.1
	c0,0,0,0,0-0.1s0-0.1,0-0.1h0.1c0.1,0,0.1,0,0.1,0.1c0,0,0,0,0,0.1h0.1c0.1-0.1,0.1,0,0.1,0.1c0,0,0.1,0.1-0.1,0.1h-0.1v0.1l0.1,0.1
	c0.2,0.1,0.4,0.3,0.5,0.5c0.2,0.3,0,0.5-0.2,0.7c0,0.1-0.1,0.1-0.1,0.2c0,0,0,0-0.1,0.1s-0.2,0.1-0.3,0.2c-0.2,0-0.4,0.1-0.6,0.1
	c-0.1,0-0.2-0.1-0.3-0.1c-0.2-0.1-0.4-0.2-0.7-0.2c-0.2,0-0.3-0.1-0.5-0.1s-0.4-0.1-0.7-0.1c-0.2,0-0.2,0-0.1-0.2l0,0
	c0-0.1,0-0.1,0-0.2h-0.1c-0.1,0-0.2,0-0.3-0.1v-0.1H10c0.1,0,0.2,0,0.2-0.2c0-0.1,0-0.2-0.1-0.3c-0.2-0.2-0.6-0.1-0.7,0.2
	c-0.1,0.2-0.1,0.4,0.1,0.5C9.8,13,9.9,13,10,13.1c0,0,0,0,0,0.1c0,0,0,0-0.1,0s-0.1,0-0.2-0.1c0,0,0,0-0.1,0c0,0,0,0,0,0.1
	c0.1,0.1,0.2,0.1,0.3,0.2c0.2,0.1,0.4,0.2,0.6,0.3c0.1,0,0.2,0.1,0.2,0.1c0.1,0,0.2,0,0.2-0.2v-0.1H11c0.2,0.1,0.2,0.3,0,0.4V14
	c0.2,0.2,0.3,0.3,0.1,0.5L11,14.6c0,0,0,0,0,0.1c0,0-0.1,0-0.1-0.1s0-0.1-0.1-0.2c0,0,0,0-0.1-0.1c0,0,0,0,0,0.1
	c0,0.4-0.4,0.5-0.6,0.3c-0.1-0.1-0.1-0.1-0.2,0c-0.1,0.2-0.4,0.3-0.6,0.2c-0.1,0-0.1,0-0.2,0.1c-0.2,0.3-0.3,0.3-0.5,0
	c-0.1-0.1-0.1-0.1-0.2-0.1c-0.3,0.1-0.5,0-0.7-0.2c0-0.1-0.1-0.1-0.1,0C7.7,15,7.5,15,7.4,15c-0.1-0.1-0.2-0.2-0.2-0.3v-0.1
	c0,0,0,0.1-0.1,0.1c0,0.1-0.1,0.1-0.1,0.2c0,0-0.1,0.1-0.1,0s0-0.1-0.1-0.2c-0.1-0.2-0.2-0.4,0.1-0.6C7,14.1,7,14,6.9,14
	c-0.2-0.1-0.1-0.4,0.1-0.5c0.1,0,0.1,0,0.1,0.1c0,0.2,0.1,0.2,0.3,0.2c0.1,0,0.1-0.1,0.2-0.1c0.2-0.1,0.5-0.3,0.7-0.4
	c0.1,0,0.1-0.1,0.2-0.1c0,0,0,0,0-0.1c0,0,0,0-0.1,0s-0.1,0-0.2,0.1c0,0,0,0-0.1,0v-0.1c0-0.1,0.1-0.1,0.2-0.2s0.2-0.1,0.2-0.3
	s-0.2-0.4-0.4-0.4c-0.2-0.1-0.3-0.1-0.5,0.1c-0.1,0.1-0.1,0.2-0.1,0.3s0.1,0.2,0.2,0.2h0.1c0,0,0,0.1-0.1,0.1S7.5,13,7.5,13
	c-0.1,0-0.1,0-0.1,0.1l0.1,0.1c0.1,0.1,0,0.1-0.1,0.2c-0.1,0-0.2,0-0.3,0c-0.5,0-0.9,0.1-1.2,0.3c-0.1,0-0.1,0.1-0.2,0.1
	c-0.1,0.1-0.1,0.1-0.1,0.2c0,0.1,0,0.3,0,0.4l-0.1,0.1c-0.1-0.1-0.3-0.1-0.3-0.3c0,0,0,0-0.1-0.1s-0.3-0.2-0.4-0.3s-0.1-0.2-0.2-0.3
	c0-0.1,0.1-0.1,0.1-0.2c0.1-0.1,0-0.2,0-0.3c-0.1-0.1-0.1-0.2-0.1-0.4c0,0,0-0.1-0.1-0.1c-0.1-0.2-0.2-0.5-0.3-0.7
	c-0.2-0.4-0.3-0.7-0.5-1c0-0.1-0.1-0.2-0.2-0.2l-0.1-0.1c0.1-0.1-0.1-0.1-0.1-0.2l0,0c-0.1,0.1-0.1,0-0.2,0C3.3,10,3.2,9.9,3.1,9.8
	V9.7c-0.1-0.1,0-0.1,0-0.2c0.1-0.1,0.1-0.1,0.2-0.1l0,0c-0.1-0.1,0-0.2-0.1-0.3c0,0-0.1-0.1-0.1-0.2c0.1,0,0.1-0.1,0.2-0.1
	c0.1,0,0.2-0.1,0.2-0.1c-0.1,0-0.2-0.1-0.2-0.1C3.2,8.5,3.1,8.4,3,8.3C2.9,8.2,3,8.2,3.1,8.2c0.2,0,0.3,0,0.5,0c0,0,0,0,0.1,0
	c0,0,0,0-0.1,0C3.4,8,3.3,7.9,3.2,7.8C3.1,7.8,3,7.7,2.9,7.6c0-0.1,0-0.2,0.1-0.2s0.3,0,0.4,0c0,0,0,0,0.1,0l0,0
	C3.3,7.2,3.2,7.1,3.1,6.8c0-0.1,0-0.2,0.1-0.2s0.2,0.1,0.3,0.1c0,0,0,0,0.1,0l0,0C3.5,6.6,3.3,6.4,3.3,6.2c0-0.1,0-0.2,0-0.3
	c0-0.1,0.1-0.1,0.2,0C3.6,6,3.8,6.2,4,6.4c0.1,0.1,0.1,0.1,0.2,0.2l0,0l0,0c0-0.2-0.1-0.3-0.2-0.4C3.9,6,3.8,5.8,3.7,5.6
	c-0.1-0.2-0.1-0.3,0-0.5V5c0.1,0,0.1-0.1,0.2-0.1L4,5c0.3,0.5,0.6,0.9,0.9,1.4c0,0,0.1,0.1,0.1,0c0.1-0.1,0.1,0,0.1,0.1
	C5.2,6.6,5.4,6.8,5.5,7h0.1c0-0.1,0.1,0,0.1,0C5.9,7.2,6,7.3,6.2,7.5c0.1,0.1,0.3,0.3,0.4,0.4c0.1,0.2,0.1,0.3-0.1,0.5
	C6.3,8.6,6.3,8.8,6.6,9C6.8,9.1,7,9.1,7.2,9c0.1-0.1,0.1-0.1,0-0.2C7.1,8.7,7,8.5,7.1,8.4c0-0.1,0-0.1,0.1,0c0.2,0.1,0.4,0.1,0.6,0
	c0,0,0,0,0-0.1c0,0,0,0-0.1,0s-0.2,0-0.3-0.1c0,0,0,0,0-0.1c0,0,0,0,0.1,0c0.3,0,0.4-0.2,0.5-0.5C8,7.4,7.9,7.2,7.7,7L7.6,6.9
	C7.5,6.7,6.9,6.6,6.7,6.8c0,0-0.1,0.1-0.1,0.2s0,0.1-0.1,0s0-0.2,0.1-0.2c0,0,0,0,0-0.1H6.5c-0.1,0-0.2,0.1-0.3,0.1
	C6,6.9,5.8,6.8,5.7,6.7c0,0,0,0,0-0.1c0,0,0,0,0.1,0s0.3,0,0.4,0c0.2,0,0.4-0.1,0.6-0.2l0,0l0,0c-0.1-0.1-0.4-0.1-0.5,0
	s-0.1,0-0.1,0C5.9,6.2,6,5.9,6.3,5.9c0.1,0,0.2-0.1,0.3-0.1l0,0c0,0,0,0-0.1,0S6.2,5.7,6.1,5.7C5.8,5.4,5.7,5.2,5.8,4.9
	c0,0,0,0,0-0.1s0-0.2,0-0.3c-0.1,0-0.2,0-0.2,0.1c-0.1,0-0.2,0.1-0.2,0.1C5.3,4.8,5.3,5,5.4,5.1c0,0.1,0.1,0.1,0.1,0.2s0,0.2,0,0.3
	C5.4,5.7,5.3,5.9,5.4,6l0,0C5.2,6,5.1,5.8,5.2,5.7l0,0c0-0.1,0.1-0.1,0.1-0.2L5.2,5.6c-0.1,0-0.1,0-0.2,0S4.8,5.5,4.8,5.7H4.7
	c-0.1-0.1-0.1-0.1,0-0.2c0-0.1,0.1-0.1,0.2-0.1c0,0,0,0,0.1,0h0.1V5.3L5,5.2C4.7,5,4.8,4.8,4.9,4.7C5,4.7,5,4.6,5.1,4.6
	s0.2-0.1,0.3-0.2l0.1-0.1c0.1-0.1,0.2-0.1,0.4,0c0.1,0,0.1,0,0.2,0c0.2,0.1,0.2,0.2,0.2,0.4c0,0.1-0.1,0.2-0.1,0.4
	c-0.1,0.2,0,0.2,0.1,0.3c0.1,0.1,0.2,0.1,0.3,0.1c0.1,0,0.1,0,0.1-0.1s0-0.2,0-0.2c0-0.1,0-0.1-0.1-0.2c0-0.2,0.1-0.3,0.2-0.3
	c0,0,0,0,0.1,0c0,0,0,0,0.1,0.1V4.7c0-0.1,0-0.2,0-0.2l0,0C6.8,4.4,7,4.4,7,4.3c0,0,0.1-0.1,0.1,0l0,0c0,0,0,0,0.1,0
	c0,0,0,0-0.1,0.1l0,0c0,0.1,0,0.2,0,0.3c0,0.1,0.1,0.1,0.1,0s0.1-0.1,0.2,0c0.1,0,0.2,0.1,0.2,0.2s0,0.1,0,0.2S7.5,5.3,7.5,5.4
	c0,0.1,0,0.1,0.1,0.1C7.9,5.4,8.2,5.3,8.5,5c0.1-0.1,0.1-0.2,0-0.3c-0.2,0-0.2-0.2-0.3-0.3C8.1,4.1,8.1,3.9,8.4,3.8
	c0.1,0,0.2-0.1,0.3-0.1h0.1h0.1V3.6c-0.1-0.1,0-0.2,0-0.3c0,0,0,0,0-0.1c0,0,0,0-0.1,0H8.7V3.1c0,0,0,0,0.1,0h0.1C8.9,3,9,3,9,3
	s0.1,0,0.1,0.1c0,0,0,0,0.1,0c0,0,0,0,0.1,0c0,0.1,0,0.1,0,0.2c0,0,0,0-0.1,0s-0.1,0,0,0.1c0,0.1,0.1,0.2,0,0.3v0.1h0.1h0.1
	c0.1,0,0.2,0.1,0.3,0.1C9.9,4,10,4.1,9.9,4.3C9.8,4.4,9.8,4.6,9.7,4.7C9.6,4.9,9.6,5.1,9.8,5.2s0.5,0.2,0.7,0.4h0.1V5.5
	c0-0.1-0.1-0.2-0.1-0.3c-0.1-0.2,0-0.3,0.2-0.4h0.1c0,0,0,0,0.1,0c0,0,0,0,0-0.1s0-0.2,0-0.3l0,0V4.3c0-0.1,0.1,0,0.1-0.1
	c0.1,0,0.1,0,0.1,0s0,0,0.1,0v0.1h-0.1c0,0.1,0,0.2,0,0.3h0.1c0.1-0.2,0.2,0,0.3,0c0.1,0.1,0.1,0.1,0.1,0.3c0,0.1,0,0.1-0.1,0.2v0.1
	c0,0.1,0,0.1,0,0.2c0.1,0,0.1,0,0.2,0h0.1C12,5.4,12,5.3,11.9,5c-0.1-0.1-0.1-0.2-0.1-0.3c-0.1-0.2,0-0.3,0.1-0.4
	c0.1,0,0.1-0.1,0.2-0.1c0.2-0.1,0.3-0.1,0.4,0.1c0.1,0.1,0.2,0.3,0.4,0.3c0.1,0,0.1,0,0.2,0.1c0.2,0.1,0.2,0.3,0.1,0.4l-0.1,0.1v0.1
	h0.1h0.1c0.1,0,0.2,0,0.2,0.1s0,0.1,0,0.2h-0.1c0-0.1-0.1-0.1-0.2-0.1c-0.1,0-0.2,0-0.3-0.1c0,0,0,0-0.1,0v0.1l0.1,0.1
	C13,5.8,12.8,6,12.7,6l0,0c0.1-0.1,0-0.2-0.1-0.3c-0.1-0.2-0.1-0.3,0-0.4c0-0.1,0.1-0.2,0.1-0.2c0-0.1,0-0.3-0.2-0.3
	c-0.1,0-0.1,0-0.2-0.1h-0.1c0,0.1,0,0.1,0,0.2s0.1,0.2,0.1,0.3c0.1,0.2,0,0.4-0.2,0.4c-0.1,0.1-0.3,0.1-0.4,0.1l0,0
	c-0.1,0-0.1,0-0.2,0.1c0.1,0,0.1,0.1,0.2,0.1C11.9,6,12,6,12.1,6.2c0.1,0.1,0,0.2,0,0.3c0,0.1-0.1,0.1-0.2,0c-0.2-0.1-0.4-0.1-0.5,0
	l0,0l0,0c0.2,0,0.3,0.1,0.5,0.1c0.1,0,0.3,0.1,0.4,0c0,0,0,0,0.1,0c0,0,0,0,0,0.1c-0.1,0.1-0.3,0.2-0.5,0.2c-0.1,0-0.3-0.1-0.4-0.2
	c0,0,0,0-0.1,0c0,0,0,0,0,0.1c0.1,0.1,0.1,0.2,0.1,0.3h-0.1c-0.1-0.2-0.3-0.3-0.5-0.3c-0.1,0-0.2,0-0.4,0.1c-0.1,0-0.1,0.1-0.2,0.1
	C10.1,7.2,10,7.4,10,7.6c0,0.3,0.1,0.7,0.5,0.5c0.1,0,0.1,0,0,0.1c0,0.1-0.2,0.2-0.3,0.2h-0.1c0,0,0,0.1,0.1,0.1
	c0.2,0.1,0.4,0.1,0.5,0c0.1,0,0.1,0,0.1,0c0,0.2,0,0.3-0.2,0.4c-0.1,0.1-0.1,0.1,0,0.2c0.2,0.2,0.7,0.1,0.8-0.1
	c0.1-0.1,0.1-0.3-0.1-0.4c-0.2-0.2-0.2-0.4-0.1-0.5c0-0.1,0.1-0.1,0.2-0.2c0.1-0.1,0.3-0.2,0.4-0.4c0.1-0.1,0.2-0.2,0.3-0.3
	c0,0,0.1-0.1,0.1,0s0.1,0,0.1,0c0.2-0.2,0.3-0.3,0.5-0.6l0,0c0.1,0.1,0.1,0,0.1,0c0.4-0.4,0.6-0.9,0.9-1.4c0.1-0.1,0.2-0.1,0.2,0
	c0.1,0.1,0.1,0.3,0.1,0.4c0,0.3-0.2,0.6-0.4,0.9c-0.1,0.1-0.2,0.2-0.2,0.3c0,0,0,0,0,0.1c0,0,0,0,0.1,0c0.2-0.2,0.5-0.4,0.7-0.6
	c0,0,0.1-0.1,0.2-0.1c0,0.1,0.1,0.1,0.1,0.2c0,0.3-0.1,0.5-0.3,0.6l-0.1,0.1c0.1,0,0.1,0,0.2,0c0.1,0,0.2,0,0.2-0.1
	c0.1,0,0.2,0,0.1,0.1c-0.1,0.2-0.2,0.4-0.4,0.6l0,0c0,0,0,0,0.1,0c0.2,0,0.3,0,0.5,0c0.1,0,0.1,0,0.1,0.1c0,0-0.1,0.1-0.3,0.2
	c-0.1,0-0.1,0.1-0.2,0.1l0,0c0,0,0,0,0.1,0c0.2,0,0.3,0,0.5,0c0.1,0,0.1,0.1,0.1,0.2c-0.1,0.2-0.3,0.3-0.5,0.3c0,0,0,0-0.1,0l0,0
	l0,0c0.1,0,0.2,0.1,0.4,0.1c0.1,0,0.1,0.1,0,0.2c-0.1,0.1-0.2,0.2-0.4,0.2h-0.1c0,0,0.1,0,0.1,0.1c0.1,0.1,0.1,0.2,0.2,0.3
	c0,0.1,0,0.2-0.2,0.3c-0.1,0-0.2,0-0.3,0s-0.1,0,0,0.1c0.1,0.2,0.1,0.3-0.2,0.3c-0.1,0-0.1,0-0.2,0c0,0.1,0.1,0.1,0.1,0.2
	c0,0.1,0,0.2,0,0.3c-0.1,0.1-0.3,0.1-0.4,0c-0.1-0.1-0.2-0.3-0.4-0.4C13,10.2,12.9,10.1,12.8,10C12.7,10,12.7,10,12.8,10
	C12.7,9.9,12.7,9.9,12.8,10C12.7,10,12.7,10,12.8,10z M6.8,10.6c0,0.2-0.1,0.4-0.3,0.5H6.4C6.3,11,6.2,11,6.2,10.9
	c0-0.1,0-0.3,0-0.4c0-0.1,0-0.1,0-0.2l-0.1,0.1c0,0.3-0.1,0.5-0.1,0.7c0,0.1-0.3,0.2-0.3,0.2c-0.1-0.1-0.2-0.3-0.2-0.4
	c0.1-0.2,0.2-0.4,0.3-0.6v-0.1c0,0,0,0-0.1,0.1c-0.1,0.2-0.2,0.4-0.4,0.6c0,0.1-0.1,0.2-0.3,0.2H4.9c-0.1-0.2-0.2-0.3,0-0.5
	C5,10.4,5.2,10.2,5.3,10c0,0,0,0,0-0.1H5.2c-0.2,0.2-0.4,0.4-0.6,0.7c-0.1,0.1-0.2,0.1-0.4,0.1H4.1v0.1c0.2,0.3,0.3,0.6,0.5,0.9
	c0.1,0.2,0.2,0.4,0.3,0.5c0,0.1,0.1,0.1,0.1,0.2c0.1,0.1,0.1,0.2,0.1,0.3c0,0.2,0.1,0.2,0.3,0.2c0.1,0,0.2,0,0.2,0.1
	c0.1,0.2,0.3,0.3,0.5,0.2c0.1,0,0.2-0.1,0.3-0.1C6.5,13,6.7,13,6.8,12.9c0,0,0.1-0.1,0-0.1c0-0.1-0.1,0-0.1,0l0,0c0-0.1-0.1,0-0.1,0
	s-0.1,0-0.1,0.1c0,0,0,0-0.1,0c0,0,0,0,0-0.1s0-0.1,0-0.2v-0.1H6.3c-0.1,0.1-0.3,0.1-0.4,0c0,0,0,0,0-0.1c0,0,0,0,0.1,0
	s0.2-0.1,0.2-0.1c0-0.1,0-0.1,0-0.2c-0.1-0.3,0.1-0.6,0.4-0.7h0.1c0-0.1,0.1-0.1,0.2-0.1s0.2,0,0.3-0.2V11c-0.1,0-0.1,0,0-0.1
	c0.1-0.2,0.1-0.5,0-0.7c-0.1-0.1-0.1-0.1-0.2-0.1H6.9C6.8,10.4,6.8,10.5,6.8,10.6L6.8,10.6z M9,5.2c-0.2,0-0.3,0-0.4,0.1L8.5,5.4
	c-0.2,0-0.4,0.1-0.6,0.2c0,0,0,0-0.1,0c0,0,0,0,0.1,0c0.2,0,0.3,0,0.5,0l0,0c0,0,0,0,0,0.1c-0.1,0-0.2,0.1-0.3,0.1
	c0,0-0.1,0-0.1,0.1c0.1,0,0.1,0,0.2,0l0,0h0.1L8.2,6l0,0c-0.1,0-0.1,0.1,0,0.1c0.1,0.1,0.3,0.1,0.4,0.2c0,0,0.1,0,0.2,0
	c-0.1,0-0.1,0.1-0.2,0.1c-0.1,0-0.1,0-0.1,0.1c0.2,0.3,0.4,0.6,0.4,1c0,0,0,0,0,0.1c0,0,0,0,0-0.1C9,7.2,9.1,6.9,9.3,6.6
	c0.1-0.1,0.1-0.1-0.1-0.2c0,0,0,0-0.1,0c0,0,0,0-0.1,0c0,0,0,0,0.1,0c0.2,0,0.3-0.1,0.5-0.1C10,6.1,9.9,6.1,9.8,6c0,0,0,0-0.1-0.1
	h0.1h0.1c0,0,0,0,0.1,0c0,0,0,0-0.1-0.1c0,0-0.1-0.1-0.2-0.1l0,0l0,0c0.2,0,0.3,0,0.5,0h0.1h-0.1C9.9,5.5,9.7,5.4,9.4,5.3
	C9.3,5.2,9.2,5.1,9,5.2z M8.4,14.5c0,0.1,0.1,0.2,0.1,0.3c0,0,0.1,0,0.1,0.1v-0.1c0-0.3,0.1-0.5,0.1-0.8c0-0.2,0.1-0.5,0.2-0.7
	c0,0,0,0,0-0.1l0,0c-0.1,0.1-0.1,0.3-0.2,0.4C8.6,13.9,8.5,14.2,8.4,14.5z M9.6,14.5c0-0.2,0-0.3-0.1-0.4c-0.1-0.2-0.2-0.5-0.3-0.7
	c0-0.1-0.1-0.1-0.1-0.2c0,0.1,0,0.1,0,0.2c0.1,0.5,0.2,0.9,0.2,1.4c0,0,0,0,0,0.1h0.1C9.5,14.7,9.6,14.6,9.6,14.5z M10.2,14
	c0-0.1-0.1-0.2-0.1-0.2c-0.2-0.2-0.4-0.4-0.7-0.5l0,0l0,0c0,0.1,0.1,0.1,0.1,0.2c0.2,0.2,0.3,0.4,0.5,0.6l0.1,0.1
	C10.1,14.1,10.2,14,10.2,14z M7.8,14c0.1,0,0.1,0.1,0.2,0.1h0.1c0.1-0.2,0.3-0.4,0.4-0.6c0.1-0.1,0.1-0.2,0.2-0.3l0,0l0,0
	c-0.2,0.1-0.4,0.3-0.6,0.5C8,13.7,7.9,13.9,7.8,14z M10.3,14.6c0.1,0,0.1-0.1,0.1-0.1s0-0.1,0-0.2h-0.1c0,0,0,0-0.1,0
	s-0.1,0-0.1,0.1C10.2,14.5,10.2,14.5,10.3,14.6z M7.8,14.6C7.8,14.5,7.9,14.5,7.8,14.6c0.1-0.2,0-0.2,0-0.2H7.7
	c-0.1-0.1-0.1,0-0.1,0.1C7.6,14.5,7.7,14.6,7.8,14.6z"/>
</svg>
