<?xml version="1.0" encoding="utf-8"?>
<!-- Generator: Adobe Illustrator 21.0.0, SVG Export Plug-In . SVG Version: 6.00 Build 0)  -->
<svg version="1.1" id="Слой_1" xmlns="http://www.w3.org/2000/svg" xmlns:xlink="http://www.w3.org/1999/xlink" x="0px" y="0px"
	 viewBox="0 0 15 20.7" style="enable-background:new 0 0 15 20.7;" xml:space="preserve">
<style type="text/css">
	.st0{fill:#838D9D;}
	.st1{fill:#FFFFFF;}
</style>
<circle class="st0" cx="7.5" cy="7.5" r="7.5"/>
<g>
	<path class="st1" d="M11.6,6.7C11.6,6.7,11.6,6.7,11.6,6.7c-0.3,0-0.5,0-0.8,0c0,0-0.1,0-0.1-0.1c-0.1-0.3-0.2-0.6-0.3-0.8
		c0,0,0,0,0,0c0,0,0,0,0,0c-0.1,0.3-0.2,0.6-0.3,0.8c0,0,0,0-0.1,0c-0.2,0-0.5,0-0.7,0c0,0,0,0,0,0c0-0.1,0.1-0.1,0.1-0.2
		C9.5,6,9.7,5.5,9.9,5.1c0,0,0,0,0-0.1C9.8,4.9,9.6,4.8,9.4,4.7c-0.3-0.2-0.6-0.2-1,0c-0.1,0-0.2,0.1-0.4,0.1c0,0,0,0,0,0.1
		c0,0.1,0,0.3,0,0.4c0,0,0,0.1,0,0.1c0.2,0.2,0.3,0.5,0.3,0.8c0,0.2-0.1,0.3-0.3,0.5c0,0,0,0,0,0.1c0,1,0,2,0,2.9c0,0,0,0.1,0.1,0.1
		c0.6,0.2,1.2,0.5,1.8,0.7c0.2,0.1,0.3,0.3,0.3,0.5c0,0.2-0.2,0.4-0.4,0.4c-0.8,0-1.6,0-2.4,0c-0.7,0-1.3,0-2,0
		c-0.1,0-0.2,0-0.3-0.1c-0.2-0.2-0.2-0.6,0.2-0.7c0.4-0.1,0.7-0.3,1.1-0.4c0.2-0.1,0.4-0.2,0.6-0.3c0.1,0,0.1,0,0.1-0.1
		c0-0.4,0-0.8,0-1.2c0-0.6,0-1.2,0-1.7c0,0,0-0.1,0-0.1c-0.4-0.4-0.4-1,0-1.3c0,0,0-0.1,0-0.1c0-0.1,0-0.3,0-0.4c0,0,0-0.1,0-0.1
		c-0.1,0-0.3-0.1-0.4-0.1c-0.3-0.1-0.7-0.1-1,0.1C5.4,4.8,5.2,4.9,5.1,5c0,0,0,0,0,0.1c0.2,0.5,0.4,1,0.6,1.5c0,0,0,0.1,0.1,0.1
		c0,0,0,0-0.1,0c-0.2,0-0.5,0-0.7,0c0,0-0.1,0-0.1,0C4.8,6.3,4.7,6.1,4.6,5.8c0,0,0,0,0,0c0,0,0,0,0,0C4.4,6.1,4.3,6.3,4.2,6.6
		c0,0,0,0.1-0.1,0.1c-0.2,0-0.5,0-0.7,0c0,0,0,0,0,0c0,0,0,0,0,0c0.2-0.5,0.4-0.9,0.6-1.4C4,5.2,4,5.1,4.1,5c0,0,0,0,0-0.1
		C3.8,4.6,4,4.1,4.4,4c0.2-0.1,0.4,0,0.6,0.1c0,0,0.1,0,0.1,0C5.2,4,5.4,3.8,5.6,3.7c0.3-0.2,0.7-0.3,1.1-0.2c0.1,0,0.2,0,0.3,0.1
		c0,0,0,0,0.1,0c0.1-0.2,0.3-0.3,0.5-0.3c0.2,0,0.4,0.1,0.5,0.3c0,0,0,0,0.1,0c0.3-0.1,0.7-0.1,1,0C9.3,3.6,9.6,3.8,9.8,4
		C9.9,4,9.9,4.1,10,4.1c0,0,0,0,0.1,0C10.2,4,10.4,4,10.6,4C10.8,4,11,4.2,11,4.4c0.1,0.2,0,0.4-0.1,0.6c0,0,0,0,0,0.1
		c0.1,0.3,0.2,0.5,0.3,0.8C11.4,6.1,11.5,6.3,11.6,6.7C11.6,6.6,11.6,6.6,11.6,6.7z"/>
	<path class="st1" d="M4.6,7.2c0.5,0,0.9,0,1.4,0c0.2,0,0.3,0.1,0.3,0.3C6.1,8.2,5.8,8.7,5.2,8.9C4.4,9.2,3.4,8.9,3,8.1
		C2.9,7.9,2.9,7.7,2.9,7.5c0-0.1,0-0.1,0-0.2C2.9,7.3,3,7.2,3.1,7.2C3.6,7.2,4.1,7.2,4.6,7.2z"/>
	<path class="st1" d="M10.5,7.2c0.5,0,0.9,0,1.4,0c0.2,0,0.3,0.1,0.3,0.3c-0.1,0.6-0.4,1-0.9,1.3C10.9,9,10.6,9.1,10.3,9
		C9.6,8.9,9.2,8.6,8.9,8C8.8,7.9,8.8,7.7,8.8,7.5c0-0.1,0.1-0.3,0.3-0.3c0.3,0,0.6,0,0.9,0C10.1,7.2,10.3,7.2,10.5,7.2
		C10.5,7.2,10.5,7.2,10.5,7.2z"/>
</g>
</svg>
