<?xml version="1.0" encoding="utf-8"?>
<!-- Generator: Adobe Illustrator 21.0.0, SVG Export Plug-In . SVG Version: 6.00 Build 0)  -->
<svg version="1.1" id="Layer_1" xmlns="http://www.w3.org/2000/svg" xmlns:xlink="http://www.w3.org/1999/xlink" x="0px" y="0px"
	 viewBox="0 0 12 12" style="enable-background:new 0 0 12 12;" xml:space="preserve">
<style type="text/css">
	.st0{fill:#F8D169;}
	.st1{fill:#FFFFFF;}
</style>
<g>
	<path class="st0" d="M6,0c3.4,0,6,2.6,6,6s-2.6,6-6,6S0,9.4,0,6S2.6,0,6,0z"/>
</g>
<path class="st1" d="M8.4,6.6c0,0,0.1,0.1,0.1,0.2C8.6,7,8.6,7,8.6,7.1c0.1,0.1,0,0.2-0.1,0.2c0,0,0,0-0.1,0c0,0,0-0.1-0.1-0.2
	c0-0.1-0.1-0.2-0.1-0.4c0,0,0,0-0.1-0.1v0.1C8.2,6.8,8.2,7,8.3,7.1c0.1,0.1,0,0.2-0.1,0.2s-0.2,0-0.2-0.1s0-0.2-0.1-0.4V6.7
	c0,0.1,0,0.1,0,0.1s0.1,0.2,0,0.2c0,0.1-0.1,0.1-0.1,0.1s-0.1,0-0.1-0.1c-0.1,0-0.1,0-0.1-0.1S7.3,6.7,7.2,6.7S7.1,6.6,7.1,6.8
	c0,0,0,0.1,0,0.4c0,0,0.1,0.1,0,0.1v0.1c0.1,0,0.1,0,0.2,0s0.1,0,0.1,0.1h0.1C7.8,7.7,7.9,7.8,7.8,8v0.1c0,0.1,0,0.1,0.1,0.1H8
	c0,0,0,0.1-0.1,0.1c-0.1,0.1-0.2,0.1-0.2,0c0,0,0,0-0.1,0v0.1c0,0.1,0,0.1,0,0.1s0,0,0,0.1c0,0,0,0-0.1,0c0,0-0.1,0-0.1-0.1
	c0,0-0.1-0.1-0.1,0l0,0c0,0,0,0-0.1,0v0.1c0,0.1,0.1,0.1,0.1,0.1C7.4,9,7.6,9.1,7.8,9.1c0.1,0,0.1,0,0.1,0C8,9,8,9,7.9,8.9
	C8,8.5,8,8.5,8.2,8.4c0.1-0.1,0.1-0.2,0.1-0.2C8.3,8,8.4,8,8.4,8c0.1,0,0.1-0.1,0.1-0.1s0,0,0-0.1l0,0C8.4,7.9,8.4,7.9,8.4,7.9V7.8
	c0-0.1,0-0.1,0.1,0h0.1c0,0,0,0,0-0.1s0-0.1,0-0.1h0.1c0.1,0,0.1,0,0.1,0.1c0,0,0,0,0,0.1H9c0.1-0.1,0.1,0,0.1,0.1
	C9.1,7.9,9.2,8,9,8H8.6v0.1l0.1,0.1c0.1-0.1,0.2,0,0.4,0.1c0.1,0.2,0,0.4-0.1,0.5C9,9,8.9,9,8.9,9s0,0-0.1,0.1c-0.1,0.1-0.1,0-0.1,0
	c-0.1,0-0.2,0.1-0.4,0.1S8.2,9.1,8,9.1C7.9,9.1,7.8,9,7.6,9C7.4,9,7.3,8.9,7.2,8.9c-0.1,0-0.1,0-0.4,0c-0.1,0-0.1,0-0.1-0.1l0,0
	c0-0.1,0-0.1,0-0.1l0,0c-0.1,0-0.1,0-0.2-0.1v0h0.1c0.1,0,0.1,0,0.1-0.1c0-0.1,0-0.1-0.1-0.2s-0.4,0-0.4,0.1c-0.1,0.2-0.1,0.4,0,0.4
	c0.2-0.2,0.2-0.2,0.4-0.1c0,0,0,0,0,0.1c0,0,0,0-0.1,0s-0.1,0-0.1-0.1c0,0,0,0-0.1,0c0,0,0,0,0,0.1c0.1,0.1,0.1,0.1,0.2,0.1
	C6.6,8.9,6.7,8.9,6.8,9C7,9,7,9.1,7,9.1c0.1,0,0.1,0,0.1-0.1V8.8h0.1C7.3,8.9,7.3,9,7.2,9v0.1c0.1,0.1,0.2,0.2,0.1,0.4l-0.1,0
	c0,0,0,0,0,0.1c0,0,0,0,0-0.1s0-0.1-0.1-0.1c0,0,0,0-0.1-0.1c0,0,0,0,0,0.1c0.1,0.2-0.1,0.4-0.2,0.2c-0.1-0.1-0.1-0.1-0.2,0
	c0,0.1-0.2,0.1-0.4,0.1S6,9.7,6,9.8c-0.1,0.2-0.2,0.2-0.4,0c0-0.1,0-0.1,0-0.1c-0.2,0-0.4,0-0.5-0.1c0-0.1-0.1-0.1-0.1,0
	c0.1,0.2-0.1,0.2-0.1,0.2c0-0.1-0.1-0.2-0.1-0.2V9.5v0.1c0,0-0.1,0-0.1,0.1c0,0-0.1,0.1-0.1,0c0.1-0.1,0.1-0.1,0-0.1
	c0-0.2-0.1-0.4,0.1-0.5c0.1,0,0.1-0.1,0-0.1s-0.1-0.1,0-0.2c0.1,0,0.1,0,0.1,0.1C4.8,9,4.8,9,4.9,9S5,8.9,5,8.9
	c0.1-0.1,0.4-0.2,0.5-0.2s0.1-0.1,0.1-0.1s0,0,0-0.1c0,0,0,0-0.1,0s-0.1,0-0.1,0.1c0,0,0,0-0.1,0v0c0-0.1,0.1-0.1,0.1-0.1
	c0.1-0.1,0.1-0.1,0.1-0.2s0-0.2-0.1-0.2S5.2,7.9,5,8v0.1l0.1,0.1h0.1c0,0,0,0.1-0.1,0.1S5,8.5,5,8.5c-0.1,0-0.1,0-0.1,0.1L5,8.8
	c0.1,0.1,0,0.1-0.1,0.1s-0.1,0-0.2,0C4.3,8.9,4.1,9,4,9.1c-0.1,0-0.1,0.1-0.1,0.1c0-0.2,0-0.2,0-0.1c0,0.1,0,0.2,0,0.2H3.7
	c0,0-0.1,0-0.1-0.1c0,0,0,0-0.1-0.1c0,0-0.1-0.1-0.2-0.1S3.1,8.9,3.1,8.8c0-0.1,0.1-0.1,0.1-0.1c0.1-0.1,0-0.1,0-0.2
	c-0.1,0-0.1-0.1-0.1-0.2c0,0,0-0.1-0.1-0.1c0,0-0.1-0.2-0.1-0.4C2.8,7.4,2.6,7.3,2.5,7.1C2.5,7,2.4,7,2.4,7V6.8c0,0-0.1,0-0.1-0.1
	l0,0c-0.1,0.1-0.1,0-0.1,0c0.2-0.1,0.1-0.2,0.1-0.2V6.4c-0.1-0.1,0-0.1,0-0.1c0,0,0,0,0.1,0l0,0C2.3,6.1,2.4,6,2.3,6L2.2,5.9
	c0.1,0,0.1-0.1,0.1-0.1c0.1,0,0.1-0.1,0.1-0.1c0,0.1,0,0,0,0c-0.1,0-0.1-0.1-0.2-0.1C2,5.4,2.2,5.4,2.3,5.4s0.2,0,0.4,0
	c0,0,0,0,0.1,0c0,0,0,0-0.1,0C2.4,5.3,2.4,5.3,2.3,5.2C2.2,5.2,2.2,5,2,5c0-0.1,0-0.1,0.1-0.1s0.2,0,0.2,0s0,0,0.1,0l0,0
	C2.4,4.8,2.3,4.7,2.3,4.6s0-0.1,0.1-0.1c0,0,0,0,0.1,0c0,0,0,0,0.1,0l0,0c-0.1,0-0.2-0.1-0.2-0.2s0-0.1,0-0.2c0-0.1,0.1-0.1,0.1,0
	c0.1,0.1,0.2,0.2,0.4,0.4C3,4.4,3,4.4,3,4.4l0,0l0,0c0-0.1-0.1-0.2-0.1-0.2C2.8,4.1,2.6,3.8,2.6,3.7s-0.1-0.1,0-0.2V3.4
	c0.1,0,0.1-0.1,0.1-0.1l0.1,0.1C3.1,3.7,3.2,4,3.5,4.2c0,0,0.1,0.1,0.1,0c0.1-0.1,0.1,0,0.1,0.1c-0.1,0.1,0,0.2,0,0.4h0.1
	c0-0.1,0.1,0,0.1,0c0,0.1,0.1,0.1,0.2,0.2s0.2,0.2,0.2,0.2c0.1,0.1,0.1,0.2-0.1,0.4C4.2,5.6,4.2,5.8,4.4,5.9C4.6,6,4.7,6,4.8,5.9
	s0.1-0.1,0-0.1c0,0-0.1-0.1,0-0.2c0-0.1,0-0.1,0.1,0s0.2,0.1,0.4,0c0,0,0,0,0-0.1c0,0,0,0-0.1,0S5,5.4,4.9,5.3c0,0,0,0,0-0.1
	c0,0,0,0,0.1,0c0.2,0,0.2-0.1,0.4-0.4c0-0.1-0.1-0.2-0.2-0.4L5,4.6c0-0.1-0.4-0.1-0.5,0L4.4,4.7c0,0,0,0.1-0.1,0s0-0.1,0.1-0.1
	c0,0,0,0,0-0.1h0c-0.1,0-0.1,0.1-0.2,0.1C4.1,4.7,4,4.6,3.8,4.4c0,0,0,0,0-0.1c0,0,0,0,0.1,0s0.2,0,0.2,0c0.1,0,0.2-0.1,0.4-0.1l0,0
	l0,0c-0.1-0.1-0.2-0.1-0.4,0s-0.1,0-0.1,0C4,4.2,4.1,4,4.2,4s0.1-0.1,0.2-0.1l0,0c0,0,0,0-0.1,0s-0.1,0-0.2,0C4,3.6,3.8,3.5,4,3.4
	c0,0,0,0,0-0.1S4,3.1,4,3C3.8,3,3.8,3,3.8,3.1c-0.1,0-0.1,0.1-0.1,0.1c-0.1,0-0.1,0.1,0,0.2c0,0.1,0.1,0.1,0.1,0.1
	c0,0.1,0,0.1,0,0.2C3.7,3.8,3.6,4,3.7,4.1l0,0c-0.1,0-0.2-0.2-0.1-0.2l0,0c0-0.1,0-0.1,0-0.1l0,0c-0.1,0-0.1,0-0.1,0
	c-0.1,0-0.1-0.1-0.1,0.1H3.2c-0.1-0.1-0.1-0.1,0-0.1c0-0.1,0.1-0.1,0.1-0.1s0,0,0.1,0h0.1l0,0L3.5,3.5C3.2,3.4,3.4,3.2,3.4,3.2
	c0.1,0,0.1-0.1,0.1-0.1c0.1,0,0.1,0,0.2-0.1l0.1-0.1C4,2.8,4,2.8,4.1,2.9c0.1,0,0.1,0,0.1,0C4.3,3,4.3,3,4.3,3.1
	c0,0.1-0.1,0.1-0.1,0.2c-0.1,0.2,0,0.2,0,0.2c0.1,0.1,0.1,0.1,0.2,0.1s0.1,0,0.1-0.1s0-0.1,0-0.1c0-0.1,0-0.1-0.1-0.1
	c0-0.1,0.1-0.2,0.1-0.2s0,0,0.1,0c0,0,0,0,0.1,0.1l0,0c0-0.1,0-0.1,0-0.1l0,0C4.7,3,4.8,3,4.8,3s0.1-0.1,0.1,0l0,0c0,0,0,0,0.1,0
	c0,0,0,0-0.1,0.1l0,0c0,0.1,0,0.1,0,0.2C4.8,3.2,4.8,3.2,4.8,3.2c0-0.1,0.1-0.1,0.1,0C5,3.2,5,3.4,5,3.4v0.1v0.1
	c0,0.1,0,0.1,0.1,0.1c0.1-0.1,0.4-0.1,0.5-0.4c0.1-0.1,0.1-0.1,0-0.2C5.5,3.1,5.5,3,5.4,2.9c0,0,0-0.2,0.2-0.2
	c0.1,0,0.1-0.1,0.2-0.1H6h0.1v0C5.9,2.4,5.9,2.4,5.9,2.3c0,0,0,0,0-0.1c0,0,0,0-0.1,0l0,0v0c0,0,0,0,0.1,0H6c-0.1,0,0,0,0,0l0,0
	c0,0,0,0,0.1,0c0,0,0,0,0.1,0c0,0.1,0,0.1,0,0.1s0,0-0.1,0c-0.1,0-0.1,0,0,0.1c0,0.1,0.1,0.1,0,0.2v0.1h0.1h0.1
	c0.1,0,0.1,0.1,0.2,0.1C6.7,3,6.8,3,6.7,3.1C6.5,3,6.5,3.1,6.4,3.2c0,0.1,0,0.2,0.1,0.2C6.6,3.6,6.8,3.6,7,3.7h0.1l0,0
	C7,3.6,7,3.6,7,3.5C6.8,3.4,7,3.2,7.1,3.2h0.1c0,0,0,0,0.1,0c0,0,0,0,0-0.1s0-0.1,0-0.2l0,0V3C7.2,2.9,7.2,3,7.2,2.9
	c0.1,0,0.1,0,0.1,0s0,0,0.1,0V3H7.3c0,0.1,0,0.1,0,0.2h0.1c0.1-0.1,0.1,0,0.2,0c0.1,0.1,0.1,0.1,0.1,0.2c0,0.1,0,0.1-0.1,0.1v0.1
	c0,0.1,0,0.1,0,0.1c0.1,0,0.1,0,0.1,0h0.1c0-0.2,0-0.2-0.1-0.5V3.2C7.7,3.1,7.8,3,7.9,3S8,2.9,8,2.9C8.2,2.8,8.3,2.8,8.3,3
	c0,0,0,0.1,0.1,0.1c0.1,0,0.1,0,0.1,0.1c0.1,0.1,0.1,0.2,0.1,0.2l-0.1,0v0.1h0.1h0.1c0,0,0.1,0,0.1,0c0,0.1,0,0.1,0,0.1H8.8
	c0-0.1-0.1-0.1-0.1-0.1c-0.1,0.1-0.1,0.1-0.2,0l0,0v0.1l0,0c0.1,0.1,0,0.4-0.1,0.4l0,0C8.4,4,8.3,4,8.2,3.8c0-0.1,0-0.2,0.1-0.2
	c0-0.1,0.1-0.1,0.1-0.1c0-0.1,0-0.2-0.1-0.2s-0.1,0-0.1-0.1H8c0,0.1,0,0.1,0,0.1s0.1,0.1,0.1,0.2c0.1,0.1,0,0.2-0.1,0.2
	C7.9,3.8,7.8,3.8,7.7,3.8l0,0c-0.1,0-0.1,0-0.1,0.1c0.1,0,0.1,0.1,0.1,0.1c0.1,0.1,0.2,0.1,0.2,0.2c0.1,0.1,0,0.1,0,0.2
	s-0.1,0.1-0.1,0c-0.1-0.1-0.2-0.1-0.4,0l0,0l0,0c0.1,0,0.2,0.1,0.4,0.1c0.1,0,0.2,0.1,0.2,0c0,0,0,0,0.1,0c0,0,0,0,0,0.1
	C8,4.6,7.9,4.6,7.8,4.6S7.6,4.4,7.6,4.4s0,0-0.1,0c0,0,0,0,0,0.1c0.1,0.1,0.1,0.1,0.1,0.2H7.4c0-0.2-0.1-0.2-0.2-0.2S7.1,4.6,7,4.7
	c-0.1,0-0.1,0.1-0.1,0.1C6.7,4.8,6.6,4.9,6.6,5c0,0.2,0.1,0.5,0.4,0.4c0.1,0,0.1,0,0,0.1c0,0.1-0.1,0.1-0.2,0.1h0c0,0,0,0.1,0.1,0.1
	c0.1,0.1,0.2,0.1,0.4,0c0.1,0,0.1,0,0.1,0c0,0.1,0,0.2-0.1,0.2C7,5.9,7,5.9,7,6c0.1,0.1,0.5,0,0.5-0.1c0.1-0.1,0.1-0.2-0.1-0.2
	c0-0.1,0-0.2,0-0.2c0-0.1,0.1-0.1,0.1-0.1C7.6,5.2,7.7,5.2,7.7,5c0.1-0.1,0.2-0.2,0.2-0.2S8,4.7,8,4.8s0.1,0,0.1,0
	c0-0.1,0.1-0.2,0.2-0.4l0,0l0,0C8.6,4.2,8.8,3.8,9,3.6c0.1-0.1,0.1-0.1,0.1,0c0.1,0,0.1,0.1,0.1,0.1C9.2,4,9.1,4.1,9,4.3
	C8.9,4.4,8.9,4.4,8.9,4.6c0,0,0,0,0,0.1c0,0,0,0,0.1,0c0.1-0.1,0.4-0.2,0.5-0.4l0.1-0.1c0,0.1,0.1,0.1,0.1,0.1
	c0,0.2-0.1,0.4-0.2,0.4H9.2c0.1,0,0.1,0,0.1,0c0.1,0,0.1,0,0.1-0.1c0.1,0.1,0.1,0.1,0.1,0.1C9.5,4.8,9.5,4.9,9.4,5.2l0,0
	c0,0,0,0,0.1,0c0.1,0,0.2,0,0.4,0c0.1,0,0.1,0,0.1,0.1c0,0-0.1,0.1-0.2,0.1S9.6,5.5,9.6,5.5l0,0c0,0,0,0,0.1,0c0.1,0,0.2,0,0.4,0
	s0.1,0.1,0.1,0.1c-0.4,0-0.5,0-0.6,0c0,0,0,0-0.1,0l0,0l0,0c0.1,0,0.1,0.1,0.2,0.1c0.1,0,0.1,0.1,0,0.1c0,0-0.1,0.1-0.2,0.1l0,0
	c0,0,0.1,0,0.1,0.1v0.1c0,0.1,0,0.1-0.1,0.2c-0.1,0-0.1,0-0.2,0s-0.1,0,0,0.1s0.1,0.2-0.1,0.2C9,6.8,9,6.8,9,6.8C9,7,9.1,7,9.1,7
	c0,0.1,0,0.1,0,0.2C9,7.3,8.9,7.3,8.9,7.2c0-0.2-0.1-0.4-0.2-0.5C8.5,6.7,8.4,6.6,8.4,6.6C8.3,6.6,8.3,6.6,8.4,6.6
	C8.3,6.5,8.3,6.5,8.4,6.6C8.3,6.6,8.3,6.6,8.4,6.6z M4.6,7c0,0.1-0.1,0.2-0.2,0.4h0C4.2,7.2,4.2,7.2,4.2,7.1s0-0.2,0-0.2
	c0-0.1,0-0.1,0-0.1L4.1,6.8C4.1,7.1,4,7.2,4,7.3S3.7,7.4,3.7,7.4c0.1-0.1,0-0.2,0-0.4C3.8,7,3.8,6.8,4,6.7l0,0c0,0,0,0-0.1,0.1
	c0,0-0.1,0.1-0.2,0.2c0,0.1,0,0.2-0.1,0.2H3.4C3.2,7.2,3.2,7.1,3.4,7c0.1-0.1,0.2-0.2,0.2-0.4c0,0,0,0,0-0.1l0,0
	C3.5,6.6,3.4,6.7,3.1,7c0,0-0.1,0-0.2,0l0,0v0.1C3,7.3,3.1,7.4,3.2,7.7C3.4,7.8,3.4,7.9,3.5,8c0,0.1,0.1,0.1,0.1,0.1
	c0.1,0.1,0.1,0.1,0.1,0.2c-0.2,0-0.1,0,0,0s0.1,0,0.1,0.1C4,8.6,4.1,8.8,4.2,8.6c0.1,0,0.1-0.1,0.2-0.1c0,0,0.1,0,0.1-0.1
	c0,0,0.1-0.1,0-0.1c0-0.1-0.1,0-0.1,0l0,0c0-0.1-0.1,0-0.1,0s0.1,0,0.1,0.1c0,0,0,0-0.1,0c0,0,0,0,0-0.1s0-0.1,0-0.1l0,0H4.2
	C4.1,8.3,4,8.3,4,8.2c0,0,0,0,0-0.1c0,0,0,0,0.1,0c0.1,0,0.1-0.1,0.1-0.1c0-0.1,0-0.1,0-0.1c-0.1-0.1,0-0.2,0.2-0.4h0.1
	c0-0.1,0.1-0.1,0.1-0.1s0.1,0.1,0.1,0V7.2c0,0,0,0,0-0.1c0.1-0.1,0.1-0.4,0-0.5c0,0,0,0-0.1,0l0,0C4.6,6.8,4.6,6.8,4.6,7L4.6,7z
	 M6,3.5c-0.1,0-0.2,0-0.2,0.1H5.6c-0.1,0-0.2,0.1-0.4,0.1c0,0,0,0-0.1,0c0,0,0,0,0.1,0s0.2,0,0.4,0l0,0c0,0,0,0,0,0.1
	C5.5,3.8,5.5,4,5.4,4c0,0-0.1,0-0.1,0.1c0.1,0,0.1,0,0.1,0l0,0h0.1l0,0l0,0c-0.1,0-0.1,0.1,0,0.1c0.1,0.1,0.2,0.1,0.2,0.1h0.1
	c-0.1,0-0.1,0.1-0.1,0.1s-0.1,0-0.1,0.1c0.1,0.2,0.2,0.4,0.2,0.6c0,0,0,0,0,0.1c0,0,0,0,0-0.1C6,4.8,6,4.6,6.1,4.4
	C6.2,4.3,6.2,4.3,6,4.3c0,0,0,0-0.1,0c0,0,0,0-0.1,0c0,0,0,0,0.1,0s0.2-0.1,0.4-0.1C6.5,4.1,6.5,4.1,6.4,4c0,0,0,0-0.1-0.1h0.1h0.1
	c0,0,0,0,0.1,0c0,0,0,0-0.1-0.1L6.4,3.6l0,0l0,0c0.1,0,0.2,0,0.4,0h0.1H6.7c-0.2,0.1-0.4,0-0.5,0C6.1,3.5,6.1,3.5,6,3.5z M5.6,9.4
	c0,0.1,0,0.2,0,0.2s0.1,0,0.1,0.1V9.6c0-0.2,0.1-0.4,0.1-0.5C5.9,9,6,8.8,6,8.6c0,0,0,0,0-0.1l0,0C5.9,8.6,5.9,8.8,5.8,8.9
	C5.8,9,5.6,9.2,5.6,9.4z M6.4,9.4c0-0.1,0-0.2-0.1-0.2c0-0.1-0.1-0.2-0.1-0.4C6.1,8.6,6,8.6,6,8.6c0,0.1,0,0.1,0,0.1
	C6.1,9,6.1,9.2,6.1,9.6c0,0,0,0,0,0.1h0.1C6.2,9.6,6.4,9.5,6.4,9.4z M6.7,9.1C6.7,9,6.6,9,6.6,9C6.5,8.9,6.4,8.8,6.2,8.6l0,0l0,0
	c0,0.1,0.1,0.1,0.1,0.1C6.5,8.9,6.6,9,6.7,9.1l0.1,0.1C6.7,9.1,6.7,9.1,6.7,9.1z M5.2,9.1c0.1,0,0.1,0.1,0.1,0.1h0.1
	C5.5,9.1,5.6,9,5.6,8.9c0.1-0.1,0.1-0.1,0.1-0.2l0,0l0,0c-0.1,0-0.2,0.1-0.4,0.2C5.3,8.9,5.3,9,5.2,9.1z M6.8,9.5
	C6.8,9.5,6.8,9.4,6.8,9.5C7,9.4,7,9.4,7,9.2H6.8c0,0,0,0-0.1,0s-0.1,0-0.1,0.1C6.7,9.4,6.7,9.4,6.8,9.5z M5.2,9.5
	C5.2,9.4,5.3,9.4,5.2,9.5c0.1-0.1,0-0.1,0-0.1l0,0C5,9.2,5,9.4,5,9.5C5,9.4,5.2,9.5,5.2,9.5z"/>
</svg>
