<svg id="9a4e5b70-2450-4d5d-aaab-063fc1318e03" data-name="Слой 1" xmlns="http://www.w3.org/2000/svg" viewBox="0 0 106 106"><defs><style>.b3dded89-11d0-46b7-9c5e-9632eca074e7{fill:#ce112d;}</style></defs><title>icon</title><path class="b3dded89-11d0-46b7-9c5e-9632eca074e7" d="M17.78,16.53H43.46c.64.57,1.31,1.1,1.91,1.7Q53.69,26.52,62,34.83A2.66,2.66,0,0,1,62.9,37c-.06.88,0,1.77,0,2.74,1.09,0,2.05,0,3,0a2.93,2.93,0,0,1,1.45.4c3.61,2.54,7.17,5.14,10.77,7.7a2.89,2.89,0,0,1,1.41,1.76h3.31c0-.44,0-.82,0-1.19,0-1.21,0-2.41,0-3.62a1.58,1.58,0,0,1,1.55-1.73c2.24,0,4.48,0,6.72,0a1.57,1.57,0,0,1,1.58,1.6c0,.65,0,1.31,0,2a56.43,56.43,0,0,0,1.88,14.1,25.82,25.82,0,0,0,5.33,10.39,11.57,11.57,0,0,0,4.43,3.32,2.94,2.94,0,0,1,1.64,1.3v2.49a2.28,2.28,0,0,1-2.29,1.23c-3.21-.05-6.42,0-9.63,0s-6.21,0-9.32,0a1.69,1.69,0,0,1-1.93-1.89c0-.44,0-.88,0-1.41H77.06a.82.82,0,0,0-.46.19c-.83.66-1.64,1.34-2.54,2.09l8.18,8.12-2.35,2.22L79.13,88c-2.66-2.66-5.33-5.31-8-8a1.85,1.85,0,0,0-1.44-.61q-24.74,0-49.48,0a3.08,3.08,0,0,0-2.42,1c-3.21,3.28-6.48,6.5-9.72,9.75a2.39,2.39,0,0,1-1.81.85c-1.9,0-3.8,0-5.69,0A2.69,2.69,0,0,1,.08,91V87.8c1.71,0,3.33,0,4.95,0a1.9,1.9,0,0,0,1.54-.64c2.27-2.31,4.58-4.59,6.87-6.89.21-.21.39-.44.74-.83h-4.1a9.64,9.64,0,0,1-3.92-.82A10.19,10.19,0,0,1,0,69a10.36,10.36,0,0,1,7.89-9.16c.63-.14,1.28-.2,1.94-.3V56.26c-.57,0-1,0-1.53,0a1.62,1.62,0,0,1-1.69-1.7q0-6.52,0-13a1.62,1.62,0,0,1,1.76-1.74c1.35,0,2.69,0,4,0,.26,0,.52-.05.82-.09V38.35c0-5.45,0-10.9,0-16.35a2.41,2.41,0,0,1,.42-1.53C15,19.1,16.41,17.83,17.78,16.53ZM76.21,53c0-.57,0-1.08,0-1.58A1.38,1.38,0,0,0,75.55,50q-4.61-3.24-9.18-6.55A2.28,2.28,0,0,0,64.93,43c-2.76,0-5.52,0-8.28,0H41.94c-1.48,0-1.83-.28-2.26-1.73,0-.1-.07-.19-.1-.29L34.79,24.19c-.41-1.45-.84-2.9-1.25-4.32H23.18V23.2h3.19v3.26H23.18v3.36h3.19v3.26H23.13c0,.42,0,.75,0,1.09q0,3.26,0,6.52c0,1.81-.51,2.31-2.35,2.31H10.94c-.33,0-.66,0-1,0v3.37H13.1v3.26H9.87V53ZM39.67,76.2H53c5.56,0,11.11,0,16.67,0a6.24,6.24,0,0,0,6.18-4.44c1.34-4.46-1.36-8.9-6.43-8.89-14.36,0-28.71,0-43.07,0-5.56,0-11.11,0-16.67,0a6.23,6.23,0,0,0-6.19,4.58c-1.24,4.62,1.61,8.77,6.54,8.74C19.93,76.17,29.8,76.2,39.67,76.2Zm2.91-36.52H59.64c0-.72,0-1.37,0-2a1.72,1.72,0,0,0-.41-1Q51,28.43,42.77,20.22a1.18,1.18,0,0,0-.69-.39c-1.68,0-3.36,0-5.18,0Zm-29.35,20h55.9a10.41,10.41,0,0,1,4.23.84c.21.09.44.14.75.24.62-1.51,2.27-2.46,2.08-4.37h-63ZM86.15,46.36V76.12h14.19c-1.32-1.41-2.76-2.75-4-4.27a28,28,0,0,1-4.62-9.52,54,54,0,0,1-2.1-12.5c-.07-1.16-.15-2.31-.23-3.47ZM19.82,39.7V19.9a1.21,1.21,0,0,0-1.44.36,14.34,14.34,0,0,1-1.32,1.31A1.72,1.72,0,0,0,16.49,23c0,5.24,0,10.47,0,15.71v1ZM82.77,72.85V59.57c-1.27,0-2.47,0-3.67,0a.85.85,0,0,0-.6.3c-.65.92-1.26,1.88-1.89,2.83,2.64,3,3.54,6.3,2.27,10.13ZM79.53,53v3.26h3.25V53Z"/><path class="b3dded89-11d0-46b7-9c5e-9632eca074e7" d="M71.21,96.05V92.77h1.14c3.52,0,7,0,10.55,0a1.93,1.93,0,0,0,1.54-.63C86,90.55,87.64,89,89.15,87.38a3.76,3.76,0,0,1,3.1-1.26c4.31.06,8.62,0,12.92,0,.28,0,.55,0,.83,0v3.31c-4.55,0-9.11,0-13.66,0a1.5,1.5,0,0,0-1.15.57c-1.41,1.42-2.82,2.84-4.25,4.24-.66.65-1.38,1.24-2.07,1.86Z"/><path class="b3dded89-11d0-46b7-9c5e-9632eca074e7" d="M31.44,96.05V92.82H67.89v3.23Z"/><path class="b3dded89-11d0-46b7-9c5e-9632eca074e7" d="M38,82.91V86H21.62V82.91Z"/><path class="b3dded89-11d0-46b7-9c5e-9632eca074e7" d="M44.62,82.89V86H41.47V82.89Z"/><path class="b3dded89-11d0-46b7-9c5e-9632eca074e7" d="M36.32,43H33.75c-.17,0-.33,0-.56,0V39.81h3.13Z"/><path class="b3dded89-11d0-46b7-9c5e-9632eca074e7" d="M57.92,69.55a3.65,3.65,0,0,1-3.31,3.28,3.66,3.66,0,0,1-3.25-3.33,3.66,3.66,0,0,1,3.25-3.22A3.66,3.66,0,0,1,57.92,69.55Z"/><path class="b3dded89-11d0-46b7-9c5e-9632eca074e7" d="M14.89,66.27a3.66,3.66,0,0,1,3.27,3.31,3.67,3.67,0,0,1-3.34,3.24,3.68,3.68,0,0,1-3.21-3.26A3.65,3.65,0,0,1,14.89,66.27Z"/><path class="b3dded89-11d0-46b7-9c5e-9632eca074e7" d="M24.86,72.82a3.67,3.67,0,0,1-3.32-3.26,3.7,3.7,0,0,1,3.18-3.3,3.67,3.67,0,0,1,3.37,3.21A3.67,3.67,0,0,1,24.86,72.82Z"/><path class="b3dded89-11d0-46b7-9c5e-9632eca074e7" d="M34.71,66.27A3.67,3.67,0,0,1,38,69.52a3.69,3.69,0,0,1-3.28,3.31,3.69,3.69,0,0,1-3.28-3.21A3.64,3.64,0,0,1,34.71,66.27Z"/><path class="b3dded89-11d0-46b7-9c5e-9632eca074e7" d="M48,69.59a3.68,3.68,0,0,1-3.36,3.23,3.68,3.68,0,0,1-3.2-3.28,3.65,3.65,0,0,1,3.3-3.28A3.66,3.66,0,0,1,48,69.59Z"/><path class="b3dded89-11d0-46b7-9c5e-9632eca074e7" d="M64.61,72.82a3.66,3.66,0,0,1-3.31-3.27,3.67,3.67,0,0,1,3.19-3.29,3.66,3.66,0,0,1,3.37,3.21A3.67,3.67,0,0,1,64.61,72.82Z"/></svg>