<svg id="a26d990f-7cf8-4e70-95af-c75f95a4dfdb" data-name="Слой 1" xmlns="http://www.w3.org/2000/svg" viewBox="0 0 106 106"><defs><style>.e3ff4c3b-1bd4-488e-bc8d-abbe8e8790f5{fill:#ce112d;}</style></defs><title>icon</title><path class="e3ff4c3b-1bd4-488e-bc8d-abbe8e8790f5" d="M102.82,106q0-7.09,0-14.18,0-5.06,0-10.11V80.65H71.09v3H68c0-1.64-.06-3.28,0-4.92,0-.83.75-1.29,1.72-1.3,1.49,0,3,0,4.46,0,9.88,0,19.77,0,29.65,0A2.19,2.19,0,0,1,106,78.61V106Z"/><path class="e3ff4c3b-1bd4-488e-bc8d-abbe8e8790f5" d="M67.9,106q0-6.84,0-13.68c0-.69,0-1.38,0-2.15H39.32v3H36.24c0-.26-.06-.55-.06-.83,0-1.19,0-2.38,0-3.57A1.6,1.6,0,0,1,38,87c2.38,0,4.76,0,7.14,0H69c1.42,0,2,.57,2,2,0,2.64,0,5.29,0,7.93q0,4.56,0,9.12Z"/><path class="e3ff4c3b-1bd4-488e-bc8d-abbe8e8790f5" d="M36.14,106V99.7H7.57V106H4.39V97.66a2.18,2.18,0,0,1,2.19-1.18c10.2,0,20.41,0,30.61,0,1.56,0,2.08.52,2.09,2.06q0,3.71,0,7.43Z"/><path class="e3ff4c3b-1bd4-488e-bc8d-abbe8e8790f5" d="M40.48,16.74A3.84,3.84,0,0,0,41,17a8.24,8.24,0,0,1,6.32,7,6.29,6.29,0,0,1-.14,2.26,8,8,0,0,1-6.14,6.2,7.77,7.77,0,0,1-8.29-3.73c-3.11-5.05.47-10.49,5-11.65.25-.06.49-.16.73-.25Zm-1,3.14a4.53,4.53,0,0,0-4.82,4.74,4.53,4.53,0,0,0,4.71,4.85,4.54,4.54,0,0,0,4.87-4.79A4.53,4.53,0,0,0,39.52,19.88Z"/><path class="e3ff4c3b-1bd4-488e-bc8d-abbe8e8790f5" d="M6.89,48.44,9.38,51c.23-.22.5-.45.75-.7q3.62-3.61,7.22-7.23a3.25,3.25,0,0,1,1.6-.91c3.78-.93,7.56-1.89,11.33-2.84.25-.06.51-.07.86-.12L31.88,42,28.3,43c-.1,1-.2,1.88-.29,2.79q-.62,6.71-1.24,13.43a6.16,6.16,0,0,1-.26,1.35c-1.46,4.42-2.93,8.83-4.43,13.23a4.51,4.51,0,0,1-1,1.65c-3.41,3.46-6.86,6.89-10.3,10.33-.25.25-.49.51-.78.82l2.76,2.52c.13-.09.39-.28.63-.48q7.3-6,14.6-11.92a2.63,2.63,0,0,0,.9-1.37q2-6.79,4.07-13.56c.09-.31.2-.62.32-1l2.88.87-.42,1.73,3.07.79c2.34.59,4.67,1.2,7,1.75a2.36,2.36,0,0,1,1.6,1.19q4,6.64,7.95,13.26c.18.31.38.6.62,1l3.64-1.81c-.1-.31-.16-.56-.27-.79-2.1-4.63-4.22-9.25-6.3-13.89a2.91,2.91,0,0,0-1.47-1.5Q44.65,60,37.74,56.48c-1.38-.69-1.6-1.14-1.18-2.59Q38,48.8,39.49,43.71c.34-1.17.68-1.43,1.86-1.56,4.2-.46,8.41-.92,12.61-1.41A1.89,1.89,0,0,0,55,40.28c3-3,6-6,9-9a1.17,1.17,0,0,0,.15-.24l-2.54-2.43c-.18.17-.45.4-.7.65-2.39,2.38-4.78,4.76-7.15,7.16a2.79,2.79,0,0,1-2.19.92c-3.08,0-6.15,0-9.23,0H41.18V34.28c.3,0,.62,0,.94,0,2.81,0,5.62,0,8.43,0a2.17,2.17,0,0,0,1.73-.73c2.57-2.62,5.18-5.2,7.78-7.8,1.37-1.37,2-1.35,3.37,0s2.57,2.58,3.85,3.87c1,1,1,1.77,0,2.79Q62,37.68,56.77,42.94a2.7,2.7,0,0,1-1.75.79c-4,.43-8.08.91-12.12,1.34a.83.83,0,0,0-.81.7c-.71,2.51-1.41,5-2.15,7.52-.19.63.05.89.57,1.14C43.6,56,46.66,57.5,49.74,59c1.45.72,2.89,1.46,4.35,2.17a2.52,2.52,0,0,1,1.28,1.3q3.73,8.26,7.5,16.51c.08.18.16.36.23.55a1.48,1.48,0,0,1-.74,2.08q-3.08,1.6-6.2,3.11c-1,.47-1.64.23-2.25-.76-1.16-1.89-2.29-3.79-3.43-5.69-1.72-2.86-3.45-5.72-5.14-8.59a2.09,2.09,0,0,0-1.44-1.06c-2.76-.66-5.51-1.38-8.26-2.07-.25-.06-.51-.08-.86-.13-.49,1.59-1,3.16-1.44,4.73-.59,2-1.2,3.91-1.75,5.88a2.9,2.9,0,0,1-1,1.53q-8.38,6.83-16.74,13.69c-1.11.9-1.71.87-2.74-.15Q9,90.07,6.94,88c-1-1-1-1.76,0-2.79q5.64-5.65,11.3-11.29a4.83,4.83,0,0,0,1.24-2c1.23-3.76,2.46-7.53,3.77-11.27A18.58,18.58,0,0,0,24,56.27c.38-3.78.7-7.57,1-11.35,0-.32,0-.65,0-1.1-.79.18-1.5.4-2.24.51a8.64,8.64,0,0,0-5.37,3c-2.09,2.3-4.37,4.42-6.57,6.62-1.17,1.17-1.85,1.17-3,0q-2-2-4-4c-1.11-1.12-1.1-1.81,0-2.94Q9,41.82,14.24,36.64a3.41,3.41,0,0,1,1.41-.83c5.44-1.52,10.88-3,16.33-4.48.19-.05.39-.07.7-.12l.83,2.9-5.29,1.46c-3.63,1-7.26,2-10.89,3a3,3,0,0,0-1.28.67c-3,2.95-6,5.93-8.92,8.9A3.45,3.45,0,0,0,6.89,48.44Z"/><path class="e3ff4c3b-1bd4-488e-bc8d-abbe8e8790f5" d="M100,83.84V87H96.85V83.84Z"/><path class="e3ff4c3b-1bd4-488e-bc8d-abbe8e8790f5" d="M90.3,83.83h3.06v3.1H90.3Z"/><path class="e3ff4c3b-1bd4-488e-bc8d-abbe8e8790f5" d="M86.78,87H83.7V83.86h3.08Z"/><path class="e3ff4c3b-1bd4-488e-bc8d-abbe8e8790f5" d="M65.06,92.93v3.13H61.94V92.93Z"/><path class="e3ff4c3b-1bd4-488e-bc8d-abbe8e8790f5" d="M55.38,92.92h3.06V96H55.38Z"/><path class="e3ff4c3b-1bd4-488e-bc8d-abbe8e8790f5" d="M51.86,96.07H48.78V93h3.08Z"/></svg>