<?xml version="1.0" encoding="utf-8"?>
<!-- Generator: Adobe Illustrator 21.0.0, SVG Export Plug-In . SVG Version: 6.00 Build 0)  -->
<svg version="1.1" id="c58668a3-596d-4de3-897d-a952f67f5156"
	 xmlns="http://www.w3.org/2000/svg" xmlns:xlink="http://www.w3.org/1999/xlink" x="0px" y="0px" width="106px" height="106px"
	 viewBox="0 0 106 106" style="enable-background:new 0 0 106 106;" xml:space="preserve">
<style type="text/css">
	.st0{fill:#CE112D;}
</style>
<title>icon</title>
<g>
	<path class="st0" d="M85.9,1.5c0.1,0.1,0.3,0.2,0.5,0.2c4.6,1.4,7.6,5.3,7.6,10.1c0,1.4,0.1,2.9-0.1,4.3c-0.3,1.9-1.1,3.6-2.4,5.1
		c-0.3,0.3-0.6,0.7-0.6,1c-0.1,1.4,0,2.8,0,4.3c1.7,0.7,3.2,1.4,4.8,2.1c1.6,0.7,3.3,1.4,4.9,2.1c3.1,1.5,4.9,4.1,4.9,7.5
		c0.1,14.1,0,28.2,0,42.2c0,0.2,0,0.5-0.1,0.8c-1,0-2.1,0-3.2,0c0-0.5,0-1,0-1.4c0-13.8,0-27.6,0-41.4c0-2.3-1-3.8-3.1-4.7
		c-2.2-0.9-4.3-1.9-6.6-2.9c0,1.7,0,3.2,0,4.9c-1.1,0-2.1-0.1-3.1,0C87.5,36,86,35.5,85,34c-0.2-0.3-0.4-0.6-0.7-1.1
		c-0.9,1-1.5,1.7-2.2,2.4c-0.2,0.2-0.5,0.5-0.7,0.5c-1.7,0-3.5,0-5.3,0c0-1.6,0-3.2,0-5c-1.4,0.6-2.7,1.2-4,1.8
		c0.3,0.4,0.5,0.6,0.7,0.9c1.2,1.6,1.7,3.4,1.7,5.4c0,13.3,0,26.5,0,39.8c0,0.4,0,0.7,0,1.2c-1.1,0-2.1,0-3.3,0c0-0.6,0-1.1,0-1.5
		c0-13.1,0-26.2,0-39.3c0-1.2-0.1-2.4-0.9-3.4c-0.5-0.6-1-1.2-1.7-1.5c-3.1-1.4-6.1-2.8-9.3-4.1c-1.3,2.5-3.2,4.2-6.1,4.2
		c-2.9,0-4.8-1.6-6.1-4.1c-0.2,0.1-0.5,0.1-0.7,0.2c-2.6,1.1-5.1,2.3-7.7,3.4c-2.4,1-3.6,2.7-3.5,5.4c0.1,3.9,0,7.8,0,11.8
		c0,0.4,0,0.8,0,1.3c-1.1,0-2.1,0-3.2,0c0-0.4,0-0.7-0.1-1c0-4,0-8,0-12c0-2.3,0.6-4.3,2.1-6c0.1-0.1,0.1-0.2,0.3-0.4
		c-1.1-0.5-2.2-1-3.4-1.5c-1,1-2,2-2.8,3.1c-1,1.3-2.2,1.8-3.9,1.7c-1.7-0.1-3.4,0-5.1,0c-0.6,0-1-0.2-1.4-0.6
		c-1.3-1.4-2.7-2.7-4-4.1c-0.3,0.1-0.6,0.1-0.8,0.2c-1.8,0.8-3.7,1.6-5.5,2.4c-2.1,0.9-3.1,2.5-3.1,4.8c0,14.4,0,28.8,0,43.2
		c0,0.4,0,0.8,0,1.3c1.1,0,2.1,0,3.2,0c0-9.7,0-19.5,0-29.3c1.2,0,2.2,0,3.3,0c0,6.5,0,12.9,0,19.5c3.8,0,7.6,0,11.3,0
		c0,1.1,0,2.2,0,3.3c-3.8,0-7.5,0-11.3,0c0,5.5,0,10.8,0,16.3c-1.2,0-2.2,0-3.3,0c0-2.1,0-4.2,0-6.4c-2.2,0-4.3,0-6.5,0
		c0-0.5-0.1-0.8-0.1-1.2c0-15.5,0-31,0-46.5c0-3.8,1.8-6.5,5.3-8c2.7-1.2,5.4-2.4,8.1-3.6c0.4-0.2,0.7-0.3,1.2-0.5c0-1.5,0-3,0-4.5
		c0-0.3-0.3-0.5-0.5-0.8c-1.9-2-2.8-4.4-2.7-7.2c0-0.8,0.1-1.6,0-2.5c-0.3-4.4,3.1-8.6,7.3-9.8c0.4-0.1,0.8-0.3,1.1-0.4
		c1,0,1.9,0,2.9,0c0.1,0.1,0.2,0.1,0.4,0.2c4.3,1.2,6.8,4,7.7,8.3c0.3,1.4,0.1,2.9,0.2,4.4c0.1,2.7-0.9,5.1-2.7,7.1
		c-0.2,0.2-0.5,0.6-0.5,0.8c-0.1,1.4,0,2.8,0,4.2c0.2,0.1,0.3,0.2,0.4,0.3c2.7,1.2,5.3,2.4,8,3.5c0.4,0.2,0.9,0.1,1.3-0.1
		c2.8-1.2,5.5-2.4,8.2-3.6c0.2-0.1,0.4-0.2,0.5-0.3c0-0.1,0-0.1,0-0.2c-1.8,0-3.6,0-5.4,0c0-0.4-0.1-0.6-0.1-0.9c0-3.9,0-7.8,0-11.8
		c0-5.6,3.8-10.3,9.3-11.6c0.2,0,0.4-0.1,0.6-0.2c1.1,0,2.2,0,3.3,0c0.3,0.1,0.6,0.2,0.9,0.3c5.3,1.4,8.9,6,9,11.5
		c0,3.8,0,7.7,0,11.5c0,0.4,0,0.7-0.1,1.2c-1.9,0-3.6,0-5.6,0c0.3,0.2,0.3,0.3,0.4,0.3c2.9,1.3,5.8,2.6,8.7,3.8
		c0.4,0.2,1,0.1,1.4-0.1c2.4-1,4.8-2.1,7.2-3.2c0.3-0.1,0.6-0.3,0.9-0.5c0-1.3,0-2.4,0-3.6c0-0.6-0.2-1.1-0.6-1.5
		c-1.7-1.8-2.6-4-2.6-6.6c0-1.1,0-2.2,0-3.3c-0.1-4.3,3.1-8.5,7.4-9.6c0.3-0.1,0.6-0.2,0.8-0.3C83.7,1.5,84.8,1.5,85.9,1.5z
		 M49.9,22.6c0,1.8,0,3.4,0,5c0,2.1,1.2,3.1,3.2,3.1c2.1,0,3.2-1,3.3-3.1c0-1.3,0-2.6,0-3.9c0-0.4,0-0.7,0.1-1.2c1.7,0,3.2,0,4.8,0
		c0-3.6,0.1-7.1,0-10.6c-0.1-2.5-1.3-4.5-3.4-5.9C55,4.3,52,4.2,49.1,5.8c-2.8,1.5-4,4-4.1,7.2c-0.1,2.8,0,5.5,0,8.3
		c0,0.4,0,0.9,0,1.4C46.6,22.6,48.2,22.6,49.9,22.6z M25.4,20.2c0.4-0.3,0.7-0.5,1-0.7c1.3-1,2.1-2.2,2.2-3.8c0.1-1.8,0.2-3.6,0-5.3
		c-0.4-3.5-3.3-5.8-6.8-5.6c-3.4,0.1-5.9,2.7-6,6.2c0,1.2,0,2.3,0,3.5c-0.1,2.3,0.8,4,2.6,5.4c0.5,0.4,0.7,0.8,0.6,1.4
		c0,1.1,0,2.1,0,3.2c0,1.4,0,2.9,0,4.3c-0.7,0.3-1.4,0.7-2.3,1.1c0.9,0.9,1.8,1.7,2.6,2.4c0.2,0.2,0.5,0.3,0.8,0.3
		c1.4,0,2.9,0,4.3,0c0.3,0,0.6-0.1,0.8-0.3c0.8-0.8,1.5-1.6,2.4-2.5c-0.8-0.4-1.5-0.7-2.2-1.1C25.4,25.8,25.4,23,25.4,20.2z
		 M84.2,28.6c0.2,0.2,0.5,0.4,0.7,0.7c0.9,0.9,1.8,1.8,2.7,2.7c0.4,0.4,0.8,0.7,1.4,0.3c0-0.9,0-1.9,0-2.8c-0.5-0.3-1-0.5-1.6-0.8
		c0-2.4,0-4.8,0-7.2c0-0.8,0.2-1.3,0.9-1.8c1.7-1.2,2.5-2.9,2.4-5c0-1.2,0-2.5,0-3.7c0-0.6-0.2-1.2-0.3-1.9c-3.8,2.9-7.9,4.1-12.5,4
		c-0.4,3.1,0.3,5.6,3.1,7.2c0,2.9,0,5.7,0,8.5c-0.5,0.3-1,0.5-1.5,0.8c0,1,0,1.9,0,3c0.3,0,0.5,0.1,0.6,0
		C81.4,31.1,82.7,29.9,84.2,28.6z M77.8,9.6c4,0.1,7.4-0.9,10.5-3.4c-2.2-1.7-4.5-1.9-6.9-1C79.5,6,78.3,7.4,77.8,9.6z"/>
	<path class="st0" d="M56.4,106.2c0-4,0-7.9,0-11.9c0-0.4,0.2-0.9,0.5-1.3c2.3-2.8,4.6-5.6,6.9-8.3c0.5-0.6,0.7-1.2,0.7-1.9
		c0-4.8,0-9.6-0.1-14.4c0-0.8-0.3-1.7-0.7-2.4c-0.5-0.8-1.4-1-2.5-1.1c0,3.8,0,7.5,0,11.3c-1.2,0-2.2,0-3.3,0c0-0.4,0-0.8,0-1.2
		c0-10.3,0-20.7,0-31c0-0.3,0-0.7,0-1c0-2.5-1.6-2.8-3.3-2.5c-1,0.2-1.5,1-1.5,2.4c0,3.3,0,6.5,0,9.8c0,5.3,0,10.6,0,15.9
		c0,0.4,0,0.7,0,1.2c-1.1,0-2.1,0-3.3,0c0-0.4,0-0.7,0-1.1c0-3.6,0-7.3,0-10.9c0-1.9-1.1-2.8-3-2.5c-1.1,0.2-1.7,0.8-1.9,2
		c-0.1,0.6,0,1.2,0,1.7c0,3.4,0,6.8,0,10.1c0,0.2,0,0.5-0.1,0.8c-1.1,0-2.1,0-3.2,0c0-0.4,0-0.7,0-1.1c0-3.1,0-6.3,0-9.4
		c0-1.9-1-2.7-2.9-2.5c-1.1,0.2-1.7,0.7-1.9,1.8c-0.1,0.3-0.1,0.7-0.1,1c0,3,0,6,0,9c0,0.3,0,0.7,0,1.1c-1.1,0-2.1,0-3.3,0
		c0-0.4,0-0.8,0-1.1c0-2,0-4.1,0-6.1c0-1.6-0.7-2.4-2.3-2.5c-1.5,0-2.5,0.7-2.5,2.3c-0.1,2.7,0,5.5,0,8.2c0,4.1,0,8.1,0,12.2
		c0,0.9,0.2,1.8,0.6,2.5c1.2,2.7,2.6,5.2,3.9,7.9c0.2,0.4,0.4,0.8,0.4,1.2c0,3.6,0,7.2,0,10.8c0,0.2,0,0.3-0.1,0.6c-1,0-2,0-3.2,0
		c0-0.4-0.1-0.7-0.1-1.1c0-3,0-5.9,0-8.9c0-0.8-0.2-1.6-0.5-2.2c-1.3-2.7-2.6-5.3-3.9-8c-0.2-0.5-0.4-1-0.4-1.6c0-7.1,0-14.2,0-21.3
		c0-3.1,2.2-5.6,5.2-6c1-0.1,2.1,0.3,3.3,0.4c0.7-1.5,1.8-2.8,3.6-3.4c1.8-0.7,3.5-0.2,5.1,0.8c1.9-2.4,4.2-3.4,7.3-2.2
		c0-0.4,0-0.8,0-1.1c0-2.7,0-5.5,0-8.2c0-3.2,2.6-5.9,5.7-5.9c3.1,0,5.8,2.7,5.8,6c0,5.7,0,11.3,0,17c0,0.5,0,0.9,0,1.4
		c0.7,0.1,1.2,0.2,1.8,0.4c2.7,0.9,4.7,3.4,4.7,6.3c0,5.4,0,10.8,0,16.3c0,0.5-0.3,1-0.6,1.3c-2.3,2.8-4.6,5.6-6.9,8.3
		c-0.4,0.5-0.6,1.1-0.6,1.8c0,3.4,0,6.9,0,10.3C58.6,106.2,57.5,106.2,56.4,106.2z"/>
	<path class="st0" d="M63,99.4c0-1.2,0-2.2,0-3.3c8.7,0,17.3,0,26.1,0c0,1.8,0,3.6,0,5.3c3.5-3.5,7-7,10.3-10.3
		c-3.3-3.3-6.8-6.7-10.3-10.3c0,1.8,0,3.5,0,5.4c-3.9,0-7.6,0-11.4,0c0-1.1,0-2.1,0-3.2c2.7,0,5.3,0,8,0c0-2.2,0-4.3,0-6.5
		c1.4,0,2.6,0,3.8,0c0.2,0,0.5,0.2,0.7,0.4c4.6,4.6,9.3,9.3,13.9,13.9c0.1,0.1,0.2,0.2,0.3,0.4c-0.3,0.3-0.5,0.5-0.8,0.8
		c-4.4,4.4-8.8,8.8-13.2,13.2c-0.5,0.5-1,0.7-1.7,0.7c-0.9,0-1.9,0-3,0c0-2.2,0-4.3,0-6.5C78.1,99.4,70.6,99.4,63,99.4z"/>
	<path class="st0" d="M85.7,73.2c-1.1,0-2.1,0-3.2,0c0-11.9,0-23.8,0-35.7c1.1,0,2.1,0,3.2,0C85.7,49.5,85.7,61.3,85.7,73.2z"/>
	<path class="st0" d="M95.6,53.7c1,0,2,0,3.1,0c0,7.6,0,15.1,0,22.8c-1,0-2,0-3.1,0C95.6,68.9,95.6,61.3,95.6,53.7z"/>
	<path class="st0" d="M7.5,96.1c6.5,0,12.9,0,19.4,0c0,1.1,0,2.1,0,3.2c-6.5,0-12.9,0-19.4,0C7.5,98.3,7.5,97.2,7.5,96.1z"/>
	<path class="st0" d="M23.7,92.8c-1.1,0-2.1,0-3.2,0c0-2.2,0-4.2,0-6.4c1.1,0,2.1,0,3.2,0C23.7,88.5,23.7,90.6,23.7,92.8z"/>
	<path class="st0" d="M20.5,42.3c0,1.1,0,2.1,0,3.1c-2.1,0-4.2,0-6.4,0c0-1,0-2,0-3.1C16.2,42.3,18.3,42.3,20.5,42.3z"/>
	<path class="st0" d="M4.2,96.2c0,1.1,0,2,0,3.1c-1.1,0-2.1,0-3.2,0c0-1,0-2,0-3.1C2,96.2,3,96.2,4.2,96.2z"/>
	<path class="st0" d="M71.2,86.3c0-1,0-2,0-3.1c1,0,2.1,0,3.2,0c0,1,0,2,0,3.1C73.3,86.3,72.2,86.3,71.2,86.3z"/>
</g>
</svg>
