<svg id="65ab40e2-b445-4537-8ec7-9bb5ad63c490" data-name="Слой 1" xmlns="http://www.w3.org/2000/svg" viewBox="0 0 106 106"><defs><style>.a97b0ccb-dc6d-45d8-b1d9-6fff32934470{fill:#ce112d;}</style></defs><title>icon</title><path class="a97b0ccb-dc6d-45d8-b1d9-6fff32934470" d="M19.55,69.9l-1.31-.16V68.65l1.3-.15L19.7,67h1.24L21,68.49l1.21.19v1l-1.19.22a4.93,4.93,0,0,0,.45,3.39,15.38,15.38,0,0,0,3.67,4.58c.16.12.33.22.6.4a5,5,0,0,0,.14-.77c0-1.2,0-2.39,0-3.59a2.3,2.3,0,0,0-.65-1.8,5.1,5.1,0,0,1-1.46-3.73,4.78,4.78,0,0,1,1.3-3.35A15,15,0,0,1,27,63.38a9.45,9.45,0,0,0,3-4c.28-.64.52-1.31.84-1.93a6.27,6.27,0,0,0,.36-3.27l-1.41-.14.06-1.2,1.3-.16.15-1.43,1.21-.2.13,1.65,1.33.11v1.24l-1.3.13a5.92,5.92,0,0,0,.16,3c.33.77.67,1.54,1,2.33a9.45,9.45,0,0,0,3,3.84c.49.4.95.84,1.43,1.25a5.15,5.15,0,0,1,.48,7.29,3.43,3.43,0,0,0-.86,2.49c0,5.6,0,11.19,0,16.79,0,.45,0,.9,0,1.48,1.62.07,3.13,0,4.62,0s3,0,4.51,0v2.78H35.2c0-3.71.05-7.41,0-11.11s.14-7.35-.11-11a25.67,25.67,0,0,0-6.28,0c0,.34,0,.72,0,1.1,0,2.32,0,4.65,0,7a29,29,0,0,1-.19,2.94,4.58,4.58,0,0,1-1.41,2.77,2.38,2.38,0,0,0-.72,2c0,1,0,2.09,0,3.2H23.66c0-.56,0-1.11,0-1.66-.08-2.8.47-2.46-2.44-2.47-1.06,0-2.11,0-3.17,0-.87,0-1,.11-1,1,0,1.27,0,2.53,0,3.8,0,.31,0,.62,0,1.05H12.84c-.06,3.08,0,6,0,8.89l.18.2a.19.19,0,0,0,.09,0c.24,0,.49.06.73.06H58.68a2,2,0,0,0,.43-.14c.06-4.73,0-9.5,0-14.32h2.79V90.9a2.45,2.45,0,0,0,1.75.27c1.89,0,1.53.35,2.24-1.6q2.16-5.88,4.39-11.73A8.69,8.69,0,0,0,71,74.35c-.06-1.62,0-3.24,0-4.86,0-.35,0-.69,0-1.16-2.38-.17-4.68,0-7.09-.09V83H47.37V80.26c1.47-.06,3,0,4.47,0h9c0-.39.09-.7.09-1,0-3.41,0-6.83,0-10.24a1.84,1.84,0,0,0-.54-1.42,11.09,11.09,0,0,1-1.1-1.41A5.42,5.42,0,0,1,60,59.38a23.57,23.57,0,0,1,2.13-1.88,9.75,9.75,0,0,0,3.23-4.22c.34-.85.68-1.7,1.05-2.53a5.7,5.7,0,0,0,.24-3l-1.32-.17V46.48l1.31-.18.15-1.51h1.09c0,.26,0,.5.07.74.06.76.08.78.87.87l.51.05.06,1c-.13.09-.18.15-.24.16-1.21.13-1.18.13-1.22,1.31a5.24,5.24,0,0,0,.47,2.45c.4.86.78,1.73,1.16,2.6a8.21,8.21,0,0,0,2.25,3c1,.86,2,1.7,3.13,2.63a2.24,2.24,0,0,0-.25-2.35c-.37-.42-.73-.86-1.06-1.31a5.91,5.91,0,0,1,.74-7.77,19,19,0,0,1,1.75-1.52,11.71,11.71,0,0,0,4.11-5.36,7.67,7.67,0,0,1,.41-1,8.07,8.07,0,0,0,.61-4.79L80,35.27l-.06-1,1.27-.19.12-1.53,1.2-.05.15,1.56,1.35.18v1l-1.38.21A8.16,8.16,0,0,0,83,39.12c.49,1.09.94,2.2,1.42,3.29A11.08,11.08,0,0,0,87.8,46.5a21.54,21.54,0,0,1,2.53,2.37,5.91,5.91,0,0,1,.1,7.15,4.49,4.49,0,0,1-.58.75A2.65,2.65,0,0,0,89,59.11c.06,1.86,0,3.73,0,5.59,0,.34,0,.69.05,1,1.3.44,2.58.15,3.94.33,0,.33.05.67.05,1q0,11.24,0,22.49c0,.45,0,.89.06,1.43l4.81.2c0,.43,0,.81,0,1.19,0,3.17,0,6.33,0,9.5,0,.41.08.81.13,1.29h3.28a10,10,0,0,1,.08,2.82H6.62a12.62,12.62,0,0,1,0-2.76H9.84a9.42,9.42,0,0,0,.22-1.39c0-.88-.08-1.75-.08-2.63,0-.59.09-1.19.09-1.79,0-1.72,0-3.44,0-5.15,0-.34,0-.69.05-1.08l4-.21c0-1,0-1.91,0-2.81a1.58,1.58,0,0,0-.4-.71c-.31-.42-.67-.81-1-1.24a5.37,5.37,0,0,1,.67-6.6c.42-.37.79-.81,1.24-1.14a16.07,16.07,0,0,0,4.2-4.82A5,5,0,0,0,19.55,69.9Zm70.69,24c0-.41-.05-.72-.05-1q0-3.59,0-7.18,0-7.81,0-15.62c0-.4,0-.81-.07-1.21a3.63,3.63,0,0,0-.53-.1q-7.44,0-14.88,0c-.78,0-.88.13-.89,1,0,1.76,0,3.52,0,5.28a5.55,5.55,0,0,0,.31,1.74c1.22,3.36,2.47,6.72,3.72,10.07.46,1.25.94,2.49,1.4,3.74.12.31.24.62.62.62A12.81,12.81,0,0,0,82.79,91V88.76h2.84c0,.43,0,.78,0,1.13q0,6,0,12c0,.4.05.81.08,1.19A60.86,60.86,0,0,0,95,103c0-.71.14-1.44.14-2.17,0-1.79,0-3.57,0-5.36,0-1.6,0-1.6-1.63-1.6Zm-7.51.23c-.31,0-.48-.07-.65-.07H62.56a1.33,1.33,0,0,0-.31.06.23.23,0,0,0-.09.05l-.07.08a58,58,0,0,0,.09,8.89,12.63,12.63,0,0,0,4.14-.12v-5.2h2c0,.42,0,.77,0,1.11,0,1.09,0,2.18,0,3.27s.09,1,1,1c2.07,0,4.15,0,6.22,0a6.57,6.57,0,0,0,.79-.11c.12-1.81-.05-3.59.09-5.33h1.94c.12,1.82-.08,3.6.12,5.34a12.26,12.26,0,0,0,4.18-.11ZM82,44.44a2,2,0,0,0-.27.31,12.85,12.85,0,0,1-3.35,3.74,24.17,24.17,0,0,0-1.91,1.65,3,3,0,0,0-.25,4.49,1,1,0,0,0,.88.46c3.27,0,6.54,0,9.8,0a1.29,1.29,0,0,0,.84-.31A3,3,0,0,0,88,50.57a9.9,9.9,0,0,0-1.13-1.1,17.47,17.47,0,0,1-4.62-4.85C82.23,44.54,82.11,44.51,82,44.44ZM67.41,56.1c-.2.16-.31.2-.36.29a12.61,12.61,0,0,1-3.13,3.38,18,18,0,0,0-1.74,1.52A2.57,2.57,0,0,0,62,64.9a1.14,1.14,0,0,0,1.05.55c.95,0,1.89,0,2.84,0,1.86,0,3.72,0,5.58,0a1.47,1.47,0,0,0,1-.25,2.49,2.49,0,0,0,.41-3.34,6.34,6.34,0,0,0-1.31-1.35A15.4,15.4,0,0,1,67.41,56.1ZM86,66a42.16,42.16,0,0,0,0-8c-2.59-.05-5.2,0-7.79,0A43.19,43.19,0,0,0,78.2,66C80.78,66,83.4,66.06,86,66ZM20.34,76.82c-.1.08-.21.12-.26.2a12.5,12.5,0,0,1-3,3.21,20.85,20.85,0,0,0-1.59,1.38,2.41,2.41,0,0,0-.14,3.25,1,1,0,0,0,.89.44c2.74,0,5.48,0,8.23,0a1,1,0,0,0,.66-.23,2.39,2.39,0,0,0,.69-1.38A2.87,2.87,0,0,0,24.57,81c-.92-.76-1.84-1.52-2.7-2.36A20.79,20.79,0,0,1,20.34,76.82ZM32,62.29c-.76.83-1.38,1.59-2.08,2.27s-1.48,1.3-2.22,1.94a4.78,4.78,0,0,0-.37.37,2.14,2.14,0,0,0-.3,2.79,1.11,1.11,0,0,0,1.09.64c2.53,0,5.06,0,7.59,0a1.09,1.09,0,0,0,1.16-.71,4.35,4.35,0,0,0,.28-1.4A2.43,2.43,0,0,0,36,66.29,16.36,16.36,0,0,1,32,62.29ZM76.39,91.14,72.55,80.77a61.76,61.76,0,0,0-3.86,10.36Z"/><path class="a97b0ccb-dc6d-45d8-b1d9-6fff32934470" d="M48.67,75H45.83V56.06c-2.53-.12-5.58,0-8-.07V53.13h1.39c2.53,0,5.07,0,7.6,0a1.85,1.85,0,0,0,1.75-.89,3.63,3.63,0,0,0-.45-5c-.56-.53-1.15-1-1.75-1.52a15.7,15.7,0,0,1-4.71-5.55c-1.07,3.39-7.44,4.66-7.44,9.19H31c0-8.14,9.94-5.18,9.94-17.94l-1.33-.13V30l1.3-.14L41,28.5h1.21l.12,1.38,1.21.17.06,1.16-1.15.18c0,8.44,4.72,11.14,4.95,11.2.15-2.23,0-4.42.11-6.72h3.23c.18-1.16.36-2.23.52-3.29q.5-3.33,1-6.65c.3-2,.6-4.09.91-6.13a1.43,1.43,0,0,0-.45-1.22,5,5,0,0,1-1.45-3.3,4.35,4.35,0,0,1,1.22-3.15,11.94,11.94,0,0,1,1-1,6.64,6.64,0,0,0,2-3c.24-.7.45-1.4.7-2.09a7.92,7.92,0,0,0,.16-2.82L55.13,3,55,2l1.29-.23L56.44.27h1.24l.12,1.5,1.34.17L59.21,3l-1.41.21a7.1,7.1,0,0,0,.18,3c.31.82.6,1.65.91,2.47a5.22,5.22,0,0,0,1.38,2.09c.39.35.75.75,1.14,1.1a4.54,4.54,0,0,1,.31,6.29,7,7,0,0,1-.49.55,1.06,1.06,0,0,0-.31,1q.45,3,.89,5.92l.78,5.19.73,4.92c1.06.3,2.12,0,3.21.2a5.5,5.5,0,0,1,.08.68c0,1.34,0,6,0,7.31H63.78c0-.87,0-4.21,0-5.14H50.42c0,.36-.08.67-.08,1,0,1.58,0,3.17,0,4.75A2,2,0,0,0,50.8,46a6,6,0,0,1,1.39,3.79,5.71,5.71,0,0,1-.71,3.14,10.87,10.87,0,0,1-2.81,3.33Zm7.47-55.85c-.42,2.88-.76,5.65-1.23,8.4-.67,3.92-1.17,7.62-1,8.33,2.1,0,4.23.08,6.51,0-.36-2.86-.82-5.61-1.21-8.36S58.4,21.94,58,19.13Zm1.13-7.3c-.82.68-1.58,1.29-2.32,1.94a2.77,2.77,0,0,0-.66.81,1.06,1.06,0,0,0,1,1.64c1.22,0,2.45,0,3.67,0,.66,0,.92-.22,1-.81A1.54,1.54,0,0,0,59.54,14C58.73,13.23,57.9,12.44,57.27,11.82Z"/><path class="a97b0ccb-dc6d-45d8-b1d9-6fff32934470" d="M25.19,40.45l-1.31-.12-.05-1.19L25.21,39l.08-1.55h1.15l.13,1.54,1.32.16v1.21l-1.35.15c0,1.28-.26,2.52.34,3.73s1.24,2.57,1.83,3.84V52.9c-.44-.69-2.35-2.92-2.78-3.59a1.77,1.77,0,0,0-.31.32,15.42,15.42,0,0,1-4.27,4.88c-.55.44-1.1.87-1.63,1.34a4.32,4.32,0,0,0-1.56,2.55,3.86,3.86,0,0,0,1.33,3.47,1.4,1.4,0,0,0,.88.2c1.19,0,3.39,0,3.51,0v2.84c-.81,0-4.2,0-5,0a1.39,1.39,0,0,1-.83-.34,10.93,10.93,0,0,1-2.23-2.92,6.2,6.2,0,0,1,.92-6.78A34.56,34.56,0,0,1,19.94,52a11.16,11.16,0,0,0,3.46-4.43c.48-1.17,1-2.32,1.51-3.47a3.58,3.58,0,0,0,.3-2.15A8.66,8.66,0,0,1,25.19,40.45Z"/><path class="a97b0ccb-dc6d-45d8-b1d9-6fff32934470" d="M33.33,97v3.13H30.2V97Z"/><path class="a97b0ccb-dc6d-45d8-b1d9-6fff32934470" d="M54.55,92.79v3.13H51.42V92.79Z"/><path class="a97b0ccb-dc6d-45d8-b1d9-6fff32934470" d="M23.64,97H26.7v3.1H23.64Z"/><path class="a97b0ccb-dc6d-45d8-b1d9-6fff32934470" d="M20.12,100.12H17V97h3.08Z"/><path class="a97b0ccb-dc6d-45d8-b1d9-6fff32934470" d="M54.57,75.35H51.44V72.22h3.13Z"/><path class="a97b0ccb-dc6d-45d8-b1d9-6fff32934470" d="M54.57,65.67v3.06h-3.1V65.67Z"/><path class="a97b0ccb-dc6d-45d8-b1d9-6fff32934470" d="M51.43,62.15V59.07h3.11v3.08Z"/></svg>