<svg id="06de1a0a-6ac4-4ba8-8aeb-fd57cd2d97ab" data-name="Слой 1" xmlns="http://www.w3.org/2000/svg" viewBox="0 0 106 106"><defs><style>.\32 2336335-7cbb-49c6-bd6c-fbd16ea8a79e{fill:#ce112d;}</style></defs><title>icon</title><path class="22336335-7cbb-49c6-bd6c-fbd16ea8a79e" d="M1.23,106A2.28,2.28,0,0,1,0,103.71c0-15.6,0-31.19.07-46.79A42.47,42.47,0,0,1,1.29,49.5q2.64-14,5.33-27.91c.24-1.24.73-1.68,1.94-1.68q3,0,6,0a1.72,1.72,0,0,1,2,1.66q2.91,15.33,5.83,30.66c0,.23.13.46.24.88.42-.37.77-.67,1.11-1L38.19,39l.23-.21a1.65,1.65,0,0,1,2-.46,1.75,1.75,0,0,1,1,1.78q0,6.31,0,12.63c0,.48,0,1,0,1.69.39-.29.66-.47.89-.67L59.72,38.94c.65-.55,1.27-1.1,2.21-.65s1,1.23,1,2.1c0,4.59,0,9.17,0,14,.43-.33.71-.53,1-.75q8.73-7.38,17.47-14.76a3,3,0,0,1,1.43-.73c1-.13,1.65.7,1.65,1.92q0,6.47,0,12.94c0,.37,0,.75,0,1.37.41-.31.67-.49.91-.69l17.47-14.77c1.4-1.18,2.16-1.09,3.19.41V106Zm101.4-3.32V43.34c-.3.24-.5.38-.68.53L84.49,58.66c-.66.56-1.28,1.22-2.28.78s-1-1.33-1-2.27c0-4.24,0-8.49,0-12.73,0-.32,0-.65-.06-1.11-.39.31-.66.51-.91.73L62.75,58.83c-.62.53-1.25,1-2.13.59a1.89,1.89,0,0,1-1-2c0-4.28,0-8.56,0-12.84,0-.37,0-.73,0-1.29-.43.33-.69.52-.95.73L41.24,58.8c-.62.53-1.23,1-2.13.63s-1-1.2-1-2.08q0-6.31,0-12.63c0-.36,0-.71-.05-1.18-.24.17-.36.23-.45.32C33,48.08,28.3,52.3,23.68,56.55a2,2,0,0,0-.51,1.34q0,16.67,0,33.33c0,.47,0,.94,0,1.43H19.9c0-.44,0-.82,0-1.19q0-17.13,0-34.27a7.86,7.86,0,0,0-.13-1.44Q18.38,48.4,17,41c-.5-2.63-1-5.26-1.52-7.89H7.73c0,.19-.09.32-.11.45-1,5.41-2.1,10.82-3.09,16.24A49,49,0,0,0,3.32,58C3.19,70.34,3.27,82.7,3.27,95c0,.33,0,.66,0,1.07H23.17v6.56ZM19.85,99.41H3.33v3.22H19.85ZM8.35,29.75h6.47c-.25-1.27-.45-2.46-.71-3.63-.21-1-.19-2.36-.81-2.83s-2-.14-3-.15c-.07,0-.16,0-.2,0-.2.14-.51.27-.55.45C9.11,25.62,8.74,27.65,8.35,29.75Z"/><path class="22336335-7cbb-49c6-bd6c-fbd16ea8a79e" d="M13.21,16.46H9.87a30.06,30.06,0,0,1,.32-4.66A6.33,6.33,0,0,1,20.42,8.18a14.84,14.84,0,0,1,2.49,2.61c2.52,3.27,4.6,3.23,7.18,0a17,17,0,0,1,3.7-3.38,4.59,4.59,0,0,1,5.28,0,28,28,0,0,1,3.54,3.12c.6.56,1.06,1.28,1.68,1.81a2.76,2.76,0,0,0,4.16,0,15.33,15.33,0,0,0,1.72-1.92c1.56-1.92,3.32-3.5,6-3.78V9.81c-1.65.36-2.65,1.66-3.74,2.91a16.84,16.84,0,0,1-3.28,2.95,4.76,4.76,0,0,1-5.56,0,16.41,16.41,0,0,1-3.55-3.25c-2.67-3.34-4.65-3.33-7.31,0a15.8,15.8,0,0,1-3.46,3.19,4.84,4.84,0,0,1-5.74-.07,28.09,28.09,0,0,1-3.32-3.06c-.69-.67-1.29-1.45-2-2a3,3,0,0,0-3.41-.19A2.91,2.91,0,0,0,13.21,13C13.19,14.15,13.21,15.28,13.21,16.46Z"/><path class="22336335-7cbb-49c6-bd6c-fbd16ea8a79e" d="M99.29,96.14v3.15H26.58V96.14Z"/><path class="22336335-7cbb-49c6-bd6c-fbd16ea8a79e" d="M44.63,66.33V76.1H31.54V66.33Zm-9.81,3.25v3.26h6.56V69.58Z"/><path class="22336335-7cbb-49c6-bd6c-fbd16ea8a79e" d="M61.19,66.33V76.1H48.11V66.33ZM57.94,69.6H51.37v3.24h6.56Z"/><path class="22336335-7cbb-49c6-bd6c-fbd16ea8a79e" d="M64.67,66.33H77.75V76.1H64.67Zm9.8,6.52V69.6H67.93v3.25Z"/><path class="22336335-7cbb-49c6-bd6c-fbd16ea8a79e" d="M81.27,66.33H94.32v9.74H81.27Zm3.23,3.25v3.26h6.56V69.58Z"/><path class="22336335-7cbb-49c6-bd6c-fbd16ea8a79e" d="M44.63,89.35H31.54V79.58H44.63Zm-3.26-3.24V82.84H34.83v3.28Z"/><path class="22336335-7cbb-49c6-bd6c-fbd16ea8a79e" d="M61.19,79.58v9.77H48.11V79.58ZM58,82.84h-6.6v3.23H58Z"/><path class="22336335-7cbb-49c6-bd6c-fbd16ea8a79e" d="M64.71,79.58h13v9.77h-13Zm9.81,3.27H67.93v3.22h6.59Z"/><path class="22336335-7cbb-49c6-bd6c-fbd16ea8a79e" d="M94.32,89.35H81.24V79.58H94.32Zm-3.24-6.48H84.51v3.22h6.57Z"/><path class="22336335-7cbb-49c6-bd6c-fbd16ea8a79e" d="M10,69.44V66.36h3.11v3.08Z"/><path class="22336335-7cbb-49c6-bd6c-fbd16ea8a79e" d="M13.12,76.1H10V73h3.08Z"/><path class="22336335-7cbb-49c6-bd6c-fbd16ea8a79e" d="M10,82.7V79.61h3.12V82.7Z"/><path class="22336335-7cbb-49c6-bd6c-fbd16ea8a79e" d="M10,86.2h3.08v3.12H10Z"/></svg>