<?xml version="1.0" encoding="utf-8"?>
<!-- Generator: Adobe Illustrator 21.0.0, SVG Export Plug-In . SVG Version: 6.00 Build 0)  -->
<svg version="1.1" id="Слой_1" xmlns="http://www.w3.org/2000/svg" xmlns:xlink="http://www.w3.org/1999/xlink" x="0px" y="0px"
	 width="106px" height="106px" viewBox="0 0 106 106" style="enable-background:new 0 0 106 106;" xml:space="preserve">
<style type="text/css">
	.st0{fill:#CE112D;}
</style>
<path id="Фигура_5" class="st0" d="M59.6,106c0-4.6,0-9.1,0-13.7c0-8.5,0-17,0-25.5v-1.3L55,63.2c-1.3,1.6-2.6,3.1-3.9,4.6
	c-1.6,1.9-3.3,3.8-4.9,5.7c-1,1.2-2,1.2-3,0c-2.8-3.2-5.5-6.4-8.3-9.7c-0.2-0.2-0.4-0.4-0.6-0.7l-4.5,2c0,0.3-0.1,0.6-0.1,0.9
	c0,13.1,0,26.2,0,39.3c0,0.2,0,0.3,0,0.5h-3.3c0-0.1,0-0.3,0-0.4c0-12.7,0-25.3,0-38c0-0.2,0-0.5-0.1-0.8l-6.6,2.9c0,0.4,0,0.7,0,1
	c0,7.3,0,14.7,0,22c0,4.4,0,8.8,0,13.2h-3.3c0-0.2,0-0.3,0-0.5c0-11.3,0-22.6,0-33.8c0-0.2,0-0.5-0.1-0.8c-3.3,1.2-6.4,3-9.1,5.4
	C4.5,78.5,3,82.1,3,85.8c0,2.2,0,4.3,0,6.5c0,4.5,0,9,0,13.5H0V84.5c0.1-0.5,0.2-1.1,0.3-1.6C1,79.1,3,75.7,6,73.3
	c3.3-2.9,7.3-4.6,11.3-6.3c5.2-2.1,10.3-4.4,15.5-6.7c0.1-0.1,0.2-0.1,0.3-0.2v-7c-4-4.4-6.4-10-6.6-16c-1.8-2.2-1.9-2.3-1.6-5.7H28
	v2.7c1.5,0.9,1.7,2.3,1.8,3.9c0.2,4.1,1.6,8.1,4.1,11.4c4.7,5.9,13.2,7,19.2,2.3c0.8-0.6,1.5-1.3,2.2-2.1c2.3-2.9,3.7-6.4,4.1-10.1
	c0.1-0.9,0.2-1.7,0.2-2.6c-0.1-0.8,0.3-1.7,0.9-2.2c0.3-0.3,0.5-0.5,0.8-0.8v-2.5h3.2c0,1.1,0.1,2.2,0,3.3c-0.1,0.4-0.3,0.8-0.6,1.2
	c-0.3,0.3-0.6,0.6-1,0.9C62.5,43,60.5,48.5,56.3,53v7.2l4.1,2.1c0.3,0.2,0.6,0.3,0.9,0.5c1,0.4,1.7,1.4,1.5,2.5
	c0,13.1,0,26.3,0,39.4c0,0.4,0,0.8,0,1.2L59.6,106L59.6,106z M44.7,70.4c2.9-3.3,5.6-6.5,8.2-9.6v-5c-5.1,2.8-11.4,2.8-16.5,0v4.9
	L44.7,70.4z M66.3,106c0-4.8,0-9.5,0-14.3c0-13.1,0-26.2,0-39.3v-1h6.5v3.2h-3.2v48.1h33v-48h-3.2v-3.3h6.5V106H66.3z M23.2,21.5
	c0.1-9.8,6.7-18.2,16.1-20.8c1-0.3,2-0.4,2.9-0.6C42.5,0,42.7,0,43-0.1h3.3c1.1,0.2,2.1,0.4,3.2,0.6c8.5,2.1,15,9.1,16.4,17.8
	c0.1,1,0.2,2.1,0.2,3.1l0,0H63c-0.4-7.7-3.8-13.3-10.4-16.6c-1.7,0.1-3.1,1.6-3,3.4c0,4,0,7.9,0,11.9v1.2h-3.3V20
	c0-3.8,0-7.7,0-11.5c0-1.6,0.5-3.1,1.5-4.3C48,4,48.1,3.8,48.3,3.4c-2.4-0.5-4.9-0.4-7.2,0.1c0.3,0.4,0.5,0.7,0.7,0.9
	C42.6,5.7,43,7,43,8.4c0,4.1,0,8.3,0,12.4c0,0.2,0,0.4-0.1,0.6h-3.2v-1.2c0-4,0-7.9,0-11.9c0-2-0.9-3-3-3.4
	c-6.7,3.4-10.1,9-10.4,16.6H23.2L23.2,21.5z M66.2,21.5h3.3c0,1-0.3,1.9-0.9,2.6c-0.8,1.1-1.9,2-3.1,2.7c-2.4,1.4-5.1,2.5-7.9,3
	c-5.4,1.3-10.9,1.7-16.4,1.4c-4-0.2-7.9-0.9-11.7-2c-2.7-0.7-5.2-2-7.4-3.7c-1.3-1-2.1-2.5-2.2-4.1h3.3l0,0c0,1,0.6,2,1.5,2.4
	c1,0.7,2.1,1.3,3.3,1.7c4.5,1.6,9.2,2.4,14,2.5c4,0.2,8.1,0,12.1-0.6c2.9-0.3,5.7-1.1,8.4-2.3c1-0.5,2-1.1,2.9-1.8
	C65.9,23,66.3,22.3,66.2,21.5L66.2,21.5z M76.3,57.9v-9.8H96v9.8H76.3z M79.5,54.6h13.2v-3.2H79.5V54.6L79.5,54.6z M79.6,64.5v-3.1
	h19.7v3.1H79.6z M99.3,71.2H79.6V68h19.7V71.2L99.3,71.2z M79.6,74.6h19.7v3.1H79.6V74.6z M79.6,84.4v-3.1h19.7v3.1H79.6z
	 M99.3,92.9V96h-8.1v-3.1H99.3L99.3,92.9z M73,61.4h3.1v3.1H73V61.4z M76.1,71.2H73V68h3.1V71.2L76.1,71.2z M76.1,77.8H73v-3.1h3.1
	V77.8L76.1,77.8z M73,81.2h3.1v3.1H73V81.2L73,81.2z M46.3,81.1h-3.1V78h3.1V81.1z M46.3,84.6v3.1h-3.1v-3.1H46.3L46.3,84.6z
	 M43.1,94.3v-3.1h3.1v3.1H43.1L43.1,94.3z"/>
</svg>
