<?xml version="1.0" encoding="utf-8"?>
<!-- Generator: Adobe Illustrator 21.0.0, SVG Export Plug-In . SVG Version: 6.00 Build 0)  -->
<svg version="1.1" id="Слой_1" xmlns="http://www.w3.org/2000/svg" xmlns:xlink="http://www.w3.org/1999/xlink" x="0px" y="0px"
	 viewBox="0 0 15 20.7" style="enable-background:new 0 0 15 20.7;" xml:space="preserve">
<style type="text/css">
	.st0{fill:#838D9D;}
	.st1{fill:#CE112D;}
	.st2{enable-background:new    ;}
	.st3{fill:#FFFFFF;}
</style>
<g>
	<path class="st0" d="M2.7,14.8l-1,5.3c0,0.3,0.2,0.7,0.4,0.6L7.5,19c0.1,0,0.1,0,0.2,0l5.4,1.7c0.2,0.1,0.3-0.3,0.3-0.6l-1-5.3
		c-1.4,0.9-3.1,1.5-4.8,1.5C5.7,16.3,4.1,15.8,2.7,14.8z"/>
	<path class="st1" d="M7.5,15c4.1,0,7.5-3.4,7.5-7.5S11.6,0,7.5,0S0,3.4,0,7.5C0,11.7,3.4,15,7.5,15z"/>
	<g class="st2">
		<path class="st3" d="M2.7,4.9c0.2,0,0.4,0,0.5-0.1s0.3-0.1,0.3-0.2c0.1-0.1,0.2-0.2,0.2-0.3C3.8,4.3,3.9,4.1,3.9,4h0.8v7.1H3.6
			V5.7H2.7V4.9z"/>
		<path class="st3" d="M5.8,8.8l2-4.8H9v4.8h0.5v1H9v1.3H7.9V9.9H5.8V8.8z M7.9,8.8V6.2L6.8,8.8H7.9z"/>
	</g>
	<g class="st2">
		<path class="st3" d="M12.1,7.2h1.4V8h-1.4v1.4h-0.8V8H9.9V7.2h1.4V5.8h0.8V7.2z"/>
	</g>
</g>
</svg>
