<?xml version="1.0" encoding="utf-8"?>
<!-- Generator: Adobe Illustrator 21.0.0, SVG Export Plug-In . SVG Version: 6.00 Build 0)  -->
<svg version="1.1" id="logo_art" xmlns="http://www.w3.org/2000/svg" xmlns:xlink="http://www.w3.org/1999/xlink" x="0px" y="0px"
	 viewBox="0 0 347.9 38.8" style="enable-background:new 0 0 347.9 38.8;" xml:space="preserve">
<style type="text/css">
	.st0{fill:#4D4D4D;}
	.st1{fill:#505050;}
	.st2{fill:#666666;}
	.st3{fill:#919191;}
	.st4{fill:#6A6A6A;}
	.st5{fill:#929292;}
</style>
<g>
	<path class="st0" d="M172.6,0c6.5,0,13,0,19.6,0c1.6,0.2,2.2,1.4,2.7,2.7c2.1,5.3,4.2,10.7,6.3,16c0.1,0.2,0.3,0.3,0.4,0.3
		c0.1,0,0.4-0.2,0.4-0.3c1.3-3.5,2.6-7.1,3.9-10.6c0.8-2.1,1.5-4.2,2.3-6.2c0.4-1,1.1-1.7,2.3-1.8c0.1,0,0.2-0.1,0.3-0.1
		c6.4,0,12.8,0,19.3,0c0,0.2,0,0.4,0,0.6c0,12,0,23.9,0,35.9c0,0.2,0,0.5,0,0.7c-4.7,0-9.3,0-14,0c0-0.2,0-0.5,0-0.7
		c0-7.1,0-14.1,0-21.2c0-0.2,0-0.4,0-0.5c-0.5-0.2-0.7,0-0.9,0.4c-2.4,5.6-4.8,11.3-7.2,16.9c-0.5,1.3-1.1,2.5-1.7,3.7
		c-0.4,0.8-1,1.2-1.9,1.3c-2.2,0-4.3,0-6.5,0c-0.2,0-0.3,0-0.5-0.1c-1-0.2-1.5-1-1.8-1.9c-2.8-6.6-5.7-13.3-8.5-19.9
		c-0.2-0.5-0.5-0.5-0.9-0.4c0,0.2,0,0.4,0,0.6c0,5.9,0,11.8,0,17.7c0,1.4,0,2.8,0,4.2c-4.5,0-9.1,0-13.6,0v-0.1
		c0-12.2,0-24.5,0-36.7C172.6,0.3,172.6,0.1,172.6,0z"/>
	<path class="st1" d="M81.4,37.2c-0.1,0-0.2,0-0.3,0c-0.1,0-0.3-0.1-0.4-0.1c-1.8,0-3.5,0-5.3,0c-0.1,0-0.3,0.1-0.4,0.1
		s-0.2,0-0.3,0c-1.1-0.3-1.8-1.1-2.2-2.2c-2.8-6.6-5.6-13.2-8.4-19.9c-0.2-0.5-0.4-0.6-0.9-0.4c0,0.2,0,0.4,0,0.5
		c0,7.1,0,14.2,0,21.3c0,0.2,0,0.4,0,0.6c-4.5,0-9.1,0-13.6,0c0-0.2,0-0.4,0-0.5c0-12,0-24.1,0-36.1c0-0.2,0-0.3,0-0.5
		c6.5,0,13,0,19.5,0c1.5,0.2,2.2,1.3,2.7,2.6C73.9,8,76,13.3,78.2,18.7c0.1,0.2,0.1,0.4,0.5,0.4c0.3,0,0.4-0.2,0.4-0.4
		c1.5-4.1,3-8.1,4.5-12.2c0.6-1.5,1.1-3,1.7-4.5c0.4-1.1,1.1-1.8,2.3-1.9L87.7,0c6.5,0,12.9,0,19.4,0c0,0.1,0,0.2,0,0.3
		c0,12.1,0,24.2,0,36.3c0,0.1,0,0.3,0,0.4c-4.7,0-9.3,0-14,0c0-0.2,0-0.4,0-0.5c0-7.1,0-14.2,0-21.3c0-0.2,0-0.4,0-0.6
		c-0.5-0.1-0.7,0-0.9,0.4c-1,2.4-2,4.8-3,7.1c-1.9,4.3-3.7,8.7-5.6,13c-0.3,0.8-0.8,1.4-1.6,1.7C81.8,37,81.6,37.1,81.4,37.2z"/>
	<path class="st0" d="M285.1,0c11.2,0,22.4,0,33.6,0c0.1,0,0.2,0.1,0.2,0.1c1,0.1,2.1,0.2,3.1,0.4c3,0.7,5.1,2.4,5.9,5.5
		c0.5,2,0.5,4,0.4,6.1c-0.1,1.1-0.3,2.1-0.6,3.2c-0.8,2.5-2.6,3.9-5.1,4.6c-0.8,0.2-1.6,0.4-2.6,0.6c0.8,0.2,1.5,0.3,2.2,0.5
		c1.3,0.3,2.6,0.8,3.7,1.8c1.3,1.3,1.8,2.9,1.9,4.6c0.1,3.3,0.1,6.5,0.1,9.8c-5.1,0-10.1,0-15.2,0c0-0.2-0.1-0.4-0.1-0.6
		c0-3,0-5.9-0.1-8.9c0-1.8-0.9-2.8-2.5-3.1c-0.4-0.1-0.9-0.1-1.4-0.1c-2.9,0-5.7,0-8.6,0c-0.1,0-0.2,0-0.3,0c0,0.2,0,0.4,0,0.5
		c0,3.8,0,7.7,0,11.5c0,0.2,0,0.4,0,0.5c-4.9,0-9.8,0-14.8,0c0-0.2,0-0.4,0-0.6C285.1,24.3,285.1,12.2,285.1,0z M299.9,16.4
		c0.1,0,0.2,0,0.3,0c3.3,0,6.6,0,10-0.1c1.3,0,2-0.5,2.3-1.5c0.4-1.6,0.4-3.2,0-4.8c-0.2-0.8-0.8-1.4-1.7-1.4
		c-0.7-0.1-1.3-0.1-2-0.1c-2.8,0-5.6,0-8.4,0c-0.2,0-0.3,0-0.5,0C299.9,11.1,299.9,13.7,299.9,16.4z"/>
	<path class="st1" d="M28.1,37.2c-0.5,0-1,0-1.6,0c-0.2,0-0.4-0.1-0.6-0.1c-8.6,0-17.3,0-25.9,0C0,24.8,0,12.4,0,0
		c9.5,0,19,0,28.5,0c0.1,0,0.3,0.1,0.4,0.1C31,0.2,33.1,0.4,35.1,1c3,0.8,5.5,2.3,7.1,5c1.3,2,1.7,4.3,2,6.6
		c0.3,2.9,0.4,5.7,0.3,8.6c-0.1,2.2-0.3,4.4-0.8,6.6c-1,3.9-3.4,6.6-7.2,8c-2.1,0.8-4.3,1-6.4,1.2C29.4,37,28.8,37.1,28.1,37.2z
		 M14.9,8.4c0,6.8,0,13.6,0,20.3c2.8,0,5.6,0,8.5,0c0.9,0,1.9-0.1,2.8-0.2c1.7-0.2,2.5-0.9,2.7-2.5c0.2-0.9,0.3-1.8,0.3-2.8
		c0.1-2.6,0.1-5.3,0.1-7.9c0-1.6-0.2-3.1-0.5-4.7c-0.1-1-0.8-1.7-1.8-1.9c-0.5-0.1-0.9-0.2-1.4-0.2c-2-0.1-4.1-0.1-6.1-0.1
		C17.9,8.4,16.4,8.4,14.9,8.4z"/>
	<path class="st1" d="M125.3,37.2c-0.4,0-0.8,0-1.2,0c-0.7-0.1-1.5-0.2-2.2-0.3c-2.3-0.3-4.4-1.1-6-2.8s-2.6-3.7-3.1-6
		c-1.1-4.2-1.1-8.6-0.9-12.9c0.1-2.6,0.5-5.2,1.4-7.7c1.5-4.1,4.2-6.7,8.7-7.2c0.7-0.1,1.3-0.2,1.9-0.3c7.2,0,14.4,0,21.6,0
		c0.1,0,0.1,0.1,0.2,0.1c0.9,0.1,1.8,0.2,2.8,0.3c3.4,0.5,5.8,2.3,7,5.6c0.5,1.4,0.7,2.9,0.9,4.4c0.1,0.8,0.1,1.5,0.2,2.3
		c-4.8,0-9.5,0-14.2,0c-0.1-0.5-0.1-1-0.2-1.4c-0.2-1.7-1.1-2.6-2.7-2.7c-3.3,0-6.5,0-9.8,0c-1,0-1.7,0.5-2,1.5
		c-0.3,1.2-0.6,2.4-0.7,3.6c-0.3,3.5-0.3,7,0.1,10.5c0.1,1.1,0.4,2.1,0.7,3.1c0.2,0.7,0.7,1.1,1.5,1.2c0.8,0,1.6,0.1,2.4,0.1
		c2.6,0,5.2,0,7.8,0c0.8,0,1.6-0.2,2.1-0.9c0.8-1.1,0.9-2.4,0.9-3.8c-3.5,0-6.9,0-10.3,0c0-2.6,0-5.1,0-7.6c8.2,0,16.3,0,24.5,0
		c0,2.1,0,4.2,0,6.3s-0.3,4.2-0.8,6.2c-0.7,2.8-2.2,5.1-4.7,6.6c-1.6,1-3.5,1.3-5.3,1.5c-0.5,0.1-0.9,0.1-1.4,0.2c-0.3,0-0.7,0-1,0
		c-0.2,0-0.3-0.1-0.5-0.1c-5.8,0-11.6,0-17.4,0C125.7,37.1,125.5,37.1,125.3,37.2z"/>
	<path class="st0" d="M246.8,0c7.1,0,14.2,0,21.3,0c0.7,0.1,1.4,0.2,2.1,0.3c1.6,0.2,3.2,0.7,4.5,1.6c2.2,1.6,3.5,3.8,4.3,6.3
		c1,3.2,1.2,6.6,1.2,9.9c0,1.9-0.1,3.8-0.3,5.7c-0.2,2.3-0.7,4.6-1.6,6.7c-1,2.3-2.4,4.1-4.7,5.3c-1.4,0.7-2.9,1-4.5,1.2
		c-0.6,0.1-1.3,0.1-1.9,0.2c-0.2,0-0.5,0-0.7,0s-0.3-0.1-0.5-0.1c-5.8,0-11.6,0-17.5,0c-0.2,0-0.3,0.1-0.5,0.1s-0.5,0-0.7,0
		c-0.1,0-0.1-0.1-0.2-0.1c-0.8-0.1-1.7-0.1-2.5-0.2c-3.9-0.4-6.6-2.5-8.2-6c-1.3-2.8-1.7-5.8-1.9-8.8c-0.2-2.7-0.2-5.4,0.1-8.1
		c0.2-2.3,0.6-4.6,1.4-6.8c1.5-4,4.3-6.5,8.6-7C245.6,0.2,246.2,0.1,246.8,0z M257.6,8.7c-1.6,0-3.1,0-4.7,0c-1.4,0-1.9,0.4-2.2,1.8
		c-0.2,1.1-0.4,2.3-0.5,3.5c-0.2,3.5-0.2,7,0.1,10.5c0.1,1,0.3,1.9,0.6,2.9c0.2,0.6,0.6,0.9,1.2,1c0.4,0.1,0.9,0.1,1.3,0.1
		c2.4,0,4.9,0,7.3,0c0.7,0,1.4-0.1,2-0.1c0.9,0,1.5-0.5,1.7-1.4c0.2-1.4,0.5-2.8,0.6-4.2c0.2-3.2,0.2-6.4-0.1-9.7
		c-0.1-1.1-0.3-2.1-0.6-3.1c-0.1-0.6-0.6-0.9-1.1-1.1c-0.3-0.1-0.7-0.1-1-0.1C260.6,8.7,259.1,8.7,257.6,8.7z"/>
	<path class="st0" d="M333.1,0c4.9,0,9.8,0,14.8,0c0,12.1,0,24.3,0,36.4c0,0.6,0,0.6-0.6,0.6c-4.5,0-9,0-13.4,0
		c-0.7,0-0.7,0-0.7-0.7C333.1,24.3,333.1,12.1,333.1,0z"/>
	<path class="st2" d="M333,37.2c0-12.4,0-24.8,0-37.2h0.1c0,12.1,0,24.3,0,36.4c0,0.7,0,0.7,0.7,0.7c4.5,0,9,0,13.4,0
		c0.6,0,0.6,0,0.6-0.6c0-12.1,0-24.3,0-36.4c0,0.1,0.1,0.3,0.1,0.4c0,6.3,0,12.5,0,18.8c0,6,0,12,0,18C343,37.2,338,37.2,333,37.2z"
		/>
	<path class="st3" d="M0,37.1c8.6,0,17.3,0,25.9,0c0.2,0,0.4,0.1,0.6,0.1c-8.7,0-17.4,0-26.1,0C0.3,37.2,0.2,37.1,0,37.1z"/>
	<path class="st2" d="M248.3,37.2c0.2,0,0.3-0.1,0.5-0.1c5.8,0,11.6,0,17.5,0c0.2,0,0.3,0.1,0.5,0.1
		C260.6,37.2,254.5,37.2,248.3,37.2z"/>
	<path class="st3" d="M125.3,37.2c0.2,0,0.3-0.1,0.5-0.1c5.8,0,11.6,0,17.4,0c0.2,0,0.3,0.1,0.5,0.1
		C137.6,37.2,131.5,37.2,125.3,37.2z"/>
	<path class="st2" d="M299.9,37.1L299.9,37.1c-4.9,0.1-9.8,0.1-14.8,0.1v-0.1C290,37.1,294.9,37.1,299.9,37.1z"/>
	<path class="st3" d="M93.1,37.2L93.1,37.2c4.7-0.1,9.3-0.1,14-0.1v0.1C102.4,37.2,97.7,37.2,93.1,37.2z"/>
	<path class="st4" d="M197.9,37.2C197.9,37.1,197.9,37.1,197.9,37.2c2.1-0.1,4.3-0.1,6.5-0.1v0.1C202.2,37.2,200.1,37.2,197.9,37.2z
		"/>
	<path class="st5" d="M75.1,37.2c0.1,0,0.3-0.1,0.4-0.1c1.8,0,3.5,0,5.3,0c0.1,0,0.3,0.1,0.4,0.1C79.1,37.2,77.1,37.2,75.1,37.2z"/>
</g>
</svg>
