<?xml version="1.0" encoding="utf-8"?>
<!-- Generator: Adobe Illustrator 21.0.0, SVG Export Plug-In . SVG Version: 6.00 Build 0)  -->
<svg version="1.1" id="Слой_1" xmlns="http://www.w3.org/2000/svg" xmlns:xlink="http://www.w3.org/1999/xlink" x="0px" y="0px"
	 width="15px" height="15px" viewBox="0 0 15 15" style="enable-background:new 0 0 15 15;" xml:space="preserve">
<style type="text/css">
	.st0{fill:#002B4A;}
	.st1{fill:#FFFFFF;}
</style>
<circle class="st0" cx="7.5" cy="7.5" r="7.5"/>
<path d="M365.7,164c0.1,0.1,0.3,0.1,0.5,0.2c0.2,0.1,0.2,0,0.3-0.1c0.1-0.2,0.2-0.4,0.2-0.6c0.1-0.2,0.1-0.4,0.1-0.7
	c0-0.3-0.2-0.5-0.5-0.6c-0.1,0-0.2,0-0.3,0c-0.2,0.1-0.3,0.1-0.5,0c-0.1-0.1-0.3-0.1-0.4-0.1c-0.1,0-0.2,0-0.2,0
	c0,0-0.1-0.1-0.1-0.1c0-0.1,0-0.1,0.1-0.1c0,0,0.1,0,0.1,0c-0.1-0.1-0.1-0.1-0.2-0.1c-0.1-0.1-0.1-0.1,0-0.2c0,0,0.1-0.1,0.1-0.1
	c0.1,0,0.1,0,0.2,0c0.2-0.1,0.4-0.1,0.6-0.3c0.6-0.3,1.1-0.3,1.6,0.2c0.1,0.1,0.2,0.3,0.2,0.4c0.1,0.3,0.3,0.6,0.4,1
	c0.2,0,0.4,0,0.6,0c0.2-0.3,0.3-0.6,0.4-1c0.2-0.5,0.8-0.9,1.3-0.8c0.2,0,0.5,0.1,0.6,0.3c0,0,0.1,0.1,0.1,0.1c0.1,0,0.2,0,0.3,0.1
	c0.1,0,0.3,0.1,0.3,0.3c-0.1,0.1-0.2,0.1-0.3,0.2c0.1,0,0.1,0,0.2,0.1c0.1,0,0.1,0.1,0,0.1c0,0-0.1,0-0.1,0.1c-0.1,0-0.2,0-0.3,0
	c-0.1,0-0.2,0-0.3,0.1c-0.1,0.1-0.2,0.1-0.4,0.1c0,0,0,0,0,0c-0.4-0.1-0.8,0.1-0.8,0.6c0,0.4,0,0.8,0.2,1.2c0,0.1,0.1,0.1,0.1,0.1
	c0.1,0.1,0.1,0.1,0.2,0.1c0.2-0.1,0.4-0.1,0.5-0.2c0-0.2,0.1-0.4,0.1-0.6c0.1-0.2,0.2-0.5,0.3-0.7c0.4-0.5,0.9-0.7,1.5-0.5
	c0.2,0.1,0.4,0.1,0.5,0.2c0.2,0.1,0.2,0.2,0.2,0.3c0,0.1,0,0.3,0.1,0.4c0.1,0.1,0.1,0.3,0.2,0.4c0.1,0.3,0.2,0.6,0.4,1
	c0.1,0.2,0.1,0.5,0.1,0.7c0,0.3,0,0.5,0,0.8c0,0.1,0.1,0.3,0.1,0.4c0.1,0.3,0,0.4-0.2,0.6c-0.2,0.1-0.2,0.2-0.2,0.4
	c0,0.2,0.1,0.4,0.1,0.6c0,0.1,0.1,0.2,0.1,0.3c0,0.1,0,0.1,0,0.2c0,0-0.1,0-0.1,0c-0.5-0.1-0.9-0.3-1.3-0.6
	c-0.2-0.2-0.4-0.4-0.5-0.6c-0.1-0.2-0.3-0.4-0.5-0.5c-0.1-0.1-0.2-0.2-0.3-0.3c-0.1-0.1-0.2-0.1-0.3,0c-0.2,0.2-0.5,0.2-0.8,0.2
	c0,0,0-0.1,0-0.1c-0.1,0-0.3,0-0.4,0.1c0,0.1,0.1,0.1,0.1,0.1c0.1,0.1,0.2,0.3,0.3,0.4c0.2,0.2,0.3,0.4,0.3,0.6c0,0.1,0,0.2,0.1,0.3
	c0,0.1,0.1,0.1,0.1,0.2c0.1,0.2,0.3,0.2,0.5,0.2c0.1,0,0.1,0,0.2-0.1c0.1-0.1,0.3-0.2,0.4-0.2c0.1,0,0.3,0,0.4,0.1
	c0.1,0,0.3,0,0.4,0.1c0,0.1-0.1,0.2,0.1,0.3c-0.1,0-0.1,0.1-0.2,0.1c0,0,0.1,0.1,0.1,0.1c0,0.1,0,0.1,0,0.1c-0.1,0-0.2,0-0.3,0
	c-0.2,0-0.4,0-0.7,0c-0.1,0-0.2,0-0.2,0.1c-0.1,0.1-0.2,0.2-0.3,0.4c0,0-0.1,0.1-0.1,0.1c0,0-0.1-0.1-0.1-0.1c0-0.1,0-0.1,0-0.2
	c0-0.1,0.1-0.3,0.2-0.4c-0.2-0.2-0.4-0.5-0.6-0.7c0,0-0.1-0.1-0.2-0.1c-0.1,0-0.3,0-0.4,0c-0.1,0-0.3-0.1-0.4-0.1
	c-0.1-0.1-0.1-0.1-0.2,0c0.4,0.9,0.8,1.9,1.1,2.8c-0.2,0.3-0.4,0.4-0.7,0.3c-0.2,0.1-0.3,0.2-0.5,0.2c-0.2,0.1-0.3-0.1-0.4-0.2
	c-0.2,0.1-0.3,0.3-0.5,0.2c-0.2,0-0.3-0.1-0.5-0.2c-0.1,0.1-0.2,0.2-0.4,0.2c-0.1,0-0.3-0.1-0.5-0.2c-0.1,0-0.3,0-0.5,0
	c-0.1-0.1-0.2-0.1-0.3-0.3c0.4-0.9,0.8-1.9,1.1-2.8c0-0.1-0.1-0.1-0.2-0.1c-0.2,0.2-0.5,0.2-0.8,0.2c-0.1,0-0.2,0-0.3,0.1
	c-0.2,0.2-0.4,0.4-0.6,0.6c0.1,0.1,0.1,0.3,0.2,0.4c0,0.1,0,0.1,0,0.2c0,0.1-0.1,0.1-0.2,0c-0.1-0.1-0.2-0.2-0.3-0.4
	c-0.1-0.1-0.1-0.1-0.2-0.1c-0.2,0-0.4,0-0.6,0c-0.1,0-0.2,0-0.4,0c-0.1,0-0.1-0.1-0.1-0.2c0,0,0.1,0,0.1-0.1c-0.1,0-0.1-0.1-0.2-0.1
	c0-0.1,0-0.2,0-0.3c0.1-0.1,0.2-0.1,0.4,0c0.1-0.1,0.2-0.2,0.4-0.1c0.1,0.1,0.3,0.1,0.4,0.2c0.2,0.2,0.5,0.1,0.7-0.1
	c0.1-0.1,0.1-0.1,0.2-0.2c0.1-0.1,0.1-0.1,0.1-0.2c0-0.3,0.1-0.5,0.3-0.6c0.2-0.1,0.3-0.3,0.4-0.5c-0.2-0.1-0.2-0.1-0.4-0.1
	c0,0,0,0.1,0,0.1c-0.3,0-0.5,0-0.7-0.2c-0.2-0.1-0.2-0.1-0.4,0c-0.1,0.1-0.2,0.2-0.3,0.3c-0.1,0.1-0.2,0.2-0.3,0.4
	c-0.1,0.2-0.2,0.3-0.3,0.5c-0.3,0.4-0.7,0.6-1.2,0.8c-0.1,0-0.2,0.1-0.4,0.1c0,0-0.1,0-0.1,0c0-0.1,0-0.2,0-0.3
	c0.1-0.2,0.1-0.4,0.2-0.6c0-0.1,0-0.2,0-0.4c0-0.1,0-0.2-0.1-0.2c0,0-0.1,0-0.1-0.1c-0.2-0.1-0.3-0.3-0.2-0.5c0-0.2,0.1-0.3,0.1-0.5
	c0.1-0.2,0.1-0.4,0-0.6c-0.1-0.3,0-0.6,0.1-0.9c0.1-0.2,0.2-0.5,0.3-0.7c0.1-0.2,0.1-0.4,0.3-0.6c0,0,0-0.1,0-0.2c0-0.1,0-0.1,0-0.2
	c0-0.1,0-0.1,0.1-0.2c0.5-0.3,1.2-0.5,1.8-0.1c0.3,0.2,0.6,0.5,0.7,0.9C365.6,163.5,365.7,163.7,365.7,164z"/>
<g>
	<g>
		<path class="st1" d="M5.9,5.8c0,0-1.9,0.2-3.1,0.3c-0.1,0-0.2,0.1-0.2,0.2c0,0.1,0,0.2,0.1,0.3C3.6,7.5,5,8.8,5,8.8
			c0,0-0.4,1.8-0.6,3.1c0,0.1,0,0.2,0.1,0.3c0.1,0.1,0.2,0.1,0.3,0c1.1-0.6,2.7-1.6,2.7-1.6s1.6,0.9,2.7,1.6c0.1,0.1,0.2,0.1,0.3,0
			c0.1-0.1,0.1-0.2,0.1-0.3C10.4,10.6,10,8.8,10,8.8s1.4-1.3,2.3-2.1c0.1-0.1,0.1-0.2,0.1-0.3c0-0.1-0.1-0.2-0.2-0.2
			C10.9,6,9.1,5.8,9.1,5.8S8.3,4.1,7.8,2.9c0-0.1-0.2-0.2-0.3-0.2S7.3,2.8,7.2,2.9C6.7,4.1,5.9,5.8,5.9,5.8z"/>
	</g>
</g>
</svg>
