<?xml version="1.0" encoding="utf-8"?>
<!-- Generator: Adobe Illustrator 21.0.0, SVG Export Plug-In . SVG Version: 6.00 Build 0)  -->
<svg version="1.1" id="Слой_1" xmlns="http://www.w3.org/2000/svg" xmlns:xlink="http://www.w3.org/1999/xlink" x="0px" y="0px"
	 width="83.3px" height="100px" viewBox="0 0 83.3 100" style="enable-background:new 0 0 83.3 100;" xml:space="preserve">
<style type="text/css">
	.st0{fill:#FFFFFF;}
	.st1{fill:none;}
</style>
<g>
	<g>
		<path class="st0" d="M41.7,27.3c-1-1.5-8-23.8-41.6-21.5v6c33.6-2.4,40.6,18.1,41.6,19.6c1.1-1.5,8-21.9,41.6-19.6v-6
			C49.7,3.4,42.7,25.8,41.7,27.3z"/>
		<path class="st0" d="M41.7,33.1c-1-1.5-8-17.4-41.6-15.1v5.6c33.6-2.4,40.6,9.5,41.6,11c1-1.5,8-13.4,41.6-11c0-0.7,0-1.4,0-2
			c0-1.5,0-2.8,0-3.6C49.7,15.6,42.7,31.5,41.7,33.1z"/>
		<g>
			<path class="st1" d="M3.1,21.4v16.3v0.6v1.2l0,40.4c0.1,1.4,1.2,10.7,10.5,10.7c1.2,0,2.4,0,3.6,0c1.1,0,2.2,0,3.3,0
				c8.4,0,15.8,0.4,21.4,5c2.7-2,7.7-4.8,13.4-4.8l0.2,0c2.3,0,4.7,0,7.1,0c3.8,0,6.6,0,7.1,0c1.3-0.1,10.5-1.2,10.5-11.8V53.9v-9.6
				v-4.8v-1.2v-0.6V21.4c-1.9-0.1-3.8-0.1-5.5-0.1c-21.7,0-28.5,6.9-30.5,9.8l-0.1,0.1L41.7,35l-2.5-3.7l-0.1-0.1
				c-1.9-3-8.8-9.8-30.5-9.8l0-3l0,0v3C6.9,21.3,5,21.3,3.1,21.4z"/>
			<polygon class="st0" points="8.6,18.3 8.6,18.3 8.6,18.3 			"/>
			<path class="st0" d="M74.8,18.3c-26.3,0-32.2,10-33.1,11.3c-0.9-1.4-6.8-11.3-33.1-11.3c0,0,0,0,0,0l0,3
				c21.7,0,28.5,6.9,30.5,9.8l0.1,0.1l2.5,3.7l2.5-3.7l0.1-0.1c1.9-3,8.8-9.8,30.5-9.8c1.8,0,3.6,0,5.5,0.1v16.3v0.6v1.2v4.8v9.6V79
				c0,10.6-9.2,11.7-10.5,11.8c-0.5,0-3.3,0-7.1,0c-2.5,0-4.9,0-7.1,0l-0.2,0c-5.8,0-10.7,2.8-13.4,4.8c-5.6-4.6-13-5-21.4-5
				c-1.1,0-2.2,0-3.3,0c-1.2,0-2.4,0-3.6,0c-9.3,0-10.4-9.3-10.5-10.7l0-40.4v-1.2v-0.6V21.4c1.9-0.1,3.8-0.1,5.5-0.1v-3
				c-2.6,0-5.5,0.1-8.5,0.3v19.1v0.6v1.2h0V80c0,0,0.8,13.6,13.5,13.6c2.4,0,4.7,0,6.9,0c9.3,0,16.3,0.5,21.2,6
				c0,0,6.1-5.8,13.6-5.8c0.1,0,0.1,0,0.2,0c2.6,0,5,0,7.2,0c4.3,0,7.2,0,7.2,0S83.3,93,83.3,79c0-4.8,0-14.7,0-25.1
				c0-3.2,0-6.4,0-9.6c0-1.6,0-3.2,0-4.8c0-0.4,0-0.8,0-1.2c0-0.2,0-0.4,0-0.6c0-5.5,0-15.4,0-19.1C80.2,18.4,77.4,18.3,74.8,18.3z"
				/>
		</g>
	</g>
	<path class="st0" d="M49.3,42.8h-0.2H49.3L49.3,42.8z M35.1,40.1l-0.3,0.1l-0.3,0.2l0.4-0.1l0.4-0.2l0.4-0.1l0.5-0.1l0.5-0.2
		l0.3-0.1h0.3l0.4-0.1l0.4-0.1l0.4-0.1l-0.3,0.2l0.1,0.1l-0.2,0.2l0.3,0.3l0.3-0.2l0.4-0.1l0.4-0.2l0.4-0.1l0.3-0.3h-0.5l-0.4,0.1
		l0.2,0.1l-0.3,0.1l-0.1-0.2l0.1-0.1h-0.3l0.4-0.1h0.4l0.4-0.1h-0.3h-0.3l0.2-0.1l0,0L39.3,39l-0.5,0l0,0h-0.3h-0.3l0,0l-0.4,0.1
		l0.3-0.1h0.1l0.4-0.1H39l0.3-0.1h-0.4h0.4l0.3-0.1l0.4-0.1l0.4-0.1h-0.1h0.4h0.4h0.4h0.2h0.1l0.4-0.1l0.4,0.1h0.1h0.4l0.4,0.1h0.4
		h-0.4h-0.1h-0.1l0,0h-0.2h-0.4H43l0.3,0.1h0.1h0.3H44h0.3l0.3,0.1H45l0.3,0.1l0.3,0.1l0.3,0.1l0.4,0.1l0.4,0.1l0.4,0.2l0.3,0.2
		l0.3,0.1L48,40l0.3,0.1l0.3,0.1l0.3,0.2h0.4l0.4,0.1l0.3,0.2l-0.4-0.3l0.3,0.1l0.3,0.2l0.3,0.2l-0.1-0.2L50,40.2L49.7,40l-0.3-0.1
		L49,39.8l-0.3-0.1l-0.3-0.2L48,39.3l-0.3-0.1l-0.4-0.1L47,39l-0.3-0.1h-0.4L46,38.8h-0.4l-0.3-0.1h-0.4l-0.4-0.1l-0.4-0.1h-0.4
		h-0.4h-0.4h-0.4h-0.4h-0.4h-0.4h-0.4h-0.4l-0.4,0.1h-0.4l-0.4,0.1h-0.4l0.1-0.1l-0.4,0.1h-0.4L38,38.8c0,0,0,0-0.1,0L37.6,39
		l-0.3,0.1L37,39.2h0.3l0.3-0.1l-0.4,0.2h0.2H37l-0.4,0.1l-0.4,0.1h-0.4l0.3-0.2L36,39.5l-0.3,0.1l-0.3,0.1L35,39.9l-0.3,0.2
		l-0.3,0.2l0.4-0.2L35.1,40.1z M38.3,39.1l0.2-0.1L38.3,39.1L38.3,39.1z M41.7,38.6h-0.2h-0.3H41.7H42h0.4l0,0h-0.2H41.7z
		 M39.7,38.7H40h0.3h-0.1h0.3l0.3-0.1h-0.4l0.2-0.1L40,38.7H39.7L39.7,38.7L39.7,38.7L39.7,38.7z M58.2,64.2l0.2-0.4L58.2,64.2
		l-0.3,0.2l-0.2,0.3L57.5,65l-0.1,0.4l-0.2,0.1L57,65.8L56.7,66l-0.1,0.3l-0.1,0.3l-0.3,0.2L56,67.2l-0.2,0.3l-0.3,0.2L55.2,68
		l-0.3,0.2l-0.3,0.2l-0.3,0.2L54,69l-0.2,0.3l-0.2,0.3v0.1l-0.2,0.4l-0.2,0.3l-0.3,0.3l0.2-0.1c0.1-0.1,0.2-0.1,0.3-0.2l0.1-0.1
		l0.3-0.2l0.1-0.1c1.8-1.5,3.3-3.4,4.4-5.5v-0.1l0,0l-0.2,0.2L58.2,64.2z M37.5,69.6h-0.3L37,69.9l-0.2,0.2h-0.4L36,70.6l0.2,0.4H36
		v0.4l0.2,0.2l0.3,0.2l0.4,0.1l0.4-0.1l0.2-0.2l-0.1-0.2l0.2-0.2l0.3-0.2v-0.3l0.1-0.3L37.6,70L37.5,69.6z M58.9,62.9l-0.2,0.3
		l-0.1,0.3l-0.1,0.3l-0.1,0.3l0.1-0.2l0,0c0.1-0.2,0.2-0.4,0.3-0.6L58.9,62.9L58.9,62.9l0.2-0.3l0,0L58.9,62.9z M53.4,66.6l0.2-0.3
		l0.2-0.3l-0.2-0.4l-0.4-0.2L53,65.1l0.2-0.2l0.2-0.2l-0.1-0.4L53.1,64l-0.2-0.3l-0.3-0.1l-0.3-0.2L52.2,63l0.1-0.4l0.3-0.3l0.3,0.2
		l0.4,0.1l0.4,0.1l0.3-0.3l0.2-0.4l0.2-0.3l0.1-0.4V61l-0.1-0.3l-0.1-0.3L54,60.3l-0.4-0.2v-0.4l0.1-0.3l0.1-0.4l0.5,0.1l0.2-0.3
		l0.2-0.3l0.2-0.3l0.3-0.3l0.1-0.4l0.2-0.3l0.1-0.4l0.1-0.4V56v-0.4v-0.4v-0.4l-0.2-0.3l-0.3-0.2l-0.3-0.2l0.2-0.1L55,53.7l0.1-0.3
		l-0.4-0.1h-0.4l0.1-0.4l0.3-0.1l0.3-0.2l0.3,0.1h0.2l0.2,0.4l0.3,0.3l0.3-0.4l-0.1-0.3L56,52.4l-0.2-0.3l-0.2-0.3v-0.2v-0.4
		l-0.2-0.3v-0.4l0.2-0.1V50l-0.1-0.4v-0.3l-0.2-0.4l-0.1-0.3L55,48.3L54.8,48l-0.1-0.3l0.3,0.2l0.2,0.3l0.2,0.3l0.3,0.1l-0.1-0.3
		L55.4,48l-0.2-0.3L55,47.4l-0.3-0.2l-0.2-0.3l-0.3-0.1v0.3L53.8,47l-0.1,0.3L53.5,47l-0.2-0.3l-0.1-0.4V46l0.1-0.4l-0.1-0.4v-0.4
		l0.2-0.1l-0.2-0.3L53,44.2v-0.3l-0.2-0.4l0.3,0.2l0.2,0.3l0.2,0.3l0.2,0.3l0.2,0.3l0.3,0.2l0.4,0.2l0.5,0.2l-0.2-0.3l-0.3-0.3
		l-0.4-0.4L54,44.2L53.7,44l-0.2-0.3l-0.3-0.2L53,43.2l-0.2-0.3l-0.2-0.3l-0.3-0.3L52,42l-0.3-0.3l-0.4-0.1L51,41.4l-0.3-0.3
		l-0.3-0.2l-0.2-0.2l-0.1,0.4l0.1,0.4l0.2,0.3l0.3,0.3l-0.2,0.4l-0.2,0.1l0.1,0.2l-0.2,0.1l0.1,0.2L50.1,43l-0.2,0.2l0.1,0.2
		l-0.2,0.3l-0.1,0.4l-0.1,0.3h-0.4l-0.4,0.1l-0.3,0.2L48.2,45H48l-0.2,0.3l-0.2,0.2l-0.1-0.3l-0.1-0.3h-0.3h-0.3L46.5,45l-0.3,0.5
		l-0.4,0.1h-0.5L45.1,46h-0.4l-0.1,0.3l-0.2,0.2h-0.1l0.2,0.2l-0.3,0.1l-0.4,0.1l-0.4-0.1v0.3v0.3L43.1,47l-0.2-0.4L42.6,47
		l-0.1,0.4l-0.1,0.4h-0.3l-0.3-0.1h-0.3l-0.3,0.1h-0.3l-0.3,0.1h-0.4h-0.4L39.4,48l-0.3-0.3L38.6,48h-0.3L38,48.1l-0.3,0.1l-0.3,0.1
		L37.2,48l-0.1-0.3l0.2-0.2l0.3,0.2l0.4,0.1h0.4v-0.4l-0.3-0.2L37.8,47l-0.3-0.2l-0.3-0.2L37,46.2l-0.3-0.1h-0.4H36l-0.3,0.1h-0.3
		L35,46.4h-0.4l-0.3,0.2l-0.4,0.2h-0.3h-0.3L32.9,47l-0.3,0.3l-0.2,0.3l0.3,0.4l-0.1,0.3l-0.1,0.3v0.3l0.3,0.2l0.4-0.2l0.4-0.2
		l0.3-0.3H34v-0.3l0.1-0.3l0.3-0.2l0.3-0.2l0.4-0.1h0.3l-0.2,0.2l-0.3,0.1l-0.3,0.1l-0.2,0.5l0.1,0.3l0.1,0.5l-0.3,0.2H34l-0.2,0.2
		l-0.2,0.3l-0.4-0.1l-0.4-0.1l-0.3-0.2l-0.2-0.2L32.1,49l0.3-0.1v-0.4l0.2-0.3l-0.3,0.2L32,48.6l-0.3,0.3l-0.2-0.2l-0.3,0.1L31,48.7
		l-0.3,0.1L30.4,49H30l-0.2-0.1h-0.3l-0.1,0.3l-0.1,0.3l-0.2,0.3L28.8,50l-0.4-0.2l-0.3-0.4l-0.3,0.3L27.6,50l-0.2,0.3l-0.1,0.3
		l-0.1,0.3l0.1,0.4l0.1,0.4l0.3,0.1H28l0.3-0.2l0.3-0.3h0.3l0.5-0.2l0.3,0.2l0.3,0.1l0.3,0.1v0.3v0.4l0.1,0.4l0.2,0.3l0.2,0.3
		l-0.1,0.3v0.4l0.3-0.2l0.2-0.3l0.1,0.2v-0.4L31,52.8l-0.1-0.3l-0.2-0.4l0.1-0.5l0.3,0.3l0.1,0.4l0.2,0.4l0.1,0.4l-0.3,0.2l0.1,0.3
		l0.1,0.3l-0.1,0.4v0.5l0.3,0.1l0.1-0.1l0.2,0.1l-0.1-0.4l0.2,0.1v-0.4v-0.4l0.3-0.2l0.3,0.3L33,54l-0.3,0.2l-0.1,0.4V55v0.4
		l0.3,0.1l0.3,0.1l0.3,0.1l0.3,0.2h0.4v0.4l-0.1,0.4l-0.3,0.2l-0.2,0.2L33.3,57l-0.5-0.1h-0.4l-0.3-0.2l-0.3-0.2l-0.3-0.3L31.2,56
		l-0.3-0.2h-0.3l-0.3,0.4L30,56l-0.2-0.3l-0.2-0.3l0-0.4l-0.3-0.2l-0.1-0.4l0.1-0.4l0.1-0.4v-0.4L29,53.1l-0.3-0.2l-0.3-0.3
		l-0.3-0.2l-0.4-0.1h-0.3l-0.1-0.5L27,51.9h-0.4l-0.2,0.3L26,52.5h-0.4l-0.3,0.3l-0.2,0.4L25,53.7L24.8,54l-0.1,0.3l-0.1,0.4
		l-0.1,0.4l-0.1,0.4v0.4v0.4l0.1,0.4v0.4v0.5V58v0.4l0.1,0.4l0.1,0.4l0.1,0.4l0.2,0.3l0.3,0.3l0.2,0.4l0.3,0.3l0.4,0.1l0.2,0.3
		l0.1,0.3l0.2,0.3l0.3,0.3l0.2,0.3l0.1,0.3v0.4l-0.1,0.4l0.1,0.4l0.2,0.4l0.1,0.4l0.2,0.3l0.1,0.4l0.2,0.3l0.2,0.3l0.2,0.3v0.3V67
		l-0.1,0.2l0.1,0.4V68l0.3,0.3l0.3,0.2l0.2,0.3l0.2,0.3l0.2,0.3l0.2,0.3l0.2,0.3l0.3,0.2l0.2,0.3l0,0c0.6,0.5,1.2,1,1.9,1.4l0.1,0.1
		l0.3,0.1l0.3,0.1l0.3,0.1l0.3-0.3l-0.1-0.4l0.2-0.3l0.1-0.7l-0.1-0.3l0.2-0.2l0.3-0.1l0.4-0.1l0.2-0.3l-0.2-0.4l0-0.2l-0.1-0.4
		l-0.2-0.3l-0.1-0.4l-0.2-0.4l0.3-0.3l0.3-0.2l0.4-0.1l0.3-0.3l0.3-0.3l0.4-0.2l0.4-0.1l0.3-0.2l0.1-0.4l0.2-0.3l0.2-0.3l0.3-0.2
		v-0.4L37.5,64l-0.3-0.1h-0.4L36.4,64H36h-0.4l-0.3-0.3l0.1-0.3l0.4,0.1l0.4-0.1l0.4-0.1l0.4-0.1h0.4l0.4-0.1l0.3-0.1l0.3-0.2
		l0.5,0.1l0.3-0.1l0.3-0.1l0.2-0.3l0.2-0.3l0.2-0.3l0.2-0.3l-0.1-0.3l-0.1-0.3l-0.3-0.3l-0.2-0.4H40l0.3,0.2l0.3,0.1l0.3,0.2
		l0.3-0.1l0.4-0.1H42h0.3l0.1,0.1l0.3,0.2l0.3,0.1l0.2,0.3l0.3,0.3l0.3,0.3l0.3-0.1l0.2,0.2l0.2,0.2l-0.1,0.4v0.3v0.4l0.2,0.2
		l0.2,0.2V64l0.2,0.2l0.2,0.2l0.2,0.3l0.3,0.1l0.2,0.2l0.2-0.3l0.3-0.2l0.2-0.3l0.2-0.3v-0.4v-0.4v-0.4l0.2-0.3l0.3-0.3l0.3-0.2
		l0.4-0.1l0.3-0.5l0.4-0.2l0.2-0.3l0.3-0.2l0.3-0.1l0.4,0.1l0.3,0.2l0.2,0.3l0.2,0.3l0.2,0.3h0.4l0.4,0.1l0.2,0.3v0.4v0.4l-0.1,0.4
		l0.1,0.4L52,64l0.3,0.2l0.1,0.4l0.1,0.4l-0.3-0.2h-0.3h-0.3h-0.3L51.2,65l0.3,0.3l0.4,0.1l-0.1,0.3l0.3,0.2l0.1,0.3l0.1,0.3
		l0.3,0.1l0.3,0.1L53.4,66.6z M32.5,66.3l-0.3-0.4l0.2,0.1v-0.1l0.2,0.2L32.5,66.3z M34.8,62.6l-0.2-0.5l-0.2-0.3l-0.2-0.3L34,61.2
		l0.1-0.4l0.2-0.3L34,60.2l-0.3-0.1l-0.1-0.3l-0.1-0.3l-0.1-0.3v-0.3l-0.1-0.3l0.3,0.1l0.3,0.2L34,59v0.4l0.1,0.4l0.1,0.4l0.2,0.3
		l0.2,0.3l0.2,0.3l0.2,0.3l0.2,0.4v0.3v0.3l0.1,0.3L34.8,62.6z M36,54.8h-0.5l-0.3-0.2l-0.3-0.1l-0.3-0.2l-0.3-0.1l-0.4-0.1L33.5,54
		h-0.4l0.2-0.2l0.2-0.3l0.1-0.3l0.2-0.3h0.3l0.2,0.1l0.1,0.3l0.1,0.3l-0.2,0.1l0.3,0.3l0.5-0.2l-0.4-0.2l0.3-0.2h0.3l0.3-0.1
		l-0.1,0.3l-0.3,0.2l0.2,0.3l0.2,0.2l0.2,0.3L36,54.8z M38,54.3l0.1-0.3l0.4-0.1l0.3,0.1l0.3-0.1l-0.3,0.3l-0.3,0.2v0.3V55l0.1,0.3
		l0.1,0.3l0.1,0.3l0.1,0.3v0.3l-0.3,0.1l-0.4-0.1L38,56.2l-0.1-0.4l0.3-0.2L38,55.3L37.9,55v-0.4L38,54.3z M38.9,60.5l-0.3-0.1
		l-0.3-0.1L38.1,60l-0.2-0.3l-0.2-0.3l-0.1-0.3l-0.3-0.3l0.2-0.1l0.3-0.1l0.1,0.3l0.1,0.3l0.2,0.2l0.2,0.3h0.4l0.4,0.1L38.9,60.5z
		 M58.4,64.3L58.4,64.3L58.4,64.3L58.4,64.3z M39.3,38.8L39.3,38.8L39.3,38.8L39.3,38.8z M48.7,43.3l0.5,0.2v-0.4h-0.4L48.7,43.3z
		 M29.7,52.1l-0.2,0.1v0.3v0.3l0.2-0.3V52.1z M31.8,55.6H32l-0.1-0.3L31.8,55.6z M39.4,38.7L39.4,38.7L39.4,38.7L39.4,38.7z
		 M30,53.7V54l0.3-0.3l-0.1-0.3L30,53.5l-0.1-0.2l-0.1,0.2L30,53.7z M29.9,51.7l-0.1,0.2h0.1V51.7z M58,63l0.2-0.2l0.1-0.3L58,62.8
		V63z M56.9,53h-0.3l-0.1,0.4l0.3,0.1L56.9,53z M56.5,59.6l0.4,0.2l0.4-0.2l-0.2-0.3l-0.2-0.4l0.1-0.3l-0.1-0.3l-0.3,0.1l-0.1,0.4
		l-0.1,0.4L56.5,59.6z M56.5,61.2l0.2-0.3L56.3,61l-0.1,0.4L56.5,61.2z M57.2,60.2L57.2,60.2l-0.1,0.2l0.2,0.1L57.2,60.2z
		 M56.9,50.7L57,51v0.4v0.4l-0.1,0.3l-0.1,0.3l-0.1,0.4l0.4-0.1l0.2-0.2v-0.3l-0.1-0.3v-0.3v-0.4l-0.1-0.4l-0.2-0.3l-0.1-0.3
		l-0.2-0.4l-0.1,0.1l0.1,0.4L56.9,50.7z M54.5,66.2l-0.4,0.1h-0.4l-0.2,0.3h0.3h0.3l0.3-0.1l0.4-0.1l0.4-0.2l0.3-0.3H55L54.5,66.2z
		 M54.3,59.6l-0.2,0.3l0.3,0.2l0.1-0.3v-0.3L54.3,59.6z M56.2,56.7L56.1,57l0.1,0.4h0.1l0.1-0.4v-0.4L56.2,56.7z M46.9,64.6
		l-0.3,0.1L46.4,65v0.3l0.2,0.3v0.1l0.4-0.1l0.1-0.3V65L46.9,64.6z M56.1,49.4l0.2,0.3l0.1-0.3v-0.3v-0.3l-0.3-0.1h-0.3l0.1,0.3
		L56.1,49.4z M59.5,60.6L59.2,61L59,61.3l-0.1,0.4l-0.2-0.2l-0.2,0.3l-0.1,0.3l0.1,0.3l0.4-0.3v0.2H59l0.2-0.4l0.1-0.4l0.1-0.2
		c0-0.1,0.1-0.3,0.1-0.4v-0.1l0.1-0.4L59.5,60.6z M57.4,61.1l0.3,0.1l0.1-0.4v-0.4L57.7,60h-0.1l-0.2,0.4l-0.1,0.4l-0.2,0.3
		L57.4,61.1z M56.7,65.3l0.1-0.3l-0.2,0.2l-0.2,0.3l-0.1,0.3l0.2-0.2L56.7,65.3z M45.7,44.8l0.4-0.1l-0.5-0.2L45.7,44.8z M55.8,64.8
		l0.2-0.3l0.1-0.3l0.2-0.3l0.2-0.3v-0.4l-0.1-0.3l0.2-0.2l0.1-0.3l-0.3-0.2h-0.3L56,62.4l-0.2,0.3L55.6,63l-0.3,0.4l-0.2,0.3
		L54.8,64l-0.2,0.2l-0.2,0.3l-0.1,0.3l0.2,0.3l0.4,0.1l0.4-0.1h0.4L55.8,64.8z M37.9,44.2v-0.3l-0.3-0.1l-0.3,0.1l-0.2,0.3v0.3h0.5
		l0.4-0.2l0.1,0.1l0.5-0.1L38.2,44L37.9,44.2z M33.3,41.2L33,41.4l-0.3,0.2l-0.3,0.2L32,42.1l-0.2,0.4l0.3-0.1l0.3-0.2h0.3l-0.1,0.2
		l0.4,0.1l0.2,0.3l0.1,0.3h0.3l0.3-0.1l0.3-0.2h0.3l0.3-0.1l0.4-0.2l0.3-0.1l0.3-0.1v-0.1l0.4,0.1h0.4h0.3V42v-0.2l0.4-0.2v-0.4
		l0.4-0.4l-0.1-0.1l0.1-0.1l0.2-0.4l-0.3-0.1l0.2-0.2v-0.3l0.2-0.1h-0.3h-0.3L37,39.8L36.7,40l-0.1,0.1l-0.3,0.1L36,40.3l-0.3,0.1
		l-0.3,0.2L35,40.8l0.1-0.1l-0.3,0.1L34.3,41l-0.1-0.1L33.9,41l-0.3,0.2H33.3z M32.1,43.8l-0.2,0.3v0.3h0.3h0.3l0.2-0.4l-0.3-0.4
		L32.1,43.8z M43.1,38.6h-0.4l-0.4,0.1h0.4L43.1,38.6z M41.4,46.3l0.3-0.1L42,46h0.4v-0.2L42,45.7l-0.4,0.1L41.3,46H41l-0.3,0.2
		l-0.2,0.3L40.3,47l0.3,0.1l0.2,0.2l0.1-0.2l-0.1-0.3l0.3-0.3L41.4,46.3z M45.2,44.3l-0.3,0.1v0.4h0.3h0.3l-0.2-0.3L45.2,44.3z
		 M58,62v-0.3V62l-0.1,0.3L58,62z M32.3,41.4l0.4-0.2L33,41l0.4-0.1l0.4-0.2l0.2-0.3l-0.3,0.2h-0.1c-0.6,0.3-1.2,0.7-1.7,1.1
		l0.3-0.1L32.3,41.4z M57.3,62.7l-0.4,0.2l-0.2,0.3l-0.2,0.3l-0.1,0.3l-0.1,0.4l0.1,0.3l0.3-0.1l0.2-0.3l0.1-0.4v-0.4l-0.2-0.1
		l0.2-0.3L57.3,62.7l0.3-0.4L57.3,62.7z M30,47.6l0.3-0.1l0.3-0.2l0.1-0.3l0,0h-0.4L30,47.2l-0.3,0.2v0.3L30,47.6z M56.9,65.2
		l0.2-0.4l0.2-0.4l-0.2,0.4L56.9,65.2z M30.6,47.7l-0.3,0.2L30,48.1l-0.3,0.3v0.3h0.4l0.4-0.1l0.2-0.4l0.1-0.4l0.2-0.3l0.3-0.3
		l0.2-0.3l0.1-0.4l-0.3,0.1L31,46.7V47l-0.3,0.3L30.6,47.7z M30.6,42.6L30.6,42.6l-0.2,0.1L30.1,43l0.3-0.3L30.6,42.6z"/>
	<g>
		<path class="st0" d="M27.5,87c0,0-13.3-7.4-12.3-19c0,0-1.1,3.3,0.7,7.7c0,0-6.5-2.4-0.9-12.1c0,0,7.2,5,2.1,12.2
			c0,0,1.3,3.2,5.7,6s5.7,3.9,5.7,3.9S28.9,86.8,27.5,87z"/>
		<path class="st0" d="M17.4,79c0,0-5.4,6.6-13.4,1.2c0,0,6.2-6,12.5-2.6c0,0-3.8,0.1-5.8,1.3C10.7,78.8,14.1,77.9,17.4,79z"/>
		<path class="st0" d="M20.6,78.7c0,0-2-4.9,3.2-6.8C23.8,71.9,24.5,78.3,20.6,78.7z"/>
	</g>
	<g>
		<path class="st0" d="M66,54.5c-0.5-6-2.9-11.1-7.2-15.4c-2.2-2.2-4.8-3.8-7.8-5.2c-0.3,0.9-0.9,1.8-0.7,2.2
			c0.5,0.8-0.1,1.1-0.3,1.6c-0.1,0.1-0.8,0.1-1.1,0c-7.6-2.5-14.5-1.3-20.4,4s-7.8,12.2-5.9,19.9c1.3,5.3,4.5,9.4,9.3,12.2
			c0.4,0.2,0.8,0.5,1.2,0.7c-0.3,0.5-0.5,1.3-0.7,1.3c-1.3,0-1,1.3-1.8,2c3.3,1.5,6.5,2.4,10,2.6c0,0.9,0,1.7,0,2.6
			c0.9,0,1.7,0,2.6,0c0-0.9,0-1.7,0-2.5C56.7,79.7,67.1,67.9,66,54.5z M29.2,69.9L29.2,69.9L29.2,69.9c-3.6-3.5-5.9-8.3-5.9-13.6
			c0-10.3,8.4-18.7,18.7-18.7S60.7,46,60.7,56.3c0,9.8-7.5,17.8-17.1,18.6c-0.1,0-0.2,0-0.4,0c-0.1,0-0.2,0-0.3,0
			c-1.1,0.1-2.2,0-3.3-0.1l0,0c-1.1-0.1-2.1-0.4-3.1-0.7c-0.5-0.1-1-0.3-1.6-0.4c0,0,0-0.1,0.1-0.1c-0.7-0.3-1.4-0.6-2-1
			c-0.3-0.2-0.6-0.3-0.9-0.6C31,71.4,30.1,70.7,29.2,69.9z M61.6,65.7c-5.7,11.9-19.4,14.8-28.1,10.5c0.2-0.4,0.4-0.8,0.6-1.3
			c6.5,2.5,12.8,2.1,18.8-1.6c3.8-2.4,6.4-5.7,8-9.9c3.1-8.2,0.4-19.7-9.9-25c0.2-0.5,0.5-1,0.7-1.5C61,41.1,67.3,53.8,61.6,65.7z"
			/>
		<path class="st0" d="M49.2,85c-4.7,0-9.5,0-14.2,0c-2.5,0-4.4,1.8-4.7,4.5c7.8,0,15.6,0,23.4,0C53.6,87,51.6,85,49.2,85z"/>
		<path class="st0" d="M47.6,84.1c-0.6-0.2-1.1-0.6-1.7-0.6c-2.5-0.1-5.1-0.1-7.6,0c-0.6,0-1.1,0.4-1.7,0.7c0,0.1,0.1,0.2,0.1,0.3
			c3.6,0,7.1,0,10.7,0C47.5,84.4,47.5,84.2,47.6,84.1z"/>
	</g>
</g>
</svg>
