<?xml version="1.0" encoding="utf-8"?>
<!-- Generator: Adobe Illustrator 21.0.0, SVG Export Plug-In . SVG Version: 6.00 Build 0)  -->
<svg version="1.1" id="_x32_3089359-8cc3-4db2-a3a0-9cf6f19eda22"
	 xmlns="http://www.w3.org/2000/svg" xmlns:xlink="http://www.w3.org/1999/xlink" x="0px" y="0px" viewBox="0 0 106 106"
	 style="enable-background:new 0 0 106 106;" xml:space="preserve">
<style type="text/css">
	.st0{fill:#CE112D;}
</style>
<title>icon</title>
<g id="iyjkcQ.tif">
	<g>
		<path class="st0" d="M9.2,103.5c-1.6-0.5-3.1-1.2-4.3-2.4c-2.3-2.3-3-5.4-1.8-8.2c1.2-3,4.2-5.1,7.3-5.1c2.1,0,4.1,0,6.4,0
			c-0.2-0.4-0.4-0.7-0.6-1c-3.3-5.6,1.6-11.6,6.6-11.7c2.1,0,4.3,0,6.6,0c-2.1-3.2-2.2-6.3-0.1-9.3c-1.5-0.6-1.7-0.9-1.7-2.4
			c0-7,0-14.1,0-21.1c0-0.3,0-0.6,0-1.1c-0.8,0.7-1.3,1.3-1.9,1.9c-0.9,0.9-1.7,0.9-2.6,0c-1.8-1.8-3.7-3.6-5.5-5.5
			c-3.1-3.2-3.1-8.2,0.1-11.4c2.6-2.7,5.2-5.3,7.9-7.9c0.3-0.3,0.6-0.4,0.9-0.7c-1.6-2.5-2.3-5-1.6-7.7c0.6-2.1,1.7-3.9,3.5-5.3
			c3.4-2.7,7.7-2.8,11.2-0.2c3.9,2.9,4.8,6.8,2.8,12.3c2.5,0,5,0,7.5,0c0-2.4,0-4.8,0-7.1c0-1.7,0-3.4,0-5c0-1.4,0.6-2,2-2
			c1.9,0,3.8,0,5.7,0c1.2,0,1.9,0.7,1.8,1.8c0,4.5,0,9.1-0.1,13.6c0,4.8-3.6,8.2-8.3,8.2c-2.4,0-4.9,0-7.4,0c0,1.6,0,3.1,0,4.7
			c0.6,0,1.3,0,1.9,0c2.4,0,4.8,0,7.2,0c4.7,0,8.3,3.7,8.2,8.4c0,3.3,0,6.5,0,9.8c0,0.2,0,0.5,0,0.8c9.5,0,18.9,0,28.5,0
			c0-0.4,0-0.7,0-1.1c0-14.6,0-29.3,0-43.9c0-2.1,0.9-2.7,2.9-1.9c3.2,1.4,6.5,2.8,9.7,4.2c0.6,0.3,1.1,0.8,1.7,1.1
			c0,0.4,0,0.8,0,1.2c-0.5,0.4-1.1,0.9-1.7,1.1c-2.8,1.3-5.7,2.5-8.5,3.7c-0.7,0.3-0.9,0.6-0.9,1.4c0,6.7,0,13.4,0,20.1
			c0,4.7,0,9.4,0,14.1c1.6,0.6,2,1.6,1.1,2.9c-2.3,3.4-2.3,6.8,0,10.2c0.4,0.6,0.7,1.2,0.3,1.9c-0.4,0.8-1,0.9-1.8,0.9
			c-3.6,0-7.1,0-10.7,0c-0.6,0-0.9,0.2-1.1,0.7c-1.6,3.1-1.3,6.2,0.6,9.1c0.4,0.7,0.8,1.3,0.4,2.1c-0.4,0.8-1.2,0.8-2,0.8
			c-3.5,0-6.9,0-10.4,0c-0.7,0-1,0.3-1.3,0.9c-1.5,3.1-1.2,6.1,0.7,9c0.4,0.6,0.7,1.3,0.3,2c-0.4,0.7-1.1,0.8-1.9,0.8
			c-3.5,0-7,0-10.6,0c-0.6,0-0.9,0.2-1.2,0.8c-1.5,3.1-1.3,6.1,0.6,9c0.9,1.3,0.8,1.9-0.4,2.9C39.8,103.5,24.5,103.5,9.2,103.5z
			 M26.7,37.2c-1.4-1.4-2.8-2.8-4.2-4.2c-0.8-0.8-0.8-1.7-0.1-2.4c1.8-1.9,3.7-3.7,5.5-5.5c0.5-0.5,1.2-0.8,1.8-0.4
			c0.5,0.4,0.7,1,1,1.5c0.1,0.2,0,0.6,0,0.9c0,11.1,0,22.3,0,33.4c0,0.6,0,1.2,0,1.8c1.7,0,3.2,0,4.7,0c0-0.6,0-1,0-1.5
			c0-6.7,0-13.4,0-20.1c0-1.3,0.6-2,1.8-2c4.6,0,9.2,0,13.8,0c1.2,0,1.8,0.7,1.8,1.8c0,1-0.1,2-0.1,3c0,2.1,0,4.1,0,6.2
			c1.6,0,3.1,0,4.7,0c0-0.3,0.1-0.6,0.1-0.8c0-3.3,0-6.6,0-10c0-3.3-1.8-5-5.1-5c-3.4,0-6.8,0-10.3,0c-1.5,0-2-0.5-2.1-2
			c0-2.4,0-4.7,0-7.1c0-1.4,0.5-1.9,2-1.9c2.9,0,5.8,0,8.7,0c3.3,0,5.1-1.8,5.1-5.1c0-3.7,0-7.5,0-11.2c0-0.3,0-0.6-0.1-1
			c-1.1,0-2,0-3,0c0,0.3,0,0.6,0,0.9c0,3.7,0,7.5,0,11.2c0,1.5-0.5,2-2,2c-3.7,0-7.3,0-11,0c-0.5,0-1.1,0.2-1.6,0.4
			c-1.7,0.9-3.5,1.4-5.3,1.1c-1.6-0.3-3-0.9-4.6-1.4c-3,2.9-6.2,5.9-9.2,9.1c-1.5,1.6-1.6,3.9-0.1,5.6c1.6,1.8,3.5,3.4,5.3,5.1
			C25.1,38.9,25.9,38.1,26.7,37.2z M64.4,78.3c-0.3,0-0.5,0-0.8,0c-13.5,0-27,0-40.6,0c-2.9,0-4.8,1.9-4.8,4.7
			c0,2.9,1.9,4.8,4.9,4.8c13.5,0,27,0,40.6,0c0.2,0,0.5,0,0.7-0.1c-0.3-1.1-0.5-2-0.8-3.1c-8.3,0-16.5,0-24.8,0c0-1.1,0-2.1,0-3.1
			c8.3,0,16.5,0,24.8,0C63.9,80.4,64.1,79.4,64.4,78.3z M89.7,53c-0.3,0-0.5,0-0.8,0c-13.5,0-27,0-40.6,0c-2.9,0-4.8,1.9-4.8,4.7
			c0,2.9,1.9,4.8,4.9,4.8c13.5,0,27,0,40.6,0c0.2,0,0.5,0,0.7-0.1c-0.3-1.1-0.5-2-0.8-3.1c-8.3,0-16.5,0-24.8,0c0-1.1,0-2.1,0-3.1
			c8.3,0,16.5,0,24.8,0C89.2,55.1,89.4,54.1,89.7,53z M77.1,65.6c-0.3,0-0.5,0-0.8,0c-13.5,0-27,0-40.6,0c-2.9,0-4.8,1.9-4.8,4.7
			c0,2.9,1.9,4.8,4.9,4.8c13.5,0,27,0,40.6,0c0.2,0,0.5,0,0.7-0.1c-0.3-1.1-0.5-2-0.8-3.1c-4.6,0-9.2,0-13.7,0c0-1.1,0-2.1,0-3.1
			c4.6,0,9.2,0,13.7,0C76.5,67.7,76.8,66.8,77.1,65.6z M51.8,90.9c-0.4,0-0.8,0-1.1,0c-6.4,0-12.8,0-19.2,0c-7,0-14,0-21,0
			c-2.3,0-4,1.2-4.6,3.2c-1,3.4,1.1,6.3,4.7,6.3c13.5,0,26.9,0,40.4,0c0.3,0,0.6,0,0.9,0c-0.3-1.1-0.5-2.1-0.8-3.2
			c-12.5,0-24.9,0-37.4,0c0-1.1,0-2.1,0-3.1c12.5,0,24.9,0,37.4,0C51.3,93,51.5,92,51.8,90.9z M40.2,12c0-3.7-2.5-6.3-6.3-6.3
			c-3.6,0-6.3,2.6-6.3,6.3c0,3.7,2.6,6.4,6.2,6.4C37.6,18.3,40.2,15.7,40.2,12z M49.7,42c-3.7,0-7.3,0-10.9,0c0,6.8,0,13.6,0,20.4
			c1.1,0,2.1,0,3.3,0c-2-2.9-2.2-5.8-0.3-8.7c1.9-2.9,4.6-4.1,8-3.8C49.7,47.2,49.7,44.6,49.7,42z M92.5,6.5c0,1.6,0,3,0,4.6
			c1.8-0.8,3.5-1.5,5.4-2.3C96,7.9,94.3,7.2,92.5,6.5z M25.9,31.6c0.6,0.6,1.1,1.1,1.6,1.6c0-1,0-2,0-3.2
			C26.8,30.7,26.3,31.2,25.9,31.6z"/>
		<path class="st0" d="M84.6,13.9c-0.3,0.3-0.7,1-1.2,1.1c-3.5,1-5.8,3.2-6.7,6.8C76.4,22.6,75.9,23,75,23c-0.8,0-1.3-0.5-1.5-1.2
			c-0.9-3.5-3.2-5.7-6.7-6.7c-0.8-0.2-1.3-0.7-1.3-1.6c0-0.8,0.5-1.3,1.3-1.5c3.5-1,5.7-3.2,6.6-6.6c0.2-0.8,0.7-1.3,1.5-1.3
			c0.9,0,1.4,0.5,1.6,1.3c1,3.5,3.2,5.6,6.6,6.6C84.1,12.2,84.5,12.7,84.6,13.9z M75.1,10.4c-0.9,0.9-2.2,2.2-3.1,3.1
			c0.9,1,2.2,2.2,3,3.2c1-1,2.2-2.2,3.2-3.2C77.3,12.6,76.1,11.3,75.1,10.4z"/>
		<path class="st0" d="M8.8,16.6c0-1,0-2,0-3c1,0,2,0,3.1,0c0,1,0,2,0,3C10.9,16.6,9.9,16.6,8.8,16.6z"/>
		<path class="st0" d="M18.2,13.6c0,1,0,2,0,3c-1,0-2,0-3.1,0c0-1,0-2,0-3C16.2,13.6,17.1,13.6,18.2,13.6z"/>
		<path class="st0" d="M2.5,16.6c0-1,0-2,0-3c1,0,2,0,3,0c0,1,0,2,0,3C4.6,16.6,3.6,16.6,2.5,16.6z"/>
		<path class="st0" d="M26.2,81.5c1.1,0,2,0,3,0c0,1,0,2,0,3.1c-1,0-2,0-3,0C26.2,83.5,26.2,82.5,26.2,81.5z"/>
		<path class="st0" d="M32.5,84.5c0-1,0-2,0-3c1,0,2,0,3.1,0c0,1,0,2,0,3C34.6,84.5,33.6,84.5,32.5,84.5z"/>
		<path class="st0" d="M54.5,59.3c-1,0-2,0-3,0c0-1,0-2,0-3c1,0,2,0,3,0C54.5,57.2,54.5,58.2,54.5,59.3z"/>
		<path class="st0" d="M57.8,56.2c1,0,2,0,3,0c0,1,0,2,0,3c-1,0-2,0-3,0C57.8,58.2,57.8,57.3,57.8,56.2z"/>
		<path class="st0" d="M59.3,68.9c0,1,0,2,0,3c-6.3,0-12.5,0-18.8,0c0-1,0-2,0-3C46.7,68.9,52.9,68.9,59.3,68.9z"/>
	</g>
</g>
</svg>
