<?xml version="1.0" encoding="utf-8"?>
<!-- Generator: Adobe Illustrator 21.0.0, SVG Export Plug-In . SVG Version: 6.00 Build 0)  -->
<svg version="1.1" id="_x32_3089359-8cc3-4db2-a3a0-9cf6f19eda22"
	 xmlns="http://www.w3.org/2000/svg" xmlns:xlink="http://www.w3.org/1999/xlink" x="0px" y="0px" viewBox="0 0 106 106"
	 style="enable-background:new 0 0 106 106;" xml:space="preserve">
<style type="text/css">
	.st0{fill:#CE112D;}
</style>
<title>icon</title>
<g id="tkw3Fw.tif">
	<g>
		<path class="st0" d="M1.9,102c-0.9-0.5-1.2-1.2-1.2-2.3c0.1-1.8,0-3.6,0-5.4c0-1.5,0.5-2.1,2.1-2.1c16.2,0,32.5,0,48.7,0
			c17.1,0,34.3,0,51.4,0c1.1,0,1.9,0.2,2.4,1.2c0,2.9,0,5.7,0,8.6C70.8,102,36.4,102,1.9,102z M102,95.5c-32.7,0-65.4,0-98.1,0
			c0,1.1,0,2.2,0,3.2c32.7,0,65.4,0,98.1,0C102,97.6,102,96.6,102,95.5z"/>
		<path class="st0" d="M53,39.8c-13.4,0-26.7,0-40.1,0c-0.1,0-0.2,0-0.3,0c-0.9,0.1-1.6-0.2-2-1.1c-0.3-0.9,0.2-1.5,0.8-2
			c1.6-1.3,3.2-2.6,4.9-3.9C28,23.5,39.6,14.2,51.3,4.9c1.6-1.3,1.9-1.3,3.5,0c13.1,10.5,26.2,21,39.3,31.5c0.2,0.1,0.3,0.3,0.5,0.4
			c0.6,0.5,1.1,1.1,0.8,1.9c-0.3,0.9-1,1.1-1.8,1.1c-3.5,0-6.9,0-10.4,0C73,39.9,63,39.9,53,39.8C53,39.9,53,39.8,53,39.8z
			 M77.6,36.6c-0.2-0.2-0.2-0.3-0.3-0.4C69.3,30.1,61.4,24,53.6,17.8c-0.6-0.5-0.9-0.2-1.3,0.2c-7.7,6-15.4,12-23.1,18
			c-0.2,0.2-0.4,0.4-0.7,0.7C44.9,36.6,61.1,36.6,77.6,36.6z M16.9,36.4c0,0.1,0.1,0.2,0.1,0.2c1.6,0,3.1,0,4.7,0
			c0.9,0,1.6-0.2,2.3-0.8c9.1-7.2,18.3-14.3,27.5-21.4c1.2-0.9,1.7-0.9,2.8-0.1c9,7,18.1,14,27.1,21.1c1.1,0.9,2.2,1.3,3.6,1.2
			c1.3-0.1,2.7,0,4.3,0c-0.4-0.4-0.6-0.6-0.8-0.7c-11.5-9.2-23-18.4-34.5-27.6c-0.7-0.6-1.1-0.6-1.8,0c-10.4,8.3-20.8,16.7-31.2,25
			C19.6,34.3,18.3,35.4,16.9,36.4z"/>
		<path class="st0" d="M23.5,75.8c-1.1,0-2.1,0-3.2,0c0-0.6,0-1.2,0-1.7c0-6.3,0-12.7,0-19c0-1.7-0.3-2-2-2.1
			c-3.9-0.2-7.4-3.5-7.8-7.5c-0.1-1.5,0.5-2.2,2-2.2c22.7,0,45.4,0,68,0c4.2,0,8.4,0,12.7,0c1.7,0,2.4,0.8,2.1,2.4
			c-0.7,4.1-3.9,7-8.1,7.3c-1.2,0.1-1.7,0.5-1.7,1.9c0,6.3,0,12.5,0,18.8c0,0.7,0,1.4,0,2.1c-1.1,0-2,0-3.2,0c0-0.3,0-0.7,0-1
			c0-6.6,0-13.1,0-19.7c0-3,2.1-5.1,5.1-5.2c2.2-0.1,3.8-1.3,4.4-3.3c-26,0-51.9,0-77.9,0c0.3,1.8,2,3.1,4,3.3
			c3.6,0.3,5.4,2.2,5.4,5.8c0,6.4,0,12.7,0,19.1C23.5,75,23.5,75.3,23.5,75.8z"/>
		<path class="st0" d="M7.3,88.8c0-1.1,0-2,0-3c30.5,0,60.9,0,91.4,0c0,1,0,2,0,3C68.2,88.8,37.8,88.8,7.3,88.8z"/>
		<path class="st0" d="M10.6,82.3c0-1,0-2,0-3.1c28.3,0,56.5,0,84.8,0c0,1,0,2,0,3.1C67.1,82.3,38.9,82.3,10.6,82.3z"/>
		<path class="st0" d="M57.8,75.8c-1.1,0-2.1,0-3.1,0c0-0.4,0-0.7,0-1c0-6.6,0-13.1,0-19.7c0-2.8,2.3-5.3,4.9-5.3
			c2.6,0,4.8,2.5,4.8,5.3c0,6.5,0,13.1,0,19.6c0,0.3,0,0.7,0,1.1c-1.1,0-2.1,0-3.2,0c0-0.6,0-1.2,0-1.7c0-6.4,0-12.8,0-19.2
			c0-1.3-0.4-1.8-1.5-1.9c-1.3-0.1-1.9,0.5-1.9,1.8c0,6,0,12.1,0,18.1C57.8,73.8,57.8,74.7,57.8,75.8z"/>
		<path class="st0" d="M77.4,75.8c-1,0-2,0-3.1,0c0-0.4,0-0.8,0-1.1c0-6.6,0-13.2,0-19.8c0-1.3-0.4-1.8-1.5-1.9
			c-1.3-0.1-1.9,0.5-1.9,1.8c0,5.8,0,11.5,0,17.3c0,1.2,0,2.4,0,3.7c-1.1,0-2.1,0-3.1,0c0-0.3,0-0.5,0-0.8c0-6.7,0-13.3,0-20
			c0-1,0.4-2.2,1-3c1.2-1.8,3.3-2.5,5.1-2c2,0.6,3.6,2.6,3.6,4.6c0,6.9,0,13.9,0,20.8C77.5,75.5,77.4,75.6,77.4,75.8z"/>
		<path class="st0" d="M38.2,75.8c-1.1,0-2.1,0-3.2,0c0-0.4,0-0.8,0-1.2c0-6.6,0-13.1,0-19.7c0-1.4-0.4-1.9-1.6-1.9
			c-1.3-0.1-1.8,0.5-1.8,1.9c0,6.6,0,13.1,0,19.7c0,0.4,0,0.8,0,1.2c-1.1,0-2.1,0-3.2,0c0-0.4,0-0.8,0-1.2c0-6.5,0-13.1,0-19.6
			c0-2.8,2.3-5.2,4.8-5.2c2.6,0,4.9,2.4,4.9,5.2C38.2,61.8,38.2,68.7,38.2,75.8z"/>
		<path class="st0" d="M44.8,75.8c-1.1,0-2.1,0-3.2,0c0-0.4,0-0.7,0-1.1c0-6.5,0-13.1,0-19.6c0-2.9,2.2-5.3,4.8-5.3
			c2.6,0,4.9,2.4,4.9,5.3c0,6.7,0,13.3,0,20c0,0.2,0,0.4,0,0.7c-1,0-2,0-3.1,0c0-0.4,0-0.8,0-1.2c0-6.6,0-13.2,0-19.8
			c0-1.3-0.5-1.8-1.6-1.8c-1.3,0-1.8,0.5-1.8,1.9c0,4.9,0,9.8,0,14.7C44.8,71.6,44.8,73.6,44.8,75.8z"/>
		<path class="st0" d="M16.9,75.8c-1,0-2,0-3,0c0-6.5,0-12.9,0-19.4c1,0,2,0,3,0C16.9,62.8,16.9,69.3,16.9,75.8z"/>
		<path class="st0" d="M92.1,75.8c-1,0-2,0-3.1,0c0-6.5,0-12.9,0-19.4c1,0,2,0,3.1,0C92.1,62.8,92.1,69.2,92.1,75.8z"/>
		<path class="st0" d="M61.1,30.2c0,1,0,2,0,3c-1,0-2,0-3.1,0c0-1,0-2,0-3C59,30.2,60,30.2,61.1,30.2z"/>
		<path class="st0" d="M54.5,33.3c-1,0-2,0-3,0c0-1,0-2,0-3.1c1,0,2,0,3,0C54.5,31.2,54.5,32.2,54.5,33.3z"/>
		<path class="st0" d="M44.9,33.2c0-1,0-2,0-3c1,0,2,0,3.1,0c0,1,0,2,0,3C47,33.2,46,33.2,44.9,33.2z"/>
	</g>
</g>
</svg>
