<?xml version="1.0" encoding="utf-8"?>
<!-- Generator: Adobe Illustrator 21.0.0, SVG Export Plug-In . SVG Version: 6.00 Build 0)  -->
<svg version="1.1" id="Слой_1" xmlns="http://www.w3.org/2000/svg" xmlns:xlink="http://www.w3.org/1999/xlink" x="0px" y="0px"
	 viewBox="0 0 15 20.7" style="enable-background:new 0 0 15 20.7;" xml:space="preserve">
<style type="text/css">
	.st0{fill:#838D9D;}
	.st1{fill:none;}
	.st2{fill:#FFFFFF;}
	.st3{fill:#CE112D;}
</style>
<g>
	<path class="st0" d="M7.1,4.6c-0.1,0-0.2,0-0.3,0c0,0-0.1,0-0.1,0.1c0.1,0,0.1,0,0.2,0L7.1,4.6L6.9,4.8c-0.1,0-0.1,0.1,0,0.1
		C7,5,7.2,5,7.2,5.1c0,0,0.1,0,0.2,0c-0.1,0-0.1,0.1-0.2,0.1s-0.1,0-0.1,0.1c0.2,0.3,0.3,0.5,0.3,0.8c0.1-0.3,0.2-0.5,0.3-0.8
		c0.1-0.1,0.1-0.1-0.1-0.2c0,0,0,0-0.1,0c0,0,0,0-0.1,0c0.1,0,0.1,0,0.1,0C7.7,5.1,7.8,5,7.9,5c0.3-0.2,0.3-0.2,0.2-0.3
		c0,0,0,0-0.1-0.1h0.1h0.1c0,0,0,0,0.1,0c0,0,0,0-0.1-0.1c0,0-0.1-0.1-0.2-0.1c0.2,0,0.3,0,0.4,0c-0.1,0-0.2-0.1-0.5-0.2
		C7.8,4.1,7.8,4,7.6,4.1c-0.2,0-0.3,0-0.3,0.1L7.2,4.3C7,4.3,6.8,4.4,6.7,4.5C6.8,4.5,6.9,4.5,7.1,4.6C7.1,4.5,7.1,4.5,7.1,4.6z"/>
	<path class="st0" d="M7.5,15c4.1,0,7.5-3.4,7.5-7.5S11.6,0,7.5,0S0,3.4,0,7.5C0,11.7,3.4,15,7.5,15z M2.5,6c0.1,0,0.3,0,0.3,0
		s0,0,0.1,0C2.8,5.8,2.7,5.7,2.6,5.5c0-0.1,0-0.2,0.1-0.2S2.9,5.4,3,5.4c0,0,0,0,0.1,0C2.9,5.3,2.8,5.1,2.8,5s0-0.2,0-0.3
		s0.1-0.1,0.2,0C3,4.8,3.2,5,3.4,5.1c0.1,0.1,0.1,0.1,0.2,0.2C3.6,5.1,3.5,5,3.4,5C3.3,4.8,3.2,4.6,3.1,4.5C3,4.3,3,4.2,3.1,4l0,0
		c0.1,0,0.1-0.1,0.2-0.1L3.4,4c0.3,0.4,0.5,0.8,0.8,1.2c0,0,0.1,0.1,0.1,0c0.1-0.1,0.1,0,0.1,0.1c0.1,0.1,0.3,0.3,0.3,0.4h0.1
		c0-0.1,0.1,0,0.1,0C5,5.8,5.1,5.9,5.2,6.1c0.1,0.1,0.3,0.3,0.3,0.3c0.1,0.2,0.1,0.3-0.1,0.4C5.3,7,5.3,7.2,5.6,7.3
		c0.2,0.1,0.3,0.1,0.5,0c0.1-0.1,0.1-0.1,0-0.2C6,7.1,5.9,6.9,6,6.8c0-0.1,0-0.1,0.1,0c0.2,0.1,0.3,0.1,0.5,0c0,0,0,0,0-0.1
		c0,0,0,0-0.1,0s-0.2,0-0.3-0.1c0,0,0,0,0-0.1c0,0,0,0,0.1,0c0.3,0,0.3-0.2,0.4-0.4c0-0.2-0.1-0.3-0.3-0.5l0,0
		C6.3,5.4,5.8,5.3,5.6,5.5c0,0-0.1,0.1-0.1,0.2s0,0.1-0.1,0s0-0.2,0.1-0.2c0,0,0,0,0-0.1l0,0c-0.1,0-0.2,0.1-0.3,0.1
		C5,5.6,4.9,5.5,4.8,5.4c0,0,0,0,0-0.1c0,0,0,0,0.1,0s0.3,0,0.3,0c0.2,0,0.3-0.1,0.5-0.2C5.6,5,5.4,5,5.3,5.1s-0.1,0-0.1,0
		C5,5,5.1,4.7,5.3,4.7c0.1,0,0.2-0.1,0.3-0.1c0,0,0,0-0.1,0S5.2,4.5,5.2,4.5C4.9,4.3,4.8,4.1,4.9,3.9c0,0,0,0,0-0.1s0-0.2,0-0.3
		c-0.1,0-0.2,0-0.2,0.1c-0.1,0-0.2,0.1-0.2,0.1c0,0.1,0,0.3,0.1,0.3c0,0.1,0.1,0.1,0.1,0.2s0,0.2,0,0.3C4.6,4.6,4.5,4.7,4.6,4.8
		c-0.2,0-0.3-0.2-0.2-0.3c0-0.1,0.1-0.1,0.1-0.2L4.4,4.5c-0.1,0-0.1,0-0.2,0C4.1,4.5,4,4.4,4,4.6l0,0C3.9,4.5,3.9,4.5,4,4.4
		c0-0.1,0-0.1,0.1-0.1c0,0,0,0,0.1,0h0.1V4.2L4.2,4.1C4,4,4,3.8,4.1,3.7c0.1,0,0.1-0.1,0.2-0.1s0.2-0.1,0.3-0.2l0.1-0.1
		c0.1-0.1,0.2-0.1,0.3,0c0.1,0,0.1,0,0.2,0c0.2,0.1,0.2,0.2,0.2,0.3S5.3,3.8,5.3,3.9c-0.1,0.2,0,0.2,0.1,0.3
		c0.1,0.1,0.2,0.1,0.3,0.1s0.1,0,0.1-0.1s0-0.2,0-0.2C5.6,4,5.6,4,5.6,4c0-0.2,0.1-0.3,0.2-0.3c0,0,0,0,0.1,0c0,0,0,0,0.1,0.1V3.7
		c0-0.1,0-0.2,0-0.2C5.8,3.4,6,3.4,6,3.3c0,0,0.1-0.1,0.1,0c0,0,0,0,0.1,0c0,0,0,0-0.1,0.1c0,0.1,0,0.2,0,0.3s0.1,0.1,0.1,0
		s0.1-0.1,0.2,0c0.1,0,0.2,0.1,0.2,0.2c0,0.1,0,0.1,0,0.2S6.3,4.2,6.3,4.3c0,0.1,0,0.1,0.1,0.1C6.7,4.3,6.9,4.2,7.2,4
		c0.1-0.1,0.1-0.2,0-0.3C7,3.7,7,3.5,6.9,3.5C6.8,3.2,6.8,3,7.1,2.9c0.1,0,0.2-0.1,0.3-0.1h0.1h0.1v0c-0.1-0.1,0-0.2,0-0.3
		c0,0,0,0,0-0.1c0,0,0,0-0.1,0H7.3l0,0c0,0,0,0,0.1,0h0.1c0-0.1,0.1-0.1,0.1-0.1s0.1,0,0.1,0.1c0,0,0,0,0.1,0c0,0,0,0,0.1,0
		c0,0.1,0,0.1,0,0.2c0,0,0,0-0.1,0s-0.1,0,0,0.1c0,0.1,0.1,0.2,0,0.3v0.1h0.1H8C8,2.9,8.1,3,8.2,3c0.2,0.1,0.3,0.2,0.2,0.3
		C8.3,3.5,8.3,3.6,8.2,3.7C8.1,3.9,8.1,4,8.3,4.1c0.2,0.1,0.4,0.2,0.6,0.3H9l0,0c0-0.1-0.1-0.2-0.1-0.3C8.8,4,8.8,3.9,9,3.8h0.1
		c0,0,0,0,0.1,0c0,0,0,0,0-0.1s0-0.2,0-0.3l0,0c0-0.1,0.1,0,0.1-0.1c0.1,0,0.1,0,0.1,0s0,0,0.1,0v0.1H9.4c0,0.1,0,0.2,0,0.3h0.1
		c0.1-0.2,0.2,0,0.3,0C9.9,3.8,9.9,3.8,9.9,4C9.8,4,9.8,4,9.7,4v0.1c0,0.1,0,0.1,0,0.2c0.1,0,0.1,0,0.2,0H10c0.2,0,0.2-0.1,0.1-0.3
		C9.9,3.9,9.9,3.8,9.9,3.7c-0.1-0.2,0-0.3,0.1-0.3s0.1-0.1,0.2-0.1c0.2-0.1,0.3-0.1,0.3,0.1c0.1,0.1,0.2,0.3,0.3,0.3s0.1,0,0.2,0.1
		c0.2,0,0.2,0.2,0.1,0.2L11,4.1v0.1h0.1h0.1c0.1,0,0.2,0,0.2,0.1s0,0.1,0,0.2h-0.1c0-0.1-0.1-0.1-0.2-0.1c-0.1,0-0.2,0-0.3-0.1
		c0,0,0,0-0.1,0v0.1l0.1,0.1c0.1,0.2-0.1,0.3-0.2,0.3c0.1-0.1,0-0.2-0.1-0.3c-0.1-0.2-0.1-0.3,0-0.3c0-0.1,0.1-0.2,0.1-0.2
		c0-0.1,0-0.3-0.2-0.3c-0.1,0-0.1,0-0.2-0.1h-0.1c0,0.1,0,0.1,0,0.2c0,0.1,0.1,0.2,0.1,0.3c0.1,0.2,0,0.3-0.2,0.3
		C9.9,4.5,9.7,4.5,9.7,4.5s-0.1,0-0.2,0.1c0.1,0,0.1,0.1,0.2,0.1C10,4.8,10.1,4.8,10.2,5c0.1,0.1,0,0.2,0,0.3s-0.1,0.1-0.2,0
		c-0.2-0.1-0.3-0.1-0.4,0c0.2,0,0.3,0.1,0.4,0.1c0.1,0,0.3,0.1,0.3,0c0,0,0,0,0.1,0c0,0,0,0,0,0.1c-0.1,0.1-0.3,0.2-0.4,0.2
		c-0.1,0-0.3-0.1-0.3-0.2c0,0,0,0-0.1,0c0,0,0,0,0,0.1c0.1,0.1,0.1,0.2,0.1,0.3H9.6C9.5,5.6,9.4,5.5,9.2,5.5c-0.1,0-0.2,0-0.3,0.1
		c-0.1,0-0.1,0.1-0.2,0.1C8.5,5.8,8.4,6,8.4,6.2c0,0.3,0.1,0.6,0.4,0.4c0.1,0,0.1,0,0,0.1c0,0.1-0.2,0.2-0.3,0.2h0
		c0,0,0,0.1,0.1,0.1C8.8,7,8.9,7,9,6.9c0.1,0,0.1,0,0.1,0c0,0.2,0,0.3-0.2,0.3c-0.1,0.1-0.1,0.1,0,0.2c0.2,0.2,0.6,0.1,0.7-0.1
		C9.7,7.2,9.7,7.1,9.5,7C9.4,6.8,9.4,6.7,9.4,6.6s0.1-0.1,0.2-0.2c0.1-0.1,0.3-0.2,0.3-0.3C10,6,10.1,5.9,10.2,5.8
		c0,0,0.1-0.1,0.1,0s0.1,0,0.1,0c0.2-0.2,0.3-0.3,0.4-0.5c0.1,0.1,0.1,0,0.1,0c0.3-0.3,0.5-0.8,0.8-1.2c0.1-0.1,0.2-0.1,0.2,0
		C12,4.2,12,4.4,12,4.4c0,0.3-0.2,0.5-0.3,0.8c-0.1,0.1-0.2,0.2-0.2,0.3c0,0,0,0,0,0.1c0,0,0,0,0.1,0c0.2-0.2,0.4-0.3,0.6-0.5
		c0,0,0.1-0.1,0.2-0.1c0,0.1,0.1,0.1,0.1,0.2c0,0.3-0.1,0.4-0.3,0.5l-0.2,0c0.1,0,0.1,0,0.2,0c0.1,0,0.2,0,0.2-0.1
		c0.1,0,0.2,0,0.1,0.1c-0.1,0.2-0.2,0.3-0.3,0.5c0,0,0,0,0.1,0c0.2,0,0.3,0,0.4,0c0.1,0,0.1,0,0.1,0.1c0,0-0.1,0.1-0.3,0.2
		c-0.1,0-0.1,0.1-0.2,0.1c0,0,0,0,0.1,0c0.2,0,0.3,0,0.4,0c0.1,0,0.1,0.1,0.1,0.2C12.7,6.9,12.6,7,12.4,7c0,0,0,0-0.1,0
		c0.1,0,0.2,0.1,0.3,0.1s0.1,0.1,0,0.2s-0.2,0.2-0.3,0.2h-0.1c0,0,0.1,0,0.1,0.1c0.1,0.1,0.1,0.2,0.2,0.3c0,0.1,0,0.2-0.2,0.3
		c-0.1,0-0.2,0-0.3,0s-0.1,0,0,0.1c0.1,0.2,0.1,0.3-0.2,0.3c-0.1,0-0.1,0-0.2,0c0,0.1,0.1,0.1,0.1,0.2s0,0.2,0,0.3
		c-0.1,0.1-0.3,0.1-0.3,0c-0.1-0.1-0.2-0.3-0.3-0.3c-0.2-0.1-0.3-0.2-0.3-0.3c0.1-0.2,0.2-0.2,0.2,0c0.1,0.1,0.1,0.2,0.2,0.3
		c0.1,0.1,0,0.3-0.1,0.3c0,0,0,0-0.1,0c-0.2,0-0.3-0.1-0.3-0.3c-0.1-0.2-0.2-0.3-0.3-0.5c0,0,0,0-0.1-0.1v0.1
		c0.1,0.2,0.2,0.3,0.3,0.5c0.1,0.1,0,0.3-0.2,0.3c-0.1,0-0.3-0.1-0.3-0.2C10,8.7,10,8.6,9.9,8.4l0,0c0,0.1,0,0.1,0,0.2
		c0,0.1,0.1,0.3,0,0.3c0,0.1-0.1,0.2-0.2,0.2c0,0-0.1,0-0.1-0.1C9.5,8.9,9.5,8.8,9.5,8.7c0-0.2-0.1-0.3-0.3-0.3S9,8.3,9,8.5
		C9,8.6,9,8.8,9.1,9c0,0,0.1,0.1,0,0.1v0.1c0.1,0.1,0.2,0.2,0.3,0.2s0.2,0,0.2,0.1h0.1c0.2,0,0.3,0.2,0.2,0.5v0.1
		c0,0.1,0,0.2,0.2,0.2h0.1c0,0,0,0.1-0.1,0.1c-0.1,0.1-0.3,0.1-0.3,0c0,0,0,0-0.1,0v0.1c0,0.1,0,0.1,0,0.2c0,0,0,0,0,0.1
		c0,0,0,0-0.1,0c0,0-0.1,0-0.1-0.1c0,0-0.1-0.1-0.1,0c0,0,0,0-0.1,0v0.1c0,0.1,0.1,0.1,0.1,0.2c0.3,0.1,0.5,0.3,0.8,0.3
		c0.1,0,0.1,0,0.2,0c0.1-0.1,0.1-0.1,0-0.3c-0.1-0.1-0.1-0.2,0-0.3s0.1-0.3,0.2-0.3c0.1-0.1,0.2-0.1,0.3-0.2C11,10.1,11,10,11,10
		s0,0,0-0.1l0,0c-0.1,0.1-0.1,0-0.1,0l0,0c0-0.1,0-0.1,0.1,0l0,0c0,0,0,0,0-0.1s0-0.1,0-0.1h0.1c0.1,0,0.1,0,0.1,0.1c0,0,0,0,0,0.1
		h0.1c0.1-0.1,0.1,0,0.1,0.1c0,0,0.1,0.1-0.1,0.1h-0.1v0.1l0.1,0.1c0.2,0.1,0.3,0.3,0.4,0.4c0.2,0.3,0,0.4-0.2,0.6
		c0,0.1-0.1,0.1-0.1,0.2c0,0,0,0-0.1,0.1s-0.2,0.1-0.3,0.2c-0.2,0-0.3,0.1-0.5,0.1c-0.1,0-0.2-0.1-0.3-0.1c-0.2-0.1-0.3-0.2-0.6-0.2
		c-0.2,0-0.3-0.1-0.4-0.1l0,0c0,0,0,0.1-0.1,0.1v0.1c0.2,0.2,0.3,0.3,0.1,0.4l-0.1,0.1c0,0,0,0,0,0.1c0,0-0.1,0-0.1-0.1
		s0-0.1-0.1-0.2c0,0,0,0-0.1-0.1c0,0,0,0,0,0.1c0,0.3-0.3,0.4-0.5,0.3c-0.1-0.1-0.1-0.1-0.2,0c-0.1,0.2-0.3,0.3-0.5,0.2
		c-0.1,0-0.1,0-0.2,0.1c-0.2,0.3-0.3,0.3-0.4,0c-0.1-0.1-0.1-0.1-0.2-0.1c-0.3,0.1-0.4,0-0.6-0.2c0-0.1-0.1-0.1-0.1,0
		c0.1,0.3-0.1,0.3-0.2,0.3c-0.1-0.1-0.2-0.2-0.2-0.3v-0.1c0,0,0,0.1-0.1,0.1c0,0.1-0.1,0.1-0.1,0.2c0,0-0.1,0.1-0.1,0s0-0.1-0.1-0.2
		c-0.1-0.2-0.2-0.3,0.1-0.5c0.1,0,0.1-0.1,0-0.1c-0.2-0.1-0.1-0.3,0.1-0.4c0.1,0,0.1,0,0.1,0.1c0,0.2,0.1,0.2,0.3,0.2
		c0.1,0,0.1-0.1,0.2-0.1C6.6,11.2,6.8,11,7,11c0.1,0,0.1-0.1,0.2-0.1c0,0,0,0,0-0.1c0,0,0,0-0.1,0s-0.1,0-0.2,0.1c0,0,0,0-0.1,0
		v-0.1c0-0.1,0.1-0.1,0.2-0.2c0.1-0.1,0.2-0.1,0.2-0.3C7.2,10.2,7,10,6.8,10c-0.2-0.1-0.3-0.1-0.4,0.1c-0.1,0.1-0.1,0.2-0.1,0.3
		s0.1,0.2,0.2,0.2h0.1c0,0,0,0.1-0.1,0.1s-0.2,0.1-0.2,0.1c-0.1,0-0.1,0-0.1,0.1L6.3,11c0.1,0,0,0-0.1,0c-0.1,0-0.2,0-0.3,0
		c-0.4,0-0.8,0.1-1,0.3c-0.1,0-0.1,0.1-0.2,0.1c-0.1,0.1-0.1,0.1-0.1,0.2c0,0.1,0,0.3,0,0.3V12c-0.1-0.1-0.3-0.1-0.3-0.3
		c0,0,0,0-0.1-0.1c0-0.1-0.2-0.1-0.2-0.2c-0.1-0.1-0.1-0.2-0.2-0.3C3.8,11,3.9,11,3.9,11c0.1-0.1,0-0.2,0-0.3
		c-0.1-0.1-0.1-0.2-0.1-0.3c0,0,0-0.1-0.1-0.1c-0.1-0.2-0.2-0.4-0.3-0.6C3.3,9.4,3.2,9.1,3,8.8c0-0.1-0.1-0.2-0.2-0.2l0,0
		c0.1-0.1-0.1-0.1-0.1-0.2c-0.1,0.1-0.1,0-0.2,0C2.8,8.2,2.7,8.1,2.6,8V7.9c-0.1-0.1,0-0.1,0-0.2c0.1-0.1,0.1-0.1,0.2-0.1
		c-0.1-0.1,0-0.2-0.1-0.3c0,0-0.1-0.1-0.1-0.2C2.7,7.1,2.7,7,2.8,7C2.9,7,3,6.9,3,6.9C2.9,7.1,2.8,7,2.8,7C2.7,6.9,2.6,6.8,2.5,6.7
		s0-0.1,0.1-0.1c0.2,0,0.3,0,0.4,0C2.9,6.5,2.8,6.4,2.7,6.3c-0.1,0-0.2-0.1-0.3-0.2C2.4,6.1,2.4,6,2.5,6z"/>
	<path class="st0" d="M8.3,11c0.1,0.1,0.2,0.1,0.3,0.2c0,0,0,0,0-0.1s0-0.1,0-0.2l0,0c-0.1,0-0.2,0-0.3-0.1c-0.1,0-0.1,0-0.2-0.1
		c0,0-0.1,0-0.1,0.1C8.2,11,8.3,11,8.3,11z"/>
	<path class="st0" d="M7.1,12c0,0.1,0.1,0.2,0.1,0.3c0,0,0.1,0,0.1,0.1v-0.1c0-0.3,0.1-0.4,0.1-0.7c0-0.2,0.1-0.4,0.2-0.6
		c0,0,0,0,0-0.1c-0.1,0.1-0.1,0.3-0.2,0.3C7.2,11.5,7.2,11.7,7.1,12z"/>
	<path class="st0" d="M8.1,12c0-0.2,0-0.3-0.1-0.3c-0.1-0.2-0.2-0.4-0.3-0.6c0-0.1-0.1-0.1-0.1-0.2c0,0.1,0,0.1,0,0.2
		c0.1,0.4,0.2,0.8,0.2,1.2c0,0,0,0,0,0.1h0.1C8,12.1,8.1,12.1,8.1,12z"/>
	<path class="st0" d="M6.5,11.9C6.4,11.8,6.4,11.9,6.5,11.9c-0.1,0.1,0,0.2,0.1,0.2C6.7,11.9,6.6,11.9,6.5,11.9L6.5,11.9z"/>
	<path class="st0" d="M7.3,10.9C7.2,11,7,11.1,6.8,11.3c-0.1,0-0.2,0.2-0.3,0.3c0.1,0,0.1,0.1,0.2,0.1h0.1c0.1-0.2,0.3-0.3,0.3-0.5
		C7.2,11,7.2,11,7.3,10.9z"/>
	<path class="st0" d="M9,11.4h0.1C9,11.4,8.9,11.4,9,11.4C9,11.3,9,11.4,9,11.4z"/>
	<path class="st0" d="M3.9,9.6C4,9.8,4,9.9,4.1,10c0,0.1,0.1,0.1,0.1,0.2c0.1,0.1,0.1,0.2,0.1,0.3c0,0.2,0.1,0.2,0.3,0.2
		c0.1,0,0.2,0,0.2,0.1c0,0.1,0.2,0.2,0.3,0.1c0.1,0,0.2-0.1,0.3-0.1c0.1-0.1,0.3-0.1,0.3-0.2c0,0,0.1-0.1,0-0.1c0-0.1-0.1,0-0.1,0
		c0-0.1-0.1,0-0.1,0s-0.1,0-0.1,0.1c0,0,0,0-0.1,0c0,0,0,0,0-0.1s0-0.1,0-0.2v-0.1h0c-0.1,0.1-0.3,0.1-0.3,0c0,0,0,0,0-0.1
		c0,0,0,0,0.1,0S5.3,10,5.3,10c0-0.1,0-0.1,0-0.2c-0.2-0.1,0-0.4,0.3-0.4h0.1c0-0.1,0.1-0.1,0.2-0.1s0.2,0,0.3-0.2V9
		C6,9,6,9,6.1,8.9c0.1-0.2,0.1-0.4,0-0.6c-0.1,0-0.1,0-0.2,0H5.8C5.7,8.5,5.7,8.6,5.7,8.7c0,0.2-0.1,0.3-0.3,0.4h0
		C5.3,9,5.2,9,5.2,8.9s0-0.3,0-0.3c0-0.1,0-0.1,0-0.2L5.1,8.5C5.1,8.8,5,8.9,5,9.1c0,0.1-0.3,0.2-0.3,0.2c0-0.1-0.1-0.3-0.1-0.4
		c0.1-0.2,0.2-0.3,0.3-0.5V8.3c0,0,0,0-0.1,0.1C4.7,8.6,4.6,8.8,4.5,8.9c0,0.1-0.1,0.2-0.3,0.2H4.1C4,8.9,4,8.8,4.1,8.7
		c0.1-0.2,0.3-0.3,0.3-0.5c0,0,0,0,0-0.1l0,0C4.2,8.3,4,8.4,3.9,8.7C3.8,8.8,3.7,8.8,3.5,8.8l0,0v0.1C3.6,9.1,3.7,9.4,3.9,9.6z"/>
	<path class="st0" d="M8.6,10.6c0-0.1,0-0.2-0.1-0.3c-0.2-0.2-0.5-0.1-0.6,0.2C7.8,10.7,7.8,10.9,8,11l0.1-0.1l0,0
		c0-0.1,0-0.1,0-0.1c0.1,0,0.1,0,0.1,0l0,0c0.1-0.1,0.2-0.1,0.2,0C8.5,10.8,8.6,10.8,8.6,10.6z"/>
	<path class="st0" d="M8.6,11.8C8.5,11.8,8.5,11.8,8.6,11.8c0,0.2,0,0.2,0.1,0.3c0.1,0,0.1-0.1,0.1-0.1s0-0.1,0-0.2H8.6
		C8.7,11.8,8.7,11.8,8.6,11.8z"/>
	<path class="st0" d="M8.6,11.5c0-0.1-0.1-0.2-0.1-0.2C8.3,11.2,8.2,11,7.9,11c0,0,0.1,0,0.1,0.1c0.2,0.2,0.3,0.3,0.4,0.5l0.1,0.1
		C8.5,11.6,8.6,11.5,8.6,11.5z"/>
	<path class="st2" d="M8.1,10.8L8.1,10.8C8.1,10.9,8.1,10.9,8.1,10.8C8.1,10.8,8.2,10.8,8.1,10.8C8.2,10.8,8.2,10.8,8.1,10.8
		C8.2,10.8,8.2,10.8,8.1,10.8z"/>
</g>
<g>
	<path class="st0" d="M2.3,20.5l5.2-1.9l5.2,1.9c0.4,0.2,0.8-0.1,0.7-0.5l-1.2-5.1c-1.4,0.9-3,1.4-4.7,1.4c-1.9,0-3.5-0.5-4.8-1.5
		L1.6,20C1.5,20.4,1.9,20.8,2.3,20.5z"/>
</g>
</svg>
