<?xml version="1.0" encoding="utf-8"?>
<!-- Generator: Adobe Illustrator 21.0.0, SVG Export Plug-In . SVG Version: 6.00 Build 0)  -->
<svg version="1.1" id="Слой_1" xmlns="http://www.w3.org/2000/svg" xmlns:xlink="http://www.w3.org/1999/xlink" x="0px" y="0px"
	 viewBox="0 0 15 15" style="enable-background:new 0 0 15 15;" xml:space="preserve">
<style type="text/css">
	.st0{fill:#002B4A;}
	.st1{fill:#FFFFFF;}
</style>
<circle class="st0" cx="7.5" cy="7.5" r="7.5"/>
<path class="st1" d="M7.3,9C7.1,9,5,8,4.5,7.8c0,0.6,0,1.1,0,1.6s0.9,1.5,2.8,1.5s2.8-1,2.8-1.5s0-1,0-1.6C9.7,8,7.6,9,7.3,9z"/>
<path class="st1" d="M12.1,5.9L7.5,4C7.4,3.9,7.3,3.9,7.1,4C6.5,4.2,3.7,5.4,2.6,5.9C2.4,6,2.4,6.2,2.6,6.3c1.1,0.5,4,1.7,4.5,1.9
	c0.1,0.1,0.3,0,0.4,0l2.4-1c0,0-2.1-0.9-2.1-1.4c0.9,0.3,1.7,0.5,2.4,1c0.5,0.3,0.7,0.9,0.7,1.5c-0.1,0.1-0.2,0.2-0.2,0.4
	s0.1,0.3,0.2,0.4v0.1l-0.1,0.1c-0.1,0.3-0.2,0.6-0.3,0.9c-0.1,0.3,0.5,0.4,0.7,0.4s0.8-0.2,0.7-0.4l-0.3-0.9l-0.1-0.1
	c0,0,0-0.1,0-0.2c0.1-0.1,0.2-0.2,0.2-0.4s-0.1-0.3-0.2-0.4c0-0.6,0-1.2-0.4-1.7h0.1l0.9-0.4C12.3,6.1,12.3,5.9,12.1,5.9z"/>
</svg>
