<?xml version="1.0" encoding="utf-8"?>
<!-- Generator: Adobe Illustrator 21.0.2, SVG Export Plug-In . SVG Version: 6.00 Build 0)  -->
<svg version="1.1" id="Слой_2" xmlns="http://www.w3.org/2000/svg" xmlns:xlink="http://www.w3.org/1999/xlink" x="0px" y="0px"
	 viewBox="0 0 112.9 84.1" style="enable-background:new 0 0 112.9 84.1;" xml:space="preserve">
<style type="text/css">
	.st0{fill:#A6A8AB;}
	.st1{fill:#ED3424;}
	.st2{fill:#4D4D4F;}
</style>
<g>
	<g>
		<g>
			<path class="st0" d="M17.9,75.4h1.5l1.5,3.9c0.2,0.5,0.4,1.1,0.4,1.1h0c0,0,0.2-0.7,0.4-1.1l1.5-3.9h1.5l0.6,7.8H24l-0.3-4.4
				c0-0.5,0-1.2,0-1.2h0c0,0-0.3,0.8-0.4,1.2l-1.3,3h-1.2l-1.3-3c-0.2-0.5-0.4-1.2-0.4-1.2h0c0,0,0,0.7,0,1.2l-0.3,4.4h-1.4
				L17.9,75.4z"/>
			<path class="st0" d="M28.7,75.4h4.5v1.2h-3.1v6.6h-1.4V75.4z"/>
			<path class="st0" d="M35.9,75.4h6.3v7.8h-1.4v-6.6h-3.5v6.6h-1.4V75.4z"/>
			<path class="st0" d="M46.2,81.7c0.2,0.2,0.5,0.4,0.9,0.4c0.4,0,0.6-0.3,0.8-0.7l-3.1-6h1.6l1.7,3.5c0.3,0.5,0.4,1,0.4,1h0
				c0,0,0.1-0.5,0.3-1l1.3-3.5h1.5l-2.4,6.2c-0.3,0.8-0.9,1.8-2,1.8c-0.6,0-1.1-0.2-1.6-0.5L46.2,81.7z"/>
		</g>
		<path class="st1" d="M32.2,28.3c2.3,0,4,1.7,4,4c0,2.3-1.7,4.1-4,4.1c-2.3,0-4-1.8-4-4.1C28.2,30.1,29.9,28.3,32.2,28.3z
			 M32.2,35.1c1.4,0,2.6-1.2,2.6-2.8c0-1.5-1.1-2.7-2.6-2.7c-1.4,0-2.6,1.2-2.6,2.7C29.7,33.9,30.8,35.1,32.2,35.1z"/>
		<g>
			<g>
				<rect x="48.9" y="28.4" class="st2" width="1.4" height="7.8"/>
				<polygon class="st2" points="54.8,28.4 53.2,28.4 50.6,32.2 53.4,36.3 55.1,36.3 52.2,32.1 				"/>
			</g>
			<g>
				<rect x="86.2" y="28.4" class="st2" width="1.4" height="7.8"/>
				<polygon class="st2" points="92.1,28.4 90.5,28.4 87.9,32.2 90.7,36.3 92.4,36.3 89.5,32.1 				"/>
			</g>
			<g>
				<rect x="73.2" y="44.1" class="st2" width="1.4" height="7.8"/>
				<polygon class="st2" points="79.1,44.1 77.5,44.1 75,47.8 77.7,51.9 79.5,51.9 76.5,47.8 				"/>
			</g>
			<path class="st2" d="M17.9,28.4h1.5l1.5,3.9c0.2,0.5,0.4,1.1,0.4,1.1h0c0,0,0.2-0.7,0.4-1.1l1.5-3.9h1.5l0.6,7.8H24l-0.3-4.4
				c0-0.5,0-1.2,0-1.2h0c0,0-0.3,0.8-0.4,1.2l-1.3,3h-1.2l-1.3-3c-0.2-0.5-0.4-1.2-0.4-1.2h0c0,0,0,0.7,0,1.2l-0.3,4.4h-1.4
				L17.9,28.4z"/>
			<path class="st2" d="M42.9,28.3c1,0,2.1,0.3,2.9,1.1l-0.7,1.1c-0.6-0.5-1.4-0.8-2.1-0.8c-1.7,0-2.6,1.2-2.6,2.7
				c0,1.5,0.9,2.8,2.6,2.8c0.8,0,1.7-0.4,2.3-1l0.7,1c-0.7,0.7-1.7,1.3-3.1,1.3c-2.5,0-4-1.8-4-4.1C38.9,30,40.6,28.3,42.9,28.3z"/>
			<path class="st2" d="M60.9,28.3c2.3,0,4,1.7,4,4c0,2.3-1.7,4.1-4,4.1c-2.3,0-4-1.8-4-4.1C56.9,30.1,58.6,28.3,60.9,28.3z
				 M60.9,35.1c1.4,0,2.6-1.2,2.6-2.8c0-1.5-1.1-2.7-2.6-2.7c-1.4,0-2.6,1.2-2.6,2.7C58.4,33.9,59.5,35.1,60.9,35.1z"/>
			<path class="st2" d="M68.1,28.4h2.8c1.4,0,2.4,0.7,2.4,2c0,0.7-0.4,1.4-0.9,1.7v0c0.9,0.3,1.3,1,1.3,1.8c0,1.6-1.3,2.3-2.7,2.3
				h-2.8V28.4z M70.9,31.6c0.6,0,1-0.4,1-1c0-0.6-0.3-1-1-1h-1.4v2H70.9z M71,35c0.7,0,1.1-0.5,1.1-1.1c0-0.6-0.4-1.1-1.1-1.1h-1.5
				V35H71z"/>
			<path class="st2" d="M80.3,28.3c1,0,2.1,0.3,2.9,1.1l-0.7,1.1c-0.5-0.5-1.4-0.8-2.1-0.8c-1.7,0-2.6,1.2-2.6,2.7
				c0,1.5,0.9,2.8,2.6,2.8c0.8,0,1.7-0.4,2.3-1l0.8,1c-0.7,0.7-1.7,1.3-3.1,1.3c-2.5,0-4-1.8-4-4.1C76.2,30,77.9,28.3,80.3,28.3z"/>
			<path class="st2" d="M94.9,28.4h1.4V33c0,0.5-0.1,1.2-0.1,1.2h0c0,0,0.4-0.8,0.7-1.2l3-4.5h1.4v7.8h-1.4v-4.5
				c0-0.5,0.1-1.2,0.1-1.2h0c0,0-0.4,0.7-0.6,1.2l-3,4.5h-1.4V28.4z"/>
			<path class="st2" d="M104.8,28.4h1.4V33c0,0.5-0.1,1.2-0.1,1.2h0c0,0,0.4-0.8,0.7-1.2l3-4.5h1.4v7.8h-1.4v-4.5
				c0-0.5,0.1-1.2,0.1-1.2h0c0,0-0.4,0.7-0.7,1.2l-3,4.5h-1.4V28.4z M106.3,26.6v-0.1h1.1v0.1c0,0.5,0.4,0.7,0.7,0.7
				c0.4,0,0.8-0.2,0.8-0.7v-0.1h1.1v0.1c0,1-0.8,1.5-1.8,1.5C107.1,28.1,106.3,27.5,106.3,26.6z"/>
			<path class="st2" d="M17.5,44.1H22v1.2H19v6.6h-1.4V44.1z"/>
			<path class="st2" d="M28.1,44c2.3,0,4,1.8,4,4c0,2.3-1.7,4.1-4,4.1c-2.3,0-4-1.8-4-4.1C24,45.7,25.8,44,28.1,44z M28.1,50.7
				c1.4,0,2.6-1.2,2.6-2.8c0-1.5-1.1-2.7-2.6-2.7c-1.4,0-2.6,1.2-2.6,2.7C25.5,49.5,26.6,50.7,28.1,50.7z"/>
			<path class="st2" d="M35.2,44.1h3c1.5,0,2.5,1,2.5,2.5c0,1.5-1,2.6-2.5,2.6h-1.6v2.7h-1.4V44.1z M37.9,48c0.8,0,1.3-0.5,1.3-1.3
				c0-0.8-0.5-1.3-1.3-1.3h-1.4V48H37.9z"/>
			<path class="st2" d="M47.2,44c2.3,0,4,1.8,4,4c0,2.3-1.7,4.1-4,4.1c-2.3,0-4-1.8-4-4.1C43.1,45.7,44.8,44,47.2,44z M47.2,50.7
				c1.4,0,2.6-1.2,2.6-2.8c0-1.5-1.1-2.7-2.6-2.7c-1.4,0-2.6,1.2-2.6,2.7C44.6,49.5,45.7,50.7,47.2,50.7z"/>
			<path class="st2" d="M53.9,50.7c1-1.5,1.1-3.3,1.1-4.9v-1.7h4.9v6.6h0.9v2.8h-1.3v-1.5h-5.1v1.5h-1.3v-2.8H53.9z M58.5,50.7v-5.4
				h-2.1v0.6c0,1.5-0.2,3.5-1,4.8H58.5z"/>
			<path class="st2" d="M67.3,44c1,0,2.1,0.3,2.9,1.1l-0.7,1.1c-0.6-0.5-1.4-0.8-2.1-0.8c-1.7,0-2.6,1.2-2.6,2.7
				c0,1.5,0.9,2.8,2.6,2.8c0.8,0,1.7-0.4,2.3-1l0.8,1c-0.7,0.7-1.7,1.3-3.1,1.3c-2.5,0-4-1.8-4-4.1C63.2,45.7,64.9,44,67.3,44z"/>
			<path class="st2" d="M85.3,44c2.3,0,4,1.8,4,4c0,2.3-1.7,4.1-4,4.1c-2.3,0-4-1.8-4-4.1C81.2,45.7,83,44,85.3,44z M85.3,50.7
				c1.4,0,2.6-1.2,2.6-2.8c0-1.5-1.1-2.7-2.6-2.7c-1.4,0-2.6,1.2-2.6,2.7C82.7,49.5,83.8,50.7,85.3,50.7z"/>
			<path class="st2" d="M92.4,44.1h1.4v4.5c0,0.5-0.1,1.2-0.1,1.2h0c0,0,0.4-0.8,0.7-1.2l3-4.5h1.4v7.8h-1.4v-4.5
				c0-0.5,0.1-1.2,0.1-1.2h0c0,0-0.4,0.7-0.7,1.2l-3,4.5h-1.4V44.1z M93.9,42.2v-0.1h1.1v0.1c0,0.5,0.4,0.7,0.7,0.7
				c0.4,0,0.7-0.2,0.7-0.7v-0.1h1.1v0.1c0,1-0.8,1.5-1.8,1.5C94.7,43.7,93.9,43.2,93.9,42.2z"/>
			<path class="st2" d="M17.9,66.1c0.2,0.2,0.5,0.4,0.9,0.4c0.4,0,0.6-0.3,0.8-0.7l-3.1-6h1.6l1.7,3.5c0.3,0.5,0.4,1,0.4,1h0
				c0,0,0.1-0.5,0.3-1l1.3-3.5h1.5l-2.4,6.2c-0.3,0.8-0.9,1.8-2,1.8c-0.6,0-1.1-0.2-1.6-0.5L17.9,66.1z"/>
			<path class="st2" d="M25.9,59.7h1.4v3.3h3.6v-3.3h1.4v7.8h-1.4v-3.3h-3.6v3.3h-1.4V59.7z"/>
			<path class="st2" d="M35.9,59.7h1.4v4.5c0,0.5-0.1,1.2-0.1,1.2h0c0,0,0.4-0.8,0.7-1.2l3-4.5h1.4v7.8h-1.4v-4.5
				c0-0.5,0.1-1.2,0.1-1.2h0c0,0-0.4,0.7-0.6,1.2l-3,4.5h-1.4V59.7z"/>
			<path class="st2" d="M45.8,59.7h2.8c1.4,0,2.4,0.7,2.4,2c0,0.7-0.4,1.4-0.9,1.7v0c0.9,0.3,1.3,1,1.3,1.8c0,1.6-1.3,2.3-2.7,2.3
				h-2.8V59.7z M48.6,62.9c0.6,0,1-0.4,1-1c0-0.6-0.3-1-1-1h-1.4v2H48.6z M48.8,66.3c0.7,0,1.1-0.5,1.1-1.1c0-0.6-0.4-1.1-1.1-1.1
				h-1.5v2.3H48.8z"/>
			<path class="st2" d="M54.4,59.7h4.7V61h-3.3v2h2.6v1.2h-2.6v2.1h3.4v1.2h-4.9V59.7z"/>
			<path class="st2" d="M62.4,59.7h3c1.5,0,2.5,1,2.5,2.5c0,1.5-1,2.6-2.5,2.6h-1.6v2.7h-1.4V59.7z M65.1,63.6
				c0.8,0,1.3-0.5,1.3-1.3c0-0.8-0.5-1.3-1.3-1.3h-1.4v2.7H65.1z"/>
			<path class="st2" d="M74.3,59.6c1,0,2.1,0.3,2.9,1.1l-0.7,1.1c-0.5-0.5-1.4-0.8-2.1-0.8c-1.7,0-2.6,1.2-2.6,2.7
				c0,1.5,0.9,2.8,2.6,2.8c0.8,0,1.7-0.4,2.3-1l0.7,1c-0.7,0.7-1.7,1.3-3.1,1.3c-2.5,0-4-1.8-4-4.1C70.3,61.3,72,59.6,74.3,59.6z"/>
			<path class="st2" d="M80.3,59.7h1.4v4.5c0,0.5-0.1,1.2-0.1,1.2h0c0,0,0.4-0.8,0.7-1.2l2.9-4.5h1.4v7.8h-1.4v-4.5
				c0-0.5,0.1-1.2,0.1-1.2h0c0,0-0.4,0.7-0.6,1.2l-3,4.5h-1.4V59.7z"/>
			<path class="st2" d="M92,61h-2.6v-1.2H96V61h-2.6v6.6H92V61z"/>
			<path class="st2" d="M98.7,59.7h4.7V61h-3.3v2h2.6v1.2h-2.6v2.1h3.4v1.2h-4.9V59.7z"/>
			<path class="st2" d="M108.4,61h-2.6v-1.2h6.5V61h-2.6v6.6h-1.4V61z"/>
		</g>
	</g>
	<path class="st1" d="M10.9,51.6c-4.6-5.1-7.4-11.9-7.4-19.3c0-15.9,12.9-28.8,28.8-28.8c12.1,0,22.5,7.5,26.7,18.1l2.9-1.2
		C57.2,8.8,45.6,0.5,32.2,0.5C14.6,0.5,0.3,14.8,0.3,32.4c0,8.2,3.1,15.7,8.2,21.4L10.9,51.6z"/>
</g>
</svg>
