<?xml version="1.0" encoding="utf-8"?>
<!-- Generator: Adobe Illustrator 21.0.0, SVG Export Plug-In . SVG Version: 6.00 Build 0)  -->
<svg version="1.1" id="Layer_1" xmlns="http://www.w3.org/2000/svg" xmlns:xlink="http://www.w3.org/1999/xlink" x="0px" y="0px"
	 viewBox="0 0 300 165.8" style="enable-background:new 0 0 300 165.8;" xml:space="preserve">
<style type="text/css">
	.st0{fill:#DE0029;}
	.st1{fill:#C80122;}
	.st2{fill:#012B43;}
	.st3{enable-background:new    ;}
	.st4{fill:#FFFFFF;}
	.st5{fill:#CD132E;}
	.st6{fill:#1592D1;}
	.st7{opacity:0.5;fill:#86949B;enable-background:new    ;}
	.st8{fill:#E34130;}
</style>
<polygon class="st0" points="10.3,0 60.1,122.6 168.1,165.8 300,165.8 300,0 "/>
<polygon class="st1" points="60.1,122.6 300,0 0,0 "/>
<polygon class="st2" points="0,165.8 60.1,122.6 168.1,165.8 "/>
<g class="st3">
	<path class="st4" d="M45.1,37.4h8.6l9.2,24.8L72,37.4h8.4L66.2,72.9h-6.8L45.1,37.4z"/>
</g>
<g class="st3">
	<path class="st4" d="M85.2,37.4h7.7v35.2h-7.7V37.4z"/>
</g>
<g class="st3">
	<path class="st4" d="M104.9,40.4c0-2.2,1.8-4.1,4.2-4.1c2.4,0,4.2,1.8,4.2,4.1c0,2.2-1.8,4.1-4.2,4.1
		C106.6,44.5,104.9,42.7,104.9,40.4z M111.5,40.4c0-1.4-1-2.5-2.4-2.5c-1.4,0-2.4,1.1-2.4,2.5c0,1.4,1,2.5,2.4,2.5
		C110.5,42.9,111.5,41.8,111.5,40.4z"/>
	<path class="st4" d="M119.4,39.8h-1.8v4.6h-1.7v-4.6H114v-1.5h5.3V39.8z"/>
	<path class="st4" d="M120.3,38.3h1.7v2.5l2.2-2.5h2l-2.2,2.5l2.5,3.6h-2l-1.6-2.3l-0.8,0.8v1.5h-1.7V38.3z"/>
	<path class="st4" d="M127.2,38.3h1.7v0.9c0.4-0.6,1-1,1.9-1c1.4,0,2.7,1.1,2.7,3.1c0,2-1.3,3.1-2.7,3.1c-0.9,0-1.5-0.4-1.9-0.9v2.6
		h-1.7V38.3z M131.8,41.3c0-1-0.7-1.7-1.5-1.7c-0.8,0-1.5,0.7-1.5,1.7c0,1,0.7,1.7,1.5,1.7C131.1,43,131.8,42.3,131.8,41.3z"/>
	<path class="st4" d="M134.8,38.3h1.7v2h1.2c1.4,0,2.4,0.6,2.4,2c0,1.3-0.9,2-2.3,2h-3V38.3z M136.5,41.6V43h1.1
		c0.6,0,0.8-0.3,0.8-0.7c0-0.4-0.3-0.7-0.9-0.7H136.5z M140.9,38.3h1.7v6h-1.7V38.3z"/>
	<path class="st4" d="M148.9,39.8h-1.8v4.6h-1.7v-4.6h-1.8v-1.5h5.3V39.8z"/>
	<path class="st4" d="M149.8,38.3h1.7v2h1.2c1.4,0,2.4,0.6,2.4,2c0,1.3-0.9,2-2.3,2h-3V38.3z M151.5,41.6V43h1.1
		c0.6,0,0.8-0.3,0.8-0.7c0-0.4-0.3-0.7-0.9-0.7H151.5z M156,38.3h1.7v6H156V38.3z"/>
	<path class="st4" d="M164.8,44.3h-1.7v-3.5l-2.4,3.5h-1.6v-6h1.7v3.5l2.4-3.5h1.6V44.3z M160.2,36l1-0.2c0.1,0.5,0.4,0.8,0.9,0.8
		s0.7-0.3,0.9-0.8l1,0.2c-0.2,1.1-0.9,1.7-1.9,1.7S160.3,37.1,160.2,36z"/>
	<path class="st4" d="M171.3,40.2c0,0.6,0.3,1,0.8,1c0.5,0,0.8-0.1,1.2-0.3v-2.6h1.7v6h-1.7v-2.1c-0.4,0.2-1,0.4-1.6,0.4
		c-1.2,0-2.1-0.7-2.1-1.9v-2.4h1.7V40.2z"/>
	<path class="st4" d="M176.3,41.3c0-1.7,1.2-3.1,3-3.1c2,0,2.9,1.6,2.9,3.3c0,0.1,0,0.3,0,0.5H178c0.2,0.8,0.7,1.2,1.5,1.2
		c0.6,0,1-0.2,1.5-0.6l1,0.9c-0.6,0.7-1.4,1.1-2.5,1.1C177.6,44.5,176.3,43.2,176.3,41.3z M180.5,40.9c-0.1-0.8-0.6-1.3-1.3-1.3
		c-0.7,0-1.2,0.5-1.3,1.3H180.5z"/>
	<path class="st4" d="M183.5,38.3h1.7l1.6,2.5l1.7-2.5h1.7v6h-1.7v-3.6l-1.7,2.5l-1.7-2.4v3.6h-1.7V38.3z"/>
	<path class="st4" d="M197.2,44.3h-1.7v-4.6h-2.1v4.6h-1.7v-6h5.5V44.3z"/>
	<path class="st4" d="M204.4,44.3h-1.7v-3.5l-2.4,3.5h-1.6v-6h1.7v3.5l2.4-3.5h1.6V44.3z"/>
	<path class="st4" d="M205.6,41.3c0-1.7,1.4-3.1,3.3-3.1c1.9,0,3.3,1.4,3.3,3.1c0,1.7-1.4,3.1-3.3,3.1
		C207,44.5,205.6,43.1,205.6,41.3z M210.5,41.3c0-0.9-0.6-1.7-1.6-1.7c-1,0-1.6,0.8-1.6,1.7c0,0.9,0.6,1.7,1.6,1.7
		C209.9,43,210.5,42.2,210.5,41.3z"/>
	<path class="st4" d="M218.9,44.3h-1.7V42h-2.1v2.3h-1.7v-6h1.7v2.3h2.1v-2.3h1.7V44.3z"/>
	<path class="st4" d="M220.1,42.6c0-1.3,1-1.9,2.4-1.9c0.6,0,1,0.1,1.5,0.2v-0.1c0-0.7-0.4-1.1-1.3-1.1c-0.7,0-1.1,0.1-1.7,0.3
		l-0.4-1.3c0.7-0.3,1.3-0.5,2.3-0.5c0.9,0,1.6,0.2,2,0.7c0.5,0.5,0.7,1.1,0.7,1.9v3.5H224v-0.7c-0.4,0.5-1,0.8-1.8,0.8
		C221,44.5,220.1,43.8,220.1,42.6z M224,42.2v-0.3c-0.3-0.1-0.7-0.2-1.1-0.2c-0.7,0-1.2,0.3-1.2,0.9c0,0.5,0.4,0.7,0.9,0.7
		C223.5,43.3,224,42.8,224,42.2z"/>
	<path class="st4" d="M231.7,39.8h-1.8v4.6h-1.7v-4.6h-1.8v-1.5h5.3V39.8z"/>
</g>
<g class="st3">
	<path class="st4" d="M110.5,57.8h-1.7v-4.6h-2.1v4.6h-1.7v-6h5.5V57.8z"/>
	<path class="st4" d="M112.1,51.8h1.7v0.9c0.4-0.6,1-1,1.9-1c1.4,0,2.7,1.1,2.7,3.1c0,2-1.3,3.1-2.7,3.1c-0.9,0-1.5-0.4-1.9-0.9v2.6
		h-1.7V51.8z M116.7,54.8c0-1-0.7-1.7-1.5-1.7c-0.8,0-1.5,0.7-1.5,1.7c0,1,0.7,1.7,1.5,1.7C116,56.5,116.7,55.8,116.7,54.8z"/>
	<path class="st4" d="M119.4,54.8c0-1.7,1.4-3.1,3.3-3.1c1.9,0,3.3,1.4,3.3,3.1c0,1.7-1.4,3.1-3.3,3.1
		C120.8,58,119.4,56.6,119.4,54.8z M124.2,54.8c0-0.9-0.6-1.7-1.6-1.7c-1,0-1.6,0.8-1.6,1.7c0,0.9,0.6,1.7,1.6,1.7
		C123.6,56.5,124.2,55.7,124.2,54.8z"/>
	<path class="st4" d="M130.6,59.6v-2.2c-0.2,0.3-0.7,0.5-1.3,0.5c-1.4,0-2.4-1.1-2.4-3.1c0-1.9,1-3.1,2.5-3.1c0.5,0,1,0.3,1.3,0.6
		V50h1.7v2.3c0.2-0.3,0.7-0.6,1.3-0.6c1.4,0,2.5,1.1,2.5,3.1c0,2-1,3.1-2.4,3.1c-0.5,0-1-0.2-1.3-0.5v2.2H130.6z M128.6,54.8
		c0,1,0.4,1.7,1.3,1.7c0.3,0,0.5-0.1,0.7-0.3v-2.8c-0.2-0.2-0.4-0.3-0.7-0.3C129,53.2,128.6,53.8,128.6,54.8z M132.3,53.5v2.8
		c0.2,0.2,0.4,0.3,0.7,0.3c0.8,0,1.3-0.6,1.3-1.7c0-1-0.5-1.7-1.3-1.7C132.8,53.2,132.6,53.3,132.3,53.5z"/>
	<path class="st4" d="M137,54.8c0-1.7,1.2-3.1,3-3.1c2,0,2.9,1.6,2.9,3.3c0,0.1,0,0.3,0,0.5h-4.2c0.2,0.8,0.7,1.2,1.5,1.2
		c0.6,0,1-0.2,1.5-0.6l1,0.9c-0.6,0.7-1.4,1.1-2.5,1.1C138.4,58,137,56.7,137,54.8z M141.3,54.4c-0.1-0.8-0.6-1.3-1.3-1.3
		c-0.7,0-1.2,0.5-1.3,1.3H141.3z"/>
	<path class="st4" d="M143.9,54.8c0-1.7,1.3-3.1,3.2-3.1c1.1,0,1.8,0.4,2.4,1.1l-1,1c-0.4-0.3-0.7-0.6-1.4-0.6
		c-0.9,0-1.5,0.8-1.5,1.7c0,0.9,0.6,1.7,1.5,1.7c0.6,0,1-0.2,1.4-0.6l1,1c-0.6,0.6-1.3,1.1-2.5,1.1C145.3,58,143.9,56.6,143.9,54.8z
		"/>
	<path class="st4" d="M150.1,54.8c0-1.7,1.3-3.1,3.2-3.1c1.1,0,1.8,0.4,2.4,1.1l-1,1c-0.4-0.3-0.7-0.6-1.4-0.6
		c-0.9,0-1.5,0.8-1.5,1.7c0,0.9,0.6,1.7,1.5,1.7c0.6,0,1-0.2,1.4-0.6l1,1c-0.6,0.6-1.3,1.1-2.5,1.1C151.5,58,150.1,56.6,150.1,54.8z
		"/>
	<path class="st4" d="M162.5,57.8h-1.7v-3.5l-2.4,3.5h-1.6v-6h1.7v3.5l2.4-3.5h1.6V57.8z"/>
	<path class="st4" d="M163.7,54.8c0-1.7,1.4-3.1,3.3-3.1c1.9,0,3.3,1.4,3.3,3.1c0,1.7-1.4,3.1-3.3,3.1
		C165.1,58,163.7,56.6,163.7,54.8z M168.5,54.8c0-0.9-0.6-1.7-1.6-1.7c-1,0-1.6,0.8-1.6,1.7c0,0.9,0.6,1.7,1.6,1.7
		C168,56.5,168.5,55.7,168.5,54.8z"/>
	<path class="st4" d="M177,57.8h-1.7v-2.3h-2.1v2.3h-1.7v-6h1.7v2.3h2.1v-2.3h1.7V57.8z"/>
	<path class="st4" d="M178.2,56.1c0-1.3,1-1.9,2.4-1.9c0.6,0,1,0.1,1.5,0.2v-0.1c0-0.7-0.4-1.1-1.3-1.1c-0.7,0-1.1,0.1-1.7,0.3
		l-0.4-1.3c0.7-0.3,1.3-0.5,2.3-0.5c0.9,0,1.6,0.2,2,0.7c0.5,0.5,0.7,1.1,0.7,1.9v3.5h-1.7v-0.7c-0.4,0.5-1,0.8-1.8,0.8
		C179.1,58,178.2,57.3,178.2,56.1z M182.1,55.7v-0.3c-0.3-0.1-0.7-0.2-1.1-0.2c-0.7,0-1.2,0.3-1.2,0.9c0,0.5,0.4,0.7,0.9,0.7
		C181.6,56.8,182.1,56.3,182.1,55.7z"/>
	<path class="st4" d="M190.8,51.8v6h-1.7v-4.6h-1.5c0,4-0.7,4.6-2.2,4.6c-0.2,0-0.6,0-0.9-0.1l0.1-1.4c0.1,0,0.3,0,0.4,0
		c0.6,0,1-0.4,1-4.7H190.8z"/>
	<path class="st4" d="M192.3,51.8h1.7v2h1.2c1.4,0,2.4,0.6,2.4,2c0,1.3-0.9,2-2.3,2h-3V51.8z M194,55.1v1.4h1.1
		c0.6,0,0.8-0.3,0.8-0.7c0-0.4-0.3-0.7-0.9-0.7H194z"/>
	<path class="st4" d="M204.2,57.8h-1.7v-2.3h-2.1v2.3h-1.7v-6h1.7v2.3h2.1v-2.3h1.7V57.8z"/>
	<path class="st4" d="M205.4,54.8c0-1.7,1.4-3.1,3.3-3.1c1.9,0,3.3,1.4,3.3,3.1c0,1.7-1.4,3.1-3.3,3.1
		C206.8,58,205.4,56.6,205.4,54.8z M210.2,54.8c0-0.9-0.6-1.7-1.6-1.7c-1,0-1.6,0.8-1.6,1.7c0,0.9,0.6,1.7,1.6,1.7
		C209.7,56.5,210.2,55.7,210.2,54.8z"/>
	<path class="st4" d="M214.9,53.3v4.6h-1.7v-6h4.4v1.5H214.9z"/>
	<path class="st4" d="M218,54.8c0-1.7,1.4-3.1,3.3-3.1c1.9,0,3.3,1.4,3.3,3.1c0,1.7-1.4,3.1-3.3,3.1C219.4,58,218,56.6,218,54.8z
		 M222.8,54.8c0-0.9-0.6-1.7-1.6-1.7c-1,0-1.6,0.8-1.6,1.7c0,0.9,0.6,1.7,1.6,1.7C222.2,56.5,222.8,55.7,222.8,54.8z"/>
</g>
<g class="st3">
	<path class="st4" d="M105.1,65.3h1.7l1.6,2.5l1.7-2.5h1.7v6h-1.7v-3.6l-1.7,2.5l-1.7-2.4v3.6h-1.7V65.3z"/>
	<path class="st4" d="M113,69.6c0-1.3,1-1.9,2.4-1.9c0.6,0,1,0.1,1.5,0.2v-0.1c0-0.7-0.4-1.1-1.3-1.1c-0.7,0-1.1,0.1-1.7,0.3
		l-0.4-1.3c0.7-0.3,1.3-0.5,2.3-0.5c0.9,0,1.6,0.2,2,0.7c0.5,0.5,0.7,1.1,0.7,1.9v3.5h-1.7v-0.7c-0.4,0.5-1,0.8-1.8,0.8
		C113.9,71.5,113,70.8,113,69.6z M116.9,69.2v-0.3c-0.3-0.1-0.7-0.2-1.1-0.2c-0.7,0-1.2,0.3-1.2,0.9c0,0.5,0.4,0.7,0.9,0.7
		C116.4,70.3,116.9,69.8,116.9,69.2z"/>
	<path class="st4" d="M119.7,68.3c0-1.7,1.3-3.1,3.2-3.1c1.1,0,1.8,0.4,2.4,1.1l-1,1c-0.4-0.3-0.7-0.6-1.4-0.6
		c-0.9,0-1.5,0.8-1.5,1.7c0,0.9,0.6,1.7,1.5,1.7c0.6,0,1-0.2,1.4-0.6l1,1c-0.6,0.6-1.3,1.1-2.5,1.1
		C121.1,71.5,119.7,70.1,119.7,68.3z"/>
	<path class="st4" d="M131.2,66.8h-1.8v4.6h-1.7v-4.6h-1.8v-1.5h5.3V66.8z"/>
	<path class="st4" d="M131.6,68.3c0-1.7,1.2-3.1,3-3.1c2,0,2.9,1.6,2.9,3.3c0,0.1,0,0.3,0,0.5h-4.2c0.2,0.8,0.7,1.2,1.5,1.2
		c0.6,0,1-0.2,1.5-0.6l1,0.9c-0.6,0.7-1.4,1.1-2.5,1.1C132.9,71.5,131.6,70.2,131.6,68.3z M135.8,67.9c-0.1-0.8-0.6-1.3-1.3-1.3
		c-0.7,0-1.2,0.5-1.3,1.3H135.8z"/>
	<path class="st4" d="M138.8,65.3h1.7v0.9c0.4-0.6,1-1,1.9-1c1.4,0,2.7,1.1,2.7,3.1c0,2-1.3,3.1-2.7,3.1c-0.9,0-1.5-0.4-1.9-0.9v2.6
		h-1.7V65.3z M143.4,68.3c0-1-0.7-1.7-1.5-1.7c-0.8,0-1.5,0.7-1.5,1.7c0,1,0.7,1.7,1.5,1.7C142.7,70,143.4,69.3,143.4,68.3z"/>
	<path class="st4" d="M146.1,68.3c0-1.7,1.3-3.1,3.2-3.1c1.1,0,1.8,0.4,2.4,1.1l-1,1c-0.4-0.3-0.7-0.6-1.4-0.6
		c-0.9,0-1.5,0.8-1.5,1.7c0,0.9,0.6,1.7,1.5,1.7c0.6,0,1-0.2,1.4-0.6l1,1c-0.6,0.6-1.3,1.1-2.5,1.1
		C147.4,71.5,146.1,70.1,146.1,68.3z"/>
	<path class="st4" d="M157.5,66.8h-1.8v4.6H154v-4.6h-1.8v-1.5h5.3V66.8z"/>
	<path class="st4" d="M161.8,65.3c1.2,0,2,0.6,2,1.5c0,0.7-0.4,1.1-1,1.4c0.7,0.2,1.2,0.7,1.2,1.5c0,1-0.9,1.6-2.3,1.6h-3.3v-6
		H161.8z M161.3,67.7c0.5,0,0.7-0.3,0.7-0.6c0-0.3-0.2-0.6-0.7-0.6h-1.2v1.2H161.3z M161.5,70c0.5,0,0.8-0.2,0.8-0.6
		c0-0.3-0.2-0.6-0.8-0.6h-1.3V70H161.5z"/>
	<path class="st4" d="M164.8,69.6c0-1.3,1-1.9,2.4-1.9c0.6,0,1,0.1,1.5,0.2v-0.1c0-0.7-0.4-1.1-1.3-1.1c-0.7,0-1.1,0.1-1.7,0.3
		l-0.4-1.3c0.7-0.3,1.3-0.5,2.3-0.5c0.9,0,1.6,0.2,2,0.7c0.5,0.5,0.7,1.1,0.7,1.9v3.5h-1.7v-0.7c-0.4,0.5-1,0.8-1.8,0.8
		C165.8,71.5,164.8,70.8,164.8,69.6z M168.8,69.2v-0.3c-0.3-0.1-0.7-0.2-1.1-0.2c-0.7,0-1.2,0.3-1.2,0.9c0,0.5,0.4,0.7,0.9,0.7
		C168.2,70.3,168.8,69.8,168.8,69.2z"/>
</g>
<g class="st3">
	<path class="st4" d="M69,99.6h5.1v5.9h-0.9v-5.1h-3.4v5.1H69V99.6z"/>
	<path class="st4" d="M75.8,102.6c0-1.7,1.3-3.1,3.1-3.1c1.8,0,3.1,1.4,3.1,3.1c0,1.7-1.3,3.1-3.1,3.1
		C77.1,105.7,75.8,104.3,75.8,102.6z M81,102.6c0-1.3-0.9-2.3-2.2-2.3c-1.3,0-2.2,1-2.2,2.3s0.9,2.3,2.2,2.3
		C80.1,104.9,81,103.9,81,102.6z"/>
	<path class="st4" d="M86.6,102.6c0-1.7,1.3-3.1,3-3.1c1.1,0,1.8,0.5,2.4,1.1l-0.6,0.6c-0.5-0.5-1-0.9-1.8-0.9c-1.2,0-2.1,1-2.1,2.3
		c0,1.3,0.9,2.3,2.2,2.3c0.8,0,1.3-0.4,1.8-0.9l0.6,0.5c-0.6,0.7-1.3,1.1-2.4,1.1C87.9,105.7,86.6,104.3,86.6,102.6z"/>
	<path class="st4" d="M94.9,100.4h-2.1v-0.8h5.1v0.8h-2.1v5.1h-0.9V100.4z"/>
	<path class="st4" d="M98.5,103.8c0-1.3,1-1.9,2.5-1.9c0.8,0,1.3,0.1,1.8,0.3v-0.2c0-1.1-0.6-1.6-1.7-1.6c-0.7,0-1.2,0.2-1.8,0.4
		L99,100c0.7-0.3,1.3-0.5,2.1-0.5c0.8,0,1.5,0.2,1.9,0.7c0.4,0.4,0.6,1,0.6,1.7v3.6h-0.9v-0.9c-0.4,0.5-1.1,1-2.1,1
		C99.6,105.7,98.5,105,98.5,103.8z M102.9,103.4v-0.5c-0.4-0.1-1-0.3-1.7-0.3c-1.1,0-1.7,0.5-1.7,1.2c0,0.7,0.7,1.2,1.5,1.2
		C102,105,102.9,104.3,102.9,103.4z"/>
	<path class="st4" d="M105.6,99.6h0.9v2.5h3.4v-2.5h0.9v5.9h-0.9V103h-3.4v2.6h-0.9V99.6z"/>
	<path class="st4" d="M111.8,104.8h0.6c0.5-0.9,0.8-2.1,0.8-4.1v-1h4.2v5.1h0.9l-0.1,2.3h-0.7v-1.5h-4.8l-0.2,1.5h-0.7V104.8z
		 M116.6,104.8v-4.4h-2.5v0.8c0,1.5-0.3,2.8-0.7,3.5H116.6z"/>
	<path class="st4" d="M119.1,103.8c0-1.3,1-1.9,2.5-1.9c0.8,0,1.3,0.1,1.8,0.3v-0.2c0-1.1-0.6-1.6-1.7-1.6c-0.7,0-1.2,0.2-1.8,0.4
		l-0.3-0.7c0.7-0.3,1.3-0.5,2.1-0.5c0.8,0,1.5,0.2,1.9,0.7c0.4,0.4,0.6,1,0.6,1.7v3.6h-0.9v-0.9c-0.4,0.5-1.1,1-2.1,1
		C120.2,105.7,119.1,105,119.1,103.8z M123.5,103.4v-0.5c-0.4-0.1-1-0.3-1.7-0.3c-1.1,0-1.7,0.5-1.7,1.2c0,0.7,0.7,1.2,1.5,1.2
		C122.6,105,123.5,104.3,123.5,103.4z"/>
	<path class="st4" d="M126.2,99.6h0.9v1.2c0.5-0.7,1.2-1.3,2.3-1.3c1.4,0,2.8,1.1,2.8,3.1c0,1.9-1.4,3.1-2.8,3.1
		c-1.1,0-1.8-0.6-2.3-1.3v3h-0.9V99.6z M131.3,102.6c0-1.4-1-2.3-2.1-2.3c-1.1,0-2.1,0.9-2.1,2.3c0,1.4,1,2.3,2.1,2.3
		C130.3,104.9,131.3,104,131.3,102.6z"/>
	<path class="st4" d="M135,100.4h-2.1v-0.8h5.1v0.8h-2.1v5.1H135V100.4z"/>
	<path class="st4" d="M138.6,103.8c0-1.3,1-1.9,2.5-1.9c0.8,0,1.3,0.1,1.8,0.3v-0.2c0-1.1-0.6-1.6-1.7-1.6c-0.7,0-1.2,0.2-1.8,0.4
		l-0.3-0.7c0.7-0.3,1.3-0.5,2.1-0.5c0.8,0,1.5,0.2,1.9,0.7c0.4,0.4,0.6,1,0.6,1.7v3.6h-0.9v-0.9c-0.4,0.5-1.1,1-2.1,1
		C139.7,105.7,138.6,105,138.6,103.8z M143,103.4v-0.5c-0.4-0.1-1-0.3-1.7-0.3c-1.1,0-1.7,0.5-1.7,1.2c0,0.7,0.7,1.2,1.5,1.2
		C142.1,105,143,104.3,143,103.4z"/>
	<path class="st4" d="M145.7,99.6h0.8l2.2,3.1l2.2-3.1h0.8v5.9h-0.9V101l-2.2,3l-2.2-3v4.5h-0.9V99.6z"/>
</g>
<g class="st3">
	<path class="st4" d="M75.4,111.2h1l2.3,6.7l2.2-6.7h0.7l2.2,6.7l2.3-6.7h0.9l-2.9,8.1h-0.8l-2.2-6.5l-2.2,6.5h-0.8L75.4,111.2z"/>
	<path class="st4" d="M87.4,116.3c0-1.7,1.3-3.1,3.1-3.1c1.8,0,3.1,1.4,3.1,3.1c0,1.7-1.3,3.1-3.1,3.1
		C88.7,119.4,87.4,118,87.4,116.3z M92.7,116.3c0-1.3-0.9-2.3-2.2-2.3c-1.3,0-2.2,1-2.2,2.3s0.9,2.3,2.2,2.3
		C91.8,118.6,92.7,117.6,92.7,116.3z"/>
	<path class="st4" d="M95.2,113.3h0.9v1.5c0.4-1,1.3-1.7,2.4-1.6v0.9h-0.1c-1.3,0-2.3,0.9-2.3,2.7v2.4h-0.9V113.3z"/>
	<path class="st4" d="M99.9,110.9h0.9v8.3h-0.9V110.9z"/>
	<path class="st4" d="M102.5,116.3c0-1.9,1.4-3.1,2.8-3.1c1.1,0,1.8,0.6,2.3,1.3v-3.6h0.9v8.3h-0.9v-1.2c-0.5,0.7-1.2,1.3-2.3,1.3
		C103.9,119.4,102.5,118.3,102.5,116.3z M107.6,116.3c0-1.4-1-2.3-2.1-2.3c-1.1,0-2.1,0.8-2.1,2.3c0,1.4,1,2.3,2.1,2.3
		C106.6,118.6,107.6,117.7,107.6,116.3z"/>
	<path class="st4" d="M110.1,118.1l0.6-0.7c0.8,0.8,1.6,1.1,2.7,1.1c1.1,0,1.8-0.6,1.8-1.4c0-0.7-0.4-1.2-2.1-1.5
		c-1.8-0.4-2.7-1-2.7-2.3c0-1.3,1.1-2.2,2.6-2.2c1.2,0,2,0.3,2.8,1l-0.5,0.7c-0.7-0.6-1.5-0.9-2.3-0.9c-1,0-1.7,0.6-1.7,1.3
		c0,0.8,0.4,1.2,2.2,1.6c1.8,0.4,2.6,1,2.6,2.3c0,1.4-1.1,2.3-2.7,2.3C112.1,119.4,111,118.9,110.1,118.1z"/>
	<path class="st4" d="M117.7,110.9h0.9v5.8l3.2-3.3h1.1l-2.5,2.5l2.6,3.4h-1.1l-2.1-2.8l-1.2,1.2v1.5h-0.9V110.9z"/>
	<path class="st4" d="M124.3,111.1h1v1h-1V111.1z M124.3,113.3h0.9v5.9h-0.9V113.3z"/>
	<path class="st4" d="M127.3,110.9h0.9v8.3h-0.9V110.9z"/>
	<path class="st4" d="M130.3,110.9h0.9v8.3h-0.9V110.9z"/>
	<path class="st4" d="M132.8,118.5l0.4-0.6c0.6,0.5,1.3,0.8,2,0.8c0.7,0,1.2-0.4,1.2-1c0-0.6-0.7-0.8-1.5-1c-0.9-0.3-2-0.6-2-1.7
		c0-1,0.8-1.7,2-1.7c0.7,0,1.5,0.3,2.1,0.7l-0.4,0.7c-0.5-0.4-1.2-0.6-1.7-0.6c-0.7,0-1.1,0.4-1.1,0.9c0,0.6,0.7,0.8,1.5,1
		c0.9,0.3,1.9,0.6,1.9,1.7c0,1.1-0.9,1.8-2.1,1.8C134.4,119.4,133.4,119,132.8,118.5z"/>
	<path class="st4" d="M142.5,111.2h3.4c1,0,1.8,0.3,2.3,0.8c0.4,0.4,0.6,0.9,0.6,1.6c0,1.3-0.9,2.1-2.2,2.3l2.5,3.3h-1.1l-2.3-3.1
		h-2.3v3.1h-0.9V111.2z M145.9,115.3c1.2,0,2.1-0.6,2.1-1.7c0-1-0.8-1.6-2-1.6h-2.5v3.2H145.9z"/>
	<path class="st4" d="M150.6,117v-3.7h0.9v3.5c0,1.1,0.6,1.8,1.6,1.8c1,0,1.8-0.7,1.8-1.9v-3.4h0.9v5.9h-0.9v-1
		c-0.4,0.6-1,1.2-2,1.2C151.4,119.4,150.6,118.4,150.6,117z"/>
	<path class="st4" d="M157.2,118.5l0.4-0.6c0.6,0.5,1.3,0.8,2,0.8c0.7,0,1.2-0.4,1.2-1c0-0.6-0.7-0.8-1.5-1c-0.9-0.3-2-0.6-2-1.7
		c0-1,0.8-1.7,2-1.7c0.7,0,1.5,0.3,2.1,0.7l-0.4,0.7c-0.5-0.4-1.2-0.6-1.7-0.6c-0.7,0-1.1,0.4-1.1,0.9c0,0.6,0.7,0.8,1.5,1
		c0.9,0.3,1.9,0.6,1.9,1.7c0,1.1-0.9,1.8-2.1,1.8C158.8,119.4,157.9,119,157.2,118.5z"/>
	<path class="st4" d="M162.8,118.5l0.4-0.6c0.6,0.5,1.3,0.8,2,0.8c0.7,0,1.2-0.4,1.2-1c0-0.6-0.7-0.8-1.5-1c-0.9-0.3-2-0.6-2-1.7
		c0-1,0.8-1.7,2-1.7c0.7,0,1.5,0.3,2.1,0.7l-0.4,0.7c-0.5-0.4-1.2-0.6-1.7-0.6c-0.7,0-1.1,0.4-1.1,0.9c0,0.6,0.7,0.8,1.5,1
		c0.9,0.3,1.9,0.6,1.9,1.7c0,1.1-0.9,1.8-2.1,1.8C164.4,119.4,163.5,119,162.8,118.5z"/>
	<path class="st4" d="M169,111.1h1v1h-1V111.1z M169.1,113.3h0.9v5.9h-0.9V113.3z"/>
	<path class="st4" d="M171.5,117.5c0-1.3,1-1.9,2.5-1.9c0.8,0,1.3,0.1,1.8,0.3v-0.2c0-1.1-0.6-1.6-1.7-1.6c-0.7,0-1.2,0.2-1.8,0.4
		l-0.3-0.7c0.7-0.3,1.3-0.5,2.1-0.5c0.8,0,1.5,0.2,1.9,0.7c0.4,0.4,0.6,1,0.6,1.7v3.6h-0.9v-0.9c-0.4,0.5-1.1,1-2.1,1
		C172.6,119.4,171.5,118.7,171.5,117.5z M175.9,117.1v-0.5c-0.4-0.1-1-0.3-1.7-0.3c-1.1,0-1.7,0.5-1.7,1.2c0,0.7,0.7,1.2,1.5,1.2
		C175,118.7,175.9,118,175.9,117.1z"/>
</g>
<g class="st3">
	<path class="st4" d="M61.9,87.6V87l2-2.6l1.7,0.8L64,87.3l1.6,2.1l-1.7,0.8L61.9,87.6z M65.1,87.4L65.1,87.4l2.2-3l1.7,0.8
		l-1.6,2.1l1.6,2.1l-1.7,0.8L65.1,87.4z"/>
	<path class="st4" d="M70,82.1h2.5l2,3.3l2-3.3h2.5v8.6h-2.4v-4.9L74.6,89h0l-2.2-3.3v4.9H70V82.1z"/>
	<path class="st4" d="M80.3,86.3c0-2.5,2-4.4,4.6-4.4s4.6,2,4.6,4.4c0,2.5-2,4.4-4.6,4.4S80.3,88.8,80.3,86.3z M87.1,86.3
		c0-1.2-0.9-2.3-2.2-2.3c-1.3,0-2.2,1.1-2.2,2.3c0,1.2,0.9,2.3,2.2,2.3C86.3,88.6,87.1,87.6,87.1,86.3z"/>
	<path class="st4" d="M90.5,86.3c0-2.5,1.9-4.4,4.5-4.4c1.7,0,2.8,0.8,3.6,1.8L96.8,85c-0.5-0.6-1.1-1-1.9-1c-1.2,0-2,1-2,2.3
		c0,1.3,0.8,2.3,2,2.3c0.9,0,1.4-0.4,1.9-1l1.8,1.3c-0.8,1.1-1.9,1.9-3.8,1.9C92.4,90.8,90.5,88.9,90.5,86.3z"/>
	<path class="st4" d="M99.7,82.1h2.4v3.5l2.9-3.5h2.8l-3.2,3.7l3.3,4.9h-2.8l-2.2-3.2l-0.9,1v2.2h-2.4V82.1z"/>
	<path class="st4" d="M107.7,86.3c0-2.5,2-4.4,4.6-4.4s4.6,2,4.6,4.4c0,2.5-2,4.4-4.6,4.4S107.7,88.8,107.7,86.3z M114.5,86.3
		c0-1.2-0.9-2.3-2.2-2.3c-1.3,0-2.2,1.1-2.2,2.3c0,1.2,0.9,2.3,2.2,2.3C113.6,88.6,114.5,87.6,114.5,86.3z"/>
	<path class="st4" d="M118.2,82.1h4.4c1.1,0,1.8,0.3,2.3,0.8c0.3,0.3,0.6,0.8,0.6,1.4c0,1-0.6,1.6-1.3,1.9c1,0.3,1.7,0.9,1.7,2.1
		c0,1.5-1.2,2.4-3.2,2.4h-4.4V82.1z M122,85.5c0.7,0,1.1-0.2,1.1-0.8c0-0.5-0.4-0.7-1.1-0.7h-1.5v1.5H122z M122.3,88.7
		c0.7,0,1.1-0.3,1.1-0.8c0-0.5-0.4-0.8-1.2-0.8h-1.8v1.6H122.3z"/>
	<path class="st4" d="M126.6,86.3c0-2.5,1.9-4.4,4.5-4.4c1.7,0,2.8,0.8,3.6,1.8L133,85c-0.5-0.6-1.1-1-1.9-1c-1.2,0-2,1-2,2.3
		c0,1.3,0.8,2.3,2,2.3c0.9,0,1.4-0.4,1.9-1l1.8,1.3c-0.8,1.1-1.9,1.9-3.8,1.9C128.6,90.8,126.6,88.9,126.6,86.3z"/>
	<path class="st4" d="M135.8,82.1h2.4v3.5l2.9-3.5h2.8l-3.2,3.7l3.3,4.9h-2.8l-2.2-3.2l-0.9,1v2.2h-2.4V82.1z"/>
	<path class="st4" d="M144.7,82.1h2.3v4.8l3.3-4.8h2.2v8.6h-2.3v-4.8l-3.3,4.8h-2.2V82.1z"/>
	<path class="st4" d="M154.1,82.1h6.9v2h-4.5v1.3h4.1v1.9h-4.1v1.4h4.6v2h-6.9V82.1z"/>
	<path class="st4" d="M165.6,82.1h2.5l2,3.3l2-3.3h2.5v8.6h-2.4v-4.9l-2.2,3.3h0l-2.2-3.3v4.9h-2.3V82.1z"/>
	<path class="st4" d="M179.2,82h2.3l3.6,8.6h-2.5l-0.6-1.5h-3.3l-0.6,1.5h-2.5L179.2,82z M181.3,87.2l-1-2.4l-1,2.4H181.3z"/>
	<path class="st4" d="M185.2,86.3c0-2.5,1.9-4.4,4.5-4.4c1.7,0,2.8,0.8,3.6,1.8l-1.7,1.3c-0.5-0.6-1.1-1-1.9-1c-1.2,0-2,1-2,2.3
		c0,1.3,0.8,2.3,2,2.3c0.9,0,1.4-0.4,1.9-1l1.8,1.3c-0.8,1.1-1.9,1.9-3.8,1.9C187.2,90.8,185.2,88.9,185.2,86.3z"/>
	<path class="st4" d="M196.5,84.1h-2.6v-2.1h7.5v2.1h-2.6v6.5h-2.4V84.1z"/>
	<path class="st4" d="M202.5,82.1h6.9v2h-4.5v1.3h4.1v1.9h-4.1v1.4h4.6v2h-6.9V82.1z"/>
	<path class="st4" d="M210.6,82.1h3.7c2.2,0,3.6,1.1,3.6,3c0,2-1.6,3.1-3.7,3.1H213v2.4h-2.4V82.1z M214.1,86.3
		c0.8,0,1.4-0.4,1.4-1.1c0-0.7-0.5-1.1-1.4-1.1H213v2.3H214.1z"/>
	<path class="st4" d="M220.9,82h2.3l3.6,8.6h-2.5l-0.6-1.5h-3.3l-0.6,1.5h-2.5L220.9,82z M223,87.2l-1-2.4l-1,2.4H223z"/>
	<path class="st4" d="M227.3,89.4l1.6-2.1l-1.6-2.1l1.7-0.8l2.1,2.9v0.1l-2.1,2.9L227.3,89.4z M230.7,89.4l1.6-2.1l-1.6-2.1l1.7-0.8
		l2,2.6v0.6l-2,2.6L230.7,89.4z"/>
</g>
<g>
	<g>
		<path class="st4" d="M259.8,52.4c-0.7,0-1.1-0.5-1.1-1.2c0-0.9,0.5-1.2,1.1-1.2c0.3,0,0.6,0.1,0.9,0.2l0.3-0.6
			c-0.3-0.2-0.8-0.3-1.2-0.3c-1,0-1.8,0.6-1.9,1.9c0,1.1,0.6,1.9,1.8,1.9c0.5,0,1-0.2,1.4-0.5l-0.3-0.6
			C260.6,52.3,260.2,52.4,259.8,52.4z"/>
		<path class="st4" d="M255.2,49.4c-1.2,0-2,0.8-2,1.9c0,1.2,0.8,1.9,2,1.9s2-0.8,2-1.9C257.1,50.1,256.4,49.4,255.2,49.4z
			 M255.2,52.5c-0.6,0-1.2-0.5-1.2-1.2s0.5-1.2,1.2-1.2c0.6,0,1.2,0.5,1.2,1.2C256.3,52,255.8,52.5,255.2,52.5z"/>
		<path class="st4" d="M268.5,51.2c0.3-0.1,0.5-0.5,0.5-0.8c0-0.8-0.7-1-1.6-1c-0.4,0-0.9,0-1.1,0.1v3.6c0.3,0.1,0.8,0.1,1.2,0.1
			c1,0,1.7-0.2,1.7-1C269.1,51.7,268.9,51.4,268.5,51.2z M267,50c0.2,0,0.3,0,0.5,0c0.5,0,0.7,0.2,0.7,0.5c0,0.4-0.3,0.5-0.8,0.5
			h-0.5L267,50L267,50z M267.5,52.6c-0.1,0-0.4,0-0.6,0v-1h0.6c0.5,0,0.8,0.1,0.8,0.5C268.3,52.4,268,52.6,267.5,52.6z"/>
		<path class="st4" d="M271.6,49.3l-1.9,3.8h0.7l0.3-0.6h1.6l0.3,0.6h0.8L271.6,49.3z M271,51.9l0.5-1.1l0.5,1.1H271z"/>
		<polygon class="st4" points="250.2,51.9 248.6,49.3 247.9,53.1 248.6,53.1 249,51.2 250.2,53.1 251.4,51.2 251.8,53.1 252.5,53.1 
			251.8,49.3 		"/>
		<polygon class="st4" points="265.2,49.4 264.3,49.4 262.9,51.2 262.9,49.4 262.1,49.4 262.1,53.1 262.9,53.1 262.9,51.3 
			264.4,53.1 265.4,53.1 263.7,51.2 		"/>
	</g>
	<polygon class="st5" points="260.7,35.5 261.9,39.4 266,39.4 262.7,41.8 264,45.6 260.7,43.3 257.4,45.6 258.7,41.8 255.4,39.4 
		259.5,39.4 	"/>
	<g>
		<path class="st4" d="M259.8,52.4c-0.7,0-1.1-0.5-1.1-1.2c0-0.9,0.5-1.2,1.1-1.2c0.3,0,0.6,0.1,0.9,0.2l0.3-0.6
			c-0.3-0.2-0.8-0.3-1.2-0.3c-1,0-1.8,0.6-1.9,1.9c0,1.1,0.6,1.9,1.8,1.9c0.5,0,1-0.2,1.4-0.5l-0.3-0.6
			C260.6,52.3,260.2,52.4,259.8,52.4z"/>
		<path class="st4" d="M255.2,49.4c-1.2,0-2,0.8-2,1.9c0,1.2,0.8,1.9,2,1.9s2-0.8,2-1.9C257.1,50.1,256.4,49.4,255.2,49.4z
			 M255.2,52.5c-0.6,0-1.2-0.5-1.2-1.2s0.5-1.2,1.2-1.2c0.6,0,1.2,0.5,1.2,1.2C256.3,52,255.8,52.5,255.2,52.5z"/>
		<path class="st4" d="M268.5,51.2c0.3-0.1,0.5-0.5,0.5-0.8c0-0.8-0.7-1-1.6-1c-0.4,0-0.9,0-1.1,0.1v3.6c0.3,0.1,0.8,0.1,1.2,0.1
			c1,0,1.7-0.2,1.7-1C269.1,51.7,268.9,51.4,268.5,51.2z M267,50c0.2,0,0.3,0,0.5,0c0.5,0,0.7,0.2,0.7,0.5c0,0.4-0.3,0.5-0.8,0.5
			h-0.5L267,50L267,50z M267.5,52.6c-0.1,0-0.4,0-0.6,0v-1h0.6c0.5,0,0.8,0.1,0.8,0.5C268.3,52.4,268,52.6,267.5,52.6z"/>
		<path class="st4" d="M271.6,49.3l-1.9,3.8h0.7l0.3-0.6h1.6l0.3,0.6h0.8L271.6,49.3z M271,51.9l0.5-1.1l0.5,1.1H271z"/>
		<polygon class="st4" points="250.2,51.9 248.6,49.3 247.9,53.1 248.6,53.1 249,51.2 250.2,53.1 251.4,51.2 251.8,53.1 252.5,53.1 
			251.8,49.3 		"/>
		<polygon class="st4" points="265.2,49.4 264.3,49.4 262.9,51.2 262.9,49.4 262.1,49.4 262.1,53.1 262.9,53.1 262.9,51.3 
			264.4,53.1 265.4,53.1 263.7,51.2 		"/>
	</g>
	<polygon class="st4" points="260.7,35.5 261.9,39.4 266,39.4 262.7,41.8 264,45.6 260.7,43.3 257.4,45.6 258.7,41.8 255.4,39.4 
		259.5,39.4 	"/>
</g>
<g>
	<g>
		<g>
			<path class="st4" d="M255.4,82.3h-0.1v-0.2h-0.9v0.2h-0.1v-0.4h0.1c0,0,0,0,0-0.1s0-0.1,0.1-0.2c0-0.1,0-0.2,0.1-0.4
				c0-0.1,0-0.3,0-0.5h0.7v1.2h0.2v0.4H255.4z M255.1,81.9v-1h-0.4c0,0.1,0,0.3,0,0.4s0,0.2,0,0.3c0,0.1,0,0.2-0.1,0.2
				c0,0.1,0,0.1-0.1,0.2L255.1,81.9L255.1,81.9z"/>
			<path class="st4" d="M255.8,80.7h0.7v0.1H256v0.4h0.5v0.1H256v0.5h0.6V82h-0.7v-1.3H255.8z"/>
			<path class="st4" d="M257.7,80.9h-0.6V82H257v-1.3h0.9V82h-0.2L257.7,80.9L257.7,80.9z"/>
			<path class="st4" d="M259,81.7h-0.5l-0.1,0.4h-0.2l0.5-1.3h0.1l0.5,1.3h-0.2L259,81.7z M258.6,81.5h0.4l-0.1-0.4v-0.2l0,0v0.2
				L258.6,81.5z"/>
			<path class="st4" d="M259.7,80.7c0,0,0.1,0,0.2,0s0.1,0,0.2,0s0.1,0,0.2,0s0.1,0,0.2,0.1l0.1,0.1c0,0.1,0,0.1,0,0.2s0,0.1,0,0.2
				s-0.1,0.1-0.1,0.1s-0.1,0.1-0.2,0.1s-0.1,0-0.2,0l0,0l0,0l0,0l0,0V82h-0.2v-1.3H259.7z M260,80.8C259.9,80.8,259.9,80.8,260,80.8
				c-0.1,0-0.1,0-0.2,0v0.5l0,0l0,0l0,0l0,0h0.1h0.1l0.1-0.1v-0.1c0-0.1,0-0.1,0-0.1s0-0.1-0.1-0.1h-0.1
				C260.1,80.8,260,80.8,260,80.8z"/>
			<path class="st4" d="M261.7,80.9h-0.4V82h-0.2v-1.2h-0.4v-0.1h1V80.9z"/>
			<path class="st4" d="M262.6,81.7h-0.5L262,82h-0.2l0.5-1.3h0.1l0.5,1.3h-0.2L262.6,81.7z M262.1,81.5h0.4l-0.1-0.4v-0.2l0,0v0.2
				L262.1,81.5z"/>
			<path class="st4" d="M264.2,81.1v-0.2l0,0V81.1l-0.4,0.6l0,0l-0.4-0.6l-0.1-0.2l0,0v0.2V82h-0.1v-1.3h0.1l0.4,0.7l0.1,0.1l0,0
				l0.1-0.1l0.4-0.7h0.1V82h-0.2V81.1z"/>
			<path class="st4" d="M264.9,80.7h0.7v0.1H265v0.4h0.5v0.1H265v0.5h0.6V82h-0.7V80.7z"/>
			<path class="st4" d="M266.8,81.4h-0.6V82H266v-1.3h0.2v0.6h0.6v-0.6h0.2V82h-0.2V81.4z"/>
			<path class="st4" d="M268.3,80.9h-0.4V82h-0.2v-1.2h-0.4v-0.1h1V80.9z"/>
			<path class="st4" d="M254.3,83.8c0-0.2,0-0.4,0.1-0.5s0.2-0.2,0.4-0.2c0.1,0,0.2,0,0.2,0c0.1,0,0.1,0.1,0.2,0.1
				c0,0.1,0.1,0.1,0.1,0.2s0,0.2,0,0.3c0,0.2,0,0.4-0.1,0.5s-0.2,0.2-0.4,0.2c-0.1,0-0.2,0-0.2,0c-0.1,0-0.1-0.1-0.2-0.1
				c0-0.1-0.1-0.1-0.1-0.2C254.3,84,254.3,83.9,254.3,83.8z M254.5,83.8c0,0.1,0,0.1,0,0.2s0,0.1,0.1,0.2l0.1,0.1c0,0,0.1,0,0.2,0
				c0.1,0,0.2,0,0.3-0.1s0.1-0.2,0.1-0.4c0-0.1,0-0.1,0-0.2s0-0.1-0.1-0.2l-0.1-0.1c0,0-0.1,0-0.2,0c-0.1,0-0.2,0-0.3,0.1
				S254.5,83.6,254.5,83.8z"/>
			<path class="st4" d="M255.8,83.2h0.7v0.1H256v0.4c0,0,0,0,0.1,0h0.1c0.1,0,0.1,0,0.2,0s0.1,0,0.2,0.1l0.1,0.1c0,0,0,0.1,0,0.2
				s0,0.1,0,0.2s-0.1,0.1-0.1,0.1s-0.1,0.1-0.2,0.1s-0.1,0-0.2,0c0,0,0,0-0.1,0H256h-0.1h-0.1L255.8,83.2L255.8,83.2z M256.2,84.4
				h0.1h0.1c0,0,0,0,0.1-0.1v-0.1c0-0.1,0-0.1,0-0.1s0-0.1-0.1-0.1h-0.1h-0.1l0,0l0,0l0,0l0,0v0.5l0,0l0,0
				C256.1,84.4,256.1,84.4,256.2,84.4C256.1,84.4,256.1,84.4,256.2,84.4z"/>
			<path class="st4" d="M257,83.2c0,0,0.1,0,0.2,0s0.1,0,0.2,0s0.1,0,0.2,0s0.1,0,0.2,0.1l0.1,0.1c0,0.1,0,0.1,0,0.2s0,0.1,0,0.2
				s-0.1,0.1-0.1,0.1s-0.1,0.1-0.2,0.1s-0.1,0-0.2,0l0,0l0,0l0,0l0,0v0.5H257V83.2z M257.3,83.3L257.3,83.3c-0.1,0-0.1,0-0.2,0v0.5
				l0,0l0,0l0,0l0,0h0.1h0.1l0.1-0.1v-0.1c0-0.1,0-0.1,0-0.1s0-0.1-0.1-0.1h-0.1C257.4,83.3,257.4,83.3,257.3,83.3z"/>
			<path class="st4" d="M258.7,84.1h-0.5l-0.1,0.4H258l0.5-1.3h0.1l0.5,1.3h-0.2L258.7,84.1z M258.3,84h0.4l-0.1-0.4v-0.2l0,0v0.2
				L258.3,84z"/>
			<path class="st4" d="M259.5,83.9L259.5,83.9L259.5,83.9L259.5,83.9L259.5,83.9L259.5,83.9L259.5,83.9l0.1-0.1h0.1
				c0,0,0,0,0.1-0.1v-0.1v-0.1c0,0,0,0-0.1-0.1h-0.1h-0.1c-0.1,0-0.1,0-0.2,0h-0.1v-0.1h0.1c0.1,0,0.1,0,0.2,0h0.1
				c0,0,0.1,0,0.1,0.1l0.1,0.1c0,0,0,0.1,0,0.2s0,0.1-0.1,0.2C259.7,84,259.6,84,259.5,83.9L259.5,83.9c0.1,0.1,0.2,0.1,0.2,0.2
				c0.1,0.1,0.1,0.1,0.1,0.2s0,0.1,0,0.2s-0.1,0.1-0.1,0.1s-0.1,0.1-0.2,0.1s-0.1,0-0.2,0s-0.1,0-0.2,0s-0.1,0-0.1,0v-0.1h0.1
				c0.1,0,0.1,0,0.2,0h0.1h0.1c0,0,0.1,0,0.1-0.1v-0.1c0-0.1,0-0.1-0.1-0.2c-0.1,0-0.1-0.1-0.2-0.1l0,0l0,0h0.2V83.9z"/>
			<path class="st4" d="M260.5,83.8c0-0.2,0-0.4,0.1-0.5s0.2-0.2,0.4-0.2c0.1,0,0.2,0,0.2,0c0.1,0,0.1,0.1,0.2,0.1
				c0,0.1,0.1,0.1,0.1,0.2s0,0.2,0,0.3c0,0.2,0,0.4-0.1,0.5s-0.2,0.2-0.4,0.2c-0.1,0-0.2,0-0.2,0c-0.1,0-0.1-0.1-0.2-0.1
				c0-0.1-0.1-0.1-0.1-0.2C260.6,84,260.5,83.9,260.5,83.8z M260.7,83.8c0,0.1,0,0.1,0,0.2s0,0.1,0.1,0.2l0.1,0.1c0,0,0.1,0,0.2,0
				s0.2,0,0.3-0.1c0.1-0.1,0.1-0.2,0.1-0.4c0-0.1,0-0.1,0-0.2s0-0.1-0.1-0.2l-0.1-0.1c0,0-0.1,0-0.2,0s-0.2,0-0.3,0.1
				C260.7,83.5,260.7,83.6,260.7,83.8z"/>
			<path class="st4" d="M262.8,83.5L262.8,83.5c0,0.1,0,0.2-0.1,0.2c0,0,0,0.1-0.1,0.1h-0.1l0,0h0.1c0,0,0.1,0,0.1,0.1
				c0,0,0,0.1,0.1,0.1v0.1c0,0.1,0,0.1,0,0.2l-0.1,0.1c0,0-0.1,0.1-0.2,0.1s-0.1,0-0.2,0c0,0,0,0-0.1,0h-0.1H262h-0.1v-1.3
				c0,0,0.1,0,0.2,0s0.1,0,0.2,0h0.1c0.1,0,0.1,0,0.1,0l0.1,0.1C262.8,83.4,262.8,83.4,262.8,83.5z M262.3,83.7L262.3,83.7
				c0.1,0,0.1,0,0.2,0h0.1c0,0,0,0,0.1-0.1c0,0,0,0,0-0.1v-0.1v-0.1c0,0,0,0-0.1-0.1h-0.1h-0.1h-0.1h-0.1L262.3,83.7L262.3,83.7z
				 M262.4,84.4h0.1h0.1c0,0,0.1,0,0.1-0.1v-0.1c0-0.1,0-0.1,0-0.1s0-0.1-0.1-0.1h-0.1h-0.1h-0.2v0.5l0,0c0,0,0,0,0.1,0
				C262.3,84.4,262.3,84.4,262.4,84.4L262.4,84.4z"/>
			<path class="st4" d="M263.9,84.1h-0.5l-0.1,0.4h-0.2l0.5-1.3h0.1l0.5,1.3H264L263.9,84.1z M263.5,84h0.4l-0.1-0.4v-0.2l0,0v0.2
				L263.5,84z"/>
			<path class="st4" d="M265.4,83.9h-0.6v0.6h-0.2v-1.3h0.2v0.6h0.6v-0.6h0.2v1.3h-0.2V83.9z"/>
			<path class="st4" d="M266.8,83.6L266.8,83.6L266.8,83.6L266.8,83.6l-0.7,0.9H266v-1.3h0.2v0.9v0.1l0,0l0.1-0.2l0.6-0.9h0.1v1.3
				h-0.2L266.8,83.6L266.8,83.6z"/>
			<path class="st4" d="M268.2,84.5H268v-0.6h-0.2l-0.3,0.5h-0.2l0.3-0.5l0.1-0.1h-0.1c0,0-0.1,0-0.1-0.1c0,0,0-0.1-0.1-0.1v-0.1
				c0-0.1,0-0.1,0-0.2s0.1-0.1,0.1-0.1s0.1-0.1,0.2-0.1s0.1,0,0.2,0h0.1h0.1v1.4H268.2z M267.9,83.3h-0.1h-0.1c0,0-0.1,0-0.1,0.1
				v0.1v0.1c0,0,0,0.1,0.1,0.1h0.1h0.1h0.1v-0.5C268,83.3,268,83.3,267.9,83.3C268,83.3,268,83.3,267.9,83.3z"/>
			<path class="st4" d="M253.8,85.8h-0.5V87h-0.2v-1.3h0.7V85.8z"/>
			<path class="st4" d="M254,86.3c0-0.2,0-0.4,0.1-0.5s0.2-0.2,0.4-0.2c0.1,0,0.2,0,0.2,0c0.1,0,0.1,0.1,0.2,0.1
				c0,0.1,0.1,0.1,0.1,0.2s0,0.2,0,0.3c0,0.2,0,0.4-0.1,0.5s-0.2,0.2-0.4,0.2c-0.1,0-0.2,0-0.2,0c-0.1,0-0.1-0.1-0.2-0.1
				c0-0.1-0.1-0.1-0.1-0.2C254,86.5,254,86.4,254,86.3z M254.2,86.3c0,0.1,0,0.1,0,0.2s0,0.1,0.1,0.2l0.1,0.1c0,0,0.1,0,0.2,0
				c0.1,0,0.2,0,0.3-0.1s0.1-0.2,0.1-0.4c0-0.1,0-0.1,0-0.2s0-0.1-0.1-0.2l-0.1-0.1c0,0-0.1,0-0.2,0c-0.1,0-0.2,0-0.3,0.1
				S254.2,86.1,254.2,86.3z"/>
			<path class="st4" d="M255.5,85.7c0,0,0.1,0,0.2,0c0.1,0,0.1,0,0.2,0c0.1,0,0.1,0,0.2,0s0.1,0,0.2,0.1l0.1,0.1c0,0.1,0,0.1,0,0.2
				s0,0.1,0,0.2s-0.1,0.1-0.1,0.1s-0.1,0.1-0.2,0.1s-0.1,0-0.2,0l0,0l0,0l0,0l0,0V87h-0.2v-1.3H255.5z M255.8,85.8L255.8,85.8
				c-0.1,0-0.1,0-0.2,0v0.5l0,0l0,0l0,0l0,0h0.1h0.1l0.1-0.1v-0.1c0-0.1,0-0.1,0-0.1s0-0.1-0.1-0.1h-0.1
				C255.9,85.8,255.9,85.8,255.8,85.8z"/>
			<path class="st4" d="M256.7,86.3c0-0.2,0-0.4,0.1-0.5s0.2-0.2,0.4-0.2c0.1,0,0.2,0,0.2,0c0.1,0,0.1,0.1,0.2,0.1
				c0,0.1,0.1,0.1,0.1,0.2s0,0.2,0,0.3c0,0.2,0,0.4-0.1,0.5s-0.2,0.2-0.4,0.2c-0.1,0-0.2,0-0.2,0c-0.1,0-0.1-0.1-0.2-0.1
				c0-0.1-0.1-0.1-0.1-0.2C256.7,86.5,256.7,86.4,256.7,86.3z M256.8,86.3c0,0.1,0,0.1,0,0.2s0,0.1,0.1,0.2l0.1,0.1c0,0,0.1,0,0.2,0
				s0.2,0,0.3-0.1c0.1-0.1,0.1-0.2,0.1-0.4c0-0.1,0-0.1,0-0.2s0-0.1-0.1-0.2l-0.1-0.1c0,0-0.1,0-0.2,0s-0.2,0-0.3,0.1
				C256.9,86,256.8,86.1,256.8,86.3z"/>
			<path class="st4" d="M259.1,87.2H259V87h-0.9v0.2H258v-0.4h0.1c0,0,0,0,0-0.1c0,0,0-0.1,0.1-0.2c0-0.1,0-0.2,0.1-0.4
				c0-0.1,0-0.3,0-0.5h0.7v1.2h0.2v0.4H259.1z M258.8,86.8v-1h-0.4c0,0.1,0,0.3,0,0.4s0,0.2,0,0.3c0,0.1,0,0.2,0,0.2
				c0,0.1,0,0.1-0.1,0.2L258.8,86.8L258.8,86.8z"/>
			<path class="st4" d="M260.2,86.6h-0.5l-0.1,0.4h-0.2l0.5-1.3h0.1l0.5,1.3h-0.2L260.2,86.6z M259.7,86.4h0.4L260,86v-0.2l0,0V86
				L259.7,86.4z"/>
			<path class="st4" d="M262.4,86.1v-0.2l0,0V86.1l-0.4,0.6l0,0l-0.4-0.6l-0.1-0.2l0,0v0.2V87h-0.1v-1.3h0.1l0.4,0.7l0.1,0.1l0,0
				l0.1-0.1l0.4-0.7h0.1V87h-0.2V86.1z"/>
			<path class="st4" d="M263,86.3c0-0.2,0-0.4,0.1-0.5s0.2-0.2,0.4-0.2c0.1,0,0.2,0,0.2,0c0.1,0,0.1,0.1,0.2,0.1
				c0,0.1,0.1,0.1,0.1,0.2s0,0.2,0,0.3c0,0.2,0,0.4-0.1,0.5s-0.2,0.2-0.4,0.2c-0.1,0-0.2,0-0.2,0c-0.1,0-0.1-0.1-0.2-0.1
				c0-0.1-0.1-0.1-0.1-0.2C263,86.5,263,86.4,263,86.3z M263.2,86.3c0,0.1,0,0.1,0,0.2s0,0.1,0.1,0.2l0.1,0.1c0,0,0.1,0,0.2,0
				s0.2,0,0.3-0.1c0.1-0.1,0.1-0.2,0.1-0.4c0-0.1,0-0.1,0-0.2s0-0.1-0.1-0.2l-0.1-0.1c0,0-0.1,0-0.2,0s-0.2,0-0.3,0.1
				C263.2,86,263.2,86.1,263.2,86.3z"/>
			<path class="st4" d="M265.4,86.9c0,0-0.1,0-0.1,0.1c-0.1,0-0.1,0-0.2,0s-0.2,0-0.2,0c-0.1,0-0.1-0.1-0.2-0.1
				c-0.1-0.1-0.1-0.1-0.1-0.2s0-0.2,0-0.3c0-0.1,0-0.2,0-0.3c0-0.1,0.1-0.2,0.1-0.2c0.1-0.1,0.1-0.1,0.2-0.1s0.1,0,0.2,0
				s0.1,0,0.2,0h0.1v0.1c-0.1,0-0.1,0-0.3,0c-0.1,0-0.1,0-0.2,0c0,0-0.1,0-0.1,0.1c0,0-0.1,0.1-0.1,0.2s0,0.2,0,0.3
				c0,0.1,0,0.2,0,0.2c0,0.1,0.1,0.1,0.1,0.2l0.1,0.1c0.1,0,0.1,0,0.2,0s0.1,0,0.1,0L265.4,86.9L265.4,86.9z"/>
			<path class="st4" d="M266,86.3L266,86.3l-0.1,0.6h-0.2v-1.3h0.2L266,86.3L266,86.3l0.4-0.7h0.2l-0.4,0.6L266,86.3h0.2l0.5,0.6
				h-0.2L266,86.3z"/>
			<path class="st4" d="M267.9,85.9C267.9,86,267.9,86,267.9,85.9c0,0.1,0,0.2-0.1,0.2c0,0,0,0.1-0.1,0.1h-0.1l0,0h0.1
				c0,0,0.1,0,0.1,0.1c0,0,0,0.1,0.1,0.1v0.1c0,0.1,0,0.1,0,0.2l-0.1,0.1c0,0-0.1,0.1-0.2,0.1s-0.1,0-0.2,0c0,0,0,0-0.1,0h-0.1h-0.1
				H267v-1.3c0,0,0.1,0,0.2,0s0.1,0,0.2,0h0.1c0.1,0,0.1,0,0.1,0l0.1,0.1C267.9,85.8,267.9,85.9,267.9,85.9z M267.3,86.2
				C267.4,86.2,267.4,86.2,267.3,86.2c0.1,0,0.1,0,0.2,0h0.1c0,0,0,0,0.1-0.1c0,0,0,0,0-0.1v-0.1v-0.1c0,0,0,0-0.1-0.1h-0.1h-0.1
				h-0.1h-0.1L267.3,86.2L267.3,86.2z M267.4,86.8h0.1h0.1c0,0,0.1,0,0.1-0.1v-0.1c0-0.1,0-0.1,0-0.1s0-0.1-0.1-0.1h-0.1h-0.1h-0.2
				v0.5l0,0c0,0,0,0,0.1,0C267.3,86.8,267.4,86.8,267.4,86.8L267.4,86.8z"/>
			<path class="st4" d="M268.4,85.6h0.2v0.5l0,0l0,0l0,0l0,0c0.1,0,0.1,0,0.2,0s0.1,0,0.1,0.1l0.1,0.1c0,0,0,0.1,0,0.2s0,0.1,0,0.2
				s-0.1,0.1-0.1,0.1s-0.1,0.1-0.2,0.1s-0.1,0-0.2,0c0,0,0,0-0.1,0c0,0,0,0-0.1,0h-0.1h-0.1v-1.3H268.4z M268.6,86.8
				c0.1,0,0.2,0,0.2-0.1c0.1,0,0.1-0.1,0.1-0.2s0-0.1,0-0.1s0-0.1-0.1-0.1h-0.1h-0.1c0,0,0,0-0.1,0c0,0,0,0-0.1,0v0.5
				C268.5,86.8,268.6,86.8,268.6,86.8z M269.3,85.6h0.2v1.3h-0.2V85.6z"/>
		</g>
	</g>
	<g>
		<g>
			<path class="st6" d="M261.3,68.6c-0.2-0.2-1.2-2.3-6.2-1.9V66v9.4c0,0,0.1,2,2,2c1.9,0,3.3-0.1,4.2,0.9c0,0,0.9-0.9,2.1-0.9
				c1.1,0,2.2,0,2.2,0s2-0.1,2-2.2c0-0.7,0-2.2,0-3.7c0-2.6,0-5.5,0-5.5v0.7C262.5,66.3,261.5,68.4,261.3,68.6z"/>
			<path class="st7" d="M267.6,69v-5.6c-5-0.4-6.1,3-6.2,3.2c-0.2-0.2-1.2-3.5-6.2-3.2V69"/>
			<path class="st4" d="M267.6,69.1v-4.9c-5-0.4-6.1,3-6.2,3.2c-0.2-0.2-1.2-3.6-6.2-3.2v4.9"/>
			<path class="st8" d="M267.6,69.3v-4.1c-5-0.4-6.1,2.7-6.2,2.9c-0.2-0.2-1.2-3.3-6.2-2.9v4.1"/>
			<path class="st4" d="M267.6,69v-2.9c-5-0.4-6.1,2-6.2,2.2c-0.2-0.2-1.2-2.6-6.2-2.2V69"/>
			<path class="st6" d="M267.6,70v-3.1c-5-0.4-6.1,1.4-6.2,1.6c-0.2-0.2-1.2-2-6.2-1.6V70"/>
		</g>
		<path class="st4" d="M262.5,69.8L262.5,69.8L262.5,69.8L262.5,69.8z M260.4,69.4L260.4,69.4L260.4,69.4L260.4,69.4L260.4,69.4
			L260.4,69.4h0.2h0.1l0,0h0.1h0.1h0.1h0.1l0,0l0,0l0,0l0,0h0.1h0.1h0.1h0.1l0,0h-0.1h-0.1l0,0l0,0l0,0l0,0l0,0h0.1h0.1h0.1l0,0l0,0
			l0,0l0,0h-0.1h-0.1l0,0h-0.1l0,0l0,0h-0.1l0,0l0,0h0.1h0.1l0,0h-0.1h0.1l0,0h0.1h0.1l0,0h0.1h0.1h0.1l0,0l0,0h0.1h0.1l0,0h0.1h0.1
			h0.1h-0.1l0,0l0,0l0,0l0,0h-0.1l0,0l0,0l0,0l0,0h0.1h0.1h0.1h0.1h0.1h0.1h0.1h0.1h0.1h0.1h0.1l0,0l0,0h0.1l0,0l0,0h0.1h0.1h0.1
			h-0.1h0.1l0,0l0,0l0,0l0,0l0,0h-0.1l0,0h-0.1l0,0l0,0h-0.1h-0.1l0,0h-0.1h-0.1H263h-0.1h-0.1h-0.1h-0.1h-0.1h-0.1h-0.1h-0.1h-0.1
			H262h-0.1h-0.1h-0.1h-0.1h-0.1h-0.1h-0.1h-0.1h-0.1H261h-0.1l0,0l0,0l0,0h-0.1l0,0l0,0l0,0h-0.1l0,0h-0.1h-0.1H260.4h-0.1l0,0l0,0
			H260.4L260.4,69.4L260.4,69.4L260.4,69.4h-0.1H260.4L260.4,69.4z M260.8,69.3L260.8,69.3L260.8,69.3L260.8,69.3z M261.4,69.2
			L261.4,69.2L261.4,69.2L261.4,69.2L261.4,69.2L261.4,69.2L261.4,69.2L261.4,69.2L261.4,69.2z M261,69.2L261,69.2L261,69.2
			L261,69.2h0.1l0,0H261h0.1H261L261,69.2L261,69.2L261,69.2L261,69.2z M263.8,73L263.8,73L263.8,73L263.8,73L263.8,73l-0.1,0.1v0.1
			l0,0l0,0l0,0l0,0l0,0h-0.1v0.1l0,0l0,0l0,0l0,0l0,0l0,0l0,0l0,0l0,0l0,0v0.1l0,0l0,0l0,0l0,0l0,0l0,0l0,0
			C263.4,73.6,263.7,73.4,263.8,73L263.8,73L263.8,73L263.8,73L263.8,73z M260.7,73.8L260.7,73.8L260.7,73.8l-0.1,0.1h-0.1V74v0.1
			l0,0v0.1l0,0l0,0h0.1h0.1l0,0l0,0l0,0l0,0v-0.1l0,0V73.8L260.7,73.8z M263.9,72.8L263.9,72.8L263.9,72.8l-0.1,0.2l0,0l0,0l0,0
			C263.9,72.9,263.9,72.9,263.9,72.8L263.9,72.8L263.9,72.8L263.9,72.8L263.9,72.8L263.9,72.8z M263.1,73.4L263.1,73.4L263.1,73.4
			L263.1,73.4l-0.1-0.1l0,0l0,0l0,0v-0.1l0,0l0,0l0,0l0,0v-0.1V73l0,0l0,0h0.1h0.1l0,0v-0.1l0,0v-0.1l0,0l0,0l0,0h-0.1H263v-0.1l0,0
			v-0.1h0.1l0,0l0,0l0,0l0,0v-0.1l0,0v-0.1v-0.1v-0.1v-0.1V72v-0.1l0,0l0,0l0,0l0,0l0,0l0,0H263h-0.1v-0.1l0,0l0,0l0,0l0,0v0.1l0,0
			l0.1-0.1v-0.1l0,0l0,0l0,0l0,0v-0.1v-0.1v-0.1l0,0v-0.1v-0.1v-0.1V71l0,0l0,0l0,0l0,0l0,0l0,0l0,0l0,0l0,0l0,0l0,0l0,0l0,0l0,0
			l0,0v0.1h-0.1l0,0l0,0l0,0V71v-0.1v-0.1v-0.1v-0.1l0,0l0,0l0,0v-0.1v-0.1l0,0l0,0l0,0l0,0l0,0l0,0h0.1h0.1l0,0l0,0l-0.1-0.1l0,0
			l0,0l0,0l0,0l0,0l0,0l0,0l0,0l0,0l0,0h-0.1h-0.1l0,0l0,0l0,0v0.1v0.1l0,0l0,0v0.1l0,0l0,0l0,0l0,0l0,0l0,0l0,0l0,0v0.1v0.1h-0.1
			h-0.1l0,0l0,0l0,0l0,0l0,0l0,0l0,0l0,0l0,0l0,0v0.1h-0.1h-0.1V71h-0.1l0,0l0,0l0,0l0,0h-0.1h-0.1H262l0,0l0,0v-0.1v-0.1v0.1V71
			v0.1h-0.1l0,0l0,0l0,0h-0.1h-0.1h-0.1h-0.1h-0.1h-0.1v0.1l0,0l0,0l0,0h-0.1l0,0v-0.1l0,0h0.1h0.1h0.1V71l0,0l0,0l0,0l0,0v-0.1l0,0
			h-0.1l0,0l0,0l0,0h-0.1h-0.1h-0.1H261h-0.1h-0.1l0,0l0,0V71v0.1l0,0l0,0l0,0l0,0h0.1h0.1l0,0l0,0l0,0V71l0,0h0.1h0.1h0.1l0,0l0,0
			l0,0v0.1l0,0l0,0l0,0l0,0l0,0l0,0h-0.1h-0.1l0,0l0,0l0,0l0,0V71v-0.1l0,0l0,0l0,0l0,0l0,0l0,0H261l0,0h-0.1l0,0l0,0V71v0.1l0,0
			l0,0h-0.1V71l0,0l0,0l0,0l0,0l0,0v0.1v0.1l0,0l0,0l0,0l0,0l0,0h0.1l0,0l0,0l0,0v0.1v0.1v0.1l0,0v0.1l0,0v0.1l0,0l0,0l0,0v-0.1l0,0
			l0,0v-0.1v-0.1l0,0v0.1v0.1v0.1l0,0v0.1l0,0v0.1V72l0,0l0,0l0,0v-0.1l0,0v-0.1v-0.1l0,0l0,0h0.1l0,0v0.1v0.1V72l0,0l0,0l0,0l0,0
			h0.1v0.1v0.1H261l0,0l0,0h-0.1h-0.1l0,0l0,0l0,0l0,0l0,0l0,0l-0.1,0.1l0,0l0,0l0,0v-0.1l0,0v-0.1V72v-0.1v-0.1l0,0l0,0l0,0l0,0
			h-0.1l0,0v-0.1h-0.1h-0.1l0,0l0,0h-0.1l0,0v0.1v0.1V72v0.1v0.1v0.1v0.1v0.1v0.1v0.1v0.1v0.1V73v0.1v0.1v0.1v0.1v0.1l0,0v0.1l0,0
			h0.1l0,0l0,0l0,0l0,0l0,0v0.1v0.1v0.1V74v0.1v0.1l0,0v0.1l0,0l0,0l0,0l0,0l0,0l0,0v0.1v0.1l0,0l0,0l0,0l0,0l0,0l0,0l0,0l0,0l0,0
			l0,0c0.1,0.1,0.2,0.1,0.3,0.2l0,0l0,0l0,0l0,0h0.1v-0.1l0,0l0,0l0,0l0,0l0,0h0.1l0,0v-0.1v-0.1v-0.1v-0.1v-0.1V74l0,0h0.1h0.1l0,0
			l0,0h0.1h0.1l0,0v-0.1v-0.1l0,0l0,0v-0.1l0,0l0,0h-0.1h-0.1H261h-0.1l0,0l0,0h0.1h0.1h0.1h0.1h0.1h0.1h0.1l0,0h0.1l0,0l0,0l0,0
			l0,0l0,0l0,0l0,0l0,0l0,0v-0.1h0.1l0,0h0.1l0,0l0,0h0.1h0.1h0.1l0,0l0,0l0,0l0,0l0,0l0,0l0,0l0,0l0,0v0.1v0.1v0.1l0,0l0,0V74l0,0
			l0,0l0,0l0,0l0,0l0,0l0,0l0,0l0,0v-0.1v-0.1v-0.1l0,0l0,0l0,0h0.1v-0.1h0.1v-0.1h0.1h0.1h0.1l0,0l0,0l0,0l0,0h0.1h0.1l0,0v0.1v0.1
			v0.1v0.1V74l0,0v0.1v0.1l0,0l0,0l0,0h-0.1l0,0h0.1h0.1l0,0h0.1l0,0l0,0l0,0L263.1,73.4L263.1,73.4z M260,73.3L260,73.3L260,73.3
			L260,73.3L260,73.3L260,73.3z M260.3,72.8L260.3,72.8l-0.1-0.1l0,0l0,0v-0.1l0,0l0,0l0,0l0,0l0,0l0,0v-0.1l0,0l0,0l0,0l0,0v0.1
			v0.1v0.1l0,0l0,0l0,0l0,0v0.1L260.3,72.8L260.3,72.8L260.3,72.8L260.3,72.8z M260.5,71.6L260.5,71.6h-0.1h-0.1l0,0h-0.1h-0.1H260
			h-0.1l0,0l0,0l0,0l0,0l0,0l0,0l0,0l0,0l0,0l0,0h0.1h-0.1l0,0h0.1l0,0l0,0l0,0l0,0H260.5L260.5,71.6L260.5,71.6z M260.8,71.5
			L260.8,71.5L260.8,71.5h0.1l0,0l0,0H260.8L260.8,71.5L260.8,71.5l0.1,0.1l0,0v0.1v0.1v0.1l0,0h-0.1v-0.1v-0.1l0,0V71.5L260.8,71.5
			L260.8,71.5L260.8,71.5z M260.9,72.4L260.9,72.4L260.9,72.4l-0.1-0.1l0,0l0,0l0,0l0,0l0,0l0,0l0,0l0,0l0,0L260.9,72.4L260.9,72.4
			L260.9,72.4L260.9,72.4z M263.8,73L263.8,73L263.8,73L263.8,73z M261,69.2L261,69.2L261,69.2L261,69.2z M262.4,69.9L262.4,69.9
			L262.4,69.9L262.4,69.9L262.4,69.9z M259.5,71.2L259.5,71.2L259.5,71.2L259.5,71.2L259.5,71.2L259.5,71.2z M259.9,71.7L259.9,71.7
			L259.9,71.7L259.9,71.7z M261,69.2L261,69.2L261,69.2L261,69.2z M259.6,71.4L259.6,71.4L259.6,71.4L259.6,71.4L259.6,71.4
			L259.6,71.4L259.6,71.4L259.6,71.4z M259.6,71.1L259.6,71.1L259.6,71.1L259.6,71.1z M263.8,72.8L263.8,72.8L263.8,72.8L263.8,72.8
			L263.8,72.8z M263.6,71.3L263.6,71.3L263.6,71.3L263.6,71.3L263.6,71.3z M263.6,72.3L263.6,72.3h0.1H263.6l0.1-0.1l0,0l0,0l0,0
			v0.1H263.6L263.6,72.3z M263.6,72.5L263.6,72.5L263.6,72.5L263.6,72.5L263.6,72.5z M263.7,72.4L263.7,72.4L263.7,72.4L263.7,72.4
			L263.7,72.4z M263.6,71L263.6,71L263.6,71v0.2v0.1v0.1v0.1h0.1l0,0v-0.1v-0.1l0,0L263.6,71L263.6,71L263.6,71L263.6,71L263.6,71
			L263.6,71L263.6,71L263.6,71z M263.3,73.3L263.3,73.3h-0.1l0,0l0,0H263.3L263.3,73.3L263.3,73.3L263.3,73.3h0.1H263.3L263.3,73.3z
			 M263.2,72.3L263.2,72.3L263.2,72.3L263.2,72.3L263.2,72.3L263.2,72.3z M263.5,71.9L263.5,71.9L263.5,71.9L263.5,71.9L263.5,71.9
			L263.5,71.9L263.5,71.9z M262.1,73.1L262.1,73.1L262.1,73.1L262.1,73.1L262.1,73.1L262.1,73.1l0.1,0.1L262.1,73.1L262.1,73.1
			L262.1,73.1z M263.5,70.8L263.5,70.8L263.5,70.8L263.5,70.8L263.5,70.8L263.5,70.8L263.5,70.8L263.5,70.8L263.5,70.8z M264,72.5
			L264,72.5l-0.1,0.1v0.1l0,0l0,0l0,0l0,0h0.1l0,0l0,0V72.5L264,72.5L264,72.5C264,72.6,264,72.5,264,72.5L264,72.5L264,72.5
			L264,72.5z M263.7,72.5L263.7,72.5L263.7,72.5L263.7,72.5l0.1-0.1l0,0L263.7,72.5L263.7,72.5L263.7,72.5L263.7,72.5z M263.6,73.2
			L263.6,73.2L263.6,73.2L263.6,73.2L263.6,73.2L263.6,73.2L263.6,73.2z M261.9,70.1L261.9,70.1L261.9,70.1L261.9,70.1z M263.5,73.1
			L263.5,73.1L263.5,73.1l0.1-0.1l0,0v-0.1v-0.1l0,0l0,0l0,0l0,0v0.1l0,0l0,0V73l0,0l0,0l0,0l0,0l0,0l0,0h0.1L263.5,73.1L263.5,73.1
			L263.5,73.1z M260.8,70L260.8,70L260.8,70L260.8,70h-0.1l0,0H260.8L260.8,70L260.8,70L260.8,70L260.8,70L260.8,70z M260.1,69.6
			L260.1,69.6L260.1,69.6l-0.1,0.1h-0.1v0.1l0,0l0,0l0,0l0,0h0.1l0,0l0,0h0.1l0,0l0,0l0,0l0,0h0.1l0,0l0,0l0,0h0.1h0.1l0,0l0,0l0,0
			h0.1v-0.1l0.1-0.1l0,0l0,0v-0.1l0,0l0,0l0,0l0,0h-0.1h-0.1l0,0l0,0l0,0l0,0l0,0h-0.1l0,0h-0.1l0,0l0,0l0,0l0,0L260.1,69.6
			L260.1,69.6L260.1,69.6z M259.9,70L259.9,70L259.9,70L259.9,70L259.9,70L259.9,70L259.9,70L259.9,70z M261.6,69.2L261.6,69.2h-0.1
			H261.6L261.6,69.2z M261.3,70.3L261.3,70.3L261.3,70.3h0.1l0,0H261.3L261.3,70.3L261.3,70.3L261.3,70.3h-0.1v0.1v0.1l0,0l0,0l0,0
			L261.3,70.3L261.3,70.3L261.3,70.3z M261.9,70L261.9,70L261.9,70L261.9,70L261.9,70L261.9,70L261.9,70z M263.8,72.7L263.8,72.7
			L263.8,72.7L263.8,72.7L263.8,72.7z M259.9,69.6L259.9,69.6l0.1-0.1h0.1h0.1l0,0h-0.1l0,0C260,69.5,259.9,69.6,259.9,69.6
			L259.9,69.6L259.9,69.6z M263.7,72.8L263.7,72.8L263.7,72.8l-0.1,0.1V73v0.1l0,0l0,0l0,0V73v-0.1L263.7,72.8L263.7,72.8
			L263.7,72.8L263.7,72.8L263.7,72.8z M259.6,70.5L259.6,70.5L259.6,70.5l0.1-0.1l0,0L259.6,70.5L259.6,70.5L259.6,70.5L259.6,70.5
			L259.6,70.5z M263.6,73.2L263.6,73.2l0.1-0.1L263.6,73.2L263.6,73.2z M259.7,70.5L259.7,70.5L259.7,70.5l-0.1,0.1l0,0L259.7,70.5
			l0.1,0.1v-0.1H259.7L259.7,70.5l0.1-0.1l0,0v-0.1l0,0l0,0L259.7,70.5L259.7,70.5L259.7,70.5z M259.7,69.8L259.7,69.8L259.7,69.8
			L259.7,69.8L259.7,69.8L259.7,69.8z"/>
		<g>
			<path class="st4" d="M259.2,76.4c0,0-2-1.1-1.8-2.8c0,0-0.2,0.5,0.1,1.1c0,0-1-0.4-0.1-1.8c0,0,1.1,0.7,0.3,1.8
				c0,0,0.2,0.5,0.9,0.9c0.7,0.4,0.9,0.6,0.9,0.6S259.4,76.4,259.2,76.4z"/>
			<path class="st4" d="M257.7,75.2c0,0-0.8,1-2,0.2c0,0,0.9-0.9,1.9-0.4c0,0-0.6,0-0.9,0.2C256.7,75.2,257.2,75,257.7,75.2z"/>
			<path class="st4" d="M258.2,75.2c0,0-0.3-0.7,0.5-1C258.7,74.1,258.8,75.1,258.2,75.2z"/>
		</g>
		<g>
			<path class="st4" d="M265,71.5c-0.1-0.9-0.4-1.7-1.1-2.3c-0.3-0.3-0.7-0.6-1.2-0.8c0,0.1-0.1,0.3-0.1,0.3c0.1,0.1,0,0.2,0,0.2
				s-0.1,0-0.2,0c-1.1-0.4-2.2-0.2-3,0.6c-0.9,0.8-1.2,1.8-0.9,3c0.2,0.8,0.7,1.4,1.4,1.8c0.1,0,0.1,0.1,0.2,0.1
				c0,0.1-0.1,0.2-0.1,0.2c-0.2,0-0.1,0.2-0.3,0.3c0.5,0.2,1,0.4,1.5,0.4c0,0.1,0,0.3,0,0.4c0.1,0,0.3,0,0.4,0c0-0.1,0-0.3,0-0.4
				C263.6,75.3,265.1,73.5,265,71.5z M259.5,73.9L259.5,73.9C259.5,73.8,259.5,73.8,259.5,73.9c-0.5-0.5-0.9-1.2-0.9-2
				c0-1.5,1.2-2.8,2.8-2.8c1.5,0,2.8,1.2,2.8,2.8c0,1.5-1.1,2.7-2.6,2.8c0,0,0,0-0.1,0c0,0,0,0-0.1,0c-0.2,0-0.3,0-0.5,0l0,0
				c-0.2,0-0.3-0.1-0.5-0.1c-0.1,0-0.2,0-0.2-0.1l0,0c-0.1,0-0.2-0.1-0.3-0.1c-0.1,0-0.1-0.1-0.1-0.1
				C259.7,74.1,259.6,74,259.5,73.9z M264.3,73.2c-0.9,1.8-2.9,2.2-4.2,1.6c0-0.1,0.1-0.1,0.1-0.2c1,0.4,1.9,0.3,2.8-0.2
				c0.6-0.4,1-0.9,1.2-1.5c0.5-1.2,0.1-2.9-1.5-3.7c0-0.1,0.1-0.1,0.1-0.2C264.2,69.6,265.2,71.4,264.3,73.2z"/>
			<path class="st4" d="M262.5,76.1c-0.7,0-1.4,0-2.1,0c-0.4,0-0.7,0.3-0.7,0.7c1.2,0,2.3,0,3.5,0C263.1,76.4,262.8,76.1,262.5,76.1
				z"/>
			<path class="st4" d="M262.2,76c-0.1,0-0.2-0.1-0.2-0.1c-0.4,0-0.8,0-1.1,0c-0.1,0-0.2,0.1-0.3,0.1c0,0,0,0,0,0.1
				C261.1,76,261.7,76,262.2,76L262.2,76z"/>
		</g>
	</g>
</g>
<g>
	<g>
		<path class="st4" d="M266,128.9l-0.2,0.2l-0.3-0.3l-0.3,0.3l0.2,0.2l0.2,0.2l-0.2,0.2l-0.8-0.8l0.2-0.2l0.1,0.2l0.1,0.2l0.3-0.3
			l-0.3-0.3l0.2-0.2L266,128.9z M267,127.7l-0.2-0.1l-0.2,0.3l0.2,0.2l-0.2,0.3l-0.8-0.9l0.2-0.3l1.2,0.3L267,127.7z M263.8,118.2
			l0.7-0.9l0.3,0.2l-0.3,0.3l0.2,0.1l0.1,0.1l0.1,0.1v0.1c0,0,0,0.1-0.1,0.1l-0.1,0.1h-0.1h-0.1c0,0-0.1,0-0.1-0.1L263.8,118.2z
			 M264.4,118.1l-0.1-0.1l-0.2,0.2l0.1,0.1h0.1C264.3,118.3,264.4,118.3,264.4,118.1C264.5,118.3,264.5,118.3,264.4,118.1
			C264.5,118.2,264.5,118.2,264.4,118.1 M264.4,120.1v2.3l-0.9,0.9V121L264.4,120.1z M262.1,120h2.2l-0.9,0.9h-1.3L262.1,120
			L262.1,120z M261,124h1.1v1.3H261V124z M260.3,121l-2.4,2.4H257V123l3.1-3h0.3v1H260.3z M258.2,120.9V120h1.7l-0.9,0.9l0,0H258.2z
			 M258,123.4l1-1h1.3v1H258z M257.9,127.4h-1v-0.9h1V127.4z M257,120h1.1v1.3H257V120z M257,124.9V124h1.9l-0.8,0.8L257,124.9
			L257,124.9z M260.3,126.6v0.9h-1.9l0.9-0.9l0,0H260.3z M258,125l0.9-0.9h0.2v2.4l-1,1H258V125z M262.1,122.5h1.3v1h-2.3
			L262.1,122.5z M262,122.3l-1,1V121l1-1V122.3z M262.2,124.9V124h1.7l-0.9,0.9H262.2z M264.4,125l-2.4,2.4h-1v-0.3l3.1-3h0.3V125z
			 M264,129.8c0,0,0-0.1-0.1-0.1s-0.1-0.1-0.1-0.1h-0.1h-0.1c0,0-0.1,0-0.1,0.1v0.1v0.1c0,0,0,0.1,0.1,0.1l0.1,0.1l0.1,0.1h0.1h0.1
			c0,0,0.1,0,0.1-0.1V130v-0.1C264,129.8,264,129.8,264,129.8 M264.3,129.6c0,0.1,0.1,0.1,0.1,0.2c0,0.1,0,0.1,0,0.2
			c0,0.1,0,0.1-0.1,0.2c0,0.1-0.1,0.1-0.2,0.2c-0.1,0-0.2,0.1-0.2,0.1c-0.1,0-0.1,0-0.2,0s-0.1-0.1-0.2-0.1
			c-0.1-0.1-0.1-0.1-0.1-0.2c0-0.1-0.1-0.1-0.1-0.2c0-0.1,0-0.1,0-0.2c0-0.1,0-0.1,0.1-0.2c0-0.1,0.1-0.1,0.2-0.2
			c0.1,0,0.2-0.1,0.2-0.1c0.1,0,0.1,0,0.2,0s0.1,0.1,0.2,0.1C264.2,129.5,264.2,129.5,264.3,129.6 M262.8,116.9L262.8,116.9
			l-0.1,0.3c0,0.1,0,0.1-0.1,0.1l-0.1,0.1l-0.1,0.1l0.3,0.1L262.8,116.9L262.8,116.9z M262.9,117.9l-0.7-0.2l-0.1,0.3l-0.2-0.1
			l0.2-0.5h0.1l0.1-0.1l0.1-0.1c0,0,0.1-0.1,0.1-0.2l0.1-0.2l0.1-0.2l0.8,0.3l-0.3,0.9h0.1l-0.2,0.5l-0.2-0.1V117.9z M262.2,129.8
			l0.3-0.1l0.3,1.1l-0.3,0.1l-0.2-0.6l0,0l-0.1,0.5L262,131l-0.3,0.1l-0.3-1.1l0.3-0.1l0.1,0.3l0.1,0.3l0,0v-0.1v-0.1L262.2,129.8z
			 M261,117L261,117v-0.2c0,0,0-0.1-0.1-0.1h-0.1h-0.1c0,0-0.1,0-0.1,0.1v0.1v0.1c0,0.1,0,0.1,0,0.1v0.1c0,0,0,0.1,0.1,0.1h0.1h0.1
			c0,0,0.1,0,0.1-0.1V117L261,117 M261.4,117c0,0.1,0,0.2,0,0.2c0,0.1-0.1,0.1-0.1,0.2c0,0-0.1,0.1-0.2,0.1s-0.2,0-0.2,0
			c-0.1,0-0.2,0-0.2-0.1c-0.1,0-0.1-0.1-0.2-0.1c0-0.1-0.1-0.1-0.1-0.2s0-0.2,0-0.2c0-0.1,0-0.2,0-0.2c0-0.1,0.1-0.1,0.1-0.2
			c0,0,0.1-0.1,0.2-0.1s0.2,0,0.3,0c0.1,0,0.2,0,0.2,0.1c0.1,0,0.1,0.1,0.2,0.1c0,0.1,0.1,0.1,0.1,0.2
			C261.4,116.8,261.4,116.9,261.4,117 M260.6,130c0.1,0,0.1,0,0.2,0s0.1,0,0.2,0v0.2h-0.1h-0.1h-0.1c0,0-0.1,0-0.1,0.1
			c0,0,0,0.1-0.1,0.1c0,0,0,0.1,0,0.2c0,0.1,0,0.1,0,0.2c0,0,0,0.1,0.1,0.1c0,0,0.1,0,0.1,0.1h0.1c0,0,0,0,0.1,0h0.1h0.1
			c0,0,0,0,0.1,0v0.2c-0.1,0-0.1,0-0.2,0s-0.1,0-0.2,0s-0.2,0-0.3,0c-0.1,0-0.1-0.1-0.2-0.1c0-0.1-0.1-0.1-0.1-0.2
			c0-0.1,0-0.1,0-0.2c0-0.1,0-0.1,0-0.2c0-0.1,0-0.1,0.1-0.2c0-0.1,0.1-0.1,0.2-0.1C260.3,130,260.4,130,260.6,130 M259.1,129.8
			c0.1,0,0.1,0,0.2,0c0,0,0.1,0,0.1,0.1l-0.1,0.2h-0.1h-0.1H259h-0.1c0,0-0.1,0-0.1,0.1c0,0,0,0.1-0.1,0.1c0,0.1,0,0.1,0,0.2v0.1
			c0,0,0,0.1,0.1,0.1h0.1l0,0h0.1h0.1c0,0,0,0,0.1,0v0.2c-0.1,0-0.1,0-0.2,0s-0.1,0-0.2,0s-0.2-0.1-0.3-0.1c-0.1,0-0.1-0.1-0.1-0.2
			c0-0.1,0-0.1,0-0.2c0-0.1,0-0.1,0-0.2c0-0.1,0-0.1,0.1-0.2c0-0.1,0.1-0.1,0.1-0.2c0.1,0,0.1-0.1,0.2-0.1
			C258.9,129.7,259,129.7,259.1,129.8 M259.5,117.7l-0.3,0.1l-0.2-0.9h-0.2v0.1c0,0.1,0,0.2,0.1,0.3c0,0.1,0,0.2,0,0.3
			c0,0.1,0,0.1-0.1,0.2c0,0.1-0.1,0.1-0.2,0.2l-0.1-0.2c0.1,0,0.1-0.1,0.1-0.1v-0.1c0,0,0-0.1,0-0.2v-0.2l-0.1-0.4l0.8-0.2
			L259.5,117.7z M257.6,130.4l-0.8-0.4l0.5-1l0.8,0.4l-0.1,0.2l-0.5-0.2l-0.1,0.2l0.4,0.2l-0.1,0.2l-0.4-0.2l-0.1,0.2l0.5,0.2
			L257.6,130.4z M257.3,117.9c0,0,0-0.1-0.1-0.1l-0.1-0.1H257h-0.1c0,0-0.1,0-0.1,0.1v0.1v0.1c0,0,0,0.1,0.1,0.1l0.1,0.1l0.1,0.1
			h0.1h0.1c0,0,0.1,0,0.1-0.1v-0.1V118C257.3,118,257.3,117.9,257.3,117.9 M257.6,117.7c0,0.1,0.1,0.1,0.1,0.2s0,0.1,0,0.2
			s0,0.1-0.1,0.2c0,0.1-0.1,0.1-0.2,0.2c-0.1,0-0.2,0.1-0.2,0.1c-0.1,0-0.1,0-0.2,0s-0.1-0.1-0.2-0.1c-0.1-0.1-0.1-0.1-0.1-0.2
			s-0.1-0.1-0.1-0.2s0-0.1,0-0.2s0-0.1,0.1-0.2c0-0.1,0.1-0.1,0.2-0.2c0.1,0,0.2-0.1,0.2-0.1c0.1,0,0.1,0,0.2,0s0.1,0.1,0.2,0.1
			C257.5,117.6,257.5,117.6,257.6,117.7 M256.3,128.6L256,129c0.1,0,0.1,0,0.2,0s0.1,0,0.2-0.1c0,0,0-0.1,0.1-0.1v-0.1
			C256.5,128.7,256.4,128.7,256.3,128.6L256.3,128.6 M255.7,128.7l0.3-0.4c-0.1,0-0.1-0.1-0.2,0c-0.1,0-0.1,0-0.2,0.1
			c0,0.1-0.1,0.1-0.1,0.2C255.6,128.6,255.7,128.7,255.7,128.7 M256.5,128.3L256.5,128.3c0,0.1,0.1,0.2,0.1,0.2
			c0,0.1,0.1,0.1,0.1,0.2c0,0.1,0,0.1,0,0.2s-0.1,0.1-0.1,0.2c0,0.1-0.1,0.1-0.2,0.1s-0.1,0-0.2,0s-0.1,0-0.2,0
			c-0.1,0-0.1-0.1-0.2-0.1l-0.1,0.1l-0.2-0.2l0.1-0.1c-0.1-0.1-0.1-0.1-0.1-0.2c0-0.1-0.1-0.1-0.1-0.2c0-0.1,0-0.1,0-0.2
			c0-0.1,0.1-0.1,0.1-0.2l0.1-0.1c0.1,0,0.1,0,0.2,0c0.1,0,0.1,0,0.2,0s0.1,0.1,0.2,0.1V128L256.5,128.3z M255.7,119.1L255.7,119.1
			l0.1,0.3l0.1,0.3l-0.2,0.2l-0.3-0.1l-0.2-0.1l0,0l0.5,0.4l-0.2,0.2l-0.8-0.8l0.3-0.3l0.4,0.2l0.3,0.1l0,0L255.7,119.1l-0.3-0.3
			l0.3-0.3l0.8,0.8l-0.2,0.2L255.7,119.1z M255,127.3l0.1-0.1l0.1-0.1V127v-0.1l-0.1-0.1H255h-0.1c0,0-0.1,0-0.1,0.1l-0.1,0.1
			l-0.1,0.1v0.1v0.1c0,0,0,0.1,0.1,0.1h0.1h0.1C254.9,127.4,254.9,127.4,255,127.3 M255.1,127.6c-0.1,0-0.1,0.1-0.2,0.1
			c-0.1,0-0.1,0-0.2,0c-0.1,0-0.1,0-0.2-0.1c-0.1,0-0.1-0.1-0.2-0.2c-0.1-0.1-0.1-0.2-0.1-0.2c0-0.1,0-0.1,0-0.2s0.1-0.1,0.1-0.2
			s0.1-0.1,0.2-0.2c0.1,0,0.1-0.1,0.2-0.1c0.1,0,0.1,0,0.2,0c0.1,0,0.1,0,0.2,0.1c0.1,0,0.1,0.1,0.2,0.2c0.1,0.1,0.1,0.2,0.1,0.2
			c0,0.1,0,0.1,0,0.2s-0.1,0.1-0.1,0.2S255.2,127.6,255.1,127.6 M254.5,125.5L254.5,125.5h-0.3v0.1c0,0,0,0.1,0.1,0.1h0.1
			C254.5,125.7,254.5,125.7,254.5,125.5C254.5,125.6,254.5,125.6,254.5,125.5 M254.5,126h-0.1h-0.1c0,0-0.1,0-0.1-0.1
			c0,0-0.1-0.1-0.1-0.2l-0.1-0.2l-0.4,0.1l-0.1-0.3l1.1-0.4l0.2,0.4c0,0.1,0,0.1,0,0.2s0,0.1,0,0.1s0,0.1-0.1,0.1
			C254.6,126,254.6,126,254.5,126 M253.4,124.5v-0.3l0.9-0.1v-0.4l-0.9,0.1v-0.3l1.1-0.1l0.1,1L253.4,124.5z M268.1,123.5v0.3H267
			v-0.3H268.1z M265.9,120.3l-0.5-0.7l0.9-0.7l0.5,0.7l-0.2,0.1l-0.3-0.4l-0.2,0.1l0.3,0.4l-0.2,0.1l-0.3-0.4l-0.2,0.1l0.3,0.4
			L265.9,120.3z M264.9,119.1l-0.3-0.2l0.7-0.9l0.3,0.2L264.9,119.1z M266.1,127.4L266.1,127.4l0.2,0.2l0.2,0.2l0.1-0.2l-0.2-0.1
			L266.1,127.4z M267.8,125.7l-0.1,0.3l-0.9-0.3l-0.1,0.2h0.1c0.1,0,0.2,0.1,0.3,0.1c0.1,0,0.2,0.1,0.2,0.1c0.1,0.1,0.1,0.1,0.1,0.2
			s0,0.2,0,0.3h-0.2c0-0.1,0-0.1,0-0.2c0,0,0-0.1-0.1-0.1l-0.1-0.1l-0.2-0.1l-0.3-0.1l0.2-0.8L267.8,125.7z M268.1,124.9H267v-0.3
			h0.4v-0.2c0-0.1,0-0.1,0-0.2s0-0.1,0.1-0.1l0.1-0.1c0,0,0.1,0,0.2,0s0.1,0,0.1,0s0.1,0,0.1,0.1l0.1,0.1c0,0,0,0.1,0,0.2
			L268.1,124.9z M267.6,124.4v0.2h0.3v-0.2v-0.1h-0.1C267.7,124.3,267.7,124.3,267.6,124.4L267.6,124.4"/>
	</g>
	<g>
		<path class="st4" d="M270,107.6c-0.2-0.1-0.4-0.1-0.6-0.1s-0.4,0.1-0.4,0.3c0,0.4,1.2,0.1,1.2,1c0,0.6-0.5,0.8-1.1,0.8
			c-0.3,0-0.5,0-0.8-0.1V109c0.2,0.1,0.4,0.2,0.7,0.2c0.2,0,0.4-0.1,0.4-0.3c0-0.5-1.2-0.2-1.2-1.1c0-0.5,0.5-0.8,1-0.8
			c0.3,0,0.5,0,0.7,0.1L270,107.6z"/>
		<path class="st4" d="M266,105c0,0-0.8-0.4-1.5-1c0,0,0.4,0.3,0.7,0.4c0,0,0.6,0.3,1.2,0.5c0,0-0.2-0.1-0.4-0.2
			c0,0-1.2-0.6-1.2-0.7c0,0,0.4,0.3,0.5,0.3l0.1,0.1c0,0,0,0-0.1-0.1c0,0-0.5-0.3-0.6-0.4c0,0-0.9-0.5-1.6-1.6c0,0-0.3,0-0.4,0.2
			c0,0-0.1,0.1-0.4,0.1c0,0,0.7,1,1.7,1.6c0,0,0.4,0.2,0.9,0.5c-0.5-0.2-0.8-0.4-1.2-0.6c-0.9-0.7-1.4-1.3-1.5-1.4l0,0l0,0l0,0
			c0,0,0.4,0.7,1.6,1.5c0.5,0.4,1.2,0.8,2.1,1.1l0,0l0,0c-0.8-0.3-1.5-0.7-2-1c0.3,0.2,0.7,0.4,1.1,0.6c0.3,0.1,0.6,0.3,0.9,0.4
			c0,0-0.1,0-0.2-0.2c0,0,0.1,0.1,0.2,0.1C266,105.1,265.9,105.1,266,105c-0.1,0,0.2,0.1,0.3,0.2C266.3,105.2,266.1,105.1,266,105
			 M262.3,102.7c0.1,0.2,0.5,0.7,1.3,1.3C262.7,103.4,262.4,102.9,262.3,102.7"/>
		<path class="st4" d="M264.3,100.1L264.3,100.1c-0.1-0.1-0.2-0.2-0.3-0.2c-1-0.7-1.8-0.9-2-0.9l0,0l0,0l0,0c0,0,1,0.3,2,1
			C264.1,100,264.2,100.1,264.3,100.1L264.3,100.1c-0.1-0.1-0.2-0.1-0.3-0.2c-0.9-0.6-1.7-0.9-1.9-1c0.3,0.1,1.1,0.3,2,0.9
			C264.1,100,264.2,100,264.3,100.1"/>
		<path class="st4" d="M270.1,100.6L270.1,100.6L270.1,100.6L270.1,100.6"/>
		<path class="st4" d="M271.2,102L271.2,102c0.1,0.2,0.1,0.5,0.2,0.7C271.4,102.5,271.3,102.3,271.2,102"/>
		<polyline class="st4" points="270.1,100.6 270.1,100.6 270.1,100.6 270.1,100.6 		"/>
		<path class="st4" d="M264.4,100.1L264.4,100.1C264.4,100.1,264.3,100.1,264.4,100.1C264.3,100.1,264.3,100.1,264.4,100.1
			C264.3,100.1,264.3,100.1,264.4,100.1"/>
		<path class="st4" d="M264.3,100.2C264.3,100.1,264.3,100.1,264.3,100.2C264.3,100.1,264.3,100.1,264.3,100.2
			C264.3,100.1,264.3,100.1,264.3,100.2L264.3,100.2"/>
		<polyline class="st4" points="270.1,100.6 270.1,100.6 270.1,100.6 270.1,100.6 270.1,100.6 		"/>
		<polyline class="st4" points="270.1,100.6 270.1,100.6 270.1,100.6 270.1,100.6 270.1,100.6 		"/>
		<polyline class="st4" points="270.2,100.6 270.2,100.6 270.1,100.6 270.2,100.6 		"/>
		<ellipse class="st4" cx="270.1" cy="100.5" rx="0" ry="0"/>
		<path class="st4" d="M270.4,100.9L270.4,100.9c0.1,0.1,0.1,0.1,0.2,0.2c0,0,0,0,0-0.1C270.5,101,270.5,100.9,270.4,100.9"/>
		<path class="st4" d="M270.4,100.8C270.4,100.8,270.4,100.9,270.4,100.8C270.4,100.9,270.4,100.9,270.4,100.8"/>
		<path class="st4" d="M269.9,102.6C269.9,102.6,269.8,102.6,269.9,102.6C269.8,102.6,269.8,102.6,269.9,102.6
			c-0.1-0.1-0.1-0.1-0.1-0.1c-0.1-0.1-0.2-0.2-0.3-0.3c0,0,0,0-0.1-0.1c-0.2-0.1-0.3-0.2-0.5-0.3c-0.4-0.2-0.7-0.3-0.7-0.3l0,0l0,0
			c-0.1,0-0.2-0.1-0.2-0.1l0,0l0,0l0,0l0,0l0,0c0,0,0,0-0.1,0s-0.3-0.1-0.4-0.1h-0.1c-0.2-0.1-0.5-0.1-0.7-0.2
			c-0.5-0.1-1.1-0.2-1.6-0.3l0,0l0,0l0,0H265c-0.7-0.1-1.1-0.2-1.1-0.2h-0.2l0.2-0.1c0.2-0.1,0.4-0.1,0.5-0.2l0,0
			c-0.6-0.4-1.4-0.9-2.4-1.2c0,0-0.3,0.2-0.3,0.5c0,0,0,0.4-0.4,0.5c0,0,2.3,0.5,3.5,1.8c0,0,1.2,1,1.7,3c0,0,0-0.2,0-0.4
			c0,0,0.1,0.2,0.1,0.4c0,0,0-0.1,0-0.2c0,0,0.1,0.3,0.2,0.6c0,0-0.2-1.5-1-3c0,0,0.6,0.2,1.3,2.8c0,0-0.3-2.1-1.2-3.3
			c0,0-0.1-0.1-0.3-0.3c-0.2-0.2-0.3-0.4-0.5-0.6l0,0c0.7,0.6,1.3,1.5,1.6,2.6l0,0l0,0c-0.3-1.1-0.9-2-1.6-2.6
			c0.5,0.1,1,0.2,1.5,0.3c0.3,1.1,0.6,2.5,0.6,3.9c0,0,0-1.2,0-1.4c0,0,0.1,0.6,0,0.8c0,0,0-0.2,0-0.4c0,0,0.1,0.3,0.1,1.1
			c0,0,0.1-0.5,0.1-2c0,0,0-0.8-0.2-1.6h0.1c0,0.1,0.1,0.2,0.1,0.3c0,0,0.4,1.4,0.3,3.5c0,0,0.2-0.4,0.3-1.8c0,0,0-0.9-0.2-1.9
			c0,0,0,0,0.1,0c0,0.1,0,0.2,0.1,0.3c0,0,0.3,1.4,0,2.7c0,0-0.1,0.7-0.2,0.9c0,0,0.1-0.3,0.3-1.5c0,0,0.1-0.9-0.1-2
			c0,0,0-0.2-0.1-0.4l0,0v0.1c0,0,0.3,1.1,0.1,2.4l0,0l0,0c0.1-1.3-0.1-2.3-0.1-2.4v-0.1c0.1,0,0.1,0.1,0.2,0.1l0,0l0,0l0,0
			c0,0,0.3,0.1,0.7,0.3c-0.1,0.9-0.3,1.9-0.8,2.9c0,0,0.3-0.5,0.4-0.8c0,0-0.1,0.5-0.2,0.6c0-0.1,0.1-0.2,0.2-0.3c0,0,0,0.2-0.4,0.8
			c0,0,0.9-0.9,1.3-2.9c0,0,0.1,0,0.1,0.1c0,0.3-0.1,0.8-0.2,1.3c0,0-0.3,1.1-0.9,1.8C268.4,105.4,269.2,104.8,269.9,102.6
			C269.8,102.6,269.8,102.7,269.9,102.6c-0.2,0.6-0.4,1.2-0.8,1.9l0,0l0,0C269.5,103.9,269.7,103.2,269.9,102.6
			C269.9,102.7,269.9,102.7,269.9,102.6C269.9,102.7,269.9,102.7,269.9,102.6 M265.5,101.3c-0.1-0.2-0.3-0.3-0.5-0.6h0.1
			C265.2,100.9,265.3,101.1,265.5,101.3 M268,101.6L268,101.6L268,101.6C268,101.6,268,101.6,268,101.6L268,101.6L268,101.6"/>
		<path class="st4" d="M271.4,102.7c0-0.2-0.1-0.4-0.2-0.7c-0.1-0.3-0.3-0.6-0.5-0.9c-0.2-0.2-0.4-0.4-0.6-0.6l0,0l0,0
			c0-0.5,0-1-0.1-1.5c-0.1-1.3-0.6-2.7-1.8-3.6c-0.1-0.1-0.2-0.2-0.2-0.2l0,0l0,0c0,0,0.6,0.4,1.2,1.3c0.3,0.6,0.7,1.4,0.9,2.6
			c0,0.2,0,0.4,0,0.6c0,0.1,0,0.2,0,0.3c0-0.6-0.2-2.6-1.3-4.1c0,0-0.4-0.5-0.8-0.7c0,0,0,0.3-0.5,0.5c0,0-0.3,0.1-0.6,0.5
			c0,0,1.3,0.7,1.9,2.7c0,0,0.1,0.2,0.1,0.5c-0.1-0.1-0.3-0.1-0.4-0.2c-0.4-0.2-0.8-0.3-1.1-0.4c-0.1-0.4-0.3-0.7-0.4-1.1
			c-0.6-1.4-1.5-3.1-2.7-3.8c-0.1,0-0.1-0.1-0.1-0.1l0,0l0,0c0,0,0.7,0.4,1.5,1.6c0.5,0.6,1,1.6,1.5,2.9c0.1,0.2,0.1,0.3,0.2,0.5
			c0,0,0,0-0.1,0c-0.3-0.7-0.6-1.6-1-2.3c0,0-0.9-1.5-2.1-2.6c0,0,0.2,0.3-0.7,0.7c-0.3,0.1-0.4,0.5-0.5,1c0,0,1.3,0.4,2.8,2.8
			c0,0,0,0.1,0.1,0.2c0,0,0,0,0,0.1c0-0.1,0-0.1,0-0.1l0,0l0,0c0.5,0.1,1.1,0.3,1.1,0.3c0.1,0,0.2,0,0.2,0.1l0,0c0,0,0,0,0.1,0l0,0
			l0,0l0,0l0,0l0,0l0,0l0,0c0.3,0.1,0.6,0.2,0.9,0.3c0.2,0.1,0.4,0.2,0.6,0.3l0,0c0.5,0.3,0.9,0.5,1.2,0.7l0,0l0,0l0,0l0,0l0,0l0,0
			c0.2,0.1,0.3,0.3,0.5,0.5c0.3,0.4,0.6,0.9,0.6,1.4l0,0l0,0c-0.1-0.4-0.2-0.8-0.4-1.1c0-0.1-0.1-0.1-0.1-0.2
			c0.2,0.2,0.4,0.5,0.5,0.8c0.3,0.9,0.2,1.8-0.4,2.8c-0.1,0.2-0.2,0.3-0.3,0.5l0,0l0,0c0.1-0.2,0.2-0.4,0.3-0.5
			C271.3,104.1,271.5,103.4,271.4,102.7 M269.2,96.7c-0.3-0.5-0.6-0.8-0.8-1c1,0.8,1.5,2.1,1.6,3.2
			C269.8,97.9,269.5,97.2,269.2,96.7 M265.6,95.7c-0.6-0.8-1.1-1.3-1.4-1.5c1.2,0.8,2,2.3,2.6,3.7C266.4,96.9,266,96.2,265.6,95.7
			 M267.2,98.7c0,0.1,0.1,0.2,0.1,0.4l0,0C267.3,99,267.2,98.9,267.2,98.7 M267.3,99.1L267.3,99.1L267.3,99.1L267.3,99.1L267.3,99.1
			L267.3,99.1L267.3,99.1z M267.3,99.1L267.3,99.1L267.3,99.1L267.3,99.1L267.3,99.1L267.3,99.1L267.3,99.1 M268.2,99.5
			c-0.3-0.1-0.6-0.2-0.9-0.3l0,0l0,0c0.3,0.1,0.7,0.2,1.1,0.4c0.1,0.1,0.3,0.1,0.4,0.2l0,0l0,0C268.7,99.7,268.4,99.6,268.2,99.5
			 M270.1,99.5c0,0.3,0.1,0.7,0.1,1c0,0,0,0-0.1,0l0,0c0-0.2,0-0.4,0-0.5C270.1,99.8,270.1,99.7,270.1,99.5 M270.1,100.6
			C270.1,100.5,270.1,100.5,270.1,100.6C270.1,100.5,270.1,100.5,270.1,100.6L270.1,100.6L270.1,100.6 M270.4,100.9L270.4,100.9
			C270.4,100.9,270.4,100.8,270.4,100.9C270.4,100.8,270.4,100.8,270.4,100.9c-0.2-0.2-0.2-0.2-0.3-0.3l0,0c0.2,0.1,0.3,0.3,0.4,0.4
			c0,0,0,0,0,0.1C270.6,101,270.5,100.9,270.4,100.9"/>
		<path class="st4" d="M270.4,100.9c0,0-1.1-1.1-3.4-1.8c0,0-0.6-0.2-1.1-0.3c0,0-0.2,0.5-0.5,0.8s-1,0.5-1.7,0.8
			c0,0,3.4,0.5,4.6,1.1c0,0,3,1,1.4,2.9c0,0-0.3,0.4-0.8,0.7c0,0,0.1,0,0.3-0.2c0,0-0.1,0.2-0.6,0.5c0,0,0.4-0.1,1.1-0.7
			c0,0,0.9-0.7,1-1.7c0,0,0.1-0.5-0.1-1c0.1,0.2,0.4,0.6,0.3,1.2c-0.1,0.9-0.9,1.8-2.3,2.7l0,0l0,0c1.4-0.9,2.2-1.8,2.3-2.7
			c0.1-0.6-0.2-1-0.3-1.2c0.1,0.1,0.3,0.4,0.3,1c0,0,0.1,1.5-2.1,2.9c0,0,0.4-0.1,1-0.6c0,0,2.1-1.3,1.2-3.5c0,0,0.5,0.8,0.1,2
			c0,0-0.2,0.8-1.3,1.7c0,0,0.5-0.2,0.9-0.9c0,0,0.6-0.8,0.6-1.6C271.4,103.2,271.5,102,270.4,100.9"/>
		<path class="st4" d="M262,107.6c-0.2-0.1-0.4-0.1-0.6-0.1s-0.4,0.1-0.4,0.3c0,0.4,1.2,0.1,1.2,1c0,0.6-0.5,0.8-1.1,0.8
			c-0.3,0-0.5,0-0.8-0.1V109c0.2,0.1,0.4,0.2,0.7,0.2c0.2,0,0.4-0.1,0.4-0.3c0-0.5-1.2-0.2-1.2-1.1c0-0.5,0.5-0.8,1-0.8
			c0.3,0,0.5,0,0.7,0.1L262,107.6z"/>
		<rect x="265.1" y="107.1" class="st4" width="0.7" height="2.5"/>
		<polygon class="st4" points="263.8,108.2 264.8,107.1 264,107.1 263.2,108.1 263.2,108.1 263.2,105.8 262.5,106 262.5,109.6 
			263.2,109.6 263.2,108.4 263.2,108.4 264,109.6 264.9,109.6 		"/>
		<polygon class="st4" points="266.2,106 266.2,109.6 266.9,109.6 266.9,105.8 		"/>
		<polygon class="st4" points="267.3,106 267.3,106 267.3,109.6 267.9,109.6 267.9,105.8 		"/>
		<path class="st4" d="M265.8,106.2c0-0.2-0.2-0.4-0.4-0.4c-0.2,0-0.4,0.2-0.4,0.4c0,0.2,0.2,0.4,0.4,0.4
			C265.7,106.5,265.8,106.4,265.8,106.2"/>
		<path class="st4" d="M253.7,107.1c-0.9,0-1.2,0.7-1.2,1.3c0,0.6,0.3,1.3,1.2,1.3s1.2-0.7,1.2-1.3
			C254.9,107.8,254.5,107.1,253.7,107.1 M253.7,109.4c-0.5,0-0.8-0.4-0.8-1s0.3-1,0.8-1s0.8,0.4,0.8,1S254.2,109.4,253.7,109.4"/>
		<path class="st4" d="M255.5,107.5v-0.4h-0.3v2.4h0.3v-1.2l0,0c0-0.5,0.1-1,0.7-1h0.1l0,0V107l0,0
			C255.9,107.1,255.7,107.2,255.5,107.5"/>
		<path class="st4" d="M259.4,105.9l-0.3,0.1v1.5c-0.1-0.1-0.3-0.4-0.8-0.4c-0.9,0-1,0.7-1,1.3c0,0.8,0.4,1.3,1,1.3
			c0.4,0,0.6-0.1,0.8-0.4v0.4h0.3V105.9L259.4,105.9z M258.4,109.4c-0.7,0-0.8-0.7-0.8-1s0.1-1,0.8-1c0.5,0,0.8,0.5,0.8,1
			C259.2,108.9,258.9,109.4,258.4,109.4"/>
		<polygon class="st4" points="257,105.9 256.7,106 256.7,109.6 257,109.6 		"/>
		<path class="st4" d="M249,107.1h-0.3l0,0l0.8,2.4l0,0h0.4l0.7-2.1l0,0l0.7,2.1h0.4l0.8-2.4h-0.3l-0.7,2.1l0,0l-0.7-2.1h-0.4
			l-0.7,2.1l0,0C249.7,109.3,249.1,107.1,249,107.1L249,107.1z"/>
		<path class="st4" d="M249.2,111.7h0.4c0.2,0,0.4,0,0.6-0.1c0.2-0.1,0.3-0.3,0.3-0.5c0-0.1,0-0.2-0.1-0.3c0-0.1-0.1-0.1-0.2-0.2
			c-0.1,0-0.2-0.1-0.3-0.1s-0.2,0-0.3,0h-0.3L249.2,111.7L249.2,111.7z M248.9,110.2h0.9c0.6,0,1,0.3,1,0.9c0,0.2-0.1,0.4-0.2,0.5
			c-0.1,0.1-0.3,0.2-0.5,0.2l0,0c0.1,0,0.2,0.1,0.3,0.1l0.1,0.1c0,0,0,0.1,0.1,0.2l0.6,1.3h-0.4l-0.5-1.1c-0.1-0.2-0.2-0.3-0.3-0.4
			c0,0-0.1,0-0.2-0.1c-0.1,0-0.1,0-0.2,0h-0.3v1.6H249v-3.3H248.9z"/>
		<path class="st4" d="M252.9,113c0,0.2,0,0.4,0,0.6h-0.3v-0.4l0,0c0,0.1-0.1,0.1-0.1,0.2s-0.1,0.1-0.1,0.2c-0.1,0-0.1,0.1-0.2,0.1
			c-0.1,0-0.2,0.1-0.3,0.1c-0.3,0-0.5-0.1-0.6-0.3c-0.1-0.2-0.2-0.4-0.2-0.7v-1.6h0.3v1.5c0,0.2,0,0.4,0.1,0.5s0.2,0.2,0.4,0.2
			c0.1,0,0.3,0,0.4-0.1c0.1-0.1,0.2-0.1,0.2-0.2c0.1-0.1,0.1-0.2,0.1-0.3c0-0.1,0-0.2,0-0.3v-1.4h0.3L252.9,113L252.9,113z"/>
		<path class="st4" d="M253.8,113.4c0.2,0,0.3,0,0.4-0.1c0.1-0.1,0.2-0.2,0.2-0.3c0-0.1-0.1-0.3-0.2-0.3c-0.1-0.1-0.3-0.2-0.4-0.2
			c-0.1,0-0.1-0.1-0.2-0.1c-0.1,0-0.1-0.1-0.2-0.1c-0.1-0.1-0.1-0.1-0.1-0.2s-0.1-0.1-0.1-0.2c0-0.2,0.1-0.4,0.2-0.5
			c0.2-0.1,0.3-0.1,0.5-0.1c0.1,0,0.2,0,0.3,0s0.2,0.1,0.3,0.1v0.3c-0.2-0.1-0.4-0.1-0.5-0.1c-0.2,0-0.3,0-0.4,0.1l-0.1,0.1
			c0,0.1,0,0.1,0,0.2s0,0.1,0.1,0.1l0.1,0.1c0.1,0,0.1,0.1,0.2,0.1c0.1,0,0.1,0.1,0.2,0.1c0.2,0.1,0.3,0.2,0.4,0.3
			c0.1,0.1,0.2,0.3,0.2,0.5c0,0.1,0,0.2-0.1,0.3c-0.1,0.1-0.1,0.2-0.2,0.2c-0.2,0.1-0.4,0.2-0.6,0.2c-0.2,0-0.5,0-0.7-0.1v-0.3
			C253.4,113.3,253.6,113.4,253.8,113.4"/>
		<path class="st4" d="M255.5,113.4c0.2,0,0.3,0,0.4-0.1c0.1-0.1,0.2-0.2,0.2-0.3c0-0.1-0.1-0.3-0.2-0.3c-0.1-0.1-0.3-0.2-0.4-0.2
			c-0.1,0-0.1-0.1-0.2-0.1c-0.1,0-0.1-0.1-0.2-0.1c-0.1-0.1-0.1-0.1-0.1-0.2s-0.1-0.1-0.1-0.2c0-0.2,0.1-0.4,0.2-0.5
			c0.2-0.1,0.3-0.1,0.5-0.1c0.1,0,0.2,0,0.3,0c0.1,0,0.2,0.1,0.3,0.1v0.3c-0.2-0.1-0.4-0.1-0.5-0.1c-0.2,0-0.3,0-0.4,0.1l-0.1,0.1
			c0,0.1,0,0.1,0,0.2s0,0.1,0.1,0.1l0.1,0.1c0.1,0,0.1,0.1,0.2,0.1c0.1,0,0.1,0.1,0.2,0.1c0.2,0.1,0.3,0.2,0.4,0.3
			c0.1,0.1,0.2,0.3,0.2,0.5c0,0.1,0,0.2-0.1,0.3c-0.1,0.1-0.1,0.2-0.2,0.2c-0.2,0.1-0.4,0.2-0.6,0.2c-0.2,0-0.5,0-0.7-0.1v-0.3
			C255,113.3,255.2,113.4,255.5,113.4"/>
		<rect x="256.7" y="110.2" class="st4" width="0.3" height="0.4"/>
		<rect x="256.7" y="111.1" class="st4" width="0.3" height="2.4"/>
		<path class="st4" d="M258.9,112.3L258.9,112.3c-0.2,0-0.3,0-0.5,0c-0.1,0-0.3,0-0.4,0.1c-0.1,0-0.2,0.1-0.3,0.2
			c-0.1,0.1-0.1,0.2-0.1,0.3c0,0.2,0.1,0.3,0.2,0.3c0.1,0.1,0.2,0.1,0.4,0.1c0.2,0,0.3,0,0.4-0.1s0.2-0.1,0.2-0.2s0.1-0.2,0.1-0.3
			c0-0.1,0-0.2,0-0.2L258.9,112.3L258.9,112.3z M258.9,113.2L258.9,113.2c-0.1,0.1-0.2,0.3-0.3,0.3c-0.1,0.1-0.3,0.1-0.5,0.1
			s-0.3,0-0.4-0.1c-0.1,0-0.2-0.1-0.2-0.2c-0.1-0.2-0.2-0.3-0.1-0.4c0-0.2,0-0.4,0.1-0.5s0.2-0.2,0.4-0.3c0.2-0.1,0.3-0.1,0.5-0.1
			s0.3,0,0.5,0h0.1l0,0c0-0.4-0.2-0.6-0.6-0.6c-0.3,0-0.5,0.1-0.7,0.2v-0.3c0.2-0.1,0.5-0.2,0.7-0.2c0.6,0,0.9,0.3,0.9,0.9v1.1
			c0,0.2,0,0.4,0,0.5H259v-0.4H258.9z"/>
	</g>
</g>
</svg>
