<?xml version="1.0" encoding="utf-8"?>
<!-- Generator: Adobe Illustrator 21.0.0, SVG Export Plug-In . SVG Version: 6.00 Build 0)  -->
<svg version="1.1" id="Слой_1" xmlns="http://www.w3.org/2000/svg" xmlns:xlink="http://www.w3.org/1999/xlink" x="0px" y="0px"
	 width="15px" height="15px" viewBox="0 0 15 15" style="enable-background:new 0 0 15 15;" xml:space="preserve">
<style type="text/css">
	.st0{fill:#CE112D;}
	.st1{fill:#FFFFFF;}
</style>
<circle class="st0" cx="7.5" cy="7.5" r="7.5"/>
<path d="M365.7,164c0.1,0.1,0.3,0.1,0.5,0.2c0.2,0.1,0.2,0,0.3-0.1c0.1-0.2,0.2-0.4,0.2-0.6c0.1-0.2,0.1-0.4,0.1-0.7
	c0-0.3-0.2-0.5-0.5-0.6c-0.1,0-0.2,0-0.3,0c-0.2,0.1-0.3,0.1-0.5,0c-0.1-0.1-0.3-0.1-0.4-0.1c-0.1,0-0.2,0-0.2,0
	c0,0-0.1-0.1-0.1-0.1c0-0.1,0-0.1,0.1-0.1c0,0,0.1,0,0.1,0c-0.1-0.1-0.1-0.1-0.2-0.1c-0.1-0.1-0.1-0.1,0-0.2c0,0,0.1-0.1,0.1-0.1
	c0.1,0,0.1,0,0.2,0c0.2-0.1,0.4-0.1,0.6-0.3c0.6-0.3,1.1-0.3,1.6,0.2c0.1,0.1,0.2,0.3,0.2,0.4c0.1,0.3,0.3,0.6,0.4,1
	c0.2,0,0.4,0,0.6,0c0.2-0.3,0.3-0.6,0.4-1c0.2-0.5,0.8-0.9,1.3-0.8c0.2,0,0.5,0.1,0.6,0.3c0,0,0.1,0.1,0.1,0.1c0.1,0,0.2,0,0.3,0.1
	c0.1,0,0.3,0.1,0.3,0.3c-0.1,0.1-0.2,0.1-0.3,0.2c0.1,0,0.1,0,0.2,0.1c0.1,0,0.1,0.1,0,0.1c0,0-0.1,0-0.1,0.1c-0.1,0-0.2,0-0.3,0
	c-0.1,0-0.2,0-0.3,0.1c-0.1,0.1-0.2,0.1-0.4,0.1c0,0,0,0,0,0c-0.4-0.1-0.8,0.1-0.8,0.6c0,0.4,0,0.8,0.2,1.2c0,0.1,0.1,0.1,0.1,0.1
	c0.1,0.1,0.1,0.1,0.2,0.1c0.2-0.1,0.4-0.1,0.5-0.2c0-0.2,0.1-0.4,0.1-0.6c0.1-0.2,0.2-0.5,0.3-0.7c0.4-0.5,0.9-0.7,1.5-0.5
	c0.2,0.1,0.4,0.1,0.5,0.2c0.2,0.1,0.2,0.2,0.2,0.3c0,0.1,0,0.3,0.1,0.4c0.1,0.1,0.1,0.3,0.2,0.4c0.1,0.3,0.2,0.6,0.4,1
	c0.1,0.2,0.1,0.5,0.1,0.7c0,0.3,0,0.5,0,0.8c0,0.1,0.1,0.3,0.1,0.4c0.1,0.3,0,0.4-0.2,0.6c-0.2,0.1-0.2,0.2-0.2,0.4
	c0,0.2,0.1,0.4,0.1,0.6c0,0.1,0.1,0.2,0.1,0.3c0,0.1,0,0.1,0,0.2c0,0-0.1,0-0.1,0c-0.5-0.1-0.9-0.3-1.3-0.6
	c-0.2-0.2-0.4-0.4-0.5-0.6c-0.1-0.2-0.3-0.4-0.5-0.5c-0.1-0.1-0.2-0.2-0.3-0.3c-0.1-0.1-0.2-0.1-0.3,0c-0.2,0.2-0.5,0.2-0.8,0.2
	c0,0,0-0.1,0-0.1c-0.1,0-0.3,0-0.4,0.1c0,0.1,0.1,0.1,0.1,0.1c0.1,0.1,0.2,0.3,0.3,0.4c0.2,0.2,0.3,0.4,0.3,0.6c0,0.1,0,0.2,0.1,0.3
	c0,0.1,0.1,0.1,0.1,0.2c0.1,0.2,0.3,0.2,0.5,0.2c0.1,0,0.1,0,0.2-0.1c0.1-0.1,0.3-0.2,0.4-0.2c0.1,0,0.3,0,0.4,0.1
	c0.1,0,0.3,0,0.4,0.1c0,0.1-0.1,0.2,0.1,0.3c-0.1,0-0.1,0.1-0.2,0.1c0,0,0.1,0.1,0.1,0.1c0,0.1,0,0.1,0,0.1c-0.1,0-0.2,0-0.3,0
	c-0.2,0-0.4,0-0.7,0c-0.1,0-0.2,0-0.2,0.1c-0.1,0.1-0.2,0.2-0.3,0.4c0,0-0.1,0.1-0.1,0.1c0,0-0.1-0.1-0.1-0.1c0-0.1,0-0.1,0-0.2
	c0-0.1,0.1-0.3,0.2-0.4c-0.2-0.2-0.4-0.5-0.6-0.7c0,0-0.1-0.1-0.2-0.1c-0.1,0-0.3,0-0.4,0c-0.1,0-0.3-0.1-0.4-0.1
	c-0.1-0.1-0.1-0.1-0.2,0c0.4,0.9,0.8,1.9,1.1,2.8c-0.2,0.3-0.4,0.4-0.7,0.3c-0.2,0.1-0.3,0.2-0.5,0.2c-0.2,0.1-0.3-0.1-0.4-0.2
	c-0.2,0.1-0.3,0.3-0.5,0.2c-0.2,0-0.3-0.1-0.5-0.2c-0.1,0.1-0.2,0.2-0.4,0.2c-0.1,0-0.3-0.1-0.5-0.2c-0.1,0-0.3,0-0.5,0
	c-0.1-0.1-0.2-0.1-0.3-0.3c0.4-0.9,0.8-1.9,1.1-2.8c0-0.1-0.1-0.1-0.2-0.1c-0.2,0.2-0.5,0.2-0.8,0.2c-0.1,0-0.2,0-0.3,0.1
	c-0.2,0.2-0.4,0.4-0.6,0.6c0.1,0.1,0.1,0.3,0.2,0.4c0,0.1,0,0.1,0,0.2c0,0.1-0.1,0.1-0.2,0c-0.1-0.1-0.2-0.2-0.3-0.4
	c-0.1-0.1-0.1-0.1-0.2-0.1c-0.2,0-0.4,0-0.6,0c-0.1,0-0.2,0-0.4,0c-0.1,0-0.1-0.1-0.1-0.2c0,0,0.1,0,0.1-0.1c-0.1,0-0.1-0.1-0.2-0.1
	c0-0.1,0-0.2,0-0.3c0.1-0.1,0.2-0.1,0.4,0c0.1-0.1,0.2-0.2,0.4-0.1c0.1,0.1,0.3,0.1,0.4,0.2c0.2,0.2,0.5,0.1,0.7-0.1
	c0.1-0.1,0.1-0.1,0.2-0.2c0.1-0.1,0.1-0.1,0.1-0.2c0-0.3,0.1-0.5,0.3-0.6c0.2-0.1,0.3-0.3,0.4-0.5c-0.2-0.1-0.2-0.1-0.4-0.1
	c0,0,0,0.1,0,0.1c-0.3,0-0.5,0-0.7-0.2c-0.2-0.1-0.2-0.1-0.4,0c-0.1,0.1-0.2,0.2-0.3,0.3c-0.1,0.1-0.2,0.2-0.3,0.4
	c-0.1,0.2-0.2,0.3-0.3,0.5c-0.3,0.4-0.7,0.6-1.2,0.8c-0.1,0-0.2,0.1-0.4,0.1c0,0-0.1,0-0.1,0c0-0.1,0-0.2,0-0.3
	c0.1-0.2,0.1-0.4,0.2-0.6c0-0.1,0-0.2,0-0.4c0-0.1,0-0.2-0.1-0.2c0,0-0.1,0-0.1-0.1c-0.2-0.1-0.3-0.3-0.2-0.5c0-0.2,0.1-0.3,0.1-0.5
	c0.1-0.2,0.1-0.4,0-0.6c-0.1-0.3,0-0.6,0.1-0.9c0.1-0.2,0.2-0.5,0.3-0.7c0.1-0.2,0.1-0.4,0.3-0.6c0,0,0-0.1,0-0.2c0-0.1,0-0.1,0-0.2
	c0-0.1,0-0.1,0.1-0.2c0.5-0.3,1.2-0.5,1.8-0.1c0.3,0.2,0.6,0.5,0.7,0.9C365.6,163.5,365.7,163.7,365.7,164z"/>
<path class="st1" d="M5.3,5.7c0.1,0.1,0.3,0.1,0.4,0.2c0.1,0,0.2,0,0.3-0.1c0.1-0.2,0.1-0.4,0.2-0.6C6.2,5,6.3,4.8,6.2,4.6
	C6.2,4.3,6,4.1,5.8,4C5.7,4,5.6,4,5.5,4C5.3,4,5.2,4.1,5.1,4C5,3.9,4.8,3.9,4.7,3.9c-0.1,0-0.1,0-0.2,0c0,0-0.1-0.1-0.1-0.1
	c0-0.1,0-0.1,0.1-0.1c0,0,0.1,0,0.1,0c-0.1,0-0.1-0.1-0.1-0.1c-0.1-0.1-0.1-0.1,0-0.2c0,0,0.1-0.1,0.1-0.1c0,0,0.1,0,0.2,0
	C4.9,3.2,5.1,3.1,5.3,3c0.5-0.3,1-0.3,1.5,0.2c0.1,0.1,0.1,0.2,0.2,0.4C7,3.8,7.2,4.1,7.3,4.4c0.2,0,0.3,0,0.5,0
	C7.9,4.2,8,3.9,8.2,3.6c0.2-0.5,0.7-0.8,1.2-0.7c0.2,0,0.4,0.1,0.6,0.3c0,0,0.1,0.1,0.1,0.1c0.1,0,0.2,0,0.3,0.1
	c0.1,0,0.3,0.1,0.3,0.2c-0.1,0.1-0.2,0.1-0.3,0.2c0.1,0,0.1,0,0.2,0.1c0.1,0,0.1,0.1,0,0.1c0,0-0.1,0-0.1,0c-0.1,0-0.2,0-0.2,0
	c-0.1,0-0.2,0-0.3,0.1C9.8,4.1,9.7,4.1,9.6,4c0,0,0,0,0,0C9.1,3.9,8.8,4.1,8.8,4.6c0,0.4,0,0.7,0.2,1.1c0,0,0.1,0.1,0.1,0.1
	c0,0.1,0.1,0.1,0.2,0.1c0.2-0.1,0.3-0.1,0.5-0.2c0-0.2,0.1-0.4,0.1-0.5c0.1-0.2,0.2-0.4,0.3-0.6c0.4-0.4,0.8-0.6,1.4-0.5
	c0.2,0,0.3,0.1,0.5,0.2c0.2,0.1,0.2,0.1,0.2,0.3c0,0.1,0,0.2,0.1,0.4c0.1,0.1,0.1,0.2,0.1,0.4c0.1,0.3,0.2,0.6,0.4,0.9
	c0.1,0.2,0.1,0.4,0.1,0.7c0,0.2,0,0.5,0,0.7c0,0.1,0.1,0.2,0.1,0.4c0.1,0.2,0,0.4-0.2,0.5c-0.2,0.1-0.2,0.2-0.2,0.4
	c0,0.2,0.1,0.4,0.1,0.5c0,0.1,0.1,0.2,0.1,0.3c0,0.1,0,0.1,0,0.2c0,0-0.1,0-0.1,0c-0.4-0.1-0.9-0.3-1.2-0.6
	c-0.2-0.2-0.3-0.4-0.5-0.6c-0.1-0.2-0.3-0.4-0.4-0.5c-0.1-0.1-0.2-0.2-0.3-0.2c-0.1-0.1-0.2-0.1-0.3,0C9.8,8.1,9.6,8.1,9.3,8.1
	c0,0,0-0.1,0-0.1C9.2,8,9.1,8.1,9,8.1c0,0,0,0.1,0.1,0.1c0.1,0.1,0.2,0.2,0.3,0.3c0.2,0.2,0.3,0.3,0.3,0.6c0,0.1,0,0.2,0.1,0.2
	c0,0.1,0.1,0.1,0.1,0.2c0.1,0.2,0.3,0.2,0.5,0.2c0,0,0.1,0,0.1-0.1c0.1-0.1,0.2-0.2,0.4-0.2c0.1,0,0.3,0,0.4,0.1
	c0.1,0,0.3,0,0.4,0.1c0,0.1-0.1,0.2,0.1,0.2c-0.1,0-0.1,0.1-0.2,0.1c0,0,0.1,0.1,0.1,0.1c0,0,0,0.1,0,0.1c-0.1,0-0.2,0-0.3,0
	c-0.2,0-0.4,0-0.6,0c-0.1,0-0.2,0-0.2,0.1c-0.1,0.1-0.2,0.2-0.3,0.3c0,0-0.1,0.1-0.1,0c0,0-0.1-0.1-0.1-0.1c0-0.1,0-0.1,0-0.2
	c0-0.1,0.1-0.2,0.1-0.4C9.9,9.9,9.7,9.7,9.5,9.5c0,0-0.1-0.1-0.2-0.1c-0.1,0-0.3,0-0.4,0c-0.1,0-0.2,0-0.4-0.1
	c-0.1-0.1-0.1-0.1-0.2,0c0.3,0.9,0.7,1.7,1,2.6c-0.2,0.3-0.3,0.3-0.7,0.3c-0.2,0.1-0.3,0.2-0.4,0.2c-0.2,0-0.3-0.1-0.4-0.2
	c-0.2,0.1-0.3,0.3-0.5,0.2c-0.1,0-0.3-0.1-0.4-0.2c-0.1,0.1-0.2,0.2-0.4,0.1c-0.1,0-0.3-0.1-0.4-0.2c-0.1,0-0.3,0-0.4,0
	c-0.1-0.1-0.2-0.1-0.3-0.2c0.3-0.9,0.7-1.7,1-2.6c0-0.1-0.1-0.1-0.2-0.1C6.2,9.5,5.9,9.5,5.7,9.5c-0.1,0-0.2,0-0.2,0.1
	C5.3,9.8,5.1,10,4.9,10.1C5,10.3,5,10.4,5.1,10.5c0,0.1,0,0.1,0,0.2c0,0.1-0.1,0.1-0.2,0c-0.1-0.1-0.2-0.2-0.3-0.3
	c-0.1-0.1-0.1-0.1-0.2-0.1c-0.2,0-0.4,0-0.5,0c-0.1,0-0.2,0-0.3,0c-0.1,0-0.1-0.1,0-0.2c0,0,0.1,0,0.1-0.1C3.5,10,3.5,10,3.4,9.9
	c0-0.1,0-0.2,0-0.3c0.1-0.1,0.2-0.1,0.4,0c0.1-0.1,0.2-0.2,0.4-0.1c0.1,0,0.2,0.1,0.3,0.2C4.8,9.8,5,9.8,5.2,9.6
	c0-0.1,0.1-0.1,0.1-0.2c0.1-0.1,0.1-0.1,0.1-0.2c0-0.2,0.1-0.4,0.3-0.6C5.8,8.5,5.9,8.3,6,8.1C5.9,8,5.9,8,5.7,8c0,0,0,0.1,0,0.1
	C5.4,8.1,5.2,8.1,5,8C4.8,7.9,4.8,7.9,4.6,8C4.5,8.1,4.4,8.2,4.3,8.3C4.2,8.4,4.1,8.5,4,8.6C3.9,8.8,3.8,8.9,3.7,9.1
	C3.4,9.4,3,9.6,2.6,9.8c-0.1,0-0.2,0.1-0.3,0.1c0,0-0.1,0-0.1,0c0-0.1,0-0.2,0-0.3C2.3,9.4,2.4,9.2,2.4,9c0-0.1,0-0.2,0-0.3
	c0-0.1,0-0.2-0.1-0.2c0,0-0.1,0-0.1,0C2,8.3,2,8.2,2,7.9c0-0.2,0.1-0.3,0.1-0.5c0.1-0.2,0.1-0.4,0-0.6c-0.1-0.3,0-0.6,0.1-0.8
	c0.1-0.2,0.2-0.4,0.3-0.7C2.6,5.2,2.7,5,2.8,4.8c0,0,0-0.1,0-0.2c0-0.1,0-0.1,0-0.2c0-0.1,0-0.1,0.1-0.2C3.3,4,4,3.8,4.5,4.2
	C4.8,4.4,5,4.7,5.1,5C5.2,5.2,5.2,5.4,5.3,5.7z"/>
</svg>
