<?xml version="1.0" encoding="utf-8"?>
<!-- Generator: Adobe Illustrator 21.0.0, SVG Export Plug-In . SVG Version: 6.00 Build 0)  -->
<svg version="1.1" id="Слой_1" xmlns="http://www.w3.org/2000/svg" xmlns:xlink="http://www.w3.org/1999/xlink" x="0px" y="0px"
	 viewBox="0 0 15 20.7" style="enable-background:new 0 0 15 20.7;" xml:space="preserve">
<style type="text/css">
	.st0{fill:#838D9D;}
	.st1{fill:#CE112D;}
	.st2{fill:none;stroke:#FFFFFF;stroke-width:0;stroke-linecap:round;stroke-linejoin:round;}
	.st3{fill:#FFFFFF;}
</style>
<g>
	<path class="st0" d="M2.7,14.8l-1,5.3c0,0.3,0.2,0.7,0.4,0.6L7.5,19c0.1,0,0.1,0,0.2,0l5.4,1.7c0.2,0.1,0.3-0.3,0.3-0.6l-1-5.3
		c-1.4,0.9-3.1,1.5-4.8,1.5C5.7,16.3,4.1,15.8,2.7,14.8z"/>
	<path class="st1" d="M7.1,4.6C7,4.6,6.9,4.6,6.8,4.6c0,0-0.1,0-0.1,0.1c0.1,0,0.1,0,0.2,0H7L6.9,4.8c-0.1,0-0.1,0.1,0,0.1
		C7,5,7.2,5,7.2,5.1c0,0,0.1,0,0.2,0c-0.1,0-0.1,0.1-0.2,0.1c-0.1,0-0.1,0-0.1,0.1c0.2,0.3,0.3,0.5,0.3,0.8c0.1-0.3,0.2-0.5,0.3-0.8
		c0.1-0.1,0.1-0.1-0.1-0.2c0,0,0,0-0.1,0c0,0,0,0-0.1,0c0.1,0,0.1,0,0.1,0c0.2,0,0.3-0.1,0.4-0.1c0.3-0.2,0.3-0.2,0.2-0.3
		c0,0,0,0-0.1-0.1h0.1h0.1c0,0,0,0,0.1,0c0,0,0,0-0.1-0.1c0,0-0.1-0.1-0.2-0.1c0.2,0,0.3,0,0.4,0C8.3,4.4,8.2,4.3,7.9,4.2
		C7.8,4.1,7.8,4,7.6,4.1c-0.2,0-0.3,0-0.3,0.1L7.2,4.3C7,4.3,6.8,4.4,6.7,4.5C6.8,4.5,6.9,4.5,7.1,4.6C7.1,4.5,7.1,4.5,7.1,4.6z"/>
	<path class="st1" d="M7.5,15c4.1,0,7.5-3.4,7.5-7.5C15,3.4,11.6,0,7.5,0S0,3.4,0,7.5C0,11.7,3.4,15,7.5,15z M2.5,6
		c0.1,0,0.3,0,0.3,0c0,0,0,0,0.1,0C2.8,5.8,2.7,5.7,2.6,5.5c0-0.1,0-0.2,0.1-0.2c0.1,0,0.2,0.1,0.3,0.1c0,0,0,0,0.1,0
		C2.9,5.3,2.8,5.1,2.8,5c0-0.1,0-0.2,0-0.3s0.1-0.1,0.2,0C3,4.8,3.2,5,3.4,5.1c0.1,0.1,0.1,0.1,0.2,0.2c0-0.2-0.1-0.3-0.2-0.3
		C3.3,4.8,3.2,4.6,3.1,4.5C3,4.3,3,4.2,3.1,4V4c0.1,0,0.1-0.1,0.2-0.1L3.4,4c0.3,0.4,0.5,0.8,0.8,1.2c0,0,0.1,0.1,0.1,0
		c0.1-0.1,0.1,0,0.1,0.1c0.1,0.1,0.3,0.3,0.3,0.4h0.1c0-0.1,0.1,0,0.1,0C5,5.8,5.1,5.9,5.2,6.1c0.1,0.1,0.3,0.3,0.3,0.3
		c0.1,0.2,0.1,0.3-0.1,0.4C5.3,7,5.3,7.2,5.6,7.3c0.2,0.1,0.3,0.1,0.5,0c0.1-0.1,0.1-0.1,0-0.2C6,7.1,5.9,6.9,6,6.8
		c0-0.1,0-0.1,0.1,0c0.2,0.1,0.3,0.1,0.5,0c0,0,0,0,0-0.1c0,0,0,0-0.1,0c-0.1,0-0.2,0-0.3-0.1c0,0,0,0,0-0.1c0,0,0,0,0.1,0
		c0.3,0,0.3-0.2,0.4-0.4c0-0.2-0.1-0.3-0.3-0.5L6.4,5.6C6.3,5.4,5.8,5.3,5.6,5.5c0,0-0.1,0.1-0.1,0.2s0,0.1-0.1,0
		c-0.1-0.1,0-0.2,0.1-0.2c0,0,0,0,0-0.1H5.5c-0.1,0-0.2,0.1-0.3,0.1c-0.2,0.1-0.3,0-0.4-0.1c0,0,0,0,0-0.1c0,0,0,0,0.1,0
		c0.1,0,0.3,0,0.3,0c0.2,0,0.3-0.1,0.5-0.2c-0.1-0.1-0.3-0.1-0.4,0c-0.1,0.1-0.1,0-0.1,0C5,5,5.1,4.7,5.3,4.7c0.1,0,0.2-0.1,0.3-0.1
		c0,0,0,0-0.1,0c-0.1,0-0.3-0.1-0.3-0.1C4.9,4.3,4.8,4.1,4.9,3.9c0,0,0,0,0-0.1c0-0.1,0-0.2,0-0.3c-0.1,0-0.2,0-0.2,0.1
		c-0.1,0-0.2,0.1-0.2,0.1C4.5,3.8,4.5,4,4.6,4c0,0.1,0.1,0.1,0.1,0.2c0,0.1,0,0.2,0,0.3C4.6,4.6,4.5,4.7,4.6,4.8
		c-0.2,0-0.3-0.2-0.2-0.3c0-0.1,0.1-0.1,0.1-0.2L4.4,4.5c-0.1,0-0.1,0-0.2,0C4.1,4.5,4,4.4,4,4.6H4C3.9,4.5,3.9,4.5,4,4.4
		C4,4.3,4,4.3,4.1,4.3c0,0,0,0,0.1,0h0.1V4.2L4.2,4.1C4,4,4,3.8,4.1,3.7c0.1,0,0.1-0.1,0.2-0.1c0.1,0,0.2-0.1,0.3-0.2l0.1-0.1
		c0.1-0.1,0.2-0.1,0.3,0c0.1,0,0.1,0,0.2,0c0.2,0.1,0.2,0.2,0.2,0.3c0,0.1-0.1,0.2-0.1,0.3c-0.1,0.2,0,0.2,0.1,0.3
		c0.1,0.1,0.2,0.1,0.3,0.1s0.1,0,0.1-0.1c0-0.1,0-0.2,0-0.2C5.6,4,5.6,4,5.6,4c0-0.2,0.1-0.3,0.2-0.3c0,0,0,0,0.1,0c0,0,0,0,0.1,0.1
		V3.7c0-0.1,0-0.2,0-0.2c-0.2-0.1,0-0.1,0-0.2c0,0,0.1-0.1,0.1,0c0,0,0,0,0.1,0c0,0,0,0-0.1,0.1c0,0.1,0,0.2,0,0.3
		c0,0.1,0.1,0.1,0.1,0c0-0.1,0.1-0.1,0.2,0c0.1,0,0.2,0.1,0.2,0.2c0,0.1,0,0.1,0,0.2S6.3,4.2,6.3,4.3c0,0.1,0,0.1,0.1,0.1
		C6.7,4.3,6.9,4.2,7.2,4c0.1-0.1,0.1-0.2,0-0.3C7,3.7,7,3.5,6.9,3.5C6.8,3.2,6.8,3,7.1,2.9c0.1,0,0.2-0.1,0.3-0.1h0.1h0.1V2.8
		c-0.1-0.1,0-0.2,0-0.3c0,0,0,0,0-0.1c0,0,0,0-0.1,0H7.3V2.4c0,0,0,0,0.1,0h0.1c0-0.1,0.1-0.1,0.1-0.1s0.1,0,0.1,0.1c0,0,0,0,0.1,0
		c0,0,0,0,0.1,0c0,0.1,0,0.1,0,0.2c0,0,0,0-0.1,0c-0.1,0-0.1,0,0,0.1c0,0.1,0.1,0.2,0,0.3v0.1h0.1h0.1C8,2.9,8.1,3,8.2,3
		c0.2,0.1,0.3,0.2,0.2,0.3C8.3,3.5,8.3,3.6,8.2,3.7C8.1,3.9,8.1,4,8.3,4.1s0.4,0.2,0.6,0.3h0.1V4.4c0-0.1-0.1-0.2-0.1-0.3
		C8.8,4,8.8,3.9,9,3.8h0.1c0,0,0,0,0.1,0c0,0,0,0,0-0.1c0-0.1,0-0.2,0-0.3V3.4c0-0.1,0.1,0,0.1-0.1c0.1,0,0.1,0,0.1,0s0,0,0.1,0v0.1
		H9.4c0,0.1,0,0.2,0,0.3h0.1c0.1-0.2,0.2,0,0.3,0c0.1,0.1,0.1,0.1,0.1,0.3C9.8,4,9.8,4,9.7,4v0.1c0,0.1,0,0.1,0,0.2
		c0.1,0,0.1,0,0.2,0h0.1c0.2,0,0.2-0.1,0.1-0.3C9.9,3.9,9.9,3.8,9.9,3.7c-0.1-0.2,0-0.3,0.1-0.3c0.1,0,0.1-0.1,0.2-0.1
		c0.2-0.1,0.3-0.1,0.3,0.1c0.1,0.1,0.2,0.3,0.3,0.3c0.1,0,0.1,0,0.2,0.1C11.2,3.8,11.2,4,11.1,4L11,4.1v0.1h0.1h0.1
		c0.1,0,0.2,0,0.2,0.1c0,0.1,0,0.1,0,0.2h-0.1c0-0.1-0.1-0.1-0.2-0.1c-0.1,0-0.2,0-0.3-0.1c0,0,0,0-0.1,0v0.1l0.1,0.1
		c0.1,0.2-0.1,0.3-0.2,0.3c0.1-0.1,0-0.2-0.1-0.3c-0.1-0.2-0.1-0.3,0-0.3c0-0.1,0.1-0.2,0.1-0.2c0-0.1,0-0.3-0.2-0.3
		c-0.1,0-0.1,0-0.2-0.1h-0.1c0,0.1,0,0.1,0,0.2c0,0.1,0.1,0.2,0.1,0.3c0.1,0.2,0,0.3-0.2,0.3c-0.1,0.1-0.3,0.1-0.3,0.1
		s-0.1,0-0.2,0.1c0.1,0,0.1,0.1,0.2,0.1C10,4.8,10.1,4.8,10.2,5c0.1,0.1,0,0.2,0,0.3s-0.1,0.1-0.2,0c-0.2-0.1-0.3-0.1-0.4,0
		c0.2,0,0.3,0.1,0.4,0.1c0.1,0,0.3,0.1,0.3,0c0,0,0,0,0.1,0c0,0,0,0,0,0.1c-0.1,0.1-0.3,0.2-0.4,0.2c-0.1,0-0.3-0.1-0.3-0.2
		c0,0,0,0-0.1,0c0,0,0,0,0,0.1c0.1,0.1,0.1,0.2,0.1,0.3H9.6C9.5,5.6,9.4,5.5,9.2,5.5c-0.1,0-0.2,0-0.3,0.1c-0.1,0-0.1,0.1-0.2,0.1
		C8.5,5.8,8.4,6,8.4,6.2c0,0.3,0.1,0.6,0.4,0.4c0.1,0,0.1,0,0,0.1c0,0.1-0.2,0.2-0.3,0.2H8.5c0,0,0,0.1,0.1,0.1C8.8,7,8.9,7,9,6.9
		c0.1,0,0.1,0,0.1,0c0,0.2,0,0.3-0.2,0.3c-0.1,0.1-0.1,0.1,0,0.2c0.2,0.2,0.6,0.1,0.7-0.1C9.7,7.2,9.7,7.1,9.5,7
		C9.4,6.8,9.4,6.7,9.4,6.6c0-0.1,0.1-0.1,0.2-0.2c0.1-0.1,0.3-0.2,0.3-0.3C10,6,10.1,5.9,10.2,5.8c0,0,0.1-0.1,0.1,0
		c0,0.1,0.1,0,0.1,0c0.2-0.2,0.3-0.3,0.4-0.5c0.1,0.1,0.1,0,0.1,0c0.3-0.3,0.5-0.8,0.8-1.2c0.1-0.1,0.2-0.1,0.2,0
		c0.1,0.1,0.1,0.3,0.1,0.3c0,0.3-0.2,0.5-0.3,0.8c-0.1,0.1-0.2,0.2-0.2,0.3c0,0,0,0,0,0.1c0,0,0,0,0.1,0c0.2-0.2,0.4-0.3,0.6-0.5
		c0,0,0.1-0.1,0.2-0.1c0,0.1,0.1,0.1,0.1,0.2c0,0.3-0.1,0.4-0.3,0.5L12,5.7c0.1,0,0.1,0,0.2,0c0.1,0,0.2,0,0.2-0.1
		c0.1,0,0.2,0,0.1,0.1c-0.1,0.2-0.2,0.3-0.3,0.5c0,0,0,0,0.1,0c0.2,0,0.3,0,0.4,0c0.1,0,0.1,0,0.1,0.1c0,0-0.1,0.1-0.3,0.2
		c-0.1,0-0.1,0.1-0.2,0.1c0,0,0,0,0.1,0c0.2,0,0.3,0,0.4,0c0.1,0,0.1,0.1,0.1,0.2C12.7,6.9,12.6,7,12.4,7c0,0,0,0-0.1,0
		c0.1,0,0.2,0.1,0.3,0.1c0.1,0,0.1,0.1,0,0.2s-0.2,0.2-0.3,0.2h-0.1c0,0,0.1,0,0.1,0.1c0.1,0.1,0.1,0.2,0.2,0.3c0,0.1,0,0.2-0.2,0.3
		c-0.1,0-0.2,0-0.3,0s-0.1,0,0,0.1c0.1,0.2,0.1,0.3-0.2,0.3c-0.1,0-0.1,0-0.2,0c0,0.1,0.1,0.1,0.1,0.2s0,0.2,0,0.3
		c-0.1,0.1-0.3,0.1-0.3,0c-0.1-0.1-0.2-0.3-0.3-0.3c-0.2-0.1-0.3-0.2-0.3-0.3C10.9,8.3,11,8.3,11,8.5c0.1,0.1,0.1,0.2,0.2,0.3
		c0.1,0.1,0,0.3-0.1,0.3c0,0,0,0-0.1,0c-0.2,0-0.3-0.1-0.3-0.3c-0.1-0.2-0.2-0.3-0.3-0.5c0,0,0,0-0.1-0.1v0.1
		c0.1,0.2,0.2,0.3,0.3,0.5c0.1,0.1,0,0.3-0.2,0.3c-0.1,0-0.3-0.1-0.3-0.2c-0.1-0.2-0.1-0.3-0.2-0.5L9.9,8.4c0,0.1,0,0.1,0,0.2
		c0,0.1,0.1,0.3,0,0.3c0,0.1-0.1,0.2-0.2,0.2c0,0-0.1,0-0.1-0.1C9.5,8.9,9.5,8.8,9.5,8.7c0-0.2-0.1-0.3-0.3-0.3
		c-0.2,0-0.2-0.1-0.2,0.1C9,8.6,9,8.8,9.1,9c0,0,0.1,0.1,0,0.1v0.1c0.1,0.1,0.2,0.2,0.3,0.2c0.1,0,0.2,0,0.2,0.1h0.1
		C9.9,9.5,10,9.7,9.9,10v0.1c0,0.1,0,0.2,0.2,0.2h0.1c0,0,0,0.1-0.1,0.1c-0.1,0.1-0.3,0.1-0.3,0c0,0,0,0-0.1,0v0.1
		c0,0.1,0,0.1,0,0.2c0,0,0,0,0,0.1c0,0,0,0-0.1,0c0,0-0.1,0-0.1-0.1c0,0-0.1-0.1-0.1,0c0,0,0,0-0.1,0v0.1c0,0.1,0.1,0.1,0.1,0.2
		c0.3,0.1,0.5,0.3,0.8,0.3c0.1,0,0.1,0,0.2,0c0.1-0.1,0.1-0.1,0-0.3c-0.1-0.1-0.1-0.2,0-0.3c0.1-0.1,0.1-0.3,0.2-0.3
		c0.1-0.1,0.2-0.1,0.3-0.2C11,10.1,11,10,11,10c0,0,0,0,0-0.1H11c-0.1,0.1-0.1,0-0.1,0V9.9c0-0.1,0-0.1,0.1,0H11c0,0,0,0,0-0.1
		c0-0.1,0-0.1,0-0.1h0.1c0.1,0,0.1,0,0.1,0.1c0,0,0,0,0,0.1h0.1c0.1-0.1,0.1,0,0.1,0.1c0,0,0.1,0.1-0.1,0.1h-0.1v0.1l0.1,0.1
		c0.2,0.1,0.3,0.3,0.4,0.4c0.2,0.3,0,0.4-0.2,0.6c0,0.1-0.1,0.1-0.1,0.2c0,0,0,0-0.1,0.1c-0.1,0.1-0.2,0.1-0.3,0.2
		c-0.2,0-0.3,0.1-0.5,0.1c-0.1,0-0.2-0.1-0.3-0.1c-0.2-0.1-0.3-0.2-0.6-0.2c-0.2,0-0.3-0.1-0.4-0.1c0,0,0,0,0,0c0,0,0,0.1-0.1,0.1
		v0.1c0.2,0.2,0.3,0.3,0.1,0.4l-0.1,0.1c0,0,0,0,0,0.1c0,0-0.1,0-0.1-0.1s0-0.1-0.1-0.2c0,0,0,0-0.1-0.1c0,0,0,0,0,0.1
		c0,0.3-0.3,0.4-0.5,0.3c-0.1-0.1-0.1-0.1-0.2,0c-0.1,0.2-0.3,0.3-0.5,0.2c-0.1,0-0.1,0-0.2,0.1c-0.2,0.3-0.3,0.3-0.4,0
		c-0.1-0.1-0.1-0.1-0.2-0.1c-0.3,0.1-0.4,0-0.6-0.2c0-0.1-0.1-0.1-0.1,0c0.1,0.3-0.1,0.3-0.2,0.3c-0.1-0.1-0.2-0.2-0.2-0.3v-0.1
		c0,0,0,0.1-0.1,0.1c0,0.1-0.1,0.1-0.1,0.2c0,0-0.1,0.1-0.1,0c0-0.1,0-0.1-0.1-0.2c-0.1-0.2-0.2-0.3,0.1-0.5c0.1,0,0.1-0.1,0-0.1
		c-0.2-0.1-0.1-0.3,0.1-0.4c0.1,0,0.1,0,0.1,0.1c0,0.2,0.1,0.2,0.3,0.2c0.1,0,0.1-0.1,0.2-0.1C6.6,11.2,6.8,11,7,11
		c0.1,0,0.1-0.1,0.2-0.1c0,0,0,0,0-0.1c0,0,0,0-0.1,0c-0.1,0-0.1,0-0.2,0.1c0,0,0,0-0.1,0v-0.1c0-0.1,0.1-0.1,0.2-0.2
		c0.1-0.1,0.2-0.1,0.2-0.3C7.2,10.2,7,10,6.8,10c-0.2-0.1-0.3-0.1-0.4,0.1c-0.1,0.1-0.1,0.2-0.1,0.3c0,0.1,0.1,0.2,0.2,0.2h0.1
		c0,0,0,0.1-0.1,0.1c-0.1,0-0.2,0.1-0.2,0.1c-0.1,0-0.1,0-0.1,0.1l0.1,0.1C6.4,11,6.3,11,6.2,11c-0.1,0-0.2,0-0.3,0
		c-0.4,0-0.8,0.1-1,0.3c-0.1,0-0.1,0.1-0.2,0.1c-0.1,0.1-0.1,0.1-0.1,0.2c0,0.1,0,0.3,0,0.3L4.6,12c-0.1-0.1-0.3-0.1-0.3-0.3
		c0,0,0,0-0.1-0.1C4.2,11.5,4,11.5,4,11.4c-0.1-0.1-0.1-0.2-0.2-0.3C3.8,11,3.9,11,3.9,11c0.1-0.1,0-0.2,0-0.3
		c-0.1-0.1-0.1-0.2-0.1-0.3c0,0,0-0.1-0.1-0.1c-0.1-0.2-0.2-0.4-0.3-0.6C3.3,9.4,3.2,9.1,3,8.8c0-0.1-0.1-0.2-0.2-0.2L2.8,8.6
		c0.1-0.1-0.1-0.1-0.1-0.2c-0.1,0.1-0.1,0-0.2,0C2.8,8.2,2.7,8.1,2.6,8V7.9c-0.1-0.1,0-0.1,0-0.2c0.1-0.1,0.1-0.1,0.2-0.1
		c-0.1-0.1,0-0.2-0.1-0.3c0,0-0.1-0.1-0.1-0.2c0.1,0,0.1-0.1,0.2-0.1c0.1,0,0.2-0.1,0.2-0.1C2.9,7.1,2.8,7,2.8,7
		C2.7,6.9,2.6,6.8,2.5,6.7s0-0.1,0.1-0.1c0.2,0,0.3,0,0.4,0C2.9,6.5,2.8,6.4,2.7,6.3c-0.1,0-0.2-0.1-0.3-0.2C2.4,6.1,2.4,6,2.5,6z"
		/>
	<path class="st1" d="M8.3,11c0.1,0.1,0.2,0.1,0.3,0.2c0,0,0,0,0-0.1c0-0.1,0-0.1,0-0.2H8.6c-0.1,0-0.2,0-0.3-0.1
		c-0.1,0-0.1,0-0.2-0.1c0,0-0.1,0-0.1,0.1C8.2,11,8.3,11,8.3,11z"/>
	<path class="st1" d="M7.1,12c0,0.1,0.1,0.2,0.1,0.3c0,0,0.1,0,0.1,0.1v-0.1c0-0.3,0.1-0.4,0.1-0.7c0-0.2,0.1-0.4,0.2-0.6
		c0,0,0,0,0-0.1c-0.1,0.1-0.1,0.3-0.2,0.3C7.2,11.5,7.2,11.7,7.1,12z"/>
	<path class="st1" d="M8.1,12c0-0.2,0-0.3-0.1-0.3c-0.1-0.2-0.2-0.4-0.3-0.6c0-0.1-0.1-0.1-0.1-0.2c0,0.1,0,0.1,0,0.2
		c0.1,0.4,0.2,0.8,0.2,1.2c0,0,0,0,0,0.1h0.1C8,12.1,8.1,12.1,8.1,12z"/>
	<path class="st1" d="M6.5,11.9C6.4,11.8,6.4,11.9,6.5,11.9c-0.1,0.1,0,0.2,0.1,0.2C6.7,11.9,6.6,11.9,6.5,11.9L6.5,11.9z"/>
	<path class="st1" d="M7.3,10.9C7.2,11,7,11.1,6.8,11.3c-0.1,0-0.2,0.2-0.3,0.3c0.1,0,0.1,0.1,0.2,0.1h0.1c0.1-0.2,0.3-0.3,0.3-0.5
		C7.2,11,7.2,11,7.3,10.9z"/>
	<path class="st1" d="M9,11.4c0,0,0.1,0,0.1,0c-0.1,0-0.2,0-0.2,0C9,11.3,9,11.4,9,11.4z"/>
	<path class="st1" d="M3.9,9.6C4,9.8,4,9.9,4.1,10c0,0.1,0.1,0.1,0.1,0.2c0.1,0.1,0.1,0.2,0.1,0.3c0,0.2,0.1,0.2,0.3,0.2
		c0.1,0,0.2,0,0.2,0.1C4.8,10.9,5,11,5.1,10.9c0.1,0,0.2-0.1,0.3-0.1c0.1-0.1,0.3-0.1,0.3-0.2c0,0,0.1-0.1,0-0.1c0-0.1-0.1,0-0.1,0
		c0-0.1-0.1,0-0.1,0s-0.1,0-0.1,0.1c0,0,0,0-0.1,0c0,0,0,0,0-0.1c0-0.1,0-0.1,0-0.2v-0.1H5.3c-0.1,0.1-0.3,0.1-0.3,0c0,0,0,0,0-0.1
		c0,0,0,0,0.1,0c0.1,0,0.2-0.1,0.2-0.1c0-0.1,0-0.1,0-0.2C5.1,9.7,5.3,9.4,5.6,9.4h0.1c0-0.1,0.1-0.1,0.2-0.1s0.2,0,0.3-0.2V9
		C6,9,6,9,6.1,8.9c0.1-0.2,0.1-0.4,0-0.6C6,8.3,6,8.3,5.9,8.3H5.8C5.7,8.5,5.7,8.6,5.7,8.7c0,0.2-0.1,0.3-0.3,0.4H5.4
		C5.3,9,5.2,9,5.2,8.9c0-0.1,0-0.3,0-0.3c0-0.1,0-0.1,0-0.2L5.1,8.5c0,0.3-0.1,0.4-0.1,0.6c0,0.1-0.3,0.2-0.3,0.2
		C4.7,9.2,4.6,9,4.6,8.9c0.1-0.2,0.2-0.3,0.3-0.5V8.3c0,0,0,0-0.1,0.1C4.7,8.6,4.6,8.8,4.5,8.9c0,0.1-0.1,0.2-0.3,0.2H4.1
		C4,8.9,4,8.8,4.1,8.7c0.1-0.2,0.3-0.3,0.3-0.5c0,0,0,0,0-0.1H4.4C4.2,8.3,4,8.4,3.9,8.7C3.8,8.8,3.7,8.8,3.5,8.8H3.5v0.1
		C3.6,9.1,3.7,9.4,3.9,9.6z"/>
	<path class="st1" d="M8.6,10.6c0-0.1,0-0.2-0.1-0.3c-0.2-0.2-0.5-0.1-0.6,0.2C7.8,10.7,7.8,10.9,8,11c0,0,0.1-0.1,0.1-0.1
		c0,0,0,0,0,0c0-0.1,0-0.1,0-0.1c0.1,0,0.1,0,0.1,0c0,0,0,0,0,0c0.1-0.1,0.2-0.1,0.2,0C8.5,10.8,8.6,10.8,8.6,10.6z"/>
	<path class="st1" d="M8.6,11.8C8.5,11.8,8.5,11.8,8.6,11.8c0,0.2,0,0.2,0.1,0.3c0.1,0,0.1-0.1,0.1-0.1s0-0.1,0-0.2H8.6
		C8.7,11.8,8.7,11.8,8.6,11.8z"/>
	<path class="st1" d="M8.6,11.5c0-0.1-0.1-0.2-0.1-0.2C8.3,11.2,8.2,11,7.9,11C7.9,11,8,11,8,11.1c0.2,0.2,0.3,0.3,0.4,0.5l0.1,0.1
		C8.5,11.6,8.6,11.5,8.6,11.5z"/>
	<path class="st2" d="M7.7,5.1C7.7,5.1,7.7,5.1,7.7,5.1"/>
	<path class="st3" d="M3,6.7c-0.2,0-0.3,0-0.4,0c-0.1,0-0.2,0-0.1,0.1S2.7,6.9,2.8,7c0,0,0.1,0.1,0.2,0.1c0,0-0.1,0.1-0.2,0.1
		c-0.1,0-0.1,0.1-0.2,0.1c0,0.1,0.1,0.2,0.1,0.2c0.1,0.1,0,0.2,0.1,0.3c-0.1,0-0.1,0-0.2,0.1c0,0.1-0.1,0.1,0,0.2V8
		c0.1,0.1,0.2,0.2-0.1,0.4c0.1,0,0.1,0.1,0.2,0c0,0.1,0.2,0.1,0.1,0.2l0.1,0.1C2.9,8.7,3,8.8,3,8.8c0.2,0.3,0.3,0.5,0.4,0.8
		c0.1,0.2,0.2,0.4,0.3,0.6c0.1,0,0.1,0.1,0.1,0.1c0,0.2,0,0.3,0.1,0.3c0,0.1,0.1,0.2,0,0.3c0,0.1-0.1,0.1-0.1,0.2
		c0.1,0.1,0.1,0.2,0.2,0.3c0.1,0.1,0.3,0.2,0.3,0.3c0.1,0.1,0.1,0.1,0.1,0.1c0,0.2,0.2,0.2,0.3,0.3l0.1-0.1c0-0.1,0-0.3,0-0.3
		c0-0.1,0-0.1,0.1-0.2c0.1,0,0.1-0.1,0.2-0.1C5.2,11.1,5.6,11,6,11c0.1,0,0.2,0,0.3,0C6.3,11,6.4,11,6.3,10.9l-0.1-0.1
		c0-0.1,0-0.1,0.1-0.1c0,0,0.1-0.1,0.2-0.1c0.1,0,0.1-0.1,0.1-0.1H6.5c-0.1,0-0.2-0.1-0.2-0.2c0-0.1,0-0.2,0.1-0.3
		C6.6,9.9,6.7,9.9,6.8,10c0.2,0,0.3,0.2,0.3,0.3c0,0.2-0.1,0.2-0.2,0.3c-0.1,0.1-0.2,0.1-0.2,0.2v0.1c0.1,0,0.1,0,0.1,0
		C7,10.8,7,10.8,7.1,10.8c0.1,0,0.1,0,0.1,0c0,0.1,0,0.1,0,0.1C7.1,10.9,7.1,11,7,11c-0.2,0.1-0.4,0.3-0.6,0.3
		c-0.1,0-0.1,0.1-0.2,0.1c-0.2,0-0.3,0-0.3-0.2c0-0.1,0-0.1-0.1-0.1c-0.2,0.1-0.3,0.3-0.1,0.4c0.1,0,0.1,0.1,0,0.1
		c-0.3,0.2-0.2,0.3-0.1,0.5c0.1,0.1,0.1,0.1,0.1,0.2c0,0.1,0.1,0,0.1,0c0-0.1,0.1-0.1,0.1-0.2c0.1,0,0.1-0.1,0.1-0.1v0.1
		c0,0.1,0.1,0.2,0.2,0.3c0.1,0,0.3,0,0.2-0.3c0-0.1,0.1-0.1,0.1,0c0.2,0.2,0.3,0.3,0.6,0.2c0.1,0,0.1,0,0.2,0.1
		c0.2,0.3,0.3,0.3,0.4,0c0.1-0.1,0.1-0.1,0.2-0.1c0-0.1,0-0.1,0-0.1c0-0.4-0.1-0.8-0.2-1.2c0-0.1,0-0.1,0-0.2C7.7,11,7.8,11,7.8,11
		c0.1,0.2,0.2,0.4,0.3,0.6c0.1,0.1,0.1,0.2,0.1,0.3c0,0.1-0.1,0.2-0.2,0.3H7.8c0.2,0.1,0.4,0,0.5-0.2c0.1-0.1,0.1-0.1,0.2,0
		C8.7,12.3,9,12.2,9,11.9c0-0.1,0-0.1,0-0.1c0.1,0.1,0.1,0.1,0.1,0.1C9.2,12,9.2,12,9.2,12.1s0.1,0.1,0.1,0.1c0-0.1,0-0.1,0-0.1
		L9.4,12c0.2-0.2,0.1-0.3-0.1-0.4v-0.1c0,0,0-0.1,0.1-0.1c0,0,0,0,0,0c0.2,0,0.3,0.1,0.4,0.1c0.3,0,0.4,0.1,0.6,0.2
		c0.1,0,0.2,0.1,0.3,0.1c0.2,0,0.3-0.1,0.5-0.1c0.1-0.1,0.2-0.1,0.3-0.2c0.1-0.1,0.1-0.1,0.1-0.1c0-0.1,0.1-0.1,0.1-0.2
		c0.2-0.2,0.3-0.3,0.2-0.6c-0.1-0.2-0.3-0.3-0.4-0.4l-0.1-0.1V10h0.1c0.2,0,0.1-0.1,0.1-0.1c0-0.1,0-0.2-0.1-0.1h-0.1
		c0-0.1,0-0.1,0-0.1c0-0.1,0-0.1-0.1-0.1H11c0,0,0,0,0,0.1c0,0.1,0,0.1,0,0.1H11c-0.1-0.1-0.1-0.1-0.1,0v0.1c0,0,0,0.1,0.1,0H11
		c0,0.1,0,0.1,0,0.1c-0.1,0-0.1,0.1-0.2,0.1c-0.1,0.1-0.2,0.1-0.3,0.2c-0.1,0.1-0.1,0.3-0.2,0.3c-0.1,0.1-0.1,0.2,0,0.3
		c0.1,0.2,0.1,0.2,0,0.3c-0.1,0-0.1,0-0.2,0c-0.3,0-0.6-0.2-0.8-0.3c0-0.1-0.1-0.1-0.1-0.2v-0.1c0.1,0,0.1,0,0.1,0
		c0-0.1,0.1,0,0.1,0c0,0.1,0.1,0.1,0.1,0.1c0.1,0,0.1,0,0.1,0c0-0.1,0-0.1,0-0.1c0-0.1,0-0.1,0-0.2v-0.1c0.1,0,0.1,0,0.1,0
		c0.1,0.1,0.3,0.1,0.3,0c0.1,0,0.1-0.1,0.1-0.1h-0.1c-0.2,0-0.2-0.1-0.2-0.2V10C10,9.7,9.9,9.5,9.6,9.4H9.5c0-0.1-0.1-0.1-0.2-0.1
		c-0.1,0-0.2-0.1-0.3-0.2V9.1c0.1,0,0-0.1,0-0.1C9,8.8,9,8.6,9.1,8.4c0-0.2,0-0.1,0.2-0.1c0.2,0.1,0.3,0.2,0.3,0.3
		c0,0.2,0,0.3,0.2,0.3c0,0.1,0.1,0.1,0.1,0.1c0.1,0,0.2-0.1,0.2-0.2c0.1-0.1,0-0.3,0-0.3c0-0.1,0-0.1,0-0.2L10,8.5
		c0.1,0.2,0.1,0.3,0.2,0.5c0,0.1,0.2,0.2,0.3,0.2c0.2,0,0.3-0.3,0.2-0.3c-0.1-0.2-0.2-0.3-0.3-0.5V8.3c0.1,0.1,0.1,0.1,0.1,0.1
		c0.1,0.2,0.2,0.3,0.3,0.5C10.8,9,10.9,9.1,11,9.1c0.1,0,0.1,0,0.1,0c0.1-0.1,0.2-0.3,0.1-0.3c-0.1-0.1-0.1-0.2-0.2-0.3
		c-0.1-0.2-0.2-0.3-0.3-0.3c0.1,0.1,0.2,0.2,0.3,0.3c0.2,0.1,0.3,0.3,0.3,0.3c0.1,0.1,0.3,0.1,0.3,0c0-0.1,0-0.2,0-0.3
		s-0.1-0.1-0.1-0.2c0.1,0,0.1,0,0.2,0c0.3,0,0.3-0.1,0.2-0.3C12,8,12,8,12.1,8s0.2,0,0.3,0c0.2-0.1,0.2-0.2,0.2-0.3
		c-0.1-0.1-0.1-0.2-0.2-0.3c0-0.1-0.1-0.1-0.1-0.1h0.1c0.2,0,0.3-0.1,0.3-0.2s0.1-0.2,0-0.2c-0.2,0-0.3-0.1-0.3-0.1
		c0.1,0,0.1,0,0.1,0c0.2,0,0.3-0.1,0.4-0.3c0-0.1,0-0.2-0.1-0.2c-0.2,0-0.3,0-0.4,0c-0.1,0-0.1,0-0.1,0c0.1,0,0.1-0.1,0.2-0.1
		c0.2-0.1,0.3-0.2,0.3-0.2c0-0.1,0-0.1-0.1-0.1c-0.2,0-0.3,0-0.4,0c-0.1,0-0.1,0-0.1,0c0.2-0.2,0.3-0.3,0.3-0.5
		c0.1-0.1,0-0.1-0.1-0.1c0,0.1-0.1,0.1-0.2,0.1c-0.1,0-0.1,0-0.2,0l0.1-0.1c0.2-0.1,0.3-0.3,0.3-0.5c0-0.1-0.1-0.1-0.1-0.2
		c-0.1,0-0.2,0.1-0.2,0.1c-0.2,0.2-0.4,0.3-0.6,0.5c-0.1,0-0.1,0-0.1,0c0-0.1,0-0.1,0-0.1c0-0.1,0.1-0.2,0.2-0.3
		c0.2-0.3,0.3-0.5,0.3-0.8c0-0.1,0-0.3-0.1-0.3c0-0.1-0.1-0.1-0.2,0c-0.3,0.4-0.4,0.8-0.8,1.2c0,0,0,0.1-0.1,0
		c-0.2,0.3-0.3,0.3-0.4,0.5c0,0-0.1,0.1-0.1,0c0-0.1-0.1,0-0.1,0C10.1,5.9,10,6,9.9,6.1C9.9,6.2,9.7,6.3,9.6,6.4
		C9.5,6.5,9.4,6.5,9.4,6.6C9.4,6.7,9.4,6.8,9.5,7c0.2,0.1,0.2,0.3,0.1,0.3C9.5,7.5,9.1,7.6,8.9,7.4c-0.1-0.1-0.1-0.1,0-0.2
		c0.2-0.1,0.2-0.2,0.2-0.3c0,0,0,0-0.1,0C8.9,7,8.8,7,8.6,6.9c-0.1,0-0.1-0.1-0.1-0.1h0.1c0.1,0,0.3-0.1,0.3-0.2
		c0.1-0.1,0.1-0.1,0-0.1C8.5,6.7,8.4,6.4,8.4,6.2c0-0.2,0.1-0.3,0.3-0.5c0.1,0,0.1-0.1,0.2-0.1C9,5.5,9.1,5.5,9.2,5.5
		c0.2,0,0.3,0.1,0.4,0.3h0.1c0-0.1,0-0.2-0.1-0.3c0-0.1,0-0.1,0-0.1c0.1,0,0.1,0,0.1,0C9.8,5.5,9.9,5.6,10,5.6
		c0.2,0,0.3-0.1,0.4-0.2c0-0.1,0-0.1,0-0.1c-0.1,0-0.1,0-0.1,0c-0.1,0.1-0.3,0-0.3,0c-0.2,0-0.3-0.1-0.4-0.1c0.1-0.1,0.3-0.1,0.4,0
		c0.1,0.1,0.2,0.1,0.2,0s0.1-0.2,0-0.3C10.1,4.8,10,4.8,9.9,4.7c-0.1,0-0.1-0.1-0.2-0.1c0.1-0.1,0.1-0.1,0.2-0.1s0.3,0,0.3-0.1
		c0.2,0,0.3-0.2,0.2-0.3c0-0.1-0.1-0.2-0.1-0.3c0-0.1,0-0.1,0-0.2h0.1c0.1,0.1,0.1,0.1,0.2,0.1c0.2,0,0.2,0.2,0.2,0.3
		c0,0-0.1,0.1-0.1,0.2c-0.1,0.1-0.1,0.2,0,0.3c0.1,0.1,0.2,0.2,0.1,0.3c0.1,0,0.3-0.2,0.2-0.3l-0.1-0.1V4.3c0.1,0,0.1,0,0.1,0
		C11,4.4,11,4.4,11.1,4.4c0.1,0,0.2,0,0.2,0.1h0.1c0-0.1,0-0.1,0-0.2c0-0.1-0.1-0.1-0.2-0.1h-0.1H11V4.1L11.1,4
		C11.2,4,11.2,3.8,11,3.7C11,3.6,11,3.6,10.9,3.6c-0.2,0-0.3-0.2-0.3-0.3c-0.1-0.2-0.2-0.2-0.3-0.1c-0.1,0-0.1,0.1-0.2,0.1
		C9.9,3.5,9.9,3.5,9.9,3.7c0,0.1,0,0.2,0.1,0.3c0.1,0.3,0.1,0.3-0.1,0.3H9.9c-0.1,0-0.1,0-0.2,0c0-0.1,0-0.1,0-0.2V4
		C9.8,4,9.8,4,9.8,3.9c0-0.2,0-0.2-0.1-0.3c-0.1,0-0.2-0.2-0.3,0H9.4c0-0.1,0-0.2,0-0.3h0.1V3.3c-0.1,0-0.1,0-0.1,0s0,0-0.1,0
		c0,0.1-0.1,0-0.1,0.1v0.1c0,0.1,0,0.2,0,0.3c0,0.1,0,0.1,0,0.1c-0.1,0-0.1,0-0.1,0H9C8.8,3.9,8.8,4,8.8,4.1c0,0.1,0.1,0.2,0.1,0.3
		v0.1H8.8C8.7,4.3,8.4,4.2,8.3,4.1S8.1,3.9,8.2,3.7c0.1-0.1,0.1-0.3,0.2-0.3c0.1-0.2,0-0.3-0.2-0.3C8.1,3,8,2.9,7.9,2.9H7.8H7.8V2.9
		c0.1-0.1,0-0.2,0-0.3c-0.1-0.1-0.1-0.1,0-0.1c0.1,0,0.1,0,0.1,0c0-0.1,0-0.1,0-0.2c-0.1,0-0.1,0-0.1,0c-0.1,0-0.1,0-0.1,0
		c0-0.1-0.1-0.1-0.1-0.1s-0.1,0-0.1,0.1H7.4c-0.1,0-0.1,0-0.1,0v0.1h0.1c0.1,0,0.1,0,0.1,0c0,0.1,0,0.1,0,0.1c0,0.1-0.1,0.2,0,0.3
		v0.1H7.4H7.3c-0.1,0-0.2,0.1-0.3,0.1C6.8,3,6.8,3.2,6.9,3.5C7,3.5,7,3.7,7.2,3.7c0.1,0.1,0.1,0.2,0,0.3C6.9,4.2,6.7,4.3,6.4,4.4
		c-0.1,0-0.1,0-0.1-0.1c0-0.1,0.1-0.2,0.1-0.3s0-0.1,0-0.2c0-0.1-0.1-0.2-0.2-0.2c-0.1-0.1-0.2-0.1-0.2,0c0,0.1-0.1,0.1-0.1,0
		c0-0.1,0-0.2,0-0.3c0.1-0.1,0.1-0.1,0.1-0.1C6,3.4,6,3.4,6,3.4c0-0.1-0.1,0-0.1,0c0,0.1-0.2,0.1,0,0.2c0,0,0,0.1,0,0.2v0.1
		C5.8,3.7,5.8,3.7,5.8,3.7c-0.1,0-0.1,0-0.1,0C5.6,3.7,5.6,3.8,5.6,4C5.6,4,5.6,4,5.6,4.1c0,0,0,0.1,0,0.2c0,0.1,0,0.1-0.1,0.1
		s-0.2,0-0.3-0.1C5.2,4.2,5.1,4.2,5.2,4c0-0.2,0.1-0.3,0.1-0.3c0-0.2,0-0.3-0.2-0.3c-0.1,0-0.1,0-0.2,0c-0.2-0.1-0.3-0.1-0.3,0
		L4.6,3.5C4.5,3.5,4.4,3.6,4.3,3.6c-0.1,0-0.1,0.1-0.2,0.1C4,3.8,4,4,4.2,4.1l0.1,0.1v0.1H4.2c-0.1,0-0.1,0-0.1,0C4,4.3,4,4.3,4,4.4
		C3.9,4.5,3.9,4.5,4,4.6H4c0-0.2,0.1-0.1,0.2-0.1c0.1,0,0.1,0,0.2,0l0.1-0.1c0,0.1-0.1,0.1-0.1,0.2c-0.1,0.1,0,0.3,0.2,0.3
		c-0.1-0.1,0-0.3,0.1-0.3c0-0.1,0-0.2,0-0.3c0-0.1-0.1-0.1-0.1-0.2C4.5,4,4.5,3.8,4.6,3.7c0,0,0.1-0.1,0.2-0.1
		c0-0.1,0.1-0.1,0.2-0.1c0,0.1,0,0.2,0,0.3c0,0.1,0,0.1,0,0.1c-0.1,0.3,0,0.4,0.3,0.7c0.1,0,0.3,0.1,0.3,0.1c0.1,0,0.1,0,0.1,0
		c-0.1,0-0.2,0.1-0.3,0.1C5.1,4.7,5,5,5.2,5.1c0,0,0,0.1,0.1,0c0.1-0.1,0.3-0.1,0.4,0C5.6,5.2,5.4,5.3,5.2,5.3c-0.1,0-0.3,0-0.3,0
		c-0.1,0-0.1,0-0.1,0c0,0.1,0,0.1,0,0.1c0.1,0.1,0.3,0.2,0.4,0.1c0.1,0,0.2-0.1,0.3-0.1h0.1c0,0.1,0,0.1,0,0.1
		c-0.1,0-0.2,0.1-0.1,0.2c0.1,0.1,0.1,0.1,0.1,0s0.1-0.2,0.1-0.2c0.2-0.2,0.7-0.1,0.8,0.1l0.1,0.1C6.7,5.8,6.7,6,6.7,6.2
		C6.7,6.4,6.6,6.6,6.3,6.6c-0.1,0-0.1,0-0.1,0c0,0.1,0,0.1,0,0.1c0.1,0.1,0.2,0.1,0.3,0.1c0.1,0,0.1,0,0.1,0c0,0.1,0,0.1,0,0.1
		c-0.2,0.1-0.3,0.1-0.5,0C6,6.7,6,6.7,6,6.8C5.9,6.9,6,7.1,6.1,7.2c0.1,0.1,0.1,0.1,0,0.2c-0.2,0.1-0.3,0.1-0.5,0
		C5.3,7.2,5.3,7,5.5,6.8c0.2-0.2,0.2-0.3,0.1-0.4C5.5,6.3,5.3,6.2,5.2,6.1C5.1,5.9,5,5.8,4.8,5.6c0,0-0.1-0.1-0.1,0H4.6
		C4.6,5.5,4.4,5.3,4.3,5.2c0-0.1,0-0.2-0.1-0.1c0,0.1-0.1,0-0.1,0C3.9,4.7,3.6,4.4,3.4,4L3.3,3.9C3.2,3.9,3.2,4,3.1,4V4
		C3,4.2,3,4.3,3.1,4.5C3.2,4.6,3.3,4.8,3.4,5c0.1,0.1,0.2,0.2,0.2,0.3C3.5,5.2,3.5,5.2,3.4,5.1C3.2,5,3,4.8,2.9,4.7
		c-0.1-0.1-0.2-0.1-0.2,0s0,0.2,0,0.3c0,0.2,0.2,0.3,0.3,0.4c-0.1,0-0.1,0-0.1,0c-0.1,0-0.2-0.1-0.3-0.1c-0.1,0-0.1,0.1-0.1,0.2
		C2.7,5.7,2.8,5.8,2.9,6C2.9,6,2.9,6,2.9,6C2.8,6,2.6,6,2.5,6S2.4,6.1,2.4,6.2c0.1,0.1,0.2,0.2,0.3,0.2C2.8,6.4,2.9,6.5,3,6.7z
		 M6.6,12.1c-0.1,0-0.2-0.1-0.2-0.1c0-0.1,0-0.2,0.1-0.1h0.1C6.6,11.9,6.7,11.9,6.6,12.1z M6.8,11.6L6.8,11.6
		c-0.2,0-0.2-0.1-0.3-0.1c0.1-0.1,0.2-0.3,0.3-0.3C7,11.1,7.2,11,7.3,10.9C7.2,11,7.2,11,7.2,11.1C7.1,11.3,6.9,11.5,6.8,11.6z
		 M7.5,11c-0.1,0.2-0.2,0.4-0.2,0.6c0,0.3-0.1,0.4-0.1,0.7v0.1c0-0.1-0.1-0.1-0.1-0.1c0-0.1-0.1-0.2-0.1-0.3
		c0.1-0.3,0.2-0.5,0.3-0.8C7.4,11.1,7.4,11,7.5,11C7.5,11,7.5,11,7.5,11z M8.2,10.8c0.1,0.1,0.1,0.1,0.2,0.1C8.4,11,8.5,11,8.6,11
		h0.1c0,0.1,0,0.1,0,0.2c0,0,0,0,0,0.1c-0.1-0.1-0.2-0.1-0.3-0.2C8.3,11,8.2,11,8.2,10.8C8.1,10.9,8,10.9,8,11
		c-0.2-0.1-0.2-0.3-0.1-0.4c0.1-0.3,0.4-0.3,0.6-0.2c0.1,0.1,0.1,0.2,0.1,0.3c0,0.2-0.1,0.2-0.2,0.2C8.4,10.7,8.3,10.7,8.2,10.8z
		 M8.4,11.6c-0.2-0.2-0.3-0.3-0.4-0.5C8,11,7.9,11,7.9,11c0.3,0.1,0.4,0.3,0.6,0.4c0,0,0.1,0.1,0.1,0.2C8.6,11.5,8.5,11.6,8.4,11.6
		L8.4,11.6z M8.8,12C8.8,12,8.8,12.1,8.8,12c-0.2,0-0.2,0-0.3-0.1c0-0.1,0-0.1,0.1-0.1c0.1,0,0.1,0,0.1,0h0.1
		C8.8,11.9,8.8,12,8.8,12z M9,11.4c0,0-0.1,0-0.1-0.1c0.1,0,0.2,0,0.2,0C9.1,11.4,9.1,11.4,9,11.4z M6.7,4.5C6.8,4.4,7,4.3,7.2,4.3
		l0.1-0.1c0.1-0.1,0.2-0.1,0.3-0.1c0.2-0.1,0.3,0,0.3,0.1c0.3,0.1,0.4,0.2,0.7,0.3c-0.2,0-0.3,0-0.4,0c0.1,0,0.2,0.1,0.2,0.1
		c0.1,0.1,0.1,0.1,0.1,0.1c-0.1,0-0.1,0-0.1,0H8.3H8.2c0.1,0.1,0.1,0.1,0.1,0.1c0.1,0.1,0.2,0.1-0.2,0.3c-0.2,0-0.3,0.1-0.4,0.1
		c0.1,0,0.1,0,0.1,0c0.2,0.1,0.2,0.1,0.1,0.2C7.7,5.6,7.6,5.8,7.5,6.1c0-0.3-0.2-0.6-0.3-0.8c0-0.1,0-0.1,0.1-0.1
		c0.1,0,0.1-0.1,0.2-0.1c-0.1,0-0.2,0-0.2,0C7.2,5,7,5,6.9,4.9c-0.1,0-0.1-0.1,0-0.1L7,4.7H6.9c-0.1,0-0.1,0-0.2,0
		c0-0.1,0.1-0.1,0.1-0.1c0.1,0,0.2-0.1,0.3-0.1c0-0.1,0-0.1,0-0.1C6.9,4.5,6.8,4.5,6.7,4.5z M3.5,8.8L3.5,8.8c0.3,0,0.3,0,0.4-0.1
		C4,8.4,4.2,8.3,4.4,8.1h0.1c0,0.1,0,0.1,0,0.1C4.4,8.3,4.2,8.5,4.1,8.7C4,8.8,4,8.9,4.1,9.1h0.1c0.2,0,0.3-0.1,0.3-0.2
		c0.2-0.2,0.3-0.3,0.3-0.5c0.1-0.1,0.1-0.1,0.1-0.1v0.1C4.8,8.6,4.7,8.8,4.6,8.9c0,0.1,0.1,0.3,0.2,0.3c0,0,0.3-0.1,0.3-0.2
		c0-0.2,0.1-0.3,0.1-0.6l0.1-0.1c0,0.1,0,0.1,0,0.2c0,0.1,0,0.3,0,0.3C5.2,9,5.3,9,5.4,9.1h0.1C5.6,9,5.7,8.8,5.7,8.7
		c0-0.1,0-0.2,0.1-0.4h0.1c0.1,0,0.1,0,0.2,0.1c0.1,0.2,0.1,0.4,0,0.6C6,9,6,9,6.1,9v0.1C6,9.3,5.9,9.3,5.8,9.3s-0.2,0-0.2,0.1H5.6
		C5.3,9.4,5.1,9.7,5.2,9.9c0,0.1,0,0.1,0,0.2c0,0-0.1,0.1-0.2,0.1c-0.1,0-0.1,0-0.1,0c0,0.1,0,0.1,0,0.1c0.1,0.1,0.3,0.1,0.3,0h0.1
		v0.1c0,0.1,0,0.1,0,0.2c0,0.1,0,0.1,0,0.1c0.1,0,0.1,0,0.1,0c0-0.1,0.1-0.1,0.1-0.1s0.1-0.1,0.1,0c0,0,0.1-0.1,0.1,0
		c0.1,0,0,0.1,0,0.1c-0.1,0.1-0.3,0.1-0.3,0.2c-0.1,0-0.2,0.1-0.3,0.1c-0.2,0.1-0.3,0-0.4-0.2c0-0.1-0.1-0.1-0.2-0.1
		c-0.2,0-0.3,0-0.3-0.2c0-0.1,0-0.2-0.1-0.3c0-0.1-0.1-0.1-0.1-0.2C4,9.9,4,9.8,3.9,9.6C3.7,9.4,3.6,9.1,3.5,8.8L3.5,8.8z"/>
	<path class="st3" d="M8.1,10.8C8.1,10.8,8.1,10.8,8.1,10.8C8.1,10.9,8.1,10.9,8.1,10.8C8.1,10.8,8.2,10.8,8.1,10.8
		C8.2,10.8,8.2,10.8,8.1,10.8C8.2,10.8,8.2,10.8,8.1,10.8z"/>
</g>
</svg>
