<?xml version="1.0" encoding="utf-8"?>
<!-- Generator: Adobe Illustrator 21.0.0, SVG Export Plug-In . SVG Version: 6.00 Build 0)  -->
<svg version="1.1" id="Слой_1" xmlns="http://www.w3.org/2000/svg" xmlns:xlink="http://www.w3.org/1999/xlink" x="0px" y="0px"
	 viewBox="0 0 17.9 26.1" style="enable-background:new 0 0 17.9 26.1;" xml:space="preserve">
<style type="text/css">
	.st0{fill:#CE112D;}
	.st1{enable-background:new    ;}
	.st2{fill:#FFFFFF;}
</style>
<g>
	<g>
		<g>
			<path class="st0" d="M6,5.5c0,0-3.4,0.3-5.6,0.5C0.3,6,0.1,6.2,0.1,6.4s0,0.3,0.2,0.5c1.6,1.6,4.2,4,4.2,4s-0.8,3.2-1.1,5.6
				c0,0.2,0,0.3,0.2,0.5s0.3,0.2,0.5,0c2-1.1,4.8-2.9,4.8-2.9s2.9,1.6,4.8,2.9c0.2,0.2,0.3,0.2,0.5,0s0.2-0.3,0.2-0.5
				c-0.3-2.3-1.1-5.6-1.1-5.6s2.5-2.3,4.2-3.7c0.2-0.2,0.2-0.3,0.2-0.5s-0.2-0.3-0.3-0.3C15.3,5.9,12,5.5,12,5.5s-1.4-3.1-2.3-5.2
				C9.7,0.1,9.3,0,9.1,0C8.9,0,8.6,0.1,8.3,0.2C7.5,2.4,6,5.5,6,5.5z"/>
		</g>
	</g>
</g>
<g class="st1">
	<path class="st2" d="M5.2,7.5c0.2,0,0.3,0,0.4-0.1c0.1,0,0.2-0.1,0.2-0.1C5.9,7.3,5.9,7.2,6,7.1C6,7.1,6,7,6.1,6.9h0.5v5.2H5.8v-4
		H5.2V7.5z"/>
</g>
<g class="st1">
	<path class="st2" d="M7.4,10.4l1.5-3.5h0.9v3.5h0.4v0.7H9.8v0.9H9v-0.9H7.4V10.4z M9,10.4V8.5l-0.8,1.9H9z"/>
	<path class="st2" d="M12,9.2h1v0.6h-1v1h-0.6v-1h-1V9.2h1v-1H12V9.2z"/>
</g>
</svg>
