<?xml version="1.0" encoding="utf-8"?>
<!-- Generator: Adobe Illustrator 21.0.0, SVG Export Plug-In . SVG Version: 6.00 Build 0)  -->
<svg version="1.1" id="Слой_1" xmlns="http://www.w3.org/2000/svg" xmlns:xlink="http://www.w3.org/1999/xlink" x="0px" y="0px"
	 viewBox="0 0 17.9 26.1" style="enable-background:new 0 0 17.9 26.1;" xml:space="preserve">
<style type="text/css">
	.st0{fill:#CE112D;}
	.st1{fill:#FFFFFF;}
	.st2{font-family:'BebasNeueBold';}
	.st3{font-size:7.4011px;}
</style>
<g>
	<g>
		<g>
			<path class="st0" d="M6,5.5c0,0-3.4,0.3-5.6,0.5C0.3,6,0.1,6.2,0.1,6.4s0,0.3,0.2,0.5c1.6,1.6,4.2,4,4.2,4s-0.8,3.2-1.1,5.6
				c0,0.2,0,0.3,0.2,0.5s0.3,0.2,0.5,0c2-1.1,4.8-2.9,4.8-2.9s2.9,1.6,4.8,2.9c0.2,0.2,0.3,0.2,0.5,0c0.2-0.2,0.2-0.3,0.2-0.5
				c-0.3-2.3-1.1-5.6-1.1-5.6s2.5-2.3,4.2-3.7c0.2-0.2,0.2-0.3,0.2-0.5s-0.2-0.3-0.3-0.3C15.3,5.9,12,5.5,12,5.5s-1.4-3.1-2.3-5.2
				C9.7,0.1,9.3,0,9.1,0C8.9,0,8.6,0.1,8.3,0.2C7.5,2.4,6,5.5,6,5.5z"/>
		</g>
	</g>
</g>
<text transform="matrix(1 0 0 1 4.3799 12.0787)"><tspan x="0" y="0" class="st1 st2 st3">1</tspan><tspan x="2.9" y="0" class="st1 st2 st3">4+</tspan></text>
</svg>
