<svg id="cdcb6f9f-46c1-40f2-a042-f4c6c577a01c" data-name="Слой 1" xmlns="http://www.w3.org/2000/svg" viewBox="0 0 106 106"><defs><style>.\30 db5de9f-e44e-4683-923b-e64437cbd575{fill:#ce112d;}</style></defs><title>icon</title><path class="0db5de9f-e44e-4683-923b-e64437cbd575" d="M106,92.81l-26.08,0H56.4v-3.2h3.26c0-.49,0-.86,0-1.22,0-10.66,0-21.32,0-32a13.21,13.21,0,0,1,26.41,0c.05,10.56,0,21.12,0,31.68v1.43H96V68H89.54V64.73H96V36.52H59.72V33.26H96V26.58c-.32,0-.68,0-1,0q-32.92,0-65.83,0A26,26,0,0,0,3.74,48.38a87.47,87.47,0,0,0-.45,10.11c-.06,2,0,4.05,0,6.17H56.2v3.26H3.34v10H6.52v3.26H3.34a34.78,34.78,0,0,0,0,4.33,4.54,4.54,0,0,0,4.75,4c4.59,0,9.18,0,13.77,0h1.2v3.25H8.94A8.55,8.55,0,0,1,.19,85.92,1.69,1.69,0,0,0,0,85.57V51.2a7.59,7.59,0,0,0,.2-.89A30,30,0,0,1,21.79,24.47c2-.57,4.1-.82,6.16-1.22H98.13a2.34,2.34,0,0,1,1.23,2.39q0,31.21,0,62.41V89.5H106ZM82.8,89.48c0-.29,0-.46,0-.63,0-11,0-22,0-33a10.22,10.22,0,0,0-1-4c-1.88-4.19-6.54-6.27-11.36-5.24a9.5,9.5,0,0,0-7.54,9.18c-.06,11,0,22.07,0,33.1,0,.16,0,.33,0,.54Z"/><path class="0db5de9f-e44e-4683-923b-e64437cbd575" d="M0,102.75l23.7,0h7.47c-3.56-3.52-5.3-7.52-4.38-12.35a13.11,13.11,0,0,1,5.13-8.12,12.77,12.77,0,0,1,17.34,1.51c4.35,4.54,5.74,12.37-.78,18.85a5.31,5.31,0,0,0,.71.1h56.5l.31,0v3.31H0Q0,104.41,0,102.75Zm29.78-10a9.67,9.67,0,0,0,9.84,10,10,10,0,0,0,.31-19.93C34,82.83,29.8,87,29.78,92.76Z"/><path class="0db5de9f-e44e-4683-923b-e64437cbd575" d="M31.42,58H12.18C10.49,58,10,57.47,10,55.76a24.37,24.37,0,0,1,1.41-9.85A20.23,20.23,0,0,1,30,33.22q10.4,0,20.8,0c1.68,0,2.2.53,2.2,2.24q0,10.19,0,20.38c0,1.61-.55,2.15-2.19,2.15Zm.08-21.49V54.7H49.64V36.51ZM13.31,54.68H28.09V36.6A16.3,16.3,0,0,0,13.31,54.68Z"/><path class="0db5de9f-e44e-4683-923b-e64437cbd575" d="M72.86,51.44A7,7,0,0,1,79.47,58a6.59,6.59,0,1,1-13.18,0A6.93,6.93,0,0,1,72.86,51.44Zm0,9.93A3.34,3.34,0,1,0,69.53,58,3.09,3.09,0,0,0,72.84,61.38Z"/><path class="0db5de9f-e44e-4683-923b-e64437cbd575" d="M66.32,74.49v-3.1h3.13v3.1Z"/><path class="0db5de9f-e44e-4683-923b-e64437cbd575" d="M33.16,92.81a6.93,6.93,0,0,1,6.67-6.58,6.59,6.59,0,0,1-.12,13.19A7,7,0,0,1,33.16,92.81Zm9.93.06a3.08,3.08,0,0,0-3.3-3.39,3.34,3.34,0,1,0,0,6.69A3.07,3.07,0,0,0,43.09,92.86Z"/></svg>