<svg id="23089359-8cc3-4db2-a3a0-9cf6f19eda22" data-name="Слой 1" xmlns="http://www.w3.org/2000/svg" viewBox="0 0 106 106"><defs><style>.c1dcd5d1-8c63-4b81-a819-beecd35fc802{fill:#ce112d;}</style></defs><title>icon</title><path class="c1dcd5d1-8c63-4b81-a819-beecd35fc802" d="M62.3,0a9.18,9.18,0,0,1,6.95,7,34.17,34.17,0,0,1,.68,4.07c.39,2.69.74,5.39,1.16,8.08a2.42,2.42,0,0,1-.62,2.07A5.14,5.14,0,0,1,66,23.21c-9.07-.11-18.15,0-27.22-.05A4,4,0,0,1,35,18.82c.5-3.55.84-7.13,1.54-10.64.78-3.94,2.73-7.07,7-8.06.06,0,.1-.08.16-.13ZM52.93,19.91H66.08c1.61,0,1.82-.23,1.6-1.8-.34-2.42-.65-4.85-1.05-7.26a27.09,27.09,0,0,0-1-4.52,4.3,4.3,0,0,0-4.43-3.05q-8.23,0-16.45,0a4.14,4.14,0,0,0-4,2.34,10.18,10.18,0,0,0-1,2.9c-.56,3.29-1,6.61-1.47,9.91-.17,1.22.09,1.48,1.32,1.48Z"/><path class="c1dcd5d1-8c63-4b81-a819-beecd35fc802" d="M6.61,83c.19-.84.34-1.68.56-2.51a16.53,16.53,0,0,1,6.28-8.87C17.4,68.58,22,66.78,26.6,65c3.7-1.4,7.31-3,10.95-4.6a1.23,1.23,0,0,0,.53-.93c.06-1.57,0-3.14,0-4.76h3.14c.83,4.52,2.36,6.05,6.68,6.66v3.14A10.06,10.06,0,0,1,41.51,62c-.14,3.14,2.48,5.58,6.4,6v3.12c-3.81.23-7.19-2.38-9.57-7.43l-1.2.48c-4.76,1.92-9.52,3.83-14.26,5.78a30.51,30.51,0,0,0-8,4.55,12.85,12.85,0,0,0-5.05,10.6c.1,7,0,13.94.06,20.91H6.61Z"/><path class="c1dcd5d1-8c63-4b81-a819-beecd35fc802" d="M96,106c0-7.49.11-15,0-22.46-.07-3.78-2.1-6.7-5-9.05a36.69,36.69,0,0,0-10-5.37C76.9,67.44,72.73,65.72,68.55,64l-.95-.35C66,68.11,62.92,70.78,58,71.22V68a6.9,6.9,0,0,0,5-2.18,6.59,6.59,0,0,0,1.58-3.87A10.61,10.61,0,0,1,58,64.54V61.38A7.12,7.12,0,0,0,62.7,59.5a6.83,6.83,0,0,0,1.94-4.73h3.22c0,1.49.05,3,0,4.43a1.27,1.27,0,0,0,.94,1.45q7.47,3,14.92,6.07a34.86,34.86,0,0,1,9.85,5.79,15.49,15.49,0,0,1,5.63,10,2.15,2.15,0,0,0,.18.48v23Z"/><path class="c1dcd5d1-8c63-4b81-a819-beecd35fc802" d="M51.32,106q0-12.94,0-25.87,0-8.8,0-17.59V61.37h3.25c0,.94,0,1.83,0,2.72q0,20.6,0,41.19c0,.24,0,.48,0,.72Z"/><path class="c1dcd5d1-8c63-4b81-a819-beecd35fc802" d="M23.17,106V92.84h3.31V106Z"/><path class="c1dcd5d1-8c63-4b81-a819-beecd35fc802" d="M79.48,106V92.84h3.31V106Z"/><path class="c1dcd5d1-8c63-4b81-a819-beecd35fc802" d="M44.7,106v-3.23H48V106Z"/><path class="c1dcd5d1-8c63-4b81-a819-beecd35fc802" d="M57.95,106v-3.23h3.31V106Z"/><path class="c1dcd5d1-8c63-4b81-a819-beecd35fc802" d="M69.58,26.57h3.23c0,2.27.06,4.51,0,6.73,0,.49-.62.95-.9,1.45a4.61,4.61,0,0,0-.74,1.6,28.8,28.8,0,0,1-5.52,14.93c-3.76,4.93-8.69,7.35-15,6.45-5.24-.75-8.86-3.9-11.56-8.24a30,30,0,0,1-4.27-13.15,2.91,2.91,0,0,0-.76-1.57,3,3,0,0,1-.94-2.3c.05-1.93,0-3.86,0-5.86h3.25c0,1.59,0,3.2,0,4.81a1.89,1.89,0,0,0,.69,1.72,2.84,2.84,0,0,1,1,2.36c.25,5.51,1.74,10.61,5.45,14.84a12.37,12.37,0,0,0,18.85.07C65.55,46.87,67,42.58,67.7,38a9.38,9.38,0,0,0,.18-2,3.51,3.51,0,0,1,1.28-3.2,1.6,1.6,0,0,0,.39-1.09C69.6,30,69.58,28.35,69.58,26.57Z"/><path class="c1dcd5d1-8c63-4b81-a819-beecd35fc802" d="M47.91,86.05H44.8V82.91h3.11Z"/><path class="c1dcd5d1-8c63-4b81-a819-beecd35fc802" d="M58,86V82.92h3.14V86Z"/><path class="c1dcd5d1-8c63-4b81-a819-beecd35fc802" d="M44.78,92.63V89.52h3.15v3.11Z"/><path class="c1dcd5d1-8c63-4b81-a819-beecd35fc802" d="M61.16,92.68H58.05V89.54h3.11Z"/><path class="c1dcd5d1-8c63-4b81-a819-beecd35fc802" d="M44.78,99.29V96.15h3.14v3.13Z"/><path class="c1dcd5d1-8c63-4b81-a819-beecd35fc802" d="M61.16,99.31h-3.1V96.17h3.1Z"/></svg>