<?xml version="1.0" encoding="utf-8"?>
<!-- Generator: Adobe Illustrator 21.0.0, SVG Export Plug-In . SVG Version: 6.00 Build 0)  -->
<svg version="1.1" id="c58668a3-596d-4de3-897d-a952f67f5156"
	 xmlns="http://www.w3.org/2000/svg" xmlns:xlink="http://www.w3.org/1999/xlink" x="0px" y="0px" width="106px" height="106px"
	 viewBox="0 0 106 106" style="enable-background:new 0 0 106 106;" xml:space="preserve">
<style type="text/css">
	.st0{fill:#CE112D;}
</style>
<title>icon</title>
<path class="st0" d="M0.8,54.2c0.6-0.8,1.2-1.6,1.9-2.3c7.2-8,15.7-14.7,25.2-19.9c5.5-3,11.5-5.1,17.7-6.3
	c3.4-0.6,6.9-0.9,10.3-0.6c5.8,0.4,11.4,1.8,16.8,4c7.9,3.3,15.2,7.9,21.7,13.5c3.8,3.2,7.3,6.6,10.6,10.3c0.2,0.2,0.4,0.5,0.6,0.7
	c0.5,0.6,0.5,1.5,0,2.1c-0.4,0.5-0.8,1-1.3,1.5c-7.2,8-15.8,14.8-25.3,20c-5.5,3-11.5,5.2-17.7,6.3c-3.4,0.6-6.9,0.9-10.4,0.7
	C45,83.7,39.2,82.3,33.7,80c-6.4-2.7-12.5-6.3-18-10.6c-5-3.9-9.6-8.2-13.7-12.9c-0.4-0.5-0.8-1-1.2-1.5C0.8,55,0.8,54.2,0.8,54.2z
	 M79.7,54.6c0.2-14.4-11.3-26.2-25.6-26.4c-0.2,0-0.4,0-0.6,0C39.1,28.1,27.3,39.6,27.1,54c0,0.2,0,0.4,0,0.5
	c-0.2,14.4,11.3,26.2,25.7,26.4c0.2,0,0.4,0,0.5,0c14.4,0.2,26.2-11.2,26.4-25.6C79.7,55.1,79.7,54.9,79.7,54.6L79.7,54.6z M73.7,33
	c5.9,6,9.3,13.1,9.3,21.5s-3.3,15.6-9.4,21.6c2.4-0.6,9.8-4.9,14.8-8.7c5.1-3.8,9.8-8.1,14-12.9C94,45.6,84.8,38.1,73.7,33z
	 M33.2,76.1c-5.9-6-9.3-13.1-9.3-21.6S27.3,39,33.2,33c-3.8,1.2-12.7,6.8-18.7,11.9c-3.5,3-6.8,6.2-9.9,9.6
	C12.8,63.6,22.1,71.1,33.2,76.1z"/>
<path class="st0" d="M0.8,87.5h12.7h6.9v3.2H4.2v3.4c6,0,12,0,18,0h18v3.2h-36v3.4h36.1v3.3H0.8V87.5z"/>
<path class="st0" d="M0.8,11.8h14.4h8.5c0.4,0,0.9,0.1,1.2,0.4c3.2,3.2,6.4,6.4,9.6,9.6c0.1,0.1,0.1,0.2,0.2,0.3l-2.3,2.1
	c-0.1-0.1-0.4-0.3-0.6-0.6c-2.7-2.7-5.4-5.4-8.1-8.1c-0.3-0.4-0.8-0.6-1.2-0.6c-7.1,0-14.2,0-21.4,0H0.8V11.8z"/>
<path class="st0" d="M0.8,76.8C0.9,76.6,1,76.4,1,76.1c0.7-2.6,2.9-4.6,5.6-5c1.8-0.3,3.7,0.4,5,1.7c2,1.6,2.8,4.3,1.9,6.8
	c-0.9,2.5-3.2,4.3-5.9,4.6c-3.1,0-5.7-2.1-6.6-5c0-0.2-0.1-0.5-0.2-0.8V76.8z M10.7,77.6c0.2-1.7-1.1-3.2-2.8-3.3
	c-0.2,0-0.4,0-0.5,0c-1.8,0-3.3,1.5-3.3,3.3s1.5,3.3,3.3,3.3c1.7,0.1,3.2-1.1,3.3-2.8C10.7,78,10.7,77.8,10.7,77.6L10.7,77.6z"/>
<path class="st0" d="M0.8,5.2H4v3.2L0.8,8.5V5.2z"/>
<path class="st0" d="M43.6,103.9v-3.2h3.2l0.1,3.2H43.6z"/>
<path class="st0" d="M89.6,103.9v-3.2h3.2l0.1,3.2H89.6z"/>
<path class="st0" d="M96.1,103.9v-3.2h3.2l0.1,3.2H96.1z"/>
<path class="st0" d="M102.7,103.9v-3.2h3.3v3.2H102.7z"/>
<path class="st0" d="M60,5.3v16.3h-3.2V2h49.1v39.3h-3.1v-36L60,5.3z"/>
<path class="st0" d="M105.9,94.1v3.2h-1c-7.2,0-14.4,0-21.6,0c-0.6,0-1.3-0.2-1.7-0.7c-2.9-3-5.8-5.9-8.8-8.8
	c-0.2-0.2-0.5-0.5-0.8-0.8l2.3-2.1l0.7,0.7c2.6,2.6,5.2,5.2,7.8,7.9c0.4,0.5,1.1,0.7,1.7,0.7c6.7,0,13.4,0,20.1,0L105.9,94.1z"/>
<path class="st0" d="M63.4,11.7V8.6h36v3.1C99.4,11.7,63.4,11.7,63.4,11.7z"/>
<path class="st0" d="M91.3,31.4v-3c3.6-0.7,5.1-2.5,4.9-5.7c-0.2-2.4-2.1-4.3-4.5-4.4c-3.2-0.1-4.9,1.4-5.5,4.9h-3
	c-0.5-3.6,3.5-7.8,7.6-8.1c4.6-0.1,8.5,3.6,8.6,8.2C99.3,28.5,94.6,31.7,91.3,31.4z"/>
<path class="st0" d="M10.6,8.4H7.5V5.3h3.1V8.4z"/>
<path class="st0" d="M17.2,8.4h-3.1V5.3h3.1V8.4z"/>
<path class="st0" d="M66.5,15.2v3.1h-3.1v-3.1C63.4,15.2,66.5,15.2,66.5,15.2z"/>
<path class="st0" d="M69.9,15.2H73v3.1h-3.1V15.2z"/>
<path class="st0" d="M76.5,18.3v-3.1h3.1v3.1H76.5z"/>
<path class="st0" d="M23.9,87.6H27v3.1h-3.1V87.6z"/>
<path class="st0" d="M43.6,97.3v-3.1h3.1v3.1H43.6z"/>
<path class="st0" d="M53.4,31.6c12.6,0.2,22.8,10.3,23,22.9c-0.1,12.6-10.3,22.9-22.9,23.1c-12.6-0.2-22.8-10.4-23-23
	C30.6,42,40.8,31.8,53.4,31.6z M53.4,74.4C64.1,74.5,73,66,73.2,55.2c0-0.2,0-0.4,0-0.5c0.2-10.7-8.3-19.6-19-19.9
	c-0.3,0-0.5,0-0.8,0c-10.9,0-19.8,8.9-19.8,19.8S42.5,74.4,53.4,74.4L53.4,74.4z"/>
<path class="st0" d="M40.3,51.4c1.2-0.1,2.4-0.1,3.5-0.3c3.6-0.7,6.3-3.8,6.4-7.5c0-0.7,0-1.3,0-2c6.2-0.7,11.2,1.2,14.5,6.4
	c1.2,1.9,1.9,4.2,1.9,6.5h-3.2c0-3.2-1.5-6.2-4.1-8c-1.8-1.2-3.9-1.8-6-1.8c-0.9,5-4.8,8.9-9.7,9.7c-0.1,2.7,0.9,5.3,2.8,7.2
	c1.9,1.9,4.4,2.9,7,2.9v3.1c-1.1,0-2.2-0.2-3.2-0.5c-5.8-1.7-9.7-7-9.7-13C40.3,53.3,40.3,52.4,40.3,51.4z"/>
<path class="st0" d="M60,54.6c3.5,0.2,6.4,3,6.6,6.5c-0.1,3.6-3,6.4-6.5,6.6c-3.5-0.2-6.3-3-6.5-6.5C53.6,57.7,56.4,54.8,60,54.6z
	 M60,64.5c1.8,0,3.3-1.4,3.4-3.3c0-1.8-1.4-3.3-3.3-3.4c-1.8,0-3.3,1.4-3.4,3.3l0,0c-0.2,1.7,1.1,3.2,2.8,3.3
	C59.6,64.5,59.8,64.5,60,64.5L60,64.5z"/>
<path class="st0" d="M45.1,46.3H42v-3.1h3.1V46.3z"/>
</svg>
