<svg id="143d1525-d98b-4a34-9979-ecb40acb60b6" data-name="Слой 1" xmlns="http://www.w3.org/2000/svg" viewBox="0 0 106 106"><defs><style>.b42b710b-7e23-4e3e-9f05-c45fd28f1e11{fill:#ce112d;}</style></defs><title>icon</title><path class="b42b710b-7e23-4e3e-9f05-c45fd28f1e11" d="M0,20.7c.1-.21.22-.41.3-.62A5.32,5.32,0,0,1,5.43,16.6q42.59,0,85.17,0a3.69,3.69,0,0,1,1.58.36q6.16,3,12.29,6.16a8.67,8.67,0,0,1,1.53,1.3v.83a9.49,9.49,0,0,1-1.62,1.35q-6.07,3.11-12.2,6.11a3.69,3.69,0,0,1-1.58.36q-42.58,0-85.17,0A5.32,5.32,0,0,1,.31,29.61C.22,29.39.1,29.19,0,29Zm89.42-.79H14.94v3.22H89.42Zm0,9.89V26.54H14.94V29.8Zm-77.8-9.95c-2.35,0-4.58,0-6.82,0-1,0-1.46.52-1.48,1.59q0,3.36,0,6.72c0,1.18.51,1.66,1.73,1.67,2,0,3.93,0,5.89,0a4.42,4.42,0,0,0,.68-.11Zm89.15,5-8-4v7.95Z"/><path class="b42b710b-7e23-4e3e-9f05-c45fd28f1e11" d="M61.28,106V87.78H58.05V84.5h1.07c4.59,0,9.18,0,13.76,0a8,8,0,0,0,8.3-8.27c0-4.8,0-9.59,0-14.39,0-1.63.54-2.17,2.16-2.18h7.9a11.8,11.8,0,0,0-.51-2.13C87.88,51.26,85,45,82.1,38.75c-.23-.5-.45-1-.72-1.59l2.9-1.37,2.35,5.07c2.45,5.32,5,10.59,7.28,16,.6,1.42.4,3.23.34,4.85,0,.88-.9,1.21-1.79,1.21h-8c0,.42,0,.78,0,1.14q0,6,0,11.9a11.86,11.86,0,0,1-11.78,11.8H64.59V106Z"/><path class="b42b710b-7e23-4e3e-9f05-c45fd28f1e11" d="M36.44,106q0-12.83,0-25.67c0-9.07,0-18.15,0-27.22A16.8,16.8,0,0,1,53.09,36.47c6.8,0,13.59,0,20.39,0h1v3.25H53.21c-7.9,0-13.49,5.59-13.49,13.5q0,25.93,0,51.86c0,.31,0,.62,0,.93Z"/><path class="b42b710b-7e23-4e3e-9f05-c45fd28f1e11" d="M23.19,106c0-7.31.13-14.63-.06-21.94C23,78.53,21.23,73.3,19.39,68.13c-2.22-6.26-4.7-12.44-6.21-18.93a57.26,57.26,0,0,1-1.55-12.66h3.18c.07,1.15.13,2.31.21,3.47A63.36,63.36,0,0,0,18.5,55.7c2.06,6.1,4.23,12.16,6.17,18.3a42.34,42.34,0,0,1,1.8,13c0,6.35,0,12.69,0,19Z"/><path class="b42b710b-7e23-4e3e-9f05-c45fd28f1e11" d="M50.31,0c2.13.35,4.3.58,6.4,1.07A35.72,35.72,0,0,1,75.06,11.43c.21.22.39.46.63.74l-2.37,2.08A32.93,32.93,0,0,0,48.05,3.3a33.66,33.66,0,0,0-25.31,11l-2.35-2.07c.2-.25.34-.47.52-.66A37.52,37.52,0,0,1,44.76.21a9.5,9.5,0,0,0,1-.21Z"/><path class="b42b710b-7e23-4e3e-9f05-c45fd28f1e11" d="M29.81,106q0-11.75,0-23.49c0-1.51,0-3,0-4.58h3.25c0,.42,0,.79,0,1.16q0,13,0,26c0,.31,0,.62,0,.93Z"/><path class="b42b710b-7e23-4e3e-9f05-c45fd28f1e11" d="M46.34,77.76H43.09c0-.39,0-.72,0-1.06q0-11.69,0-23.38A10.18,10.18,0,0,1,53.35,43.1H67.8v3.25H66.72c-3.69,0-7.39.17-11.07,0-7.07-.4-9.62,2.39-9.36,9.29s.06,14,.06,21Z"/><path class="b42b710b-7e23-4e3e-9f05-c45fd28f1e11" d="M33,61.21h-3.1V58.08H33Z"/><path class="b42b710b-7e23-4e3e-9f05-c45fd28f1e11" d="M29.89,67.82V64.68H33v3.14Z"/><path class="b42b710b-7e23-4e3e-9f05-c45fd28f1e11" d="M29.92,71.29H33v3.13H29.92Z"/></svg>