<svg id="c58668a3-596d-4de3-897d-a952f67f5156" data-name="Слой 1" xmlns="http://www.w3.org/2000/svg" viewBox="0 0 106 106"><defs><style>.\33 9a3d950-b2a7-46b2-90ce-aff91d2ceacb{fill:#ce112d;}</style></defs><title>icon</title><path class="39a3d950-b2a7-46b2-90ce-aff91d2ceacb" d="M.83,54.18c.62-.77,1.21-1.57,1.88-2.3A95.5,95.5,0,0,1,27.88,32a59,59,0,0,1,17.7-6.28,42.16,42.16,0,0,1,10.32-.65,54.18,54.18,0,0,1,16.78,4,82.71,82.71,0,0,1,21.7,13.49A96.68,96.68,0,0,1,105,52.84c.2.23.42.46.59.71a1.51,1.51,0,0,1,0,2.07c-.39.52-.83,1-1.27,1.48A95.68,95.68,0,0,1,79,77.17a58.81,58.81,0,0,1-17.7,6.29,42.61,42.61,0,0,1-10.42.66A54.29,54.29,0,0,1,33.72,80a79.79,79.79,0,0,1-18-10.64A99.1,99.1,0,0,1,2,56.45C1.56,56,1.21,55.49.83,55Zm78.9.44A26,26,0,0,0,53.47,28.24,26.06,26.06,0,0,0,27.08,54.51,26.06,26.06,0,0,0,53.31,80.93,26,26,0,0,0,79.74,54.62ZM73.68,33c5.92,6,9.25,13.07,9.26,21.52s-3.34,15.59-9.4,21.56c2.44-.58,9.8-4.89,14.76-8.68a98.67,98.67,0,0,0,14-12.88C94,45.56,84.76,38.07,73.68,33ZM33.16,76.14c-5.94-6-9.27-13.12-9.26-21.61S27.26,39,33.2,33.07C29.38,34.23,20.48,39.91,14.46,45a92,92,0,0,0-9.89,9.62C12.84,63.61,22.06,71.1,33.16,76.14Z"/><path class="39a3d950-b2a7-46b2-90ce-aff91d2ceacb" d="M.83,87.49l12.73,0h6.91v3.2H4.17v3.37c6,0,12,0,18,0h18v3.21h-36v3.36H40.27v3.27H.83Z"/><path class="39a3d950-b2a7-46b2-90ce-aff91d2ceacb" d="M.83,11.82l14.37,0h8.52a1.49,1.49,0,0,1,1.2.41q4.77,4.82,9.57,9.6a2.56,2.56,0,0,1,.21.29L32.4,24.27c-.13-.12-.38-.34-.61-.57q-4-4-8.06-8.07a1.62,1.62,0,0,0-1.24-.57q-10.68,0-21.35,0l-.31,0Z"/><path class="39a3d950-b2a7-46b2-90ce-aff91d2ceacb" d="M.83,76.8c.08-.22.16-.44.24-.67a6.81,6.81,0,0,1,5.58-5,5.91,5.91,0,0,1,5,1.66,6.22,6.22,0,0,1,1.94,6.78,7,7,0,0,1-5.91,4.59,6.93,6.93,0,0,1-6.58-5C1,79,.92,78.7.83,78.44Zm9.89.83A3.06,3.06,0,0,0,7.41,74.3a3.32,3.32,0,0,0,0,6.64A3.07,3.07,0,0,0,10.72,77.62Z"/><path class="39a3d950-b2a7-46b2-90ce-aff91d2ceacb" d="M.83,5.24H4V8.46L.83,8.53Z"/><path class="39a3d950-b2a7-46b2-90ce-aff91d2ceacb" d="M43.56,103.94v-3.2h3.22l.07,3.2Z"/><path class="39a3d950-b2a7-46b2-90ce-aff91d2ceacb" d="M89.57,103.94v-3.2h3.22l.07,3.2Z"/><path class="39a3d950-b2a7-46b2-90ce-aff91d2ceacb" d="M96.14,103.94v-3.2h3.22l.07,3.2Z"/><path class="39a3d950-b2a7-46b2-90ce-aff91d2ceacb" d="M102.71,103.94v-3.21H106v3.21Z"/><path class="39a3d950-b2a7-46b2-90ce-aff91d2ceacb" d="M60,5.27V21.6H56.79V2H105.9V41.32h-3.12v-36Z"/><path class="39a3d950-b2a7-46b2-90ce-aff91d2ceacb" d="M105.92,94.1v3.23h-1c-7.19,0-14.38,0-21.56,0a2.15,2.15,0,0,1-1.7-.71c-2.9-3-5.85-5.87-8.77-8.81-.24-.24-.47-.49-.75-.79l2.35-2.14.68.65c2.61,2.62,5.24,5.22,7.83,7.86a2.16,2.16,0,0,0,1.7.71c6.71,0,13.42,0,20.13,0Z"/><path class="39a3d950-b2a7-46b2-90ce-aff91d2ceacb" d="M63.36,11.74V8.61h36v3.13Z"/><path class="39a3d950-b2a7-46b2-90ce-aff91d2ceacb" d="M91.29,31.43v-3c3.6-.72,5.13-2.52,4.86-5.68a4.66,4.66,0,0,0-4.52-4.35c-3.17-.14-4.91,1.4-5.47,4.87h-3c-.48-3.61,3.49-7.83,7.59-8.1a8.46,8.46,0,0,1,8.64,8.2C99.31,28.46,94.56,31.69,91.29,31.43Z"/><path class="39a3d950-b2a7-46b2-90ce-aff91d2ceacb" d="M10.59,8.45H7.49V5.33h3.1Z"/><path class="39a3d950-b2a7-46b2-90ce-aff91d2ceacb" d="M17.17,8.45h-3.1V5.33h3.1Z"/><path class="39a3d950-b2a7-46b2-90ce-aff91d2ceacb" d="M66.5,15.2v3.09H63.36V15.2Z"/><path class="39a3d950-b2a7-46b2-90ce-aff91d2ceacb" d="M69.95,15.19h3.1v3.12h-3.1Z"/><path class="39a3d950-b2a7-46b2-90ce-aff91d2ceacb" d="M76.49,18.29V15.22h3.1v3.07Z"/><path class="39a3d950-b2a7-46b2-90ce-aff91d2ceacb" d="M23.92,87.55H27v3.12h-3.1Z"/><path class="39a3d950-b2a7-46b2-90ce-aff91d2ceacb" d="M43.63,97.26V94.18h3.11v3.08Z"/><path class="39a3d950-b2a7-46b2-90ce-aff91d2ceacb" d="M53.41,31.59a23.33,23.33,0,0,1,23,22.91A23.32,23.32,0,0,1,53.47,77.59a23.32,23.32,0,0,1-23-23A23.32,23.32,0,0,1,53.41,31.59Zm-.05,42.77A19.47,19.47,0,0,0,73.17,54.7,19.46,19.46,0,0,0,53.37,34.82a19.77,19.77,0,0,0,0,39.54Z"/><path class="39a3d950-b2a7-46b2-90ce-aff91d2ceacb" d="M40.3,51.43c1.24-.11,2.38-.11,3.47-.31a7.79,7.79,0,0,0,6.37-7.53c0-.68,0-1.35,0-2,6.22-.7,11.16,1.19,14.48,6.42a12.47,12.47,0,0,1,1.9,6.49H63.36a9.87,9.87,0,0,0-4.13-8,9.68,9.68,0,0,0-6-1.75,12.05,12.05,0,0,1-9.74,9.74,9.74,9.74,0,0,0,2.76,7.18,10,10,0,0,0,7,2.91v3.14A10.09,10.09,0,0,1,50,67.2a13.48,13.48,0,0,1-9.68-13C40.31,53.33,40.3,52.41,40.3,51.43Z"/><path class="39a3d950-b2a7-46b2-90ce-aff91d2ceacb" d="M59.95,54.62a6.89,6.89,0,0,1,6.58,6.48A6.88,6.88,0,0,1,60,67.72a6.89,6.89,0,0,1-6.53-6.53A6.89,6.89,0,0,1,59.95,54.62Zm0,9.87a3.32,3.32,0,1,0-3.28-3.35A3.07,3.07,0,0,0,60,64.49Z"/><path class="39a3d950-b2a7-46b2-90ce-aff91d2ceacb" d="M45.1,46.29H42V43.17h3.1Z"/></svg>