<?xml version="1.0" encoding="utf-8"?>
<!-- Generator: Adobe Illustrator 21.0.0, SVG Export Plug-In . SVG Version: 6.00 Build 0)  -->
<svg version="1.1" id="_x39_a4e5b70-2450-4d5d-aaab-063fc1318e03"
	 xmlns="http://www.w3.org/2000/svg" xmlns:xlink="http://www.w3.org/1999/xlink" x="0px" y="0px" viewBox="0 0 106 106"
	 style="enable-background:new 0 0 106 106;" xml:space="preserve">
<style type="text/css">
	.st0{fill:#CE112D;}
</style>
<title>icon</title>
<g id="ZpR4J5.tif">
	<g>
		<path class="st0" d="M53.4,0c7.7,4.4,15.5,8.8,23.2,13.3c0.8,0.5,1.2,1.1,1.2,2c0,9.1,0,18.2,0,27.3c0,0.9-0.3,1.6-1.1,2
			c-7.5,4.3-15.1,8.6-22.6,12.9c-0.8,0.5-1.5,0.3-2.3-0.1c-6.3-3.6-12.6-7.2-18.9-10.8c-1.2-0.7-2.3-1.3-3.5-2
			c-0.8-0.4-1.1-1-1.1-1.9c0-9.2,0-18.3,0-27.5c0-1,0.5-1.5,1.3-2c7.7-4.3,15.3-8.7,23-13.1c0.1,0,0.1-0.1,0.2-0.1
			C52.9,0,53.1,0,53.4,0z M31.5,42.1c6.6,3.8,13.2,7.5,19.8,11.3c0-8.2,0-16.3,0-24.4c-6.6-3.8-13.1-7.5-19.8-11.3
			C31.5,25.9,31.5,33.9,31.5,42.1z M54.7,53.4c6.7-3.8,13.3-7.6,19.8-11.3c0-8.1,0-16.2,0-24.4c-6.7,3.8-13.2,7.6-19.8,11.3
			C54.7,37.1,54.7,45.2,54.7,53.4z M72.9,14.9C66.1,11,59.5,7.3,53,3.5C46.4,7.3,39.8,11,33.1,14.9c6.8,3.9,13.3,7.6,19.9,11.4
			C59.6,22.5,66.1,18.7,72.9,14.9z"/>
		<path class="st0" d="M1.8,62.4c0.6-0.5,1.1-1.1,1.8-1.5c7.1-4.1,14.2-8.1,21.3-12.2c1.3-0.7,2.2-0.7,3.5,0
			C35.5,52.9,42.7,57,50,61.1c1,0.5,1.4,1.2,1.4,2.3c0,9,0,18,0,27c0,1.1-0.5,1.7-1.4,2.2c-7.7,4.4-15.3,8.8-23,13.2
			c-0.3,0-0.6,0-0.8,0c-0.1-0.1-0.2-0.1-0.2-0.2c-7.6-4.3-15.2-8.6-22.7-13c-0.5-0.3-0.9-0.9-1.4-1.3C1.8,81.7,1.8,72,1.8,62.4z
			 M5.1,65.6c0,8.3,0,16.3,0,24.4c6.6,3.8,13.1,7.5,19.8,11.3c0-8.2,0-16.3,0-24.4C18.3,73.2,11.8,69.5,5.1,65.6z M48,65.6
			c-6.7,3.8-13.3,7.6-19.8,11.3c0,8.1,0,16.2,0,24.4C34.9,97.5,41.5,93.7,48,90C48,81.9,48,73.9,48,65.6z M26.5,74.2
			c6.6-3.8,13.1-7.5,19.9-11.4c-6.8-3.9-13.3-7.6-19.9-11.4C19.9,55.2,13.4,59,6.7,62.8C13.4,66.7,19.9,70.4,26.5,74.2z"/>
		<path class="st0" d="M79,105.8c-7.1-4.1-14.2-8.1-21.3-12.2c-3.6-2.1-3-1.2-3.1-5.2c0-8.4,0-16.7,0-25.1c0-1,0.3-1.6,1.2-2.1
			C63.2,57,70.6,52.8,78,48.5c1.1-0.6,1.9-0.6,3,0c7.2,4.2,14.5,8.3,21.7,12.5c0.6,0.3,1,0.9,1.5,1.3c0,9.6,0,19.3,0,28.9
			c-0.5,0.5-1,1-1.6,1.4c-7.6,4.4-15.2,8.7-22.8,13.1C79.6,105.8,79.3,105.8,79,105.8z M77.8,76.9c-6.6-3.7-13.1-7.5-19.8-11.3
			c0,8.2,0,16.3,0,24.4c6.6,3.8,13.1,7.5,19.8,11.3C77.8,93.1,77.8,85.1,77.8,76.9z M81.1,101.3c6.7-3.8,13.3-7.6,19.8-11.3
			c0-8.1,0-16.2,0-24.4c-6.7,3.8-13.2,7.6-19.8,11.3C81.1,85,81.1,93.1,81.1,101.3z M99.3,62.8c-6.8-3.9-13.4-7.6-19.9-11.4
			c-6.6,3.8-13.2,7.5-19.9,11.4c6.8,3.9,13.4,7.6,19.9,11.4C86.1,70.4,92.6,66.7,99.3,62.8z"/>
		<path class="st0" d="M84.4,38.1c1.6,0,3.3,1.8,3.3,3.3c0,1.6-1.8,3.3-3.3,3.2c-1.5-0.1-3.2-1.7-3.2-3.3
			C81.1,39.8,82.9,38,84.4,38.1z"/>
		<path class="st0" d="M21.5,38.1c1.6,0,3.3,1.7,3.3,3.2c0,1.6-1.7,3.3-3.3,3.3c-1.5,0-3.2-1.7-3.3-3.2C18.3,39.9,20,38.1,21.5,38.1
			z"/>
		<path class="st0" d="M56.3,99.2c0,1.6-1.7,3.3-3.3,3.3c-1.6,0-3.3-1.8-3.2-3.3c0-1.5,1.7-3.2,3.2-3.2
			C54.5,95.9,56.3,97.6,56.3,99.2z"/>
	</g>
</g>
</svg>
