<?xml version="1.0" encoding="utf-8"?>
<!-- Generator: Adobe Illustrator 21.0.0, SVG Export Plug-In . SVG Version: 6.00 Build 0)  -->
<svg version="1.1" id="Слой_1" xmlns="http://www.w3.org/2000/svg" xmlns:xlink="http://www.w3.org/1999/xlink" x="0px" y="0px"
	 viewBox="0 0 15 20.7" style="enable-background:new 0 0 15 20.7;" xml:space="preserve">
<style type="text/css">
	.st0{fill:#838D9D;}
	.st1{fill:#CE112D;}
	.st2{fill:#FFFFFF;}
	.st3{font-family:'BebasNeueBold';}
	.st4{font-size:10.2074px;}
</style>
<g>
	<path class="st0" d="M2.7,14.8l-1,5.3c0,0.3,0.2,0.7,0.4,0.6L7.5,19c0.1,0,0.1,0,0.2,0l5.4,1.7c0.2,0.1,0.3-0.3,0.3-0.6l-1-5.3
		c-1.4,0.9-3.1,1.5-4.8,1.5C5.7,16.3,4.1,15.8,2.7,14.8z"/>
	<path class="st1" d="M7.5,15c4.1,0,7.5-3.4,7.5-7.5S11.6,0,7.5,0S0,3.4,0,7.5C0,11.7,3.4,15,7.5,15z"/>
	<text transform="matrix(1 0 0 1 1.5859 11.1621)"><tspan x="0" y="0" class="st2 st3 st4">14</tspan><tspan x="8.1" y="0" class="st2 st3 st4">+</tspan></text>
</g>
</svg>
