<?xml version="1.0" encoding="utf-8"?>
<!-- Generator: Adobe Illustrator 21.0.0, SVG Export Plug-In . SVG Version: 6.00 Build 0)  -->
<svg version="1.1" id="Слой_1" xmlns="http://www.w3.org/2000/svg" xmlns:xlink="http://www.w3.org/1999/xlink" x="0px" y="0px"
	 viewBox="0 0 248 457.3" style="enable-background:new 0 0 248 457.3;" xml:space="preserve">
<style type="text/css">
	.st0{fill:#AC162C;}
	.st1{fill:#FFFFFF;}
</style>
<rect class="st0" width="248.2" height="460.7"/>
<g id="XMLID_591_">
	<rect id="XMLID_688_" x="17.1" y="366.6" class="st1" width="214.2" height="1.5"/>
	<path id="XMLID_665_" class="st1" d="M17.1,397v15h4v-12.2h6.1V412h4v-15H17.1z M37.7,418.3v-5.8l-0.1-2.5h0.1
		c0.8,1.2,2.2,2.2,4.3,2.2c3.3,0,6.5-2.2,6.5-7.8c0-5.6-2.9-7.8-6.3-7.8c-0.6,0-3.4,0.1-4.9,2.9h-0.1v-2.6h-3.5v21.3L37.7,418.3
		L37.7,418.3z M37.7,404.5c0-3.2,1.7-4.7,3.4-4.7c1.6,0,3.4,1.5,3.4,4.7s-1.7,4.7-3.4,4.7C39.4,409.1,37.7,407.7,37.7,404.5
		 M49.4,404.5c0,5,3.3,7.8,7.8,7.8s7.8-2.8,7.8-7.8c0-5-3.3-7.8-7.8-7.8S49.4,399.5,49.4,404.5 M53.5,404.5c0-3.5,1.9-4.9,3.6-4.9
		s3.6,1.5,3.6,4.9c0,3.5-1.9,4.9-3.6,4.9C55.4,409.4,53.5,408,53.5,404.5 M74.8,391.6v5.7c-1-0.5-2-0.7-2.9-0.7
		c-2.3,0-6.2,1.6-6.2,7.8c0,5.4,3,7.8,6.2,7.8c1.2,0,2.1-0.3,2.9-0.6v6.7h4v-6.7c0.7,0.3,1.6,0.6,2.9,0.6c3.2,0,6.2-2.3,6.2-7.8
		c0-6.2-3.9-7.8-6.2-7.8c-0.9,0-1.8,0.2-2.9,0.7v-5.7H74.8z M78.8,400.3c0.6-0.3,1.3-0.5,1.9-0.5c1.5,0,3,1.3,3,4.8
		c0,3.5-1.6,4.8-3,4.8c-0.6,0-1.3-0.1-1.9-0.5V400.3z M74.8,408.8c-0.6,0.3-1.3,0.5-1.9,0.5c-1.5,0-3-1.3-3-4.8c0-3.5,1.6-4.8,3-4.8
		c0.6,0,1.3,0.1,1.9,0.5V408.8z M103.1,405.7v-0.9c0-1.3-0.1-8-6.9-8c-4.1,0-7.4,2.9-7.4,7.8c0,5.4,3.6,7.8,8.1,7.8
		c1.8,0,3.6-0.3,5.2-1v-3c-1.5,0.6-2.9,1-4.8,1c-2.9,0-4.3-1.8-4.5-3.7L103.1,405.7L103.1,405.7z M92.8,403c0-2,1.3-3.5,3.1-3.5
		c1.5,0,3.2,1,3.1,3.5H92.8z M115.5,397.2c-1.1-0.3-2.3-0.4-3.4-0.4c-5.4,0-8.1,3.6-8.1,7.6c0,4,2.5,8,7.9,8c1.7,0,3.1-0.3,3.9-0.6
		l-0.2-2.9c-1,0.4-2.2,0.6-3,0.6c-2.8,0-4.4-2.2-4.4-4.8c0-3,2.1-5,4.7-5c1,0,1.7,0.1,2.4,0.4L115.5,397.2z M127.8,397.2
		c-1.1-0.3-2.3-0.4-3.4-0.4c-5.4,0-8.1,3.6-8.1,7.6c0,4,2.5,8,7.9,8c1.7,0,3.1-0.3,3.9-0.6l-0.2-2.9c-1,0.4-2.2,0.6-3,0.6
		c-2.8,0-4.4-2.2-4.4-4.8c0-3,2.1-5,4.7-5c1,0,1.7,0.1,2.4,0.4L127.8,397.2z M129.5,397v15h4.2l6.7-10.6h0.1l-0.1,2.9v7.8h4v-15
		h-4.4l-6.5,10.6h-0.1l0.1-2.7v-8L129.5,397L129.5,397z M146,404.5c0,5,3.3,7.8,7.8,7.8s7.8-2.8,7.8-7.8c0-5-3.3-7.8-7.8-7.8
		S146,399.5,146,404.5 M150.1,404.5c0-3.5,1.9-4.9,3.6-4.9s3.6,1.5,3.6,4.9c0,3.5-1.9,4.9-3.6,4.9S150.1,408,150.1,404.5 M163.3,397
		v15h4v-6.5h6.3v6.5h4v-15h-4v5.7h-6.3V397H163.3z M181.1,400.8c2-1.1,3.5-1.3,4.8-1.3c1.8,0,3.4,1,3.4,2.6v0.6H189
		c-0.7,0-1.5,0-2.2,0c-6.4,0-7.4,2.9-7.4,5c0,2.3,1.6,4.6,5.4,4.6c3.3,0,4.4-1.8,4.8-2.4h0.1v2.2h3.9v-9.5c0-2.2-0.5-5.8-6.7-5.8
		c-2.1,0-3.7,0.3-5.5,1L181.1,400.8L181.1,400.8z M189.3,405.2v0.3c0,3.3-2,4-3.6,4c-1.7,0-2.4-0.9-2.4-2c0-2.4,3.2-2.4,5.4-2.4
		L189.3,405.2L189.3,405.2z M196.8,397v6.2c0,3.2,0.3,5.9-2,5.9c-0.3,0-0.4,0-0.7-0.1l-0.2,3c0.6,0.2,1,0.3,1.7,0.3
		c4,0,4.7-1.6,4.7-9.1v-3.4h4.7V412h4v-15H196.8z M227.3,412h4v-15h-4V412z M211.6,397v15h7.3c4.1,0,6.1-2.2,6.1-4.8
		c0-1.7-0.8-4.8-6.3-4.8h-3V397L211.6,397L211.6,397z M215.6,404.9h2.5c2.2,0,2.8,1.4,2.8,2.2c0,1.1-1,2.2-2.8,2.2h-2.5V404.9z"/>
	<path id="XMLID_651_" class="st1" d="M28.6,389.3l2.9-8.8l0.8-2.4h0.2l-0.1,2.7v8.6h4v-15h-5.5l-3.1,8.6l-0.9,2.7h-0.3l-0.9-2.7
		l-3.1-8.6h-5.5v15h4v-8.6l-0.1-2.7h0.2l0.8,2.4l2.9,8.8H28.6z M38.4,381.8c0,5,3.3,7.8,7.8,7.8s7.8-2.8,7.8-7.8s-3.3-7.8-7.8-7.8
		S38.4,376.7,38.4,381.8 M42.5,381.8c0-3.5,1.9-4.9,3.6-4.9s3.6,1.4,3.6,4.9c0,3.5-1.9,4.9-3.6,4.9
		C44.4,386.6,42.5,385.2,42.5,381.8 M57,374.2v6.2c0,3.2,0.3,5.9-2,5.9c-0.3,0-0.4,0-0.7-0.1l-0.2,3c0.6,0.2,1,0.3,1.7,0.3
		c4,0,4.7-1.6,4.7-9.1V377h4.7v12.2h4v-15L57,374.2L57,374.2z M71.2,381.8c0,5,3.3,7.8,7.8,7.8s7.8-2.8,7.8-7.8S83.5,374,79,374
		S71.2,376.7,71.2,381.8 M75.4,381.8c0-3.5,1.9-4.9,3.6-4.9s3.6,1.4,3.6,4.9c0,3.5-1.9,4.9-3.6,4.9
		C77.3,386.6,75.4,385.2,75.4,381.8 M90.8,374.2v4.9c0,2.9-0.2,5.2-2,7.3h-1.7v6.8h3.6v-3.9h10.8v3.9h3.6v-6.8h-2.5v-12.2H90.8
		L90.8,374.2z M92.7,386.4c1.6-2.2,1.6-4.7,1.6-7v-2.2h4.3v9.3L92.7,386.4L92.7,386.4z M122.2,389.3h4v-15h-4V389.3z M106.5,374.2
		v15h7.3c4.1,0,6.1-2.2,6.1-4.8c0-1.7-0.8-4.8-6.3-4.8h-3v-5.4H106.5L106.5,374.2z M110.5,382.2h2.5c2.2,0,2.8,1.4,2.8,2.2
		c0,1.1-1,2.2-2.8,2.2h-2.5V382.2z M142.6,382.9V382c0-1.3-0.1-8-6.9-8c-4.1,0-7.4,2.9-7.4,7.8c0,5.4,3.6,7.8,8.1,7.8
		c1.8,0,3.6-0.3,5.2-1v-2.9c-1.5,0.6-2.9,1-4.8,1c-2.9,0-4.3-1.8-4.5-3.7L142.6,382.9L142.6,382.9z M132.3,380.2
		c0-2,1.3-3.5,3.1-3.5c1.5,0,3.2,1,3.1,3.5H132.3z"/>
	<path id="XMLID_648_" class="st1" d="M74.8,311.9c0-5.5-2.9-12.1-11.1-12.1c-8.2,0-11.1,6.5-11.1,12.1c0,5.5,2.9,12.1,11.1,12.1
		C72,324,74.8,317.5,74.8,311.9 M71.8,311.9c0,5.9-3.2,9.8-8,9.8c-4.8,0-8-3.9-8-9.8s3.2-9.8,8-9.8
		C68.6,302.2,71.8,306.1,71.8,311.9"/>
	<path id="XMLID_647_" class="st1" d="M81.1,304.1v-3.8h-2.6v23.1h2.8v-11.4v-0.2c0-4.2,1.2-9.3,6.9-9.3H89v-0.1l0.2-2.7h-0.3
		C85,299.7,82.4,301.2,81.1,304.1"/>
	<path id="XMLID_646_" class="st1" d="M142.4,304.8c-1.9-0.6-3.4-1-5.6-1c-1.7,0-3.7,0.6-3.7,2.6c0,3.7,10.9,1.4,10.9,9.9
		c0,5.4-5,7.6-10.1,7.6c-2.4,0-4.8-0.4-7.1-1l0.3-5c2,1,4.1,1.6,6.2,1.6c1.6,0,4.1-0.6,4.1-2.9c0-4.6-10.9-1.5-10.9-9.9
		c0-5,4.6-7.3,9.5-7.3c2.9,0,4.8,0.4,6.8,0.9L142.4,304.8z"/>
	<polyline id="XMLID_645_" class="st1" points="171.7,323.3 171.7,299.9 178,299.9 178,323.3 	"/>
	<path id="XMLID_644_" class="st1" d="M217.6,304.8c-1.9-0.6-3.3-1-5.6-1c-1.7,0-3.7,0.6-3.7,2.6c0,3.7,10.9,1.4,10.9,9.9
		c0,5.4-5,7.6-10.1,7.6c-2.4,0-4.8-0.4-7.1-1l0.3-5c2,1,4.1,1.6,6.2,1.6c1.6,0,4.1-0.6,4.1-2.9c0-4.6-10.9-1.5-10.9-9.9
		c0-5,4.6-7.3,9.5-7.3c2.9,0,4.8,0.4,6.8,0.9L217.6,304.8z"/>
	<polygon id="XMLID_643_" class="st1" points="159.4,310.4 168.3,299.9 160.9,299.9 153.3,309.2 153.3,309.2 153.3,287.3 147,289.2 
		147,323.3 153.3,323.3 153.3,311.9 153.3,311.9 161.5,323.3 169.4,323.3 	"/>
	<path id="XMLID_640_" class="st1" d="M118.2,288.5L118.2,288.5l-2.8,0.8v14.3c-0.6-1-2.8-4-7.6-3.9c-8,0.1-9.8,6.7-9.8,12.1
		c0,7.4,3.7,12.1,9.8,12.1c3.5,0,6.1-1.3,7.6-4.1v3.5h2.8V288.5z M115.4,311.7c0,4.8-2.2,9.8-7.2,9.8c-6.5,0-7.2-6.8-7.2-9.8
		c0-2.9,0.7-9.8,7.2-9.8C113.2,302,115.4,306.9,115.4,311.7"/>
	<polygon id="XMLID_639_" class="st1" points="94.8,288.6 92.1,289.4 92.1,323.3 94.9,323.3 94.9,288.5 	"/>
	<polygon id="XMLID_638_" class="st1" points="182,289.2 182,323.3 188.3,323.3 188.3,287.3 	"/>
	<polygon id="XMLID_637_" class="st1" points="191.9,289.2 191.9,289.2 191.9,323.3 198.2,323.3 198.2,287.3 	"/>
	<path id="XMLID_636_" class="st1" d="M178.4,291.2c0-1.9-1.6-3.5-3.5-3.5c-1.9,0-3.5,1.6-3.5,3.5s1.6,3.5,3.5,3.5
		C176.9,294.7,178.4,293.1,178.4,291.2"/>
	<path id="XMLID_635_" class="st1" d="M20.1,300.2h-3v0.1c0.2,0.4,7.5,22.7,7.6,22.9v0.1h3.5c0,0,6.5-20,6.5-20.1h0.2
		c0,0.1,6.5,20.1,6.5,20.1h3.5l7.8-23.1h-2.8c0,0-6.6,20-6.6,20.1H43c0-0.1-6.3-20.1-6.3-20.1h-3.5c0,0-6.7,20-6.7,20.1h-0.2
		C26.4,320.2,20.1,300.2,20.1,300.2L20.1,300.2z"/>
	<path id="XMLID_632_" class="st1" d="M18.6,328.6h8.1c5.6,0,9.3,2.4,9.3,8.2c0,4.1-3.1,6.8-7,7.3v0.1c2.5,0.3,3.1,1.6,4.1,3.8
		l5.4,12.2H35l-4.6-10.7c-1.8-4.1-3.2-4.2-6.1-4.2h-2.6v14.9h-3V328.6z M21.8,342.6H25c3.6,0,7.9-1.4,7.9-5.8c0-5.2-3.6-5.4-8-5.4
		h-3.2V342.6z"/>
	<path id="XMLID_631_" class="st1" d="M59.2,354.7c0,1.7,0,3.5,0.2,5.4h-2.8V356h-0.1c-1,2.1-2.7,4.7-7.4,4.7
		c-5.7,0-7.9-3.8-7.9-8.9V337h2.9v14c0,4.3,1.6,7.2,5.4,7.2c5.2,0,6.8-4.6,6.8-8.4V337h2.9V354.7z"/>
	<path id="XMLID_630_" class="st1" d="M62.3,356.9c1.7,0.9,3.8,1.5,6.1,1.5c2.7,0,5.1-1.5,5.1-4.1c0-5.4-11.1-4.6-11.1-11.3
		c0-4.6,3.7-6.3,7.5-6.3c1.2,0,3.6,0.3,5.7,1l-0.3,2.5c-1.5-0.7-3.5-1.1-5.1-1.1c-2.9,0-5,0.9-5,3.8c0,4.3,11.3,3.7,11.3,11.3
		c0,4.9-4.6,6.6-8,6.6c-2.2,0-4.4-0.3-6.5-1.1L62.3,356.9z"/>
	<path id="XMLID_629_" class="st1" d="M77.6,356.9c1.7,0.9,3.8,1.5,6.1,1.5c2.7,0,5.1-1.5,5.1-4.1c0-5.4-11.1-4.6-11.1-11.3
		c0-4.6,3.7-6.3,7.5-6.3c1.2,0,3.6,0.3,5.7,1l-0.3,2.5c-1.5-0.7-3.5-1.1-5.1-1.1c-2.9,0-5,0.9-5,3.8c0,4.3,11.3,3.7,11.3,11.3
		c0,4.9-4.6,6.6-8,6.6c-2.2,0-4.4-0.3-6.5-1.1L77.6,356.9z"/>
	<path id="XMLID_626_" class="st1" d="M97.6,330.9h-2.9v-3.8h2.9V330.9z M94.7,337.1h2.9v23.1h-2.9V337.1z"/>
	<path id="XMLID_623_" class="st1" d="M115.7,356.4L115.7,356.4c-1.4,2.8-4.6,4.2-7.4,4.2c-6.6,0-7.6-4.4-7.6-6.5
		c0-7.8,8.2-8.1,14.2-8.1h0.5v-1.2c0-4-1.4-6-5.3-6c-2.4,0-4.7,0.5-6.8,1.9V338c1.7-0.9,4.8-1.6,6.8-1.6c5.7,0,8.1,2.6,8.1,8.6v10.2
		c0,1.8,0,3.3,0.3,4.8h-2.8C115.7,360.1,115.7,356.4,115.7,356.4z M115.5,348.6h-0.8c-4.9,0-10.8,0.5-10.8,5.5c0,3,2.2,4.1,4.8,4.1
		c6.7,0,6.8-5.9,6.8-8.3V348.6z"/>
	<path id="XMLID_620_" class="st1" d="M144.4,258.4c1.2,1.7,5.2,6.8,12.7,12.4C148.8,265.1,145.4,260.1,144.4,258.4 M179.4,280.7
		c0,0-8-3.7-14.1-9.2c0,0,3.5,2.4,6.9,4c0,0,5.9,2.9,11.8,4.7c0,0-2-0.6-3.9-1.9c0,0-10.9-6.1-11.4-6.9c0,0,4.2,2.4,4.8,2.6
		c0,0,1,0.6,1.4,0.8c0,0,0-0.3-0.9-0.6c0,0-4.9-2.9-6.1-3.7c0,0-8.6-5-15.1-15.2c0,0-2.6,0.1-4,1.5c0,0-0.7,1-4.1,0.9
		c0,0,6.8,9.6,15.7,14.9c0,0,3.5,2.2,8.7,5.1c-4.3-2-8-4.1-11-6.1c-8.7-6.3-13-12.2-13.8-13.5c-0.1-0.2-0.1-0.3-0.2-0.3H144
		c0,0,0,0,0,0.1c0.1,0.1,3.4,7,15.2,14.5c5.2,3.6,11.8,7.3,20.1,10.4l0,0l0,0c-7.9-2.9-14.3-6.4-19.3-9.9c3,1.8,6.5,3.7,10.6,5.5
		c2.6,1.4,5.5,2.8,8.6,4.1c0,0-0.7-0.3-1.6-1.5c0,0,1.1,0.5,1.8,0.8c0,0-0.3-0.2-0.9-0.9c0,0,3,1.2,3.6,1.3
		C182.1,282.2,180.7,281.4,179.4,280.7"/>
	<path id="XMLID_619_" class="st1" d="M163.8,234C163.8,234,163.9,234,163.8,234c-1-0.8-1.9-1.6-2.9-2.2c-9.1-6.4-17.4-8.5-19.2-8.9
		c-0.2-0.1-0.3-0.1-0.3-0.1h-0.1v0.1c0.1,0,9.2,2.8,19.1,9.3c1,0.6,1.9,1.3,2.9,2c0,0,0.1,0,0.1-0.1c-1-0.7-2-1.4-2.9-2
		c-8.2-5.4-15.9-8.2-18.3-9.1c2.5,0.6,10.2,2.9,18.7,8.8C161.9,232.6,162.9,233.2,163.8,234"/>
	<path id="XMLID_618_" class="st1" d="M219,238.3c-0.1-0.1-0.2-0.1-0.2-0.2l0,0C218.9,238.3,219,238.3,219,238.3"/>
	<path id="XMLID_617_" class="st1" d="M229.4,252.3c0-0.1-0.1-0.1-0.1-0.2c1,2.4,1.5,4.8,1.7,6.7
		C230.8,256.5,230.3,254.4,229.4,252.3"/>
	<path id="XMLID_616_" class="st1" d="M218.4,238.4L218.4,238.4L218.4,238.4C218.4,238.4,218.4,238.4,218.4,238.4"/>
	<path id="XMLID_615_" class="st1" d="M164.2,234.4L164.2,234.4c-0.1-0.1-0.2-0.3-0.3-0.3c0,0,0,0-0.1,0
		C164,234.1,164.1,234.3,164.2,234.4"/>
	<path id="XMLID_614_" class="st1" d="M164,234.5c-0.2-0.1-0.3-0.2-0.4-0.3c0,0-0.1,0-0.1,0.1C163.6,234.4,163.7,234.5,164,234.5
		C163.9,234.5,163.9,234.5,164,234.5"/>
	<path id="XMLID_613_" class="st1" d="M218.4,238.3L218.4,238.3L218.4,238.3C218.3,238.3,218.3,238.3,218.4,238.3L218.4,238.3"/>
	<path id="XMLID_612_" class="st1" d="M218.3,238.3L218.3,238.3L218.3,238.3L218.3,238.3C218.3,238.3,218.3,238.3,218.3,238.3"/>
	<polygon id="XMLID_611_" class="st1" points="219,238.4 219,238.4 219,238.3 	"/>
	<path id="XMLID_610_" class="st1" d="M218.4,237.8L218.4,237.8L218.4,237.8C218.4,237.9,218.4,237.9,218.4,237.8L218.4,237.8z"/>
	<path id="XMLID_609_" class="st1" d="M221.8,241.4L221.8,241.4c0.7,0.7,1.2,1.3,1.7,1.9c-0.2-0.2-0.3-0.3-0.4-0.5
		C222.7,242.2,222.2,241.8,221.8,241.4"/>
	<path id="XMLID_608_" class="st1" d="M221.3,240.9c0.2,0.2,0.3,0.3,0.5,0.5C221.7,241.3,221.6,241.1,221.3,240.9"/>
	<path id="XMLID_604_" class="st1" d="M198.6,247.9C198.6,248,198.6,248,198.6,247.9C198.6,248,198.5,248,198.6,247.9
		c-0.1,0-0.1-0.4-0.3-1.2c0,0,0,0,0.1,0C198.5,247.6,198.6,247.9,198.6,247.9 M174.7,245.2c-1.3-1.5-2.9-3.3-5.1-5.3
		c0.3,0.1,0.5,0.1,0.8,0.2C171.8,241.5,173.2,243.3,174.7,245.2 M216.5,258.1c-0.2-0.3-0.3-0.5-0.6-0.8c0-0.1-0.1-0.1-0.1-0.2
		l-0.1-0.1c-0.8-1-1.6-1.8-2.5-2.6c-0.2-0.2-0.4-0.3-0.6-0.5c-1.5-1.2-3.1-2.3-4.7-3.2c-3.5-2.1-6.6-3.1-6.7-3.1l0,0l0,0
		c-0.7-0.3-1.5-0.7-2.3-1c-0.1,0-0.2-0.1-0.3-0.1c-0.1-0.1-0.3-0.1-0.3-0.2c-0.1,0-0.1,0-0.2-0.1c0,0,0,0-0.1,0s-0.2-0.1-0.2-0.1
		c-0.2-0.1-0.3-0.1-0.5-0.2c-1.3-0.4-2.8-1-4.2-1.4c-0.3-0.1-0.7-0.2-1-0.3c-2.2-0.6-4.6-1.2-7-1.8c-5.2-1.2-10.5-2.2-15.1-3.1
		c-0.1,0-0.1,0-0.2,0l0,0h-0.1c-0.3-0.1-0.6-0.1-0.9-0.2c-6.2-1.1-10.7-1.8-10.8-1.8l-1.7-0.3l1.6-0.6c1.9-0.7,3.6-1.3,5.2-1.9
		c-0.2-0.1-0.3-0.2-0.4-0.3c-5.7-4.1-13.1-8.1-22.5-11c0,0-3.1,1.6-2.5,4.5c0,0-0.1,3.5-3.5,4.5c0,0,21.9,5,33.6,17
		c0,0,11.2,9.5,15.7,28.6c0,0,0.2-1.6-0.1-3.5c0,0,0.8,1.6,1.2,3.4c0,0,0-1.2-0.3-2c0,0,1.3,3.1,1.7,5.6c0,0-1.8-14.7-9.5-28
		c0,0,5.6,2.2,12,26.2c0,0-2.9-20.1-11.2-30.9c0,0-0.8-1.2-2.4-3.2c-1.6-2.1-3.1-4-4.8-5.7h0.1c6.4,6.1,12.4,14.2,15,24.6
		c0,0,0,0.1,0.1,0c0,0,0.1,0,0-0.1c-2.7-10.5-8.6-18.5-15-24.6c4.5,0.9,9.7,1.9,14.7,3c3,10.4,5.7,23.3,5.4,36.6
		c0,0,0.4-11.2,0.4-13.1c0,0,0.6,5.7,0.4,7.4c0,0,0.3-2.2,0.4-4.1c0,0,0.7,2.9,1,10.1c0,0,1.2-5.1,1-19.4c0,0,0.1-7.4-1.6-15.6
		c0.3,0.1,0.7,0.2,1,0.3c0.3,1,0.5,2.1,0.8,3c0,0,3.8,13.7,2.5,32.9c0,0,1.8-3.4,2.6-16.7c0,0,0.2-8.8-1.6-17.9
		c0.2,0.1,0.3,0.1,0.5,0.2c0.2,0.9,0.3,1.8,0.5,2.8c0,0,2.7,12.9,0.3,25.9c0,0-0.6,6.3-1.5,8.6c0,0,1.4-2.7,2.6-14.1
		c0,0,1.3-8.1-0.7-19.2c0,0-0.3-1.6-0.8-3.8c0.2,0.1,0.3,0.1,0.4,0.2c0.1,0.3,0.2,0.8,0.3,1.1c0,0.1,2.4,10.4,1,22.3
		c0,0.1,0,0.1,0.1,0.1c0.1,0,0.1,0,0.1-0.1c1.4-11.9-1-22.2-1-22.4c-0.1-0.3-0.2-0.7-0.3-1c0.7,0.3,1.4,0.6,2,0.9l0,0l0,0l0,0
		c0.1,0,3.2,1.1,6.7,3.2c-0.7,8.6-2.8,18.2-7.9,27.6c0,0,2.8-4.3,3.8-7.4c0,0-1,4.5-1.6,5.8c0.3-0.5,1.1-1.9,1.8-2.9
		c0,0-0.3,2.1-3.5,7.3c0,0,8.6-8.7,12.1-27.3c0.3,0.2,0.5,0.4,0.7,0.6c-0.1,2.9-0.6,7.1-2.1,12c0,0-2.9,10.1-8.9,17
		c0,0,8.2-5.1,13.6-26.2c0.2,0.3,0.3,0.5,0.6,0.8c-1.4,4.9-3.6,11.2-7.3,17.5c0,0.1,0,0.1,0,0.2c0.1,0,0.1,0,0.2,0
		c3.6-6.2,5.9-12.4,7.3-17.3c0.1-0.2,0.1-0.3,0.2-0.5C216.6,258.2,216.5,258.1,216.5,258.1"/>
	<path id="XMLID_593_" class="st1" d="M221.9,241.4C221.8,241.4,221.8,241.4,221.9,241.4c-0.2-0.2-0.3-0.3-0.6-0.5
		c-0.1-0.1-0.3-0.2-0.3-0.3c-0.6-0.6-1.2-1.1-1.9-1.6c0-0.1,0-0.3,0-0.3c1.5,1.3,2.9,2.7,4.1,4.1c0.2,0.2,0.3,0.3,0.4,0.5
		C223,242.7,222.5,242,221.9,241.4 M218.4,238.3c0-0.1,0-0.4,0-0.3c0.2,0.2,0.3,0.3,0.5,0.4c0,0.1,0,0.3,0,0.3
		C218.7,238.6,218.5,238.4,218.4,238.3 M218.3,228.6c0.3,3,0.5,6.2,0.5,9.7c-0.2-0.2-0.3-0.3-0.5-0.4c0-0.1,0-0.3,0-0.3
		c0.1-1.6,0.1-3.4,0.1-5.1C218.4,231.2,218.4,229.9,218.3,228.6 M201,228.2c-2.9-1.2-5.7-2.3-8.3-3.2c0-0.1-0.1-0.2-0.1-0.3
		c0-0.1,0-0.1-0.1-0.2c3.2,1,6.7,2.3,10.4,3.9c1.3,0.6,2.7,1.2,4,1.9c0,0.1,0,0.2,0.1,0.3c0,0.1,0,0.3,0.1,0.3
		C205,230,202.9,229,201,228.2 M192.3,224.9c0-0.1-0.1-0.2-0.1-0.3s0-0.1-0.1-0.2h0.1c0,0.1,0.1,0.1,0.1,0.2
		S192.4,224.8,192.3,224.9C192.4,224.9,192.3,224.9,192.3,224.9 M191.7,224.7c0-0.1-0.1-0.2-0.1-0.2c0-0.1,0-0.1-0.1-0.2
		c0.2,0.1,0.3,0.1,0.6,0.2c0,0.1,0,0.1,0.1,0.2c0,0.1,0.1,0.2,0.1,0.3L191.7,224.7z M190.9,221c0.4,1.1,0.9,2.2,1.3,3.4h-0.1
		C191.8,223.2,191.4,222.1,190.9,221 M176,192.2c-5.7-8-10.7-12.3-12.9-13.9c11.2,7.1,19.4,21.9,24.7,34.8
		C183.8,203.9,179.5,197.1,176,192.2 M210,201.5c-2.7-4.4-5.5-7.4-7.6-9.4c9.8,7.9,13.8,19.6,15.3,30.4
		C215.8,213.1,212.8,206.2,210,201.5 M231.1,258.8c-0.3-1.9-0.8-4.1-1.7-6.7c-1.2-2.9-2.9-5.6-5-8c-1.6-2.1-3.4-4-5.3-5.6l0,0l0,0
		c-0.1-5.1-0.4-9.7-1.1-13.8c-1.3-12-5.5-25.4-17.1-33.7c-1.3-1-2.1-1.5-2.1-1.5c-0.1,0-0.1,0-0.2,0c0,0.1,0,0.1,0,0.2
		c0.1,0,5.9,3.3,11.2,12.1c3.2,5.3,6.7,13.4,8.2,24.9c0.2,2,0.3,4,0.3,5.8c0,1,0,2,0,2.9c-0.2-5.5-1.6-24.7-12.7-38.5
		c0,0-3.4-4.3-7.2-6.7c0,0,0.1,2.5-4.8,4.8c0,0-2.6,1.2-5.4,4.9c0,0,12.1,6.4,17.6,25.9c0,0,0.5,1.7,1,4.7c-1.3-0.7-2.7-1.3-3.9-1.9
		c-3.6-1.6-7.2-2.9-10.5-3.9c-1.3-3.6-2.7-7.1-4.1-10.2c-5.4-13.3-13.8-29-25.6-36.3c-0.6-0.4-0.9-0.6-0.9-0.6c-0.1,0-0.1,0-0.2,0
		c0,0.1,0,0.1,0,0.2c0.3,0,6.5,4.1,14.3,14.7c4.3,6,9.7,14.9,14.6,27.3c0.6,1.6,1.1,3.2,1.6,4.8c-0.2-0.1-0.3-0.1-0.6-0.2
		c-2.6-6.9-6-15-9.9-21.4c0,0-8.3-14.7-20.2-24.4c0,0,1.5,3.1-6.8,6.2c-3.2,1.2-3.4,4.9-4.3,9.7c0,0,12.3,3.6,26.6,26.5
		c0,0,0.3,0.6,0.8,1.7c0.1,0.2,0.2,0.3,0.3,0.5c0.3-0.6,0.4-1,0.4-1l0.1-0.3l0.3,0.1c4.9,0.7,10.7,2.5,10.8,2.5
		c0.8,0.3,1.5,0.4,2.2,0.7c0-0.1-0.1-0.2-0.1-0.2c0.2,0.1,0.3,0.1,0.5,0.2c0,0.1,0.1,0.2,0.1,0.2s0,0,0.1,0c0-0.1-0.1-0.2-0.1-0.2
		h0.1c0,0.1,0.1,0.2,0.1,0.2c0.1,0,0.2,0.1,0.3,0.1c0-0.1-0.1-0.2-0.1-0.2c2.6,0.9,5.4,1.9,8.2,3.2c2,0.9,4,1.8,6.1,2.9v0.1
		c5,2.6,8.6,5.1,11.2,7l0,0l0.1,0.1c0,0,0,0,0.1,0l0.1,0.1c0.2,0.1,0.3,0.3,0.4,0.3c0.1,0.1,0.2,0.1,0.2,0.2
		c1.7,1.4,3.3,2.9,4.8,4.6c3,3.8,5.3,8.3,6.1,13.5c0,0,0,0.1,0.1,0c0,0,0.1,0,0.1-0.1c-0.6-3.8-2-7.3-3.9-10.4
		c-0.3-0.6-0.8-1.2-1.1-1.7c1.8,2.2,3.3,4.8,4.4,7.3c3.3,8.1,2.1,17.2-3.5,27c-0.9,1.6-1.8,3-2.9,4.6l0,0l0,0
		c1.2-1.7,2.3-3.5,3.3-5.2C230.1,271.7,231.8,265,231.1,258.8"/>
	<path id="XMLID_592_" class="st1" d="M221.6,241.7c0,0-10.2-10.6-32.1-17c0,0-5.8-1.8-10.7-2.5c0,0-1.9,4.8-4.8,7.3
		c-2.8,2.5-9.2,5.1-15.8,7.4c0,0,31.8,4.8,43.2,10.1c0,0,28.5,9.9,13.1,28c0,0-3,4-7.5,6.7c0,0,0.8-0.2,2.5-1.5c0,0-1.4,2.2-5.8,4.8
		c0,0,3.8-1.2,10.4-6.2c0,0,8.5-6.3,9.5-15.7c0,0,0.9-4.7-0.8-9.5c1,1.6,3.5,5.7,2.6,11.6c-1.2,8.7-8.6,17.4-22,25.9c0,0,0,0,0,0.1
		c0,0,0,0,0.1,0c13.4-8.5,20.8-17.2,22-25.9c0.8-5.7-1.4-9.9-2.5-11.5c0.7,0.8,2.9,3.6,2.9,9.3c0,0,1,14.6-19.8,27.4
		c0,0,3.9-1.3,9.8-5.4c0,0,19.8-12.7,11.5-33.3c0,0,5,7.8,0.9,19.2c0,0-2.2,7.7-12.4,16.3c0,0,4.8-2.2,9-8.9c0,0,5.4-7.3,5.4-15.3
		C230.5,263.5,231.6,251.7,221.6,241.7"/>
</g>
</svg>
