<?xml version="1.0" encoding="utf-8"?>
<!-- Generator: Adobe Illustrator 21.0.0, SVG Export Plug-In . SVG Version: 6.00 Build 0)  -->
<svg version="1.1" id="logo_art" xmlns="http://www.w3.org/2000/svg" xmlns:xlink="http://www.w3.org/1999/xlink" x="0px" y="0px"
	 viewBox="0 0 101.4 59" style="enable-background:new 0 0 101.4 59;" xml:space="preserve">
<style type="text/css">
	.st0{fill:#808080;}
</style>
<g>
	<polygon class="st0" points="80,59 86.7,14.2 98.8,14.2 98,19.4 93.5,19.4 92.6,26.8 96.9,26.8 96.2,32 91.8,32 87.8,59 	"/>
	<path class="st0" d="M52.1,14.4L41.6,47.7h7.3l1.6-6.7h2.5l-0.3,6.7h6.6l1.5-33.3H52.1z M54.1,35.9h-2.7l4-15L54.1,35.9z"/>
	<path class="st0" d="M66.5,14.3l-4,27.6c0,0-1.2,6.5,7.9,6.3c7.8-0.2,8.5-6.1,8.5-6.1L83,14.2h-6.6l-4,27.1c0,0,0.2,2-1.6,1.9
		c-1.8-0.1-1.4-1.5-1.4-1.5l4.1-27.4L66.5,14.3z"/>
	<polygon class="st0" points="22.7,47.8 28.9,47.8 31.3,32.9 32.3,47.5 39.6,47.6 44.5,14.6 38.2,14.6 36.1,27.4 35.2,14.6 
		27.8,14.6 	"/>
	<polygon class="st0" points="13.3,47.8 20.6,47.8 18.6,30.3 24.7,14.8 18.1,14.8 13.5,27.2 16.8,2.2 9.9,2.2 3,47.9 10,47.9 
		12.4,33.7 	"/>
</g>
</svg>
