<?xml version="1.0" encoding="utf-8"?>
<!-- Generator: Adobe Illustrator 21.0.0, SVG Export Plug-In . SVG Version: 6.00 Build 0)  -->
<svg version="1.1" id="Слой_1" xmlns="http://www.w3.org/2000/svg" xmlns:xlink="http://www.w3.org/1999/xlink" x="0px" y="0px"
	 viewBox="0 0 17.9 26.1" style="enable-background:new 0 0 17.9 26.1;" xml:space="preserve">
<style type="text/css">
	.st0{fill:#CE112D;}
</style>
<g>
	<g>
		<g>
			<path class="st0" d="M6.3,6.2c0,0-3.1,0.3-5.1,0.5C1.1,6.7,0.9,6.8,0.9,7s0,0.3,0.2,0.5c1.5,1.5,3.8,3.6,3.8,3.6s-0.7,2.9-1,5.1
				c0,0.2,0,0.3,0.2,0.5s0.3,0.2,0.5,0c1.8-1,4.4-2.6,4.4-2.6s2.6,1.5,4.4,2.6c0.2,0.2,0.3,0.2,0.5,0s0.2-0.3,0.2-0.5
				c-0.3-2.1-1-5.1-1-5.1s2.3-2.1,3.8-3.4c0.2-0.2,0.2-0.3,0.2-0.5s-0.2-0.3-0.3-0.3c-2.1-0.3-5.1-0.7-5.1-0.7s-1.3-2.8-2.1-4.7
				c0-0.2-0.3-0.3-0.5-0.3S8.6,1.3,8.4,1.4C7.6,3.4,6.3,6.2,6.3,6.2z"/>
		</g>
	</g>
</g>
</svg>
