<?xml version="1.0" encoding="utf-8"?>
<!-- Generator: Adobe Illustrator 21.0.0, SVG Export Plug-In . SVG Version: 6.00 Build 0)  -->
<svg version="1.1" id="Слой_1" xmlns="http://www.w3.org/2000/svg" xmlns:xlink="http://www.w3.org/1999/xlink" x="0px" y="0px"
	 width="17.9px" height="26.1px" viewBox="0 0 17.9 26.1" style="enable-background:new 0 0 17.9 26.1;" xml:space="preserve">
<style type="text/css">
	.st0{fill:#CE112D;}
</style>
<path d="M367.1,166.1c0.1,0.1,0.3,0.1,0.5,0.2c0.2,0.1,0.2,0,0.3-0.1c0.1-0.2,0.2-0.4,0.2-0.6c0.1-0.2,0.1-0.4,0.1-0.7
	s-0.2-0.5-0.5-0.6c-0.1,0-0.2,0-0.3,0c-0.2,0.1-0.3,0.1-0.5,0c-0.1-0.1-0.3-0.1-0.4-0.1s-0.2,0-0.2,0l-0.1-0.1c0-0.1,0-0.1,0.1-0.1
	h0.1c-0.1-0.1-0.1-0.1-0.2-0.1c-0.1-0.1-0.1-0.1,0-0.2l0.1-0.1c0.1,0,0.1,0,0.2,0c0.2-0.1,0.4-0.1,0.6-0.3c0.6-0.3,1.1-0.3,1.6,0.2
	c0.1,0.1,0.2,0.3,0.2,0.4c0.1,0.3,0.3,0.6,0.4,1c0.2,0,0.4,0,0.6,0c0.2-0.3,0.3-0.6,0.4-1c0.2-0.5,0.8-0.9,1.3-0.8
	c0.2,0,0.5,0.1,0.6,0.3l0.1,0.1c0.1,0,0.2,0,0.3,0.1c0.1,0,0.3,0.1,0.3,0.3c-0.1,0.1-0.2,0.1-0.3,0.2c0.1,0,0.1,0,0.2,0.1
	c0.1,0,0.1,0.1,0,0.1c0,0-0.1,0-0.1,0.1c-0.1,0-0.2,0-0.3,0c-0.1,0-0.2,0-0.3,0.1c-0.1,0.1-0.2,0.1-0.4,0.1l0,0
	c-0.4-0.1-0.8,0.1-0.8,0.6c0,0.4,0,0.8,0.2,1.2c0,0.1,0.1,0.1,0.1,0.1c0.1,0.1,0.1,0.1,0.2,0.1c0.2-0.1,0.4-0.1,0.5-0.2
	c0-0.2,0.1-0.4,0.1-0.6c0.1-0.2,0.2-0.5,0.3-0.7c0.4-0.5,0.9-0.7,1.5-0.5c0.2,0.1,0.4,0.1,0.5,0.2c0.2,0.1,0.2,0.2,0.2,0.3
	s0,0.3,0.1,0.4c0.1,0.1,0.1,0.3,0.2,0.4c0.1,0.3,0.2,0.6,0.4,1c0.1,0.2,0.1,0.5,0.1,0.7c0,0.3,0,0.5,0,0.8c0,0.1,0.1,0.3,0.1,0.4
	c0.1,0.3,0,0.4-0.2,0.6c-0.2,0.1-0.2,0.2-0.2,0.4s0.1,0.4,0.1,0.6c0,0.1,0.1,0.2,0.1,0.3s0,0.1,0,0.2h-0.1c-0.5-0.1-0.9-0.3-1.3-0.6
	c-0.2-0.2-0.4-0.4-0.5-0.6c-0.1-0.2-0.3-0.4-0.5-0.5c-0.1-0.1-0.2-0.2-0.3-0.3c-0.1-0.1-0.2-0.1-0.3,0c-0.2,0.2-0.5,0.2-0.8,0.2V169
	c-0.1,0-0.3,0-0.4,0.1c0,0.1,0.1,0.1,0.1,0.1c0.1,0.1,0.2,0.3,0.3,0.4c0.2,0.2,0.3,0.4,0.3,0.6c0,0.1,0,0.2,0.1,0.3
	c0,0.1,0.1,0.1,0.1,0.2c0.1,0.2,0.3,0.2,0.5,0.2c0.1,0,0.1,0,0.2-0.1s0.3-0.2,0.4-0.2s0.3,0,0.4,0.1c0.1,0,0.3,0,0.4,0.1
	c0,0.1-0.1,0.2,0.1,0.3c-0.1,0-0.1,0.1-0.2,0.1l0.1,0.1c0,0.1,0,0.1,0,0.1c-0.1,0-0.2,0-0.3,0c-0.2,0-0.4,0-0.7,0
	c-0.1,0-0.2,0-0.2,0.1c-0.1,0.1-0.2,0.2-0.3,0.4l-0.1,0.1l-0.1-0.1c0-0.1,0-0.1,0-0.2c0-0.1,0.1-0.3,0.2-0.4
	c-0.2-0.2-0.4-0.5-0.6-0.7c0,0-0.1-0.1-0.2-0.1s-0.3,0-0.4,0s-0.3-0.1-0.4-0.1c-0.1-0.1-0.1-0.1-0.2,0c0.4,0.9,0.8,1.9,1.1,2.8
	c-0.2,0.3-0.4,0.4-0.7,0.3c-0.2,0.1-0.3,0.2-0.5,0.2c-0.2,0.1-0.3-0.1-0.4-0.2c-0.2,0.1-0.3,0.3-0.5,0.2c-0.2,0-0.3-0.1-0.5-0.2
	c-0.1,0.1-0.2,0.2-0.4,0.2c-0.1,0-0.3-0.1-0.5-0.2c-0.1,0-0.3,0-0.5,0c-0.1-0.1-0.2-0.1-0.3-0.3c0.4-0.9,0.8-1.9,1.1-2.8
	c0-0.1-0.1-0.1-0.2-0.1c-0.2,0.2-0.5,0.2-0.8,0.2c-0.1,0-0.2,0-0.3,0.1c-0.2,0.2-0.4,0.4-0.6,0.6c0.1,0.1,0.1,0.3,0.2,0.4
	c0,0.1,0,0.1,0,0.2c0,0.1-0.1,0.1-0.2,0s-0.2-0.2-0.3-0.4c-0.1-0.1-0.1-0.1-0.2-0.1c-0.2,0-0.4,0-0.6,0c-0.1,0-0.2,0-0.4,0
	c-0.1,0-0.1-0.1-0.1-0.2c0,0,0.1,0,0.1-0.1c-0.1,0-0.1-0.1-0.2-0.1c0-0.1,0-0.2,0-0.3c0.1-0.1,0.2-0.1,0.4,0
	c0.1-0.1,0.2-0.2,0.4-0.1c0.1,0.1,0.3,0.1,0.4,0.2c0.2,0.2,0.5,0.1,0.7-0.1c0.1-0.1,0.1-0.1,0.2-0.2c0.1-0.1,0.1-0.1,0.1-0.2
	c0-0.3,0.1-0.5,0.3-0.6c0.2-0.1,0.3-0.3,0.4-0.5c-0.2-0.1-0.2-0.1-0.4-0.1v0.1c-0.3,0-0.5,0-0.7-0.2c-0.2-0.1-0.2-0.1-0.4,0
	c-0.1,0.1-0.2,0.2-0.3,0.3c-0.1,0.1-0.2,0.2-0.3,0.4c-0.1,0.2-0.2,0.3-0.3,0.5c-0.3,0.4-0.7,0.6-1.2,0.8c-0.1,0-0.2,0.1-0.4,0.1
	h-0.1c0-0.1,0-0.2,0-0.3c0.1-0.2,0.1-0.4,0.2-0.6c0-0.1,0-0.2,0-0.4c0-0.1,0-0.2-0.1-0.2c0,0-0.1,0-0.1-0.1
	c-0.2-0.1-0.3-0.3-0.2-0.5c0-0.2,0.1-0.3,0.1-0.5c0.1-0.2,0.1-0.4,0-0.6c-0.1-0.3,0-0.6,0.1-0.9c0.1-0.2,0.2-0.5,0.3-0.7
	c0.1-0.2,0.1-0.4,0.3-0.6c0,0,0-0.1,0-0.2c0-0.1,0-0.1,0-0.2c0-0.1,0-0.1,0.1-0.2c0.5-0.3,1.2-0.5,1.8-0.1c0.3,0.2,0.6,0.5,0.7,0.9
	C367,165.6,367.1,165.8,367.1,166.1z"/>
<image style="overflow:visible;" width="800" height="600" xlink:href="71758955.jpg"  transform="matrix(1 0 0 1 -1221.5625 -384.9037)">
</image>
<g>
	<g>
		<g>
			<path class="st0" d="M6.3,6.2c0,0-3.1,0.3-5.1,0.5C1.1,6.7,0.9,6.8,0.9,7s0,0.3,0.2,0.5c1.5,1.5,3.8,3.6,3.8,3.6s-0.7,2.9-1,5.1
				c0,0.2,0,0.3,0.2,0.5c0.2,0.2,0.3,0.2,0.5,0c1.8-1,4.4-2.6,4.4-2.6s2.6,1.5,4.4,2.6c0.2,0.2,0.3,0.2,0.5,0
				c0.2-0.2,0.2-0.3,0.2-0.5c-0.3-2.1-1-5.1-1-5.1s2.3-2.1,3.8-3.4c0.2-0.2,0.2-0.3,0.2-0.5c0-0.2-0.2-0.3-0.3-0.3
				c-2.1-0.3-5.1-0.7-5.1-0.7s-1.3-2.8-2.1-4.7c0-0.2-0.3-0.3-0.5-0.3S8.6,1.3,8.4,1.4C7.6,3.4,6.3,6.2,6.3,6.2z"/>
		</g>
	</g>
</g>
</svg>
