<?xml version="1.0" encoding="utf-8"?>
<!-- Generator: Adobe Illustrator 21.0.0, SVG Export Plug-In . SVG Version: 6.00 Build 0)  -->
<svg version="1.1" id="Слой_1" xmlns="http://www.w3.org/2000/svg" xmlns:xlink="http://www.w3.org/1999/xlink" x="0px" y="0px"
	 viewBox="0 0 15 20.7" style="enable-background:new 0 0 15 20.7;" xml:space="preserve">
<style type="text/css">
	.st0{fill:#838D9D;}
	.st1{fill:#FFFFFF;}
</style>
<circle class="st0" cx="7.5" cy="7.5" r="7.5"/>
<g>
	<g>
		<g>
			<path class="st1" d="M5.9,5.5c0,0-1.8,0.2-3,0.3c0,0-0.1,0.1-0.1,0.2s0,0.2,0.1,0.3c0.9,0.9,2.2,2.1,2.2,2.1s-0.4,1.7-0.6,3
				c0,0.1,0,0.2,0.1,0.3s0.2,0.1,0.3,0c1-0.6,2.6-1.5,2.6-1.5S9,11,10.1,11.6c0.1,0.1,0.2,0.1,0.3,0s0.1-0.2,0.1-0.3
				c-0.2-1.2-0.6-3-0.6-3s1.3-1.2,2.2-2c0.1-0.1,0.1-0.2,0.1-0.3c0-0.1-0.1-0.2-0.2-0.2c-1.2-0.2-3-0.4-3-0.4S8.3,3.9,7.8,2.8
				c0-0.1-0.2-0.2-0.3-0.2S7.3,2.7,7.2,2.7C6.7,3.9,5.9,5.5,5.9,5.5z"/>
		</g>
	</g>
</g>
</svg>
