<?xml version="1.0" encoding="utf-8"?>
<!-- Generator: Adobe Illustrator 21.0.0, SVG Export Plug-In . SVG Version: 6.00 Build 0)  -->
<svg version="1.1" id="Слой_1" xmlns="http://www.w3.org/2000/svg" xmlns:xlink="http://www.w3.org/1999/xlink" x="0px" y="0px"
	 width="164.5px" height="167.7px" viewBox="0 0 164.5 167.7" style="enable-background:new 0 0 164.5 167.7;" xml:space="preserve"
	>
<style type="text/css">
	.st0{fill:#E5E5E5;}
	.st1{fill:#1577B3;}
	.st2{fill:#1F4384;}
	.st3{fill:#E6292B;}
	.st4{fill:#ED6948;}
	.st5{fill:#666A6E;}
	.st6{fill:#F8D409;}
	.st7{fill:#EAB020;}
	.st8{fill:#41B176;}
	.st9{fill:#116936;}
	.st10{fill:#E5262A;}
</style>
<g>
	<polygon class="st0" points="68.3,95.5 5,46.2 78.8,58.7 94,5.7 107.7,64.3 135.4,69.1 113.3,93.4 123.1,136.1 99,115.4 48,164.3 	
		"/>
	<polygon class="st1" points="45.7,55.7 16.8,51 54,64.9 	"/>
	<polygon class="st1" points="84.4,65.9 79.1,61.1 48.2,55.9 50.4,58 	"/>
	<polygon class="st2" points="54.4,66.7 16.2,52.2 40.9,69.1 	"/>
	<polygon class="st2" points="72.7,73.7 57.3,67.7 47,69.8 79.4,90.9 	"/>
	<polygon class="st2" points="42.8,70.5 71.8,93.1 77.5,91.6 45,70.3 	"/>
	<polygon class="st3" points="86.9,65.3 90.9,34.2 89.1,31.9 81.5,59.5 	"/>
	<polygon class="st3" points="88.6,64.5 98.9,53.5 97.5,40.9 92.2,34.9 	"/>
	<polygon class="st3" points="89.5,30.2 97.3,38.6 93.9,13.5 	"/>
	<polygon class="st4" points="95.4,16.3 98.3,38.4 99.4,35.6 	"/>
	<polygon class="st4" points="99.9,37 98.6,40.5 100,53.2 105.7,64.1 	"/>
	<polygon class="st5" points="106.9,66.2 124.9,68.8 124.8,69.3 106.7,68.9 	"/>
	<polygon class="st5" points="125.8,69 125.8,73.4 133,70 	"/>
	<polygon points="126,74.7 126.9,76.8 133.1,70.8 	"/>
	<polygon points="119.9,77.9 125,75.1 126.2,77.6 113.2,91.2 	"/>
	<polygon class="st5" points="107.6,70 124.8,70.1 124.8,73.9 119.2,76.6 	"/>
	<polygon class="st6" points="112.5,95.2 117.8,118.2 116.7,118.2 113.1,108.5 	"/>
	<polygon class="st6" points="117,119.5 118.2,119.4 120.7,130.1 	"/>
	<polygon class="st7" points="116.1,120.1 120.3,131.7 114.8,126.5 	"/>
	<polygon class="st7" points="114.2,124 115.2,118.1 111.6,109.4 101.8,107.9 	"/>
	<polygon class="st7" points="100.9,109.1 113.6,125.3 100.5,113.8 	"/>
	<polygon class="st8" points="71.5,95.5 78.8,93.5 63.3,128.6 61.5,129.4 	"/>
	<polygon class="st8" points="80.2,94.3 82.8,112 73.3,125.1 65.2,128 	"/>
	<polygon class="st9" points="84.2,113.3 75.6,125.4 73.9,133.6 97.5,108.5 	"/>
	<polygon class="st9" points="98.7,109.3 97.9,113.7 74,135.5 	"/>
	<polygon class="st9" points="73.4,128.3 71.7,137.3 56.4,152.2 	"/>
	<polygon class="st8" points="72.1,127.1 54.6,152.3 61.1,131.3 	"/>
	<polygon class="st1" points="84.9,67.6 73.5,72.3 57.8,66.3 51.4,59.7 	"/>
	<polygon class="st10" points="102.3,82.5 105.4,80.3 105.9,84.1 	"/>
	<polygon class="st10" points="106.3,80.4 106.8,84.1 108.4,83 	"/>
	<polygon class="st10" points="102,83.5 105.8,84.9 103.3,88.7 	"/>
	<polygon class="st10" points="106.4,85.5 107.2,88.6 104,89.2 	"/>
	<polygon class="st10" points="107,84.9 108.8,83.7 107.8,88.1 	"/>
	<path class="st4" d="M105.1,78.5c-0.4-0.1-0.9-0.2-1.4-0.2c-0.1,0-0.1,0-0.2,0l-3.3-22.6l5.5,10.4L105.1,78.5z"/>
	<path class="st5" d="M108.8,81.7c-0.6-1.2-1.6-2.2-2.7-2.8l0.6-8.2l11.4,6.6L108.8,81.7z"/>
	<path d="M109.2,88.2c0.3-0.9,0.5-1.8,0.5-2.8c0-0.8-0.1-1.5-0.3-2.2l8.8-4.6L112,91.3L109.2,88.2z"/>
	<path class="st6" d="M108.5,89.6l2.8,3.3l0.9,13.8l-5.3-15.3C107.5,90.9,108.1,90.3,108.5,89.6z"/>
	<path class="st7" d="M103.2,92.5c0.2,0,0.3,0,0.5,0c0.7,0,1.3-0.1,1.9-0.4l5.6,16l-10-1.5L103.2,92.5z"/>
	<path class="st9" d="M100.4,91.3c0.4,0.3,0.8,0.6,1.3,0.8l-2.5,14.4L85.7,111L100.4,91.3z"/>
	<path class="st8" d="M98.1,87.9c0.3,0.9,0.8,1.8,1.4,2.5l-15,19.7l-2.6-17.2L98.1,87.9z"/>
	<path class="st2" d="M97.9,83.5c-0.2,0.6-0.2,1.3-0.2,1.9c0,0.2,0,0.5,0,0.7l-16.5,4.4l-5.9-15.9L97.9,83.5z"/>
	<g>
		<g>
			<path class="st1" d="M98.3,82.4c0.3-0.7,0.6-1.3,1-1.8L87,68.4l-11.4,4.9L98.3,82.4"/>
		</g>
	</g>
	<path class="st3" d="M102.5,78.5c-0.8,0.2-1.6,0.6-2.3,1.2L88.4,66.8l10.5-11.4L102.5,78.5"/>
</g>
</svg>
