<?xml version="1.0" encoding="utf-8"?>
<!-- Generator: Adobe Illustrator 21.0.0, SVG Export Plug-In . SVG Version: 6.00 Build 0)  -->
<svg version="1.1" id="_x32_3089359-8cc3-4db2-a3a0-9cf6f19eda22"
	 xmlns="http://www.w3.org/2000/svg" xmlns:xlink="http://www.w3.org/1999/xlink" x="0px" y="0px" viewBox="0 0 106 106"
	 style="enable-background:new 0 0 106 106;" xml:space="preserve">
<style type="text/css">
	.st0{fill:#CE112D;}
</style>
<title>icon</title>
<g id="UahwpO.tif">
	<g>
		<path class="st0" d="M8.9,84.9c0.2-0.9,0.3-1.9,0.5-2.8c0.8-3.7,2.8-6.7,6-8.8c1.6-1,3.2-2,4.9-2.6c4.6-1.6,8.8-4,13.1-6
			c2.6-1.2,4.7-2.8,6-5.3c0.4-0.8,1.2-1.4,1.8-2.1c0.1,0.1,0.2,0.1,0.3,0.2c0-2,0-3.9,0-5.9c0-0.2-0.2-0.4-0.3-0.6
			c-2.1-2.6-3.1-5.8-3.8-9c-0.1-0.6-0.5-1.3-0.9-1.8c-4.4-4.4-6.6-9.8-6.3-16c0.2-4.9,2.7-8.8,6.7-11.5c1.9-1.3,3.2-2.7,4-5
			c1.5-4.3,5.2-6.2,9.5-7c3.2-0.6,6.2-0.1,9.1,1.3c3.4,1.7,5.6,4.3,6.3,8.1c0.1,0.4,0.6,0.9,1,1.1c4.8,2.8,8.2,6.7,8.8,12.4
			c0.5,4.5-0.6,8.8-3.1,12.6c-0.9,1.5-2.2,2.7-3.3,4.1c-0.3,0.4-0.7,0.9-0.8,1.4c-0.6,3.4-1.7,6.6-3.9,9.4c-0.2,0.2-0.3,0.6-0.3,0.9
			c0,1.6,0,3.2,0,4.8c0,0.3,0.3,0.6,0.5,0.9c0.3,0.4,0.8,0.6,1.1,1c0.8,1.2,1.6,2.4,2.4,3.6c0.2,0.3,0.5,0.6,0.8,0.7
			c4.1,2,8.1,4.1,12.2,6.1c2.1,1,4.4,1.7,6.6,2.7c4.8,2.3,7.9,5.9,8.7,11.3c0.2,1.2,0.3,2.4,0.3,3.7c0,5.6,0,11.2,0,16.8
			c0,0.4,0,0.8,0,1.2c-1.1,0-2.2,0-3.3,0c0-5.9,0-11.8,0-17.6c0-7.4-2.1-10.7-9-13.4c-4-1.6-7.9-3.3-11.7-5.3
			c-0.2-0.1-0.3-0.1-0.8-0.2c1.1,1.7,2.1,3.1,3,4.5c0.8,1.3,0.1,2.5-1.4,2.6c-2.6,0.1-5.1,0.8-7.4,2.1c-7.4,4-12.7,10.1-16.6,17.5
			c-1.7,3.1-2.3,6.4-2,9.9c-1.1,0-2.2,0-3.3,0c0.1-1.9,0-3.8,0.4-5.7c0.9-4.1,3.1-7.7,5.5-11c0.5-0.6,0.4-1.1-0.1-1.7
			c-2.3-2.8-5-5.1-8-7c-3.4-2.1-6.9-3.9-11-4.1c-1.2,0-1.9-1.3-1.2-2.4c0.5-0.8,1-1.6,1.6-2.4c0.5-0.7,0.9-1.4,1.4-2.1
			c-0.6,0.1-1,0.3-1.5,0.5c-3.2,1.4-6.4,2.9-9.6,4.3c-1.8,0.8-3.7,1.7-5.4,2.7c-2.3,1.4-3.7,3.5-4.3,6.2c-0.2,0.9-0.4,1.9-0.4,2.8
			c0,6.6,0,13.3,0,19.9c-1.1,0-2.2,0-3.3,0C8.9,98.3,8.9,91.6,8.9,84.9z M43.6,27.6c-1.2,1.1-2.3,2.1-3.4,3.2
			c-0.2,0.2-0.3,0.5-0.3,0.7c0,4.2,0.1,8.4,1.2,12.5c1.1,4,3.4,7.1,7.7,8.2c1.6,0.4,3.3,0.5,4.9,0.5c5.4,0,9.2-2.8,10.9-7.9
			c1.4-4.4,1.5-8.9,1.5-13.4c0-0.2-0.1-0.5-0.3-0.6c-1.1-1.1-2.3-2.1-3.4-3.2C56.6,32.8,49.1,32.5,43.6,27.6z M69.3,35.3
			c0.1,0,0.2,0.1,0.3,0.1c0.7-1.5,1.5-3,2.1-4.5c1.2-3.7,1.6-7.4-0.2-11c-2.2-4.5-6-6.8-10.7-7.6c-4.8-0.9-9.8-0.6-14.6-0.2
			c-2.9,0.3-5.6,1.4-7.9,3.2c-4.7,3.7-5.7,8.6-4.3,14.2c0.5,2.1,1.4,4.1,2.8,6c0-2,0-3.7,0-5.5c0-1,0.5-1.5,1.4-1.8
			c0.5-0.2,1.1-0.4,1.5-0.8c1.2-1.1,1.9-2.5,2-4.2c0-0.9,0.6-1.5,1.5-1.5c0.9,0,1.4,0.6,1.7,1.4c0.2,0.9,0.6,1.9,1.2,2.5
			c3.3,3.5,10.9,3.4,14.1-0.1c0.5-0.6,0.9-1.4,1.1-2.1c0.3-1.2,0.7-1.7,1.7-1.7c1,0,1.5,0.6,1.5,1.9c0.1,1.9,1.7,4.3,3.2,4.7
			c1.5,0.4,1.7,0.7,1.7,2.3C69.3,32.1,69.3,33.7,69.3,35.3z M53.2,84.6c2.8-2.5,5.4-5,8.3-7.3c2.9-2.3,6.2-3.9,10-4.7
			c-2.6-3.9-5.1-7.7-7.7-11.6c-0.3,0.5-0.4,0.8-0.6,1.1c-2.8,5.6-5.7,11.3-8.5,16.9c-0.4,0.7-0.8,1.3-1.6,1.3
			c-0.9,0-1.3-0.6-1.6-1.3c-2.4-4.9-4.9-9.7-7.3-14.6c-0.6-1.1-1.1-2.2-1.8-3.5c-2.6,4-5.2,7.7-7.7,11.6
			C42.2,74.7,48.3,79,53.2,84.6z M53,75.2c0.3-0.6,0.5-0.9,0.6-1.2c2.2-4.3,4.2-8.7,6.6-13c1.2-2.2,0.9-4.5,1-7
			c-2.7,1.3-5.4,1.9-8.2,1.9c-2.8,0-5.6-0.5-8.2-1.8c0,1.1,0,2.1,0,3c-0.1,1.2,0.2,2.3,0.8,3.4c2.3,4.5,4.5,9,6.8,13.5
			C52.5,74.3,52.7,74.7,53,75.2z M43.5,9.3c6.4-1,12.6-1,18.8,0c0-0.1,0.1-0.1,0.1-0.2c0-0.1-0.1-0.3-0.1-0.4
			c-0.7-1.9-2.1-3.2-3.9-4.1c-2.4-1-4.9-1.2-7.4-0.9C49,4,47.1,4.6,45.6,6C44.6,6.8,43.9,7.9,43.5,9.3z"/>
		<path class="st0" d="M25.2,105c0-3.9,0-7.9,0-11.8c0-0.4,0-0.7,0-1.2c1.1,0,2,0,3.2,0c0,4.3,0,8.6,0,13
			C27.4,105,26.3,105,25.2,105z"/>
		<path class="st0" d="M77.5,105c0-3.9,0-7.8,0-11.7c0-0.4,0-0.8,0-1.3c1.1,0,2,0,3.2,0c0,4.3,0,8.6,0,13
			C79.7,105,78.6,105,77.5,105z"/>
		<path class="st0" d="M51.4,101.6c0-1,0-2,0-3c1,0,2,0,3.1,0c0,1,0,2,0,3C53.5,101.6,52.5,101.6,51.4,101.6z"/>
	</g>
</g>
</svg>
